%TF.GenerationSoftware,Altium Limited,Altium Designer,23.3.1 (30)*%
G04 Layer_Physical_Order=1*
G04 Layer_Color=255*
%FSLAX45Y45*%
%MOMM*%
%TF.SameCoordinates,A1CC21B4-FEDD-41E5-BD96-91964929AAF4*%
%TF.FilePolarity,Positive*%
%TF.FileFunction,Copper,L1,Top,Signal*%
%TF.Part,Single*%
G01*
G75*
%TA.AperFunction,SMDPad,CuDef*%
%ADD10R,0.55000X0.60000*%
%ADD11R,1.50000X0.30000*%
%ADD12R,0.30000X1.50000*%
%ADD13R,0.60000X0.60000*%
%ADD14R,3.25000X2.15000*%
%ADD15R,0.95000X2.15000*%
%ADD16R,0.60000X0.60000*%
%ADD17R,0.80000X0.80000*%
%TA.AperFunction,ConnectorPad*%
%ADD18R,0.60000X1.15000*%
%ADD19R,0.30000X1.15000*%
%ADD20R,2.18000X2.00000*%
%TA.AperFunction,SMDPad,CuDef*%
%ADD21R,0.80000X0.60000*%
%ADD22R,0.60000X0.55000*%
%ADD23R,1.30000X1.55000*%
%ADD24R,1.40000X1.20000*%
%ADD25R,1.50000X0.80000*%
%TA.AperFunction,Conductor*%
%ADD26C,0.12700*%
%ADD27C,0.13132*%
%ADD28C,0.50800*%
%ADD29C,1.01600*%
%ADD30C,0.25400*%
%ADD31C,0.10160*%
%TA.AperFunction,ComponentPad*%
%ADD32C,1.50000*%
%ADD33R,1.50000X1.50000*%
%ADD34R,1.50000X1.50000*%
%ADD35C,0.65000*%
%TA.AperFunction,ViaPad*%
%ADD36C,0.45000*%
G36*
X12142463Y4141538D02*
X8440523D01*
X8440523Y10888462D01*
X12142463D01*
X12142463Y4141538D01*
D02*
G37*
%LPC*%
G36*
X9140198Y10792701D02*
X9106348D01*
Y10756351D01*
X9140198D01*
Y10792701D01*
D02*
G37*
G36*
X8940198D02*
X8906347D01*
Y10756351D01*
X8940198D01*
Y10792701D01*
D02*
G37*
G36*
X8893647D02*
X8859798D01*
Y10756351D01*
X8893647D01*
Y10792701D01*
D02*
G37*
G36*
X9093648D02*
X9059798D01*
Y10756351D01*
X9093648D01*
Y10792701D01*
D02*
G37*
G36*
X9140198Y10743651D02*
X9106348D01*
Y10707301D01*
X9140198D01*
Y10743651D01*
D02*
G37*
G36*
X9093648D02*
X9059798D01*
Y10707301D01*
X9093648D01*
Y10743651D01*
D02*
G37*
G36*
X8940198D02*
X8906347D01*
Y10707301D01*
X8940198D01*
Y10743651D01*
D02*
G37*
G36*
X8893647D02*
X8859798D01*
Y10707301D01*
X8893647D01*
Y10743651D01*
D02*
G37*
G36*
X11594202Y10787700D02*
X11522852D01*
Y10703850D01*
X11594202D01*
Y10787700D01*
D02*
G37*
G36*
X11510152D02*
X11438802D01*
Y10703850D01*
X11510152D01*
Y10787700D01*
D02*
G37*
G36*
X10924198Y10755701D02*
X10808848D01*
Y10649351D01*
X10924198D01*
Y10755701D01*
D02*
G37*
G36*
X9902199D02*
X9786849D01*
Y10649351D01*
X9902199D01*
Y10755701D01*
D02*
G37*
G36*
X10796148D02*
X10680798D01*
Y10649351D01*
X10796148D01*
Y10755701D01*
D02*
G37*
G36*
X9774149D02*
X9658799D01*
Y10649351D01*
X9774149D01*
Y10755701D01*
D02*
G37*
G36*
X11594202Y10691150D02*
X11522852D01*
Y10607300D01*
X11594202D01*
Y10691150D01*
D02*
G37*
G36*
X11510152D02*
X11438802D01*
Y10607300D01*
X11510152D01*
Y10691150D01*
D02*
G37*
G36*
X10924198Y10636651D02*
X10808848D01*
Y10530301D01*
X10924198D01*
Y10636651D01*
D02*
G37*
G36*
X10796148D02*
X10680798D01*
Y10530301D01*
X10796148D01*
Y10636651D01*
D02*
G37*
G36*
X9902199D02*
X9786849D01*
Y10530301D01*
X9902199D01*
Y10636651D01*
D02*
G37*
G36*
X9774149D02*
X9658799D01*
Y10530301D01*
X9774149D01*
Y10636651D01*
D02*
G37*
G36*
X9137658Y10690161D02*
X9062338D01*
Y10609842D01*
X9083165D01*
Y10530159D01*
X9049838D01*
Y10429839D01*
X9150158D01*
Y10530159D01*
X9116832D01*
Y10609842D01*
X9137658D01*
Y10690161D01*
D02*
G37*
G36*
X8937658D02*
X8862338D01*
Y10609842D01*
X8883165D01*
Y10530159D01*
X8849838D01*
Y10429839D01*
X8950158D01*
Y10530159D01*
X8916831D01*
Y10609842D01*
X8937658D01*
Y10690161D01*
D02*
G37*
G36*
X10924198Y10362702D02*
X10808848D01*
Y10256352D01*
X10924198D01*
Y10362702D01*
D02*
G37*
G36*
X9902199D02*
X9786849D01*
Y10256352D01*
X9902199D01*
Y10362702D01*
D02*
G37*
G36*
X10796148D02*
X10680798D01*
Y10256352D01*
X10796148D01*
Y10362702D01*
D02*
G37*
G36*
X9774149D02*
X9658799D01*
Y10256352D01*
X9774149D01*
Y10362702D01*
D02*
G37*
G36*
X10924198Y10243652D02*
X10808848D01*
Y10137302D01*
X10924198D01*
Y10243652D01*
D02*
G37*
G36*
X10796148D02*
X10680798D01*
Y10137302D01*
X10796148D01*
Y10243652D01*
D02*
G37*
G36*
X9902199D02*
X9786849D01*
Y10137302D01*
X9902199D01*
Y10243652D01*
D02*
G37*
G36*
X9774149D02*
X9658799D01*
Y10137302D01*
X9774149D01*
Y10243652D01*
D02*
G37*
G36*
X10654200Y10186152D02*
X10617850D01*
Y10122302D01*
X10654200D01*
Y10186152D01*
D02*
G37*
G36*
X9965152D02*
X9928802D01*
Y10122302D01*
X9965152D01*
Y10186152D01*
D02*
G37*
G36*
X11594202Y9992700D02*
X11522852D01*
Y9908850D01*
X11594202D01*
Y9992700D01*
D02*
G37*
G36*
X11510152D02*
X11438802D01*
Y9908850D01*
X11510152D01*
Y9992700D01*
D02*
G37*
G36*
X11141660Y10785160D02*
X10991340D01*
Y10609840D01*
X11049667D01*
Y9990160D01*
X10991340D01*
Y9814840D01*
X11141660D01*
Y9990160D01*
X11083334D01*
Y10609840D01*
X11141660D01*
Y10785160D01*
D02*
G37*
G36*
X11594202Y9896150D02*
X11522852D01*
Y9812300D01*
X11594202D01*
Y9896150D01*
D02*
G37*
G36*
X11510152D02*
X11438802D01*
Y9812300D01*
X11510152D01*
Y9896150D01*
D02*
G37*
G36*
X11784547Y9830698D02*
X11779352D01*
Y9749348D01*
X11860701D01*
Y9754544D01*
X11854725Y9776849D01*
X11843179Y9796847D01*
X11826851Y9813175D01*
X11806852Y9824721D01*
X11784547Y9830698D01*
D02*
G37*
G36*
X11766652D02*
X11761456D01*
X11739151Y9824721D01*
X11719153Y9813175D01*
X11702824Y9796847D01*
X11691278Y9776849D01*
X11685302Y9754544D01*
Y9749348D01*
X11766652D01*
Y9830698D01*
D02*
G37*
G36*
X10515739Y9741243D02*
X10481889D01*
Y9704893D01*
X10515739D01*
Y9741243D01*
D02*
G37*
G36*
X10469189D02*
X10435339D01*
Y9704893D01*
X10469189D01*
Y9741243D01*
D02*
G37*
G36*
X12038213Y9828158D02*
X12015790D01*
X11994131Y9822354D01*
X11974712Y9811143D01*
X11958857Y9795287D01*
X11947645Y9775868D01*
X11941842Y9754210D01*
Y9731786D01*
X11947645Y9710128D01*
X11958857Y9690709D01*
X11974712Y9674853D01*
X11994131Y9663642D01*
X12015790Y9657838D01*
X12038213D01*
X12059872Y9663642D01*
X12079291Y9674853D01*
X12095146Y9690709D01*
X12106358Y9710128D01*
X12112161Y9731786D01*
Y9754210D01*
X12106358Y9775868D01*
X12095146Y9795287D01*
X12079291Y9811143D01*
X12059872Y9822354D01*
X12038213Y9828158D01*
D02*
G37*
G36*
X10515739Y9692193D02*
X10481889D01*
Y9655843D01*
X10515739D01*
Y9692193D01*
D02*
G37*
G36*
X10469189D02*
X10435339D01*
Y9655843D01*
X10469189D01*
Y9692193D01*
D02*
G37*
G36*
X11860701Y9736648D02*
X11779352D01*
Y9655298D01*
X11784547D01*
X11806852Y9661275D01*
X11826851Y9672821D01*
X11843179Y9689149D01*
X11854725Y9709147D01*
X11860701Y9731452D01*
Y9736648D01*
D02*
G37*
G36*
X11766652D02*
X11685302D01*
Y9731452D01*
X11691278Y9709147D01*
X11702824Y9689149D01*
X11719153Y9672821D01*
X11739151Y9661275D01*
X11761456Y9655298D01*
X11766652D01*
Y9736648D01*
D02*
G37*
G36*
X11784547Y9576698D02*
X11779352D01*
Y9495348D01*
X11860701D01*
Y9500544D01*
X11854725Y9522849D01*
X11843179Y9542847D01*
X11826851Y9559175D01*
X11806852Y9570721D01*
X11784547Y9576698D01*
D02*
G37*
G36*
X11766652D02*
X11761456D01*
X11739151Y9570721D01*
X11719153Y9559175D01*
X11702824Y9542847D01*
X11691278Y9522849D01*
X11685302Y9500544D01*
Y9495348D01*
X11766652D01*
Y9576698D01*
D02*
G37*
G36*
X12038213Y9574158D02*
X12015790D01*
X11994131Y9568354D01*
X11974712Y9557143D01*
X11958857Y9541287D01*
X11947645Y9521868D01*
X11941842Y9500210D01*
Y9477786D01*
X11947645Y9456128D01*
X11958857Y9436709D01*
X11974712Y9420853D01*
X11994131Y9409642D01*
X12015790Y9403838D01*
X12038213D01*
X12059872Y9409642D01*
X12079291Y9420853D01*
X12095146Y9436709D01*
X12106358Y9456128D01*
X12112161Y9477786D01*
Y9500210D01*
X12106358Y9521868D01*
X12095146Y9541287D01*
X12079291Y9557143D01*
X12059872Y9568354D01*
X12038213Y9574158D01*
D02*
G37*
G36*
X11860701Y9482648D02*
X11779352D01*
Y9401298D01*
X11784547D01*
X11806852Y9407275D01*
X11826851Y9418821D01*
X11843179Y9435149D01*
X11854725Y9455147D01*
X11860701Y9477452D01*
Y9482648D01*
D02*
G37*
G36*
X11766652D02*
X11685302D01*
Y9477452D01*
X11691278Y9455147D01*
X11702824Y9435149D01*
X11719153Y9418821D01*
X11739151Y9407275D01*
X11761456Y9401298D01*
X11766652D01*
Y9482648D01*
D02*
G37*
G36*
X11784547Y9322698D02*
X11779352D01*
Y9241348D01*
X11860701D01*
Y9246544D01*
X11854725Y9268849D01*
X11843179Y9288847D01*
X11826851Y9305175D01*
X11806852Y9316721D01*
X11784547Y9322698D01*
D02*
G37*
G36*
X11766652D02*
X11761456D01*
X11739151Y9316721D01*
X11719153Y9305175D01*
X11702824Y9288847D01*
X11691278Y9268849D01*
X11685302Y9246544D01*
Y9241348D01*
X11766652D01*
Y9322698D01*
D02*
G37*
G36*
X12038213Y9320158D02*
X12015790D01*
X11994131Y9314354D01*
X11974712Y9303143D01*
X11958857Y9287287D01*
X11947645Y9267868D01*
X11941842Y9246210D01*
Y9223786D01*
X11947645Y9202128D01*
X11958857Y9182709D01*
X11974712Y9166853D01*
X11994131Y9155642D01*
X12015790Y9149838D01*
X12038213D01*
X12059872Y9155642D01*
X12079291Y9166853D01*
X12095146Y9182709D01*
X12106358Y9202128D01*
X12112161Y9223786D01*
Y9246210D01*
X12106358Y9267868D01*
X12095146Y9287287D01*
X12079291Y9303143D01*
X12059872Y9314354D01*
X12038213Y9320158D01*
D02*
G37*
G36*
X11860701Y9228648D02*
X11779352D01*
Y9147298D01*
X11784547D01*
X11806852Y9153275D01*
X11826851Y9164821D01*
X11843179Y9181149D01*
X11854725Y9201147D01*
X11860701Y9223452D01*
Y9228648D01*
D02*
G37*
G36*
X11766652D02*
X11685302D01*
Y9223452D01*
X11691278Y9201147D01*
X11702824Y9181149D01*
X11719153Y9164821D01*
X11739151Y9153275D01*
X11761456Y9147298D01*
X11766652D01*
Y9228648D01*
D02*
G37*
G36*
X11784547Y9068698D02*
X11779352D01*
Y8987348D01*
X11860701D01*
Y8992544D01*
X11854725Y9014849D01*
X11843179Y9034847D01*
X11826851Y9051175D01*
X11806852Y9062721D01*
X11784547Y9068698D01*
D02*
G37*
G36*
X11766652D02*
X11761456D01*
X11739151Y9062721D01*
X11719153Y9051175D01*
X11702824Y9034847D01*
X11691278Y9014849D01*
X11685302Y8992544D01*
Y8987348D01*
X11766652D01*
Y9068698D01*
D02*
G37*
G36*
X12038213Y9066158D02*
X12015790D01*
X11994131Y9060354D01*
X11974712Y9049143D01*
X11958857Y9033287D01*
X11947645Y9013868D01*
X11941842Y8992210D01*
Y8969786D01*
X11947645Y8948128D01*
X11958857Y8928709D01*
X11974712Y8912853D01*
X11994131Y8901642D01*
X12015790Y8895838D01*
X12038213D01*
X12059872Y8901642D01*
X12079291Y8912853D01*
X12095146Y8928709D01*
X12106358Y8948128D01*
X12112161Y8969786D01*
Y8992210D01*
X12106358Y9013868D01*
X12095146Y9033287D01*
X12079291Y9049143D01*
X12059872Y9060354D01*
X12038213Y9066158D01*
D02*
G37*
G36*
X11860701Y8974648D02*
X11779352D01*
Y8893298D01*
X11784547D01*
X11806852Y8899275D01*
X11826851Y8910821D01*
X11843179Y8927149D01*
X11854725Y8947147D01*
X11860701Y8969452D01*
Y8974648D01*
D02*
G37*
G36*
X11766652D02*
X11685302D01*
Y8969452D01*
X11691278Y8947147D01*
X11702824Y8927149D01*
X11719153Y8910821D01*
X11739151Y8899275D01*
X11761456Y8893298D01*
X11766652D01*
Y8974648D01*
D02*
G37*
G36*
X11537659Y8890156D02*
X11462340D01*
Y8809836D01*
X11537659D01*
Y8890156D01*
D02*
G37*
G36*
X11784547Y8814698D02*
X11779352D01*
Y8733348D01*
X11860701D01*
Y8738544D01*
X11854725Y8760849D01*
X11843179Y8780847D01*
X11826851Y8797175D01*
X11806852Y8808721D01*
X11784547Y8814698D01*
D02*
G37*
G36*
X11766652D02*
X11761456D01*
X11739151Y8808721D01*
X11719153Y8797175D01*
X11702824Y8780847D01*
X11691278Y8760849D01*
X11685302Y8738544D01*
Y8733348D01*
X11766652D01*
Y8814698D01*
D02*
G37*
G36*
X9692709Y8742708D02*
X9656359D01*
Y8706358D01*
X9692709D01*
Y8742708D01*
D02*
G37*
G36*
X9643659D02*
X9607309D01*
Y8706358D01*
X9643659D01*
Y8742708D01*
D02*
G37*
G36*
X9692709Y8693658D02*
X9656359D01*
Y8657308D01*
X9692709D01*
Y8693658D01*
D02*
G37*
G36*
X9643659D02*
X9607309D01*
Y8657308D01*
X9643659D01*
Y8693658D01*
D02*
G37*
G36*
X12038213Y8812158D02*
X12015790D01*
X11994131Y8806354D01*
X11974712Y8795143D01*
X11958857Y8779287D01*
X11947645Y8759868D01*
X11941842Y8738210D01*
Y8715786D01*
X11947645Y8694128D01*
X11958857Y8674709D01*
X11974712Y8658853D01*
X11994131Y8647642D01*
X12015790Y8641838D01*
X12038213D01*
X12059872Y8647642D01*
X12079291Y8658853D01*
X12095146Y8674709D01*
X12106358Y8694128D01*
X12112161Y8715786D01*
Y8738210D01*
X12106358Y8759868D01*
X12095146Y8779287D01*
X12079291Y8795143D01*
X12059872Y8806354D01*
X12038213Y8812158D01*
D02*
G37*
G36*
X11860701Y8720648D02*
X11779352D01*
Y8639298D01*
X11784547D01*
X11806852Y8645275D01*
X11826851Y8656821D01*
X11843179Y8673149D01*
X11854725Y8693147D01*
X11860701Y8715452D01*
Y8720648D01*
D02*
G37*
G36*
X11766652D02*
X11685302D01*
Y8715452D01*
X11691278Y8693147D01*
X11702824Y8673149D01*
X11719153Y8656821D01*
X11739151Y8645275D01*
X11761456Y8639298D01*
X11766652D01*
Y8720648D01*
D02*
G37*
G36*
X10256499Y8696996D02*
X10243506D01*
X10231503Y8692023D01*
X10222315Y8682836D01*
X10217343Y8670832D01*
Y8657839D01*
X10220442Y8650358D01*
X10213899Y8637658D01*
X10209842D01*
Y8562338D01*
X10290162D01*
Y8637658D01*
X10286106D01*
X10279564Y8650358D01*
X10282663Y8657839D01*
Y8670832D01*
X10277690Y8682836D01*
X10268503Y8692023D01*
X10256499Y8696996D01*
D02*
G37*
G36*
X9867689Y8592711D02*
X9831339D01*
Y8556361D01*
X9867689D01*
Y8592711D01*
D02*
G37*
G36*
X9818639D02*
X9782289D01*
Y8556361D01*
X9818639D01*
Y8592711D01*
D02*
G37*
G36*
X9717692D02*
X9681342D01*
Y8556361D01*
X9717692D01*
Y8592711D01*
D02*
G37*
G36*
X9668642D02*
X9632292D01*
Y8556361D01*
X9668642D01*
Y8592711D01*
D02*
G37*
G36*
X9150158Y10370160D02*
X9049838D01*
Y10269840D01*
X9083165D01*
Y10206974D01*
X9042780Y10166590D01*
X8699998D01*
X8693556Y10165308D01*
X8688095Y10161659D01*
X8547284Y10020848D01*
X8543635Y10015387D01*
X8542354Y10008945D01*
Y8940826D01*
X8543635Y8934384D01*
X8547284Y8928923D01*
X8909491Y8566716D01*
X8914952Y8563067D01*
X8921394Y8561786D01*
X9280823D01*
X9291807Y8550802D01*
X9286947Y8539069D01*
X8911645D01*
X8516831Y8933882D01*
Y10020480D01*
X8682861Y10186510D01*
X8854844D01*
X8861286Y10187792D01*
X8866747Y10191441D01*
X8911901Y10236594D01*
X8915550Y10242055D01*
X8916831Y10248497D01*
Y10269840D01*
X8950158D01*
Y10370160D01*
X8849838D01*
Y10269840D01*
X8883165D01*
Y10255470D01*
X8847872Y10220177D01*
X8675889D01*
X8669447Y10218895D01*
X8663986Y10215247D01*
X8488095Y10039356D01*
X8484446Y10033895D01*
X8483165Y10027453D01*
Y8926910D01*
X8484446Y8920468D01*
X8488095Y8915007D01*
X8892769Y8510332D01*
X8898230Y8506684D01*
X8904672Y8505402D01*
X9304879D01*
X9338923Y8471358D01*
X9338674Y8470262D01*
X9332696Y8459624D01*
X9323264D01*
X9311260Y8454652D01*
X9302073Y8445465D01*
X9297101Y8433461D01*
Y8420468D01*
X9302073Y8408464D01*
X9311260Y8399277D01*
X9323264Y8394305D01*
X9336257D01*
X9337924Y8394995D01*
X9355218Y8377701D01*
X9351051Y8365001D01*
X9290000D01*
Y8175001D01*
X9308167D01*
Y8141834D01*
X9309448Y8135392D01*
X9313097Y8129931D01*
X9377548Y8065480D01*
X9383009Y8061831D01*
X9389451Y8060550D01*
X9397509D01*
X9399400Y8048633D01*
X9387396Y8043660D01*
X9378209Y8034473D01*
X9373237Y8022469D01*
Y8009476D01*
X9373927Y8007809D01*
X9357952Y7991834D01*
X9224999D01*
Y8110000D01*
X9035000D01*
Y8091496D01*
X8996208D01*
X8901040Y8186669D01*
X8889376Y8191501D01*
X8840153D01*
Y8215165D01*
X8759833D01*
Y8191501D01*
X8685158D01*
Y8225160D01*
X8514838D01*
Y8124840D01*
X8685158D01*
Y8158509D01*
X8759833D01*
Y8134845D01*
X8840153D01*
Y8158509D01*
X8882542D01*
X8977710Y8063336D01*
X8989375Y8058505D01*
X9035000D01*
Y8041494D01*
X8840168D01*
Y8065158D01*
X8759848D01*
Y8041494D01*
X8685158D01*
Y8075158D01*
X8514838D01*
Y7974838D01*
X8685158D01*
Y8008502D01*
X8759848D01*
Y7984838D01*
X8840168D01*
Y8008502D01*
X9035000D01*
Y7889998D01*
Y7789998D01*
X9224999D01*
Y7808165D01*
X9302606D01*
X9321913Y7788858D01*
X9327374Y7785209D01*
X9333816Y7783928D01*
X9680927D01*
X9687369Y7785209D01*
X9692830Y7788858D01*
X9738545Y7834573D01*
X9740212Y7833883D01*
X9753205D01*
X9765209Y7838855D01*
X9774396Y7848042D01*
X9779368Y7860046D01*
Y7873039D01*
X9774396Y7885043D01*
X9765209Y7894230D01*
X9753205Y7899202D01*
X9740212D01*
X9728208Y7894230D01*
X9719021Y7885043D01*
X9714049Y7873039D01*
Y7860046D01*
X9714739Y7858379D01*
X9673954Y7817594D01*
X9433135D01*
X9428233Y7830294D01*
X9433954Y7836015D01*
X9438926Y7848019D01*
Y7861012D01*
X9433954Y7873016D01*
X9424767Y7882203D01*
X9412763Y7887175D01*
X9399770D01*
X9387766Y7882203D01*
X9378579Y7873016D01*
X9377222Y7869740D01*
X9365338D01*
X9348175Y7886904D01*
X9342714Y7890553D01*
X9336272Y7891834D01*
X9224999D01*
Y7908165D01*
X9424653D01*
X9431095Y7909446D01*
X9436556Y7913095D01*
X9450197Y7926736D01*
X9451864Y7926046D01*
X9464857D01*
X9476861Y7931018D01*
X9486048Y7940205D01*
X9491020Y7952209D01*
Y7965202D01*
X9486048Y7977206D01*
X9482394Y7980860D01*
X9487548Y7990316D01*
X9489140Y7992074D01*
X9501500D01*
X9513504Y7997047D01*
X9522691Y8006234D01*
X9527663Y8018238D01*
Y8031231D01*
X9526973Y8032898D01*
X9536903Y8042828D01*
X9540552Y8048289D01*
X9541833Y8054731D01*
Y8175001D01*
X9558169D01*
Y8061871D01*
X9559451Y8055429D01*
X9563099Y8049968D01*
X9645860Y7967207D01*
X9651321Y7963558D01*
X9657763Y7962277D01*
X9786550D01*
X9787241Y7960610D01*
X9796428Y7951423D01*
X9808431Y7946450D01*
X9821425D01*
X9833428Y7951423D01*
X9842616Y7960610D01*
X9847588Y7972614D01*
Y7985607D01*
X9842616Y7997611D01*
X9833428Y8006798D01*
X9821425Y8011770D01*
X9808431D01*
X9796428Y8006798D01*
X9787241Y7997611D01*
X9786550Y7995944D01*
X9745469D01*
X9742943Y8008644D01*
X9752206Y8012481D01*
X9761393Y8021668D01*
X9766366Y8033672D01*
Y8046665D01*
X9761922Y8057391D01*
X9764103Y8061372D01*
X9770379Y8067635D01*
X9773825Y8066207D01*
X9786818D01*
X9798822Y8071180D01*
X9808009Y8080367D01*
X9812982Y8092371D01*
Y8105364D01*
X9808009Y8117368D01*
X9798822Y8126555D01*
X9786818Y8131527D01*
X9773825D01*
X9761821Y8126555D01*
X9752634Y8117368D01*
X9751944Y8115701D01*
X9723905D01*
X9691836Y8147770D01*
Y8175001D01*
X9810002D01*
Y8359461D01*
X9860382Y8409841D01*
X9865149D01*
Y8417978D01*
X9865988Y8420002D01*
Y8480003D01*
X9865149Y8482027D01*
Y8490161D01*
X9857016D01*
X9854990Y8491000D01*
X9760000D01*
X9752224Y8487779D01*
X9747776Y8487779D01*
X9740000Y8491000D01*
X9629555D01*
X9590998Y8529556D01*
X9591000Y8605007D01*
Y8809740D01*
X9592024Y8820136D01*
X9600164Y8839790D01*
X9614814Y8854439D01*
X9634467Y8862580D01*
X9645390Y8863656D01*
X9645554Y8863743D01*
X9913741D01*
Y8590161D01*
X9912338D01*
Y8509841D01*
X9987658D01*
Y8590161D01*
X9986255D01*
Y8863743D01*
X10284982D01*
X10463743Y8684983D01*
Y8140995D01*
X10428474D01*
X10420698Y8137774D01*
X10383922Y8100998D01*
X10365002D01*
Y8110000D01*
X10175003D01*
Y8040000D01*
X10201059D01*
X10201060Y8039998D01*
X10529991D01*
Y7970001D01*
X10428474D01*
X10388477Y8009998D01*
X10195000D01*
Y8010000D01*
X10175003D01*
Y7940001D01*
Y7840001D01*
Y7740001D01*
Y7640001D01*
Y7540001D01*
Y7441832D01*
X10170940D01*
X10164498Y7440551D01*
X10159037Y7436902D01*
X10123357Y7401222D01*
X10119708Y7395761D01*
X10118427Y7389319D01*
Y7284541D01*
X10119708Y7278099D01*
X10123357Y7272638D01*
X10418882Y6977114D01*
Y6427929D01*
X10323098Y6332145D01*
X10319449Y6326684D01*
X10318168Y6320242D01*
Y6010652D01*
X10302131Y6006355D01*
X10282711Y5995143D01*
X10273234Y5985666D01*
X10260534Y5990927D01*
Y6080451D01*
X10255703Y6092115D01*
X9915679Y6432139D01*
X9920940Y6444839D01*
X10070158D01*
Y6566880D01*
X10071416Y6569918D01*
Y6573088D01*
X10111665Y6613337D01*
X10116496Y6625001D01*
Y6769263D01*
X10111664Y6780927D01*
X10071614Y6820977D01*
X10059949Y6825809D01*
X10032751D01*
X10016496Y6842064D01*
Y6859842D01*
X10040160D01*
Y6940161D01*
X10016496D01*
Y6980316D01*
X10036663Y7000483D01*
X10041495Y7012148D01*
Y7034999D01*
X10058506D01*
Y7015637D01*
X10060909Y7009836D01*
X10063336Y7003975D01*
X10086115Y6981191D01*
X10086116Y6981191D01*
X10086116Y6981189D01*
X10091976Y6978762D01*
X10097778Y6976358D01*
X10097779Y6976358D01*
X10097780Y6976358D01*
X10116277D01*
X10133507Y6959131D01*
Y6940161D01*
X10109843D01*
Y6859842D01*
X10133507D01*
Y6839189D01*
X10138338Y6827525D01*
X10193507Y6772356D01*
Y6755160D01*
X10129843D01*
Y6614841D01*
X10290162D01*
Y6755160D01*
X10226498D01*
Y6779189D01*
X10221667Y6790853D01*
X10166498Y6846021D01*
Y6859842D01*
X10190162D01*
Y6940161D01*
X10166498D01*
Y6965965D01*
X10166498Y6965966D01*
X10166498Y6965967D01*
X10163777Y6972534D01*
X10161667Y6977629D01*
X10161666Y6977630D01*
X10161666Y6977631D01*
X10134772Y7004519D01*
X10128082Y7007290D01*
X10123109Y7009349D01*
X10104614D01*
X10091668Y7022299D01*
X10091910Y7034999D01*
X10110001D01*
Y7224998D01*
X9590000D01*
Y7205000D01*
X9590002D01*
Y7034999D01*
X9608504D01*
Y7006098D01*
X9613336Y6994434D01*
X9647171Y6960598D01*
Y6953564D01*
X9642711Y6942712D01*
X9634471Y6942712D01*
X9630000D01*
Y6870009D01*
X9606361D01*
Y6857312D01*
X9642711Y6857311D01*
X9647171Y6846459D01*
Y6254757D01*
X9649370Y6249450D01*
X9638603Y6242255D01*
X9441834Y6439025D01*
Y7034999D01*
X9499003D01*
Y7016079D01*
X9462226Y6979303D01*
X9459005Y6971526D01*
Y6870009D01*
X9459841Y6867991D01*
Y6859852D01*
X9467976D01*
X9470003Y6859012D01*
X9540000D01*
X9544611Y6860922D01*
X9557311Y6857311D01*
X9559448Y6857312D01*
X9593661D01*
Y6870009D01*
X9560002D01*
Y6942712D01*
X9557312D01*
X9550997Y6952796D01*
Y7034999D01*
X9560000D01*
Y7224998D01*
X9489527D01*
X9486901Y7228928D01*
X9464367Y7251462D01*
X9458906Y7255111D01*
X9452464Y7256392D01*
X9280413D01*
X9273972Y7255111D01*
X9268510Y7251462D01*
X9224833Y7207785D01*
X9221185Y7202324D01*
X9219903Y7195882D01*
Y6484785D01*
X9221185Y6478343D01*
X9222992Y6475639D01*
X9213127Y6467543D01*
X9179086Y6501584D01*
Y7201893D01*
X9273148Y7295956D01*
X9276797Y7301417D01*
X9278079Y7307859D01*
Y7637348D01*
X9276797Y7643790D01*
X9273148Y7649251D01*
X9235495Y7686904D01*
X9230034Y7690553D01*
X9224999Y7691555D01*
Y7759998D01*
X9035000D01*
Y7750997D01*
X8952792D01*
X8942703Y7757300D01*
X8942702Y7763697D01*
Y7793650D01*
X8857303D01*
Y7763697D01*
X8857302Y7757300D01*
X8847213Y7750997D01*
X8802775D01*
X8792690Y7757310D01*
X8792690Y7763697D01*
Y7793660D01*
X8707290D01*
Y7763697D01*
X8707290Y7757310D01*
X8697205Y7750997D01*
X8560000D01*
X8552224Y7747776D01*
X8549003Y7740000D01*
Y7660000D01*
X8552224Y7652224D01*
X8560000Y7649003D01*
X8900207D01*
X8904187Y7638863D01*
X8904358Y7636303D01*
X8616978Y7348923D01*
X8613329Y7343462D01*
X8612048Y7337020D01*
Y6560372D01*
X8613329Y6553930D01*
X8616978Y6548469D01*
X9142077Y6023369D01*
Y5988317D01*
X9129377Y5983056D01*
X9117290Y5995143D01*
X9097871Y6006355D01*
X9076212Y6012158D01*
X9053789D01*
X9032131Y6006355D01*
X9012711Y5995143D01*
X8996856Y5979288D01*
X8985645Y5959869D01*
X8979841Y5938210D01*
Y5915787D01*
X8985645Y5894128D01*
X8996856Y5874709D01*
X9012711Y5858853D01*
X9032131Y5847642D01*
X9053789Y5841838D01*
X9076212D01*
X9097871Y5847642D01*
X9117290Y5858853D01*
X9129377Y5870941D01*
X9142077Y5865680D01*
Y5734317D01*
X9129377Y5729056D01*
X9117290Y5741143D01*
X9097871Y5752355D01*
X9076212Y5758158D01*
X9053789D01*
X9032131Y5752355D01*
X9012711Y5741143D01*
X8996856Y5725288D01*
X8985645Y5705869D01*
X8979841Y5684210D01*
Y5661787D01*
X8985645Y5640128D01*
X8996856Y5620709D01*
X9012711Y5604853D01*
X9032131Y5593642D01*
X9053789Y5587838D01*
X9076212D01*
X9097871Y5593642D01*
X9117290Y5604853D01*
X9129377Y5616941D01*
X9142077Y5611680D01*
Y5288320D01*
X9129377Y5283059D01*
X9117290Y5295146D01*
X9097871Y5306358D01*
X9076212Y5312161D01*
X9053789D01*
X9032131Y5306358D01*
X9012711Y5295146D01*
X8996856Y5279291D01*
X8985645Y5259872D01*
X8979841Y5238213D01*
Y5215790D01*
X8985645Y5194131D01*
X8996856Y5174712D01*
X9012711Y5158857D01*
X9032131Y5147645D01*
X9053789Y5141842D01*
X9076212D01*
X9097871Y5147645D01*
X9117290Y5158857D01*
X9129377Y5170944D01*
X9142077Y5165683D01*
Y5034320D01*
X9129377Y5029059D01*
X9117290Y5041146D01*
X9097871Y5052358D01*
X9076212Y5058161D01*
X9053789D01*
X9032131Y5052358D01*
X9012711Y5041146D01*
X8996856Y5025291D01*
X8985645Y5005872D01*
X8979841Y4984213D01*
Y4961790D01*
X8985645Y4940131D01*
X8996856Y4920712D01*
X9012711Y4904857D01*
X9032131Y4893645D01*
X9053789Y4887842D01*
X9076212D01*
X9097871Y4893645D01*
X9117290Y4904857D01*
X9129377Y4916944D01*
X9142077Y4911683D01*
Y4627883D01*
X9112250Y4598055D01*
X9097871Y4606356D01*
X9076212Y4612160D01*
X9053789D01*
X9032131Y4606356D01*
X9012711Y4595145D01*
X8996856Y4579290D01*
X8985645Y4559870D01*
X8979841Y4538212D01*
Y4515789D01*
X8985645Y4494130D01*
X8996856Y4474711D01*
X9012711Y4458855D01*
X9032131Y4447644D01*
X9053789Y4441840D01*
X9076212D01*
X9097871Y4447644D01*
X9117290Y4458855D01*
X9133146Y4474711D01*
X9144357Y4494130D01*
X9150161Y4515789D01*
Y4538212D01*
X9144357Y4559870D01*
X9136056Y4574249D01*
X9170814Y4609007D01*
X9174463Y4614468D01*
X9175744Y4620910D01*
Y5075859D01*
X9187477Y5080719D01*
X9247946Y5020251D01*
X9239645Y5005872D01*
X9233841Y4984213D01*
Y4961790D01*
X9239645Y4940131D01*
X9250856Y4920712D01*
X9266711Y4904857D01*
X9286131Y4893645D01*
X9307789Y4887842D01*
X9330212D01*
X9351871Y4893645D01*
X9371290Y4904857D01*
X9387146Y4920712D01*
X9398357Y4940131D01*
X9400463Y4947991D01*
X9413163Y4946319D01*
Y4644968D01*
X9366250Y4598055D01*
X9351871Y4606356D01*
X9330212Y4612160D01*
X9307789D01*
X9286131Y4606356D01*
X9266711Y4595145D01*
X9250856Y4579290D01*
X9239645Y4559870D01*
X9233841Y4538212D01*
Y4515789D01*
X9239645Y4494130D01*
X9250856Y4474711D01*
X9266711Y4458855D01*
X9286131Y4447644D01*
X9307789Y4441840D01*
X9330212D01*
X9351871Y4447644D01*
X9371290Y4458855D01*
X9387146Y4474711D01*
X9398357Y4494130D01*
X9404161Y4515789D01*
Y4538212D01*
X9398357Y4559870D01*
X9390056Y4574249D01*
X9441900Y4626093D01*
X9445549Y4631554D01*
X9446830Y4637996D01*
Y5312773D01*
X9458563Y5317633D01*
X9501946Y5274251D01*
X9493645Y5259872D01*
X9487841Y5238213D01*
Y5215790D01*
X9493645Y5194131D01*
X9504856Y5174712D01*
X9520711Y5158857D01*
X9540131Y5147645D01*
X9561789Y5141842D01*
X9584212D01*
X9605871Y5147645D01*
X9625290Y5158857D01*
X9641146Y5174712D01*
X9652357Y5194131D01*
X9652439Y5194435D01*
X9665139Y5192763D01*
Y5088945D01*
X9620250Y5044056D01*
X9605871Y5052358D01*
X9584212Y5058161D01*
X9561789D01*
X9540131Y5052358D01*
X9520711Y5041146D01*
X9504856Y5025291D01*
X9493645Y5005872D01*
X9487841Y4984213D01*
Y4961790D01*
X9493645Y4940131D01*
X9504856Y4920712D01*
X9520711Y4904857D01*
X9540131Y4893645D01*
X9561789Y4887842D01*
X9584212D01*
X9605871Y4893645D01*
X9625290Y4904857D01*
X9641146Y4920712D01*
X9652357Y4940131D01*
X9658161Y4961790D01*
Y4984213D01*
X9652357Y5005872D01*
X9644056Y5020251D01*
X9676265Y5052460D01*
X9687999Y5047600D01*
Y4665804D01*
X9620250Y4598055D01*
X9605871Y4606356D01*
X9584212Y4612160D01*
X9561789D01*
X9540131Y4606356D01*
X9520711Y4595145D01*
X9504856Y4579290D01*
X9493645Y4559870D01*
X9487841Y4538212D01*
Y4515789D01*
X9493645Y4494130D01*
X9504856Y4474711D01*
X9520711Y4458855D01*
X9540131Y4447644D01*
X9561789Y4441840D01*
X9584212D01*
X9605871Y4447644D01*
X9625290Y4458855D01*
X9641146Y4474711D01*
X9652357Y4494130D01*
X9658161Y4515789D01*
Y4538212D01*
X9652357Y4559870D01*
X9644056Y4574249D01*
X9716735Y4646928D01*
X9720384Y4652389D01*
X9721665Y4658831D01*
Y5737934D01*
X9733399Y5742795D01*
X9755946Y5720247D01*
X9747645Y5705869D01*
X9741841Y5684210D01*
Y5661787D01*
X9747645Y5640128D01*
X9758856Y5620709D01*
X9774711Y5604853D01*
X9794131Y5593642D01*
X9815789Y5587838D01*
X9838212D01*
X9859871Y5593642D01*
X9879290Y5604853D01*
X9895146Y5620709D01*
X9906357Y5640128D01*
X9912161Y5661787D01*
Y5684210D01*
X9906357Y5705869D01*
X9895146Y5725288D01*
X9879290Y5741143D01*
X9859871Y5752355D01*
X9838212Y5758158D01*
X9815789D01*
X9794131Y5752355D01*
X9779752Y5744053D01*
X9744525Y5779280D01*
Y5874130D01*
X9757225Y5877533D01*
X9758856Y5874709D01*
X9774711Y5858853D01*
X9794131Y5847642D01*
X9815789Y5841838D01*
X9838212D01*
X9859871Y5847642D01*
X9879290Y5858853D01*
X9895146Y5874709D01*
X9906357Y5894128D01*
X9912161Y5915787D01*
Y5938210D01*
X9906357Y5959869D01*
X9895146Y5979288D01*
X9879290Y5995143D01*
X9859871Y6006355D01*
X9843834Y6010652D01*
Y6030052D01*
X9843028Y6034107D01*
X9849906Y6039919D01*
X9853502Y6041594D01*
X9933625Y5961470D01*
Y5356954D01*
X9874553Y5297882D01*
X9859871Y5306358D01*
X9838212Y5312161D01*
X9815789D01*
X9794131Y5306358D01*
X9774711Y5295146D01*
X9758856Y5279291D01*
X9747645Y5259872D01*
X9741841Y5238213D01*
Y5215790D01*
X9747645Y5194131D01*
X9758856Y5174712D01*
X9774711Y5158857D01*
X9794131Y5147645D01*
X9815789Y5141842D01*
X9838212D01*
X9859871Y5147645D01*
X9879290Y5158857D01*
X9895146Y5174712D01*
X9906357Y5194131D01*
X9912161Y5215790D01*
Y5238213D01*
X9906357Y5259872D01*
X9897881Y5274553D01*
X9942212Y5318884D01*
X9953945Y5314023D01*
Y5123274D01*
X9874553Y5043882D01*
X9859871Y5052358D01*
X9838212Y5058161D01*
X9815789D01*
X9794131Y5052358D01*
X9774711Y5041146D01*
X9758856Y5025291D01*
X9747645Y5005872D01*
X9741841Y4984213D01*
Y4961790D01*
X9747645Y4940131D01*
X9758856Y4920712D01*
X9774711Y4904857D01*
X9794131Y4893645D01*
X9815789Y4887842D01*
X9838212D01*
X9859871Y4893645D01*
X9879290Y4904857D01*
X9895146Y4920712D01*
X9906357Y4940131D01*
X9912161Y4961790D01*
Y4984213D01*
X9906357Y5005872D01*
X9897881Y5020553D01*
X9962532Y5085204D01*
X9974265Y5080343D01*
Y4697593D01*
X9874553Y4597880D01*
X9859871Y4606356D01*
X9838212Y4612160D01*
X9815789D01*
X9794131Y4606356D01*
X9774711Y4595145D01*
X9758856Y4579290D01*
X9747645Y4559870D01*
X9741841Y4538212D01*
Y4515789D01*
X9747645Y4494130D01*
X9758856Y4474711D01*
X9774711Y4458855D01*
X9794131Y4447644D01*
X9815789Y4441840D01*
X9838212D01*
X9859871Y4447644D01*
X9879290Y4458855D01*
X9895146Y4474711D01*
X9906357Y4494130D01*
X9912161Y4515789D01*
Y4538212D01*
X9906357Y4559870D01*
X9897881Y4574552D01*
X10002425Y4679096D01*
X10007257Y4690760D01*
Y4908351D01*
X10019957Y4913611D01*
X10028711Y4904857D01*
X10048131Y4893645D01*
X10069789Y4887842D01*
X10092212D01*
X10113871Y4893645D01*
X10133290Y4904857D01*
X10149146Y4920712D01*
X10160357Y4940131D01*
X10166161Y4961790D01*
Y4984213D01*
X10160357Y5005872D01*
X10151881Y5020553D01*
X10215809Y5084481D01*
X10227543Y5079621D01*
Y4696870D01*
X10128553Y4597880D01*
X10113871Y4606356D01*
X10092212Y4612160D01*
X10069789D01*
X10048131Y4606356D01*
X10028711Y4595145D01*
X10012856Y4579290D01*
X10001645Y4559870D01*
X9995841Y4538212D01*
Y4515789D01*
X10001645Y4494130D01*
X10012856Y4474711D01*
X10028711Y4458855D01*
X10048131Y4447644D01*
X10069789Y4441840D01*
X10092212D01*
X10113871Y4447644D01*
X10133290Y4458855D01*
X10149146Y4474711D01*
X10160357Y4494130D01*
X10166161Y4515789D01*
Y4538212D01*
X10160357Y4559870D01*
X10151881Y4574552D01*
X10255703Y4678373D01*
X10260534Y4690038D01*
Y4909073D01*
X10273234Y4914334D01*
X10282711Y4904857D01*
X10302131Y4893645D01*
X10323789Y4887842D01*
X10346212D01*
X10367871Y4893645D01*
X10387290Y4904857D01*
X10403146Y4920712D01*
X10414357Y4940131D01*
X10420161Y4961790D01*
Y4984213D01*
X10414357Y5005872D01*
X10406056Y5020251D01*
X10467512Y5081707D01*
X10479245Y5076846D01*
Y4695050D01*
X10382250Y4598055D01*
X10367871Y4606356D01*
X10346212Y4612160D01*
X10323789D01*
X10302131Y4606356D01*
X10282711Y4595145D01*
X10266856Y4579290D01*
X10255645Y4559870D01*
X10249841Y4538212D01*
Y4515789D01*
X10255645Y4494130D01*
X10266856Y4474711D01*
X10282711Y4458855D01*
X10302131Y4447644D01*
X10323789Y4441840D01*
X10346212D01*
X10367871Y4447644D01*
X10387290Y4458855D01*
X10403146Y4474711D01*
X10414357Y4494130D01*
X10420161Y4515789D01*
Y4538212D01*
X10414357Y4559870D01*
X10406056Y4574249D01*
X10507982Y4676175D01*
X10511630Y4681636D01*
X10512912Y4688078D01*
Y4910696D01*
X10525612Y4915956D01*
X10536711Y4904857D01*
X10556131Y4893645D01*
X10577789Y4887842D01*
X10600212D01*
X10621871Y4893645D01*
X10641290Y4904857D01*
X10657146Y4920712D01*
X10668357Y4940131D01*
X10674161Y4961790D01*
Y4984213D01*
X10668357Y5005872D01*
X10660056Y5020251D01*
X10722924Y5083119D01*
X10734657Y5078259D01*
Y4696463D01*
X10636250Y4598055D01*
X10621871Y4606356D01*
X10600212Y4612160D01*
X10577789D01*
X10556131Y4606356D01*
X10536711Y4595145D01*
X10520856Y4579290D01*
X10509645Y4559870D01*
X10503841Y4538212D01*
Y4515789D01*
X10509645Y4494130D01*
X10520856Y4474711D01*
X10536711Y4458855D01*
X10556131Y4447644D01*
X10577789Y4441840D01*
X10600212D01*
X10621871Y4447644D01*
X10641290Y4458855D01*
X10657146Y4474711D01*
X10668357Y4494130D01*
X10674161Y4515789D01*
Y4538212D01*
X10668357Y4559870D01*
X10660056Y4574249D01*
X10763394Y4677587D01*
X10767043Y4683048D01*
X10768324Y4689490D01*
X10780847Y4689061D01*
Y4612160D01*
X10757841D01*
Y4441840D01*
X10780847D01*
Y4331280D01*
X10774856Y4325290D01*
X10763645Y4305870D01*
X10757841Y4284212D01*
Y4261789D01*
X10763645Y4240130D01*
X10774856Y4220711D01*
X10790711Y4204855D01*
X10810131Y4193644D01*
X10831789Y4187840D01*
X10854212D01*
X10875871Y4193644D01*
X10895290Y4204855D01*
X10911146Y4220711D01*
X10922357Y4240130D01*
X10928161Y4261789D01*
Y4284212D01*
X10922357Y4305870D01*
X10911146Y4325290D01*
X10905155Y4331280D01*
Y4441840D01*
X10928161D01*
Y4612160D01*
X10905155D01*
Y4914721D01*
X10911146Y4920712D01*
X10922357Y4940131D01*
X10928161Y4961790D01*
Y4984213D01*
X10922357Y5005872D01*
X10911146Y5025291D01*
X10905155Y5031282D01*
Y5141842D01*
X10928161D01*
Y5312161D01*
X10905155D01*
Y5614718D01*
X10911146Y5620709D01*
X10922357Y5640128D01*
X10928161Y5661787D01*
Y5684210D01*
X10922357Y5705869D01*
X10911146Y5725288D01*
X10905155Y5731278D01*
Y5841838D01*
X10928161D01*
Y6012158D01*
X10768324D01*
Y6050834D01*
X10969686Y6252197D01*
X10973335Y6257658D01*
X10974617Y6264100D01*
Y6393296D01*
X10987317Y6394547D01*
X10988275Y6389731D01*
X10991924Y6384270D01*
X11222175Y6154019D01*
X11227636Y6150370D01*
X11234078Y6149088D01*
X11889107D01*
X11955947Y6082248D01*
X11947645Y6067870D01*
X11941842Y6046211D01*
Y6023788D01*
X11947645Y6002129D01*
X11958857Y5982710D01*
X11974712Y5966854D01*
X11994131Y5955643D01*
X12015790Y5949840D01*
X12038213D01*
X12059872Y5955643D01*
X12079291Y5966854D01*
X12095146Y5982710D01*
X12106358Y6002129D01*
X12112161Y6023788D01*
Y6046211D01*
X12106358Y6067870D01*
X12095146Y6087289D01*
X12079291Y6103144D01*
X12059872Y6114356D01*
X12038213Y6120159D01*
X12015790D01*
X11994131Y6114356D01*
X11979753Y6106054D01*
X11907982Y6177825D01*
X11902521Y6181474D01*
X11896079Y6182755D01*
X11241051D01*
X11020660Y6403146D01*
Y7618700D01*
X11019379Y7625142D01*
X11015730Y7630603D01*
X10897975Y7748357D01*
Y8527972D01*
X10899642Y8528662D01*
X10908830Y8537849D01*
X10913802Y8549853D01*
Y8562846D01*
X10908830Y8574850D01*
X10899642Y8584037D01*
X10887639Y8589009D01*
X10874646D01*
X10862642Y8584037D01*
X10853455Y8574850D01*
X10848482Y8562846D01*
Y8549853D01*
X10853455Y8537849D01*
X10862642Y8528662D01*
X10864309Y8527972D01*
Y7741385D01*
X10865590Y7734943D01*
X10869239Y7729482D01*
X10860069Y7720960D01*
X10705069Y7875960D01*
X10784005Y7954896D01*
X10797079Y7971935D01*
X10805298Y7991776D01*
X10808102Y8013069D01*
Y8874168D01*
X10805298Y8895462D01*
X10797079Y8915303D01*
X10784005Y8932342D01*
X10658174Y9058174D01*
X10658172Y9058175D01*
X10490470Y9225878D01*
X10336687Y9379661D01*
Y10036006D01*
X10338427D01*
X10359720Y10038809D01*
X10379562Y10047028D01*
X10386966Y10052709D01*
X10399666Y10046446D01*
Y10026727D01*
X10400947Y10020285D01*
X10404596Y10014824D01*
X10458706Y9960715D01*
Y9838703D01*
X10437879D01*
Y9758383D01*
X10513199D01*
Y9838703D01*
X10492372D01*
Y9967687D01*
X10491091Y9974129D01*
X10487442Y9979590D01*
X10433333Y10033700D01*
Y10103111D01*
X10437750Y10108867D01*
X10444367Y10124842D01*
X10568800D01*
Y10122302D01*
X10605150D01*
Y10192502D01*
X10611500D01*
Y10198852D01*
X10654200D01*
Y10262702D01*
X10621495D01*
X10616235Y10275402D01*
X10616667Y10275835D01*
X10623162Y10291514D01*
Y10308485D01*
X10616667Y10324165D01*
X10604667Y10336165D01*
X10588988Y10342660D01*
X10572016D01*
X10556337Y10336165D01*
X10544337Y10324165D01*
X10539219Y10311809D01*
X10526109Y10306959D01*
X10498577Y10334491D01*
X10486814Y10342350D01*
X10472939Y10345111D01*
X10472938Y10345110D01*
X10312340D01*
X10309723Y10346194D01*
X10288430Y10348998D01*
X10244574D01*
X10223282Y10346194D01*
X10220664Y10345110D01*
X10110064D01*
X10110063Y10345111D01*
X10096188Y10342350D01*
X10084425Y10334491D01*
X10056893Y10306959D01*
X10043783Y10311809D01*
X10038665Y10324165D01*
X10026665Y10336165D01*
X10010985Y10342660D01*
X9994014D01*
X9978335Y10336165D01*
X9966334Y10324165D01*
X9959840Y10308485D01*
Y10291514D01*
X9966334Y10275835D01*
X9966767Y10275402D01*
X9961507Y10262702D01*
X9928802D01*
Y10198852D01*
X9971502D01*
Y10192502D01*
X9977852D01*
Y10122302D01*
X10014201D01*
X10015245Y10110034D01*
Y10084953D01*
X9979817Y10049525D01*
X9422055D01*
X9345942Y10125638D01*
X9334179Y10133497D01*
X9320304Y10136257D01*
X9320303Y10136257D01*
X9078020D01*
X9072759Y10148957D01*
X9111901Y10188099D01*
X9115550Y10193560D01*
X9116832Y10200002D01*
Y10269840D01*
X9150158D01*
Y10370160D01*
D02*
G37*
G36*
X9867689Y8543661D02*
X9831339D01*
Y8507311D01*
X9867689D01*
Y8543661D01*
D02*
G37*
G36*
X9818639D02*
X9782289D01*
Y8507311D01*
X9818639D01*
Y8543661D01*
D02*
G37*
G36*
X9717692D02*
X9681342D01*
Y8507311D01*
X9717692D01*
Y8543661D01*
D02*
G37*
G36*
X9668642D02*
X9632292D01*
Y8507311D01*
X9668642D01*
Y8543661D01*
D02*
G37*
G36*
X10292711Y8542711D02*
X10256362D01*
Y8506361D01*
X10292711D01*
Y8542711D01*
D02*
G37*
G36*
X10243662D02*
X10207311D01*
Y8506361D01*
X10243662D01*
Y8542711D01*
D02*
G37*
G36*
X11784547Y8560698D02*
X11779352D01*
Y8479348D01*
X11860701D01*
Y8484544D01*
X11854725Y8506849D01*
X11843179Y8526847D01*
X11826851Y8543175D01*
X11806852Y8554721D01*
X11784547Y8560698D01*
D02*
G37*
G36*
X11766652D02*
X11761456D01*
X11739151Y8554721D01*
X11719153Y8543175D01*
X11702824Y8526847D01*
X11691278Y8506849D01*
X11685302Y8484544D01*
Y8479348D01*
X11766652D01*
Y8560698D01*
D02*
G37*
G36*
X10156499Y8696995D02*
X10143506D01*
X10131502Y8692023D01*
X10122315Y8682836D01*
X10117343Y8670832D01*
Y8657839D01*
X10120442Y8650358D01*
X10113898Y8637658D01*
X10109843D01*
Y8562338D01*
X10133169D01*
Y8540171D01*
X10109841D01*
Y8523319D01*
X10063394D01*
X10054474Y8521545D01*
X10046913Y8516492D01*
X10003729Y8473309D01*
X9987658D01*
Y8490161D01*
X9912338D01*
Y8409841D01*
X9915212D01*
X9920472Y8397141D01*
X9908518Y8385187D01*
X9903466Y8377625D01*
X9901691Y8368706D01*
Y8365001D01*
X9840002D01*
Y8175001D01*
X9858168D01*
Y8115761D01*
X9859450Y8109319D01*
X9863099Y8103858D01*
X9914531Y8052425D01*
X9913841Y8050758D01*
Y8037765D01*
X9918813Y8025761D01*
X9928000Y8016574D01*
X9940004Y8011602D01*
X9952997D01*
X9965001Y8016574D01*
X9974188Y8025761D01*
X9976915Y8032343D01*
X9990368Y8036175D01*
X9991156Y8036063D01*
X9993024Y8034194D01*
X10005028Y8029222D01*
X10018021D01*
X10030025Y8034194D01*
X10039212Y8043381D01*
X10039970Y8045211D01*
X10051838Y8051304D01*
X10063841Y8046331D01*
X10076835D01*
X10088838Y8051304D01*
X10098026Y8060491D01*
X10100294Y8065967D01*
X10113671Y8072851D01*
X10126664D01*
X10138668Y8077823D01*
X10147855Y8087010D01*
X10152828Y8099014D01*
Y8112007D01*
X10147855Y8124011D01*
X10138668Y8133198D01*
X10126664Y8138170D01*
X10113671D01*
X10112004Y8137480D01*
X10091835Y8157649D01*
Y8175001D01*
X10110001D01*
Y8365001D01*
X9970850D01*
X9967900Y8372124D01*
X9966798Y8377701D01*
X9971531Y8384785D01*
X9973306Y8393704D01*
Y8409841D01*
X9987658D01*
Y8426693D01*
X10013384D01*
X10022303Y8428467D01*
X10029865Y8433520D01*
X10073048Y8476703D01*
X10109841D01*
Y8459851D01*
X10190161D01*
Y8540171D01*
X10166835D01*
Y8562338D01*
X10190162D01*
Y8637658D01*
X10186107D01*
X10179564Y8650358D01*
X10182662Y8657839D01*
Y8670832D01*
X10177690Y8682836D01*
X10168503Y8692023D01*
X10156499Y8696995D01*
D02*
G37*
G36*
X10292711Y8493661D02*
X10256362D01*
Y8457311D01*
X10292711D01*
Y8493661D01*
D02*
G37*
G36*
X10243662D02*
X10207311D01*
Y8457311D01*
X10243662D01*
Y8493661D01*
D02*
G37*
G36*
X11537659Y8790156D02*
X11462340D01*
Y8709837D01*
X11483166D01*
Y8656835D01*
X11484447Y8650393D01*
X11488096Y8644932D01*
X11544914Y8588114D01*
X11550375Y8584465D01*
X11556817Y8583184D01*
X11893010D01*
X11955947Y8520247D01*
X11947645Y8505868D01*
X11941842Y8484210D01*
Y8461786D01*
X11947645Y8440128D01*
X11958857Y8420709D01*
X11974712Y8404853D01*
X11994131Y8393642D01*
X12015790Y8387838D01*
X12038213D01*
X12059872Y8393642D01*
X12079291Y8404853D01*
X12095146Y8420709D01*
X12106358Y8440128D01*
X12112161Y8461786D01*
Y8484210D01*
X12106358Y8505868D01*
X12095146Y8525287D01*
X12079291Y8541143D01*
X12059872Y8552354D01*
X12038213Y8558158D01*
X12015790D01*
X11994131Y8552354D01*
X11979753Y8544053D01*
X11911885Y8611920D01*
X11906424Y8615569D01*
X11899982Y8616851D01*
X11563789D01*
X11516833Y8663807D01*
Y8709837D01*
X11537659D01*
Y8790156D01*
D02*
G37*
G36*
X11860701Y8466648D02*
X11779352D01*
Y8385298D01*
X11784547D01*
X11806852Y8391275D01*
X11826851Y8402821D01*
X11843179Y8419149D01*
X11854725Y8439147D01*
X11860701Y8461452D01*
Y8466648D01*
D02*
G37*
G36*
X11766652D02*
X11685302D01*
Y8461452D01*
X11691278Y8439147D01*
X11702824Y8419149D01*
X11719153Y8402821D01*
X11739151Y8391275D01*
X11761456Y8385298D01*
X11766652D01*
Y8466648D01*
D02*
G37*
G36*
X8842692Y8317710D02*
X8806343D01*
Y8281360D01*
X8842692D01*
Y8317710D01*
D02*
G37*
G36*
X8793643D02*
X8757293D01*
Y8281360D01*
X8793643D01*
Y8317710D01*
D02*
G37*
G36*
X8842692Y8268660D02*
X8806343D01*
Y8232310D01*
X8842692D01*
Y8268660D01*
D02*
G37*
G36*
X8793643D02*
X8757293D01*
Y8232310D01*
X8793643D01*
Y8268660D01*
D02*
G37*
G36*
X11784547Y8306698D02*
X11779352D01*
Y8225348D01*
X11860701D01*
Y8230544D01*
X11854725Y8252849D01*
X11843179Y8272847D01*
X11826851Y8289175D01*
X11806852Y8300721D01*
X11784547Y8306698D01*
D02*
G37*
G36*
X11766652D02*
X11761456D01*
X11739151Y8300721D01*
X11719153Y8289175D01*
X11702824Y8272847D01*
X11691278Y8252849D01*
X11685302Y8230544D01*
Y8225348D01*
X11766652D01*
Y8306698D01*
D02*
G37*
G36*
X12038213Y8304158D02*
X12015790D01*
X11994131Y8298354D01*
X11974712Y8287143D01*
X11958857Y8271287D01*
X11947645Y8251868D01*
X11941842Y8230210D01*
Y8207786D01*
X11947645Y8186128D01*
X11958857Y8166709D01*
X11974712Y8150853D01*
X11994131Y8139642D01*
X12015790Y8133838D01*
X12038213D01*
X12059872Y8139642D01*
X12079291Y8150853D01*
X12095146Y8166709D01*
X12106358Y8186128D01*
X12112161Y8207786D01*
Y8230210D01*
X12106358Y8251868D01*
X12095146Y8271287D01*
X12079291Y8287143D01*
X12059872Y8298354D01*
X12038213Y8304158D01*
D02*
G37*
G36*
X11860701Y8212648D02*
X11779352D01*
Y8131298D01*
X11784547D01*
X11806852Y8137275D01*
X11826851Y8148821D01*
X11843179Y8165149D01*
X11854725Y8185147D01*
X11860701Y8207452D01*
Y8212648D01*
D02*
G37*
G36*
X11766652D02*
X11685302D01*
Y8207452D01*
X11691278Y8185147D01*
X11702824Y8165149D01*
X11719153Y8148821D01*
X11739151Y8137275D01*
X11761456Y8131298D01*
X11766652D01*
Y8212648D01*
D02*
G37*
G36*
X11784547Y8052698D02*
X11779352D01*
Y7971348D01*
X11860701D01*
Y7976544D01*
X11854725Y7998849D01*
X11843179Y8018847D01*
X11826851Y8035175D01*
X11806852Y8046721D01*
X11784547Y8052698D01*
D02*
G37*
G36*
X11766652D02*
X11761456D01*
X11739151Y8046721D01*
X11719153Y8035175D01*
X11702824Y8018847D01*
X11691278Y7998849D01*
X11685302Y7976544D01*
Y7971348D01*
X11766652D01*
Y8052698D01*
D02*
G37*
G36*
X8842708Y7967693D02*
X8806358D01*
Y7931343D01*
X8842708D01*
Y7967693D01*
D02*
G37*
G36*
X8793658D02*
X8757308D01*
Y7931343D01*
X8793658D01*
Y7967693D01*
D02*
G37*
G36*
X8842708Y7918643D02*
X8806358D01*
Y7882293D01*
X8842708D01*
Y7918643D01*
D02*
G37*
G36*
X8793658D02*
X8757308D01*
Y7882293D01*
X8793658D01*
Y7918643D01*
D02*
G37*
G36*
X12038213Y8050158D02*
X12015790D01*
X11994131Y8044354D01*
X11974712Y8033143D01*
X11958857Y8017287D01*
X11947645Y7997868D01*
X11941842Y7976210D01*
Y7953786D01*
X11947645Y7932128D01*
X11958857Y7912709D01*
X11974712Y7896853D01*
X11994131Y7885642D01*
X12015790Y7879838D01*
X12038213D01*
X12059872Y7885642D01*
X12079291Y7896853D01*
X12095146Y7912709D01*
X12106358Y7932128D01*
X12112161Y7953786D01*
Y7976210D01*
X12106358Y7997868D01*
X12095146Y8017287D01*
X12079291Y8033143D01*
X12059872Y8044354D01*
X12038213Y8050158D01*
D02*
G37*
G36*
X11860701Y7958648D02*
X11779352D01*
Y7877298D01*
X11784547D01*
X11806852Y7883275D01*
X11826851Y7894821D01*
X11843179Y7911149D01*
X11854725Y7931147D01*
X11860701Y7953452D01*
Y7958648D01*
D02*
G37*
G36*
X11766652D02*
X11685302D01*
Y7953452D01*
X11691278Y7931147D01*
X11702824Y7911149D01*
X11719153Y7894821D01*
X11739151Y7883275D01*
X11761456Y7877298D01*
X11766652D01*
Y7958648D01*
D02*
G37*
G36*
X11437660Y7890160D02*
X11362340D01*
Y7866833D01*
X11237660D01*
Y7890160D01*
X11162340D01*
Y7809840D01*
X11237660D01*
Y7833166D01*
X11362340D01*
Y7809840D01*
X11437660D01*
Y7890160D01*
D02*
G37*
G36*
X8792690Y7842710D02*
X8756340D01*
Y7806360D01*
X8792690D01*
Y7842710D01*
D02*
G37*
G36*
X8743640D02*
X8707290D01*
Y7806360D01*
X8743640D01*
Y7842710D01*
D02*
G37*
G36*
X8942702Y7842700D02*
X8906353D01*
Y7806350D01*
X8942702D01*
Y7842700D01*
D02*
G37*
G36*
X8893653D02*
X8857303D01*
Y7806350D01*
X8893653D01*
Y7842700D01*
D02*
G37*
G36*
X8650160Y7880160D02*
X8549840D01*
Y7799840D01*
X8650160D01*
Y7880160D01*
D02*
G37*
G36*
X11240200Y7792700D02*
X11206350D01*
Y7756351D01*
X11240200D01*
Y7792700D01*
D02*
G37*
G36*
X11193650D02*
X11159800D01*
Y7756351D01*
X11193650D01*
Y7792700D01*
D02*
G37*
G36*
X11784547Y7798698D02*
X11779352D01*
Y7717348D01*
X11860701D01*
Y7722544D01*
X11854725Y7744849D01*
X11843179Y7764847D01*
X11826851Y7781175D01*
X11806852Y7792721D01*
X11784547Y7798698D01*
D02*
G37*
G36*
X11766652D02*
X11761456D01*
X11739151Y7792721D01*
X11719153Y7781175D01*
X11702824Y7764847D01*
X11691278Y7744849D01*
X11685302Y7722544D01*
Y7717348D01*
X11766652D01*
Y7798698D01*
D02*
G37*
G36*
X11240200Y7743651D02*
X11206350D01*
Y7707300D01*
X11240200D01*
Y7743651D01*
D02*
G37*
G36*
X11193650D02*
X11159800D01*
Y7707300D01*
X11193650D01*
Y7743651D01*
D02*
G37*
G36*
X12038213Y7796158D02*
X12015790D01*
X11994131Y7790354D01*
X11974712Y7779143D01*
X11958857Y7763287D01*
X11947645Y7743868D01*
X11941842Y7722210D01*
Y7699786D01*
X11947645Y7678128D01*
X11958857Y7658709D01*
X11974712Y7642853D01*
X11994131Y7631642D01*
X12015790Y7625838D01*
X12038213D01*
X12059872Y7631642D01*
X12079291Y7642853D01*
X12095146Y7658709D01*
X12106358Y7678128D01*
X12112161Y7699786D01*
Y7722210D01*
X12106358Y7743868D01*
X12095146Y7763287D01*
X12079291Y7779143D01*
X12059872Y7790354D01*
X12038213Y7796158D01*
D02*
G37*
G36*
X11860701Y7704648D02*
X11779352D01*
Y7623298D01*
X11784547D01*
X11806852Y7629275D01*
X11826851Y7640821D01*
X11843179Y7657149D01*
X11854725Y7677147D01*
X11860701Y7699452D01*
Y7704648D01*
D02*
G37*
G36*
X11766652D02*
X11685302D01*
Y7699452D01*
X11691278Y7677147D01*
X11702824Y7657149D01*
X11719153Y7640821D01*
X11739151Y7629275D01*
X11761456Y7623298D01*
X11766652D01*
Y7704648D01*
D02*
G37*
G36*
X11437660Y7790160D02*
X11362340D01*
Y7709840D01*
X11376692D01*
Y7659642D01*
X11378466Y7650722D01*
X11383519Y7643161D01*
X11464883Y7561796D01*
X11472445Y7556744D01*
X11481364Y7554970D01*
X11896068D01*
X11941842Y7509196D01*
Y7371838D01*
X12112161D01*
Y7542158D01*
X11974804D01*
X11922203Y7594758D01*
X11914642Y7599811D01*
X11905722Y7601585D01*
X11491019D01*
X11423308Y7669296D01*
Y7709840D01*
X11437660D01*
Y7790160D01*
D02*
G37*
G36*
X11784213Y7542158D02*
X11761790D01*
X11740131Y7536354D01*
X11720712Y7525143D01*
X11704857Y7509287D01*
X11693645Y7489868D01*
X11687842Y7468210D01*
Y7445786D01*
X11693645Y7424128D01*
X11704857Y7404709D01*
X11720712Y7388853D01*
X11740131Y7377642D01*
X11761790Y7371838D01*
X11784213D01*
X11805872Y7377642D01*
X11825291Y7388853D01*
X11841146Y7404709D01*
X11852358Y7424128D01*
X11858161Y7445786D01*
Y7468210D01*
X11852358Y7489868D01*
X11841146Y7509287D01*
X11825291Y7525143D01*
X11805872Y7536354D01*
X11784213Y7542158D01*
D02*
G37*
G36*
X10292707Y6942701D02*
X10256357D01*
Y6906351D01*
X10292707D01*
Y6942701D01*
D02*
G37*
G36*
X10243657D02*
X10207308D01*
Y6906351D01*
X10243657D01*
Y6942701D01*
D02*
G37*
G36*
X10292707Y6893651D02*
X10256357D01*
Y6857301D01*
X10292707D01*
Y6893651D01*
D02*
G37*
G36*
X10243657D02*
X10207308D01*
Y6857301D01*
X10243657D01*
Y6893651D01*
D02*
G37*
G36*
X11784547Y6630699D02*
X11779352D01*
Y6549349D01*
X11860701D01*
Y6554545D01*
X11854725Y6576850D01*
X11843179Y6596848D01*
X11826851Y6613177D01*
X11806852Y6624723D01*
X11784547Y6630699D01*
D02*
G37*
G36*
X11766652D02*
X11761456D01*
X11739151Y6624723D01*
X11719153Y6613177D01*
X11702824Y6596848D01*
X11691278Y6576850D01*
X11685302Y6554545D01*
Y6549349D01*
X11766652D01*
Y6630699D01*
D02*
G37*
G36*
X10292702Y6587698D02*
X10216352D01*
Y6521348D01*
X10292702D01*
Y6587698D01*
D02*
G37*
G36*
X10203652D02*
X10127303D01*
Y6521348D01*
X10203652D01*
Y6587698D01*
D02*
G37*
G36*
X12038213Y6628159D02*
X12015790D01*
X11994131Y6622356D01*
X11974712Y6611144D01*
X11958857Y6595289D01*
X11947645Y6575870D01*
X11941842Y6554211D01*
Y6531788D01*
X11947645Y6510129D01*
X11958857Y6490710D01*
X11974712Y6474854D01*
X11994131Y6463643D01*
X12015790Y6457840D01*
X12038213D01*
X12059872Y6463643D01*
X12079291Y6474854D01*
X12095146Y6490710D01*
X12106358Y6510129D01*
X12112161Y6531788D01*
Y6554211D01*
X12106358Y6575870D01*
X12095146Y6595289D01*
X12079291Y6611144D01*
X12059872Y6622356D01*
X12038213Y6628159D01*
D02*
G37*
G36*
X11860701Y6536649D02*
X11779352D01*
Y6455300D01*
X11784547D01*
X11806852Y6461276D01*
X11826851Y6472822D01*
X11843179Y6489150D01*
X11854725Y6509149D01*
X11860701Y6531454D01*
Y6536649D01*
D02*
G37*
G36*
X11766652D02*
X11685302D01*
Y6531454D01*
X11691278Y6509149D01*
X11702824Y6489150D01*
X11719153Y6472822D01*
X11739151Y6461276D01*
X11761456Y6455300D01*
X11766652D01*
Y6536649D01*
D02*
G37*
G36*
X10292702Y6508648D02*
X10216352D01*
Y6442299D01*
X10292702D01*
Y6508648D01*
D02*
G37*
G36*
X10203652D02*
X10127303D01*
Y6442299D01*
X10203652D01*
Y6508648D01*
D02*
G37*
G36*
X11784547Y6376699D02*
X11779352D01*
Y6295349D01*
X11860701D01*
Y6300545D01*
X11854725Y6322850D01*
X11843179Y6342848D01*
X11826851Y6359177D01*
X11806852Y6370723D01*
X11784547Y6376699D01*
D02*
G37*
G36*
X11766652D02*
X11761456D01*
X11739151Y6370723D01*
X11719153Y6359177D01*
X11702824Y6342848D01*
X11691278Y6322850D01*
X11685302Y6300545D01*
Y6295349D01*
X11766652D01*
Y6376699D01*
D02*
G37*
G36*
X12038213Y6374159D02*
X12015790D01*
X11994131Y6368356D01*
X11974712Y6357144D01*
X11958857Y6341289D01*
X11947645Y6321870D01*
X11941842Y6300211D01*
Y6277788D01*
X11947645Y6256129D01*
X11958857Y6236710D01*
X11974712Y6220854D01*
X11994131Y6209643D01*
X12015790Y6203840D01*
X12038213D01*
X12059872Y6209643D01*
X12079291Y6220854D01*
X12095146Y6236710D01*
X12106358Y6256129D01*
X12112161Y6277788D01*
Y6300211D01*
X12106358Y6321870D01*
X12095146Y6341289D01*
X12079291Y6357144D01*
X12059872Y6368356D01*
X12038213Y6374159D01*
D02*
G37*
G36*
X11860701Y6282649D02*
X11779352D01*
Y6201300D01*
X11784547D01*
X11806852Y6207276D01*
X11826851Y6218822D01*
X11843179Y6235150D01*
X11854725Y6255149D01*
X11860701Y6277454D01*
Y6282649D01*
D02*
G37*
G36*
X11766652D02*
X11685302D01*
Y6277454D01*
X11691278Y6255149D01*
X11702824Y6235150D01*
X11719153Y6218822D01*
X11739151Y6207276D01*
X11761456Y6201300D01*
X11766652D01*
Y6282649D01*
D02*
G37*
G36*
X11784547Y6122699D02*
X11779352D01*
Y6041349D01*
X11860701D01*
Y6046545D01*
X11854725Y6068850D01*
X11843179Y6088848D01*
X11826851Y6105177D01*
X11806852Y6116723D01*
X11784547Y6122699D01*
D02*
G37*
G36*
X11766652D02*
X11761456D01*
X11739151Y6116723D01*
X11719153Y6105177D01*
X11702824Y6088848D01*
X11691278Y6068850D01*
X11685302Y6046545D01*
Y6041349D01*
X11766652D01*
Y6122699D01*
D02*
G37*
G36*
X11860701Y6028649D02*
X11779352D01*
Y5947300D01*
X11784547D01*
X11806852Y5953276D01*
X11826851Y5964822D01*
X11843179Y5981150D01*
X11854725Y6001149D01*
X11860701Y6023454D01*
Y6028649D01*
D02*
G37*
G36*
X11766652D02*
X11685302D01*
Y6023454D01*
X11691278Y6001149D01*
X11702824Y5981150D01*
X11719153Y5964822D01*
X11739151Y5953276D01*
X11761456Y5947300D01*
X11766652D01*
Y6028649D01*
D02*
G37*
G36*
X8568547Y6014698D02*
X8563351D01*
Y5933349D01*
X8644701D01*
Y5938544D01*
X8638724Y5960849D01*
X8627178Y5980847D01*
X8610850Y5997175D01*
X8590852Y6008722D01*
X8568547Y6014698D01*
D02*
G37*
G36*
X8550651D02*
X8545455D01*
X8523150Y6008722D01*
X8503152Y5997175D01*
X8486824Y5980847D01*
X8475278Y5960849D01*
X8469301Y5938544D01*
Y5933349D01*
X8550651D01*
Y6014698D01*
D02*
G37*
G36*
X8822212Y6012158D02*
X8799789D01*
X8778131Y6006355D01*
X8758711Y5995143D01*
X8742856Y5979288D01*
X8731645Y5959869D01*
X8725841Y5938210D01*
Y5915787D01*
X8731645Y5894128D01*
X8742856Y5874709D01*
X8758711Y5858853D01*
X8778131Y5847642D01*
X8799789Y5841838D01*
X8822212D01*
X8843871Y5847642D01*
X8863290Y5858853D01*
X8879146Y5874709D01*
X8890357Y5894128D01*
X8896161Y5915787D01*
Y5938210D01*
X8890357Y5959869D01*
X8879146Y5979288D01*
X8863290Y5995143D01*
X8843871Y6006355D01*
X8822212Y6012158D01*
D02*
G37*
G36*
X8644701Y5920649D02*
X8563351D01*
Y5839298D01*
X8568547D01*
X8590852Y5845275D01*
X8610850Y5856821D01*
X8627178Y5873149D01*
X8638724Y5893147D01*
X8644701Y5915452D01*
Y5920649D01*
D02*
G37*
G36*
X8550651D02*
X8469301D01*
Y5915452D01*
X8475278Y5893147D01*
X8486824Y5873149D01*
X8503152Y5856821D01*
X8523150Y5845275D01*
X8545455Y5839298D01*
X8550651D01*
Y5920649D01*
D02*
G37*
G36*
X11784547Y5868699D02*
X11779352D01*
Y5787349D01*
X11860701D01*
Y5792545D01*
X11854725Y5814850D01*
X11843179Y5834848D01*
X11826851Y5851177D01*
X11806852Y5862723D01*
X11784547Y5868699D01*
D02*
G37*
G36*
X11766652D02*
X11761456D01*
X11739151Y5862723D01*
X11719153Y5851177D01*
X11702824Y5834848D01*
X11691278Y5814850D01*
X11685302Y5792545D01*
Y5787349D01*
X11766652D01*
Y5868699D01*
D02*
G37*
G36*
X12038213Y5866159D02*
X12015790D01*
X11994131Y5860356D01*
X11974712Y5849144D01*
X11958857Y5833289D01*
X11947645Y5813870D01*
X11941842Y5792211D01*
Y5769788D01*
X11947645Y5748129D01*
X11958857Y5728710D01*
X11974712Y5712854D01*
X11994131Y5701643D01*
X12015790Y5695840D01*
X12038213D01*
X12059872Y5701643D01*
X12079291Y5712854D01*
X12095146Y5728710D01*
X12106358Y5748129D01*
X12112161Y5769788D01*
Y5792211D01*
X12106358Y5813870D01*
X12095146Y5833289D01*
X12079291Y5849144D01*
X12059872Y5860356D01*
X12038213Y5866159D01*
D02*
G37*
G36*
X11860701Y5774649D02*
X11779352D01*
Y5693300D01*
X11784547D01*
X11806852Y5699276D01*
X11826851Y5710822D01*
X11843179Y5727150D01*
X11854725Y5747149D01*
X11860701Y5769454D01*
Y5774649D01*
D02*
G37*
G36*
X11766652D02*
X11685302D01*
Y5769454D01*
X11691278Y5747149D01*
X11702824Y5727150D01*
X11719153Y5710822D01*
X11739151Y5699276D01*
X11761456Y5693300D01*
X11766652D01*
Y5774649D01*
D02*
G37*
G36*
X8568547Y5760698D02*
X8563351D01*
Y5679349D01*
X8644701D01*
Y5684544D01*
X8638724Y5706849D01*
X8627178Y5726847D01*
X8610850Y5743175D01*
X8590852Y5754722D01*
X8568547Y5760698D01*
D02*
G37*
G36*
X8550651D02*
X8545455D01*
X8523150Y5754722D01*
X8503152Y5743175D01*
X8486824Y5726847D01*
X8475278Y5706849D01*
X8469301Y5684544D01*
Y5679349D01*
X8550651D01*
Y5760698D01*
D02*
G37*
G36*
X11537659Y5690158D02*
X11462340D01*
Y5609838D01*
X11537659D01*
Y5690158D01*
D02*
G37*
G36*
X8822212Y5758158D02*
X8799789D01*
X8778131Y5752355D01*
X8758711Y5741143D01*
X8742856Y5725288D01*
X8731645Y5705869D01*
X8725841Y5684210D01*
Y5661787D01*
X8731645Y5640128D01*
X8742856Y5620709D01*
X8758711Y5604853D01*
X8778131Y5593642D01*
X8799789Y5587838D01*
X8822212D01*
X8843871Y5593642D01*
X8863290Y5604853D01*
X8879146Y5620709D01*
X8890357Y5640128D01*
X8896161Y5661787D01*
Y5684210D01*
X8890357Y5705869D01*
X8879146Y5725288D01*
X8863290Y5741143D01*
X8843871Y5752355D01*
X8822212Y5758158D01*
D02*
G37*
G36*
X8644701Y5666649D02*
X8563351D01*
Y5585298D01*
X8568547D01*
X8590852Y5591275D01*
X8610850Y5602821D01*
X8627178Y5619149D01*
X8638724Y5639147D01*
X8644701Y5661452D01*
Y5666649D01*
D02*
G37*
G36*
X8550651D02*
X8469301D01*
Y5661452D01*
X8475278Y5639147D01*
X8486824Y5619149D01*
X8503152Y5602821D01*
X8523150Y5591275D01*
X8545455Y5585298D01*
X8550651D01*
Y5666649D01*
D02*
G37*
G36*
X11784547Y5614699D02*
X11779352D01*
Y5533349D01*
X11860701D01*
Y5538545D01*
X11854725Y5560850D01*
X11843179Y5580848D01*
X11826851Y5597177D01*
X11806852Y5608723D01*
X11784547Y5614699D01*
D02*
G37*
G36*
X11766652D02*
X11761456D01*
X11739151Y5608723D01*
X11719153Y5597177D01*
X11702824Y5580848D01*
X11691278Y5560850D01*
X11685302Y5538545D01*
Y5533349D01*
X11766652D01*
Y5614699D01*
D02*
G37*
G36*
X12038213Y5612159D02*
X12015790D01*
X11994131Y5606356D01*
X11974712Y5595144D01*
X11958857Y5579289D01*
X11947645Y5559870D01*
X11941842Y5538211D01*
Y5515788D01*
X11947645Y5494129D01*
X11958857Y5474710D01*
X11974712Y5458854D01*
X11994131Y5447643D01*
X12015790Y5441840D01*
X12038213D01*
X12059872Y5447643D01*
X12079291Y5458854D01*
X12095146Y5474710D01*
X12106358Y5494129D01*
X12112161Y5515788D01*
Y5538211D01*
X12106358Y5559870D01*
X12095146Y5579289D01*
X12079291Y5595144D01*
X12059872Y5606356D01*
X12038213Y5612159D01*
D02*
G37*
G36*
X11860701Y5520649D02*
X11779352D01*
Y5439300D01*
X11784547D01*
X11806852Y5445276D01*
X11826851Y5456822D01*
X11843179Y5473150D01*
X11854725Y5493149D01*
X11860701Y5515454D01*
Y5520649D01*
D02*
G37*
G36*
X11766652D02*
X11685302D01*
Y5515454D01*
X11691278Y5493149D01*
X11702824Y5473150D01*
X11719153Y5456822D01*
X11739151Y5445276D01*
X11761456Y5439300D01*
X11766652D01*
Y5520649D01*
D02*
G37*
G36*
X11784547Y5360699D02*
X11779352D01*
Y5279349D01*
X11860701D01*
Y5284545D01*
X11854725Y5306850D01*
X11843179Y5326848D01*
X11826851Y5343177D01*
X11806852Y5354723D01*
X11784547Y5360699D01*
D02*
G37*
G36*
X11766652D02*
X11761456D01*
X11739151Y5354723D01*
X11719153Y5343177D01*
X11702824Y5326848D01*
X11691278Y5306850D01*
X11685302Y5284545D01*
Y5279349D01*
X11766652D01*
Y5360699D01*
D02*
G37*
G36*
X8568547Y5314701D02*
X8563351D01*
Y5233351D01*
X8644701D01*
Y5238547D01*
X8638724Y5260852D01*
X8627178Y5280850D01*
X8610850Y5297179D01*
X8590852Y5308725D01*
X8568547Y5314701D01*
D02*
G37*
G36*
X8550651D02*
X8545455D01*
X8523150Y5308725D01*
X8503152Y5297179D01*
X8486824Y5280850D01*
X8475278Y5260852D01*
X8469301Y5238547D01*
Y5233351D01*
X8550651D01*
Y5314701D01*
D02*
G37*
G36*
X11537659Y5590158D02*
X11462340D01*
Y5509838D01*
X11483166D01*
Y5456836D01*
X11484447Y5450394D01*
X11488096Y5444933D01*
X11544914Y5388116D01*
X11550375Y5384467D01*
X11556817Y5383185D01*
X11893010D01*
X11955947Y5320248D01*
X11947645Y5305870D01*
X11941842Y5284211D01*
Y5261788D01*
X11947645Y5240129D01*
X11958857Y5220710D01*
X11974712Y5204854D01*
X11994131Y5193643D01*
X12015790Y5187840D01*
X12038213D01*
X12059872Y5193643D01*
X12079291Y5204854D01*
X12095146Y5220710D01*
X12106358Y5240129D01*
X12112161Y5261788D01*
Y5284211D01*
X12106358Y5305870D01*
X12095146Y5325289D01*
X12079291Y5341144D01*
X12059872Y5352356D01*
X12038213Y5358159D01*
X12015790D01*
X11994131Y5352356D01*
X11979753Y5344054D01*
X11911885Y5411922D01*
X11906424Y5415571D01*
X11899982Y5416852D01*
X11563789D01*
X11516833Y5463808D01*
Y5509838D01*
X11537659D01*
Y5590158D01*
D02*
G37*
G36*
X11860701Y5266649D02*
X11779352D01*
Y5185300D01*
X11784547D01*
X11806852Y5191276D01*
X11826851Y5202822D01*
X11843179Y5219150D01*
X11854725Y5239149D01*
X11860701Y5261454D01*
Y5266649D01*
D02*
G37*
G36*
X11766652D02*
X11685302D01*
Y5261454D01*
X11691278Y5239149D01*
X11702824Y5219150D01*
X11719153Y5202822D01*
X11739151Y5191276D01*
X11761456Y5185300D01*
X11766652D01*
Y5266649D01*
D02*
G37*
G36*
X8822212Y5312161D02*
X8799789D01*
X8778131Y5306358D01*
X8758711Y5295146D01*
X8742856Y5279291D01*
X8731645Y5259872D01*
X8725841Y5238213D01*
Y5215790D01*
X8731645Y5194131D01*
X8742856Y5174712D01*
X8758711Y5158857D01*
X8778131Y5147645D01*
X8799789Y5141842D01*
X8822212D01*
X8843871Y5147645D01*
X8863290Y5158857D01*
X8879146Y5174712D01*
X8890357Y5194131D01*
X8896161Y5215790D01*
Y5238213D01*
X8890357Y5259872D01*
X8879146Y5279291D01*
X8863290Y5295146D01*
X8843871Y5306358D01*
X8822212Y5312161D01*
D02*
G37*
G36*
X8644701Y5220651D02*
X8563351D01*
Y5139302D01*
X8568547D01*
X8590852Y5145278D01*
X8610850Y5156824D01*
X8627178Y5173152D01*
X8638724Y5193151D01*
X8644701Y5215456D01*
Y5220651D01*
D02*
G37*
G36*
X8550651D02*
X8469301D01*
Y5215456D01*
X8475278Y5193151D01*
X8486824Y5173152D01*
X8503152Y5156824D01*
X8523150Y5145278D01*
X8545455Y5139302D01*
X8550651D01*
Y5220651D01*
D02*
G37*
G36*
X11784547Y5106699D02*
X11779352D01*
Y5025349D01*
X11860701D01*
Y5030545D01*
X11854725Y5052850D01*
X11843179Y5072848D01*
X11826851Y5089177D01*
X11806852Y5100723D01*
X11784547Y5106699D01*
D02*
G37*
G36*
X11766652D02*
X11761456D01*
X11739151Y5100723D01*
X11719153Y5089177D01*
X11702824Y5072848D01*
X11691278Y5052850D01*
X11685302Y5030545D01*
Y5025349D01*
X11766652D01*
Y5106699D01*
D02*
G37*
G36*
X8568547Y5060701D02*
X8563351D01*
Y4979351D01*
X8644701D01*
Y4984547D01*
X8638724Y5006852D01*
X8627178Y5026850D01*
X8610850Y5043179D01*
X8590852Y5054725D01*
X8568547Y5060701D01*
D02*
G37*
G36*
X8550651D02*
X8545455D01*
X8523150Y5054725D01*
X8503152Y5043179D01*
X8486824Y5026850D01*
X8475278Y5006852D01*
X8469301Y4984547D01*
Y4979351D01*
X8550651D01*
Y5060701D01*
D02*
G37*
G36*
X12038213Y5104159D02*
X12015790D01*
X11994131Y5098356D01*
X11974712Y5087144D01*
X11958857Y5071289D01*
X11947645Y5051870D01*
X11941842Y5030211D01*
Y5007788D01*
X11947645Y4986129D01*
X11958857Y4966710D01*
X11974712Y4950854D01*
X11994131Y4939643D01*
X12015790Y4933840D01*
X12038213D01*
X12059872Y4939643D01*
X12079291Y4950854D01*
X12095146Y4966710D01*
X12106358Y4986129D01*
X12112161Y5007788D01*
Y5030211D01*
X12106358Y5051870D01*
X12095146Y5071289D01*
X12079291Y5087144D01*
X12059872Y5098356D01*
X12038213Y5104159D01*
D02*
G37*
G36*
X11860701Y5012649D02*
X11779352D01*
Y4931300D01*
X11784547D01*
X11806852Y4937276D01*
X11826851Y4948822D01*
X11843179Y4965150D01*
X11854725Y4985149D01*
X11860701Y5007454D01*
Y5012649D01*
D02*
G37*
G36*
X11766652D02*
X11685302D01*
Y5007454D01*
X11691278Y4985149D01*
X11702824Y4965150D01*
X11719153Y4948822D01*
X11739151Y4937276D01*
X11761456Y4931300D01*
X11766652D01*
Y5012649D01*
D02*
G37*
G36*
X8822212Y5058161D02*
X8799789D01*
X8778131Y5052358D01*
X8758711Y5041146D01*
X8742856Y5025291D01*
X8731645Y5005872D01*
X8725841Y4984213D01*
Y4961790D01*
X8731645Y4940131D01*
X8742856Y4920712D01*
X8758711Y4904857D01*
X8778131Y4893645D01*
X8799789Y4887842D01*
X8822212D01*
X8843871Y4893645D01*
X8863290Y4904857D01*
X8879146Y4920712D01*
X8890357Y4940131D01*
X8896161Y4961790D01*
Y4984213D01*
X8890357Y5005872D01*
X8879146Y5025291D01*
X8863290Y5041146D01*
X8843871Y5052358D01*
X8822212Y5058161D01*
D02*
G37*
G36*
X8644701Y4966651D02*
X8563351D01*
Y4885302D01*
X8568547D01*
X8590852Y4891278D01*
X8610850Y4902824D01*
X8627178Y4919152D01*
X8638724Y4939151D01*
X8644701Y4961456D01*
Y4966651D01*
D02*
G37*
G36*
X8550651D02*
X8469301D01*
Y4961456D01*
X8475278Y4939151D01*
X8486824Y4919152D01*
X8503152Y4902824D01*
X8523150Y4891278D01*
X8545455Y4885302D01*
X8550651D01*
Y4966651D01*
D02*
G37*
G36*
X11784547Y4852699D02*
X11779352D01*
Y4771349D01*
X11860701D01*
Y4776545D01*
X11854725Y4798850D01*
X11843179Y4818848D01*
X11826851Y4835177D01*
X11806852Y4846723D01*
X11784547Y4852699D01*
D02*
G37*
G36*
X11766652D02*
X11761456D01*
X11739151Y4846723D01*
X11719153Y4835177D01*
X11702824Y4818848D01*
X11691278Y4798850D01*
X11685302Y4776545D01*
Y4771349D01*
X11766652D01*
Y4852699D01*
D02*
G37*
G36*
X12038213Y4850159D02*
X12015790D01*
X11994131Y4844356D01*
X11974712Y4833144D01*
X11958857Y4817289D01*
X11947645Y4797870D01*
X11941842Y4776211D01*
Y4753788D01*
X11947645Y4732129D01*
X11958857Y4712710D01*
X11974712Y4696854D01*
X11994131Y4685643D01*
X12015790Y4679840D01*
X12038213D01*
X12059872Y4685643D01*
X12079291Y4696854D01*
X12095146Y4712710D01*
X12106358Y4732129D01*
X12112161Y4753788D01*
Y4776211D01*
X12106358Y4797870D01*
X12095146Y4817289D01*
X12079291Y4833144D01*
X12059872Y4844356D01*
X12038213Y4850159D01*
D02*
G37*
G36*
X11860701Y4758649D02*
X11779352D01*
Y4677300D01*
X11784547D01*
X11806852Y4683276D01*
X11826851Y4694822D01*
X11843179Y4711150D01*
X11854725Y4731149D01*
X11860701Y4753454D01*
Y4758649D01*
D02*
G37*
G36*
X11766652D02*
X11685302D01*
Y4753454D01*
X11691278Y4731149D01*
X11702824Y4711150D01*
X11719153Y4694822D01*
X11739151Y4683276D01*
X11761456Y4677300D01*
X11766652D01*
Y4758649D01*
D02*
G37*
G36*
X8568547Y4614700D02*
X8563351D01*
Y4533351D01*
X8644701D01*
Y4538546D01*
X8638724Y4560851D01*
X8627178Y4580849D01*
X8610850Y4597177D01*
X8590852Y4608723D01*
X8568547Y4614700D01*
D02*
G37*
G36*
X8822547D02*
X8817351D01*
Y4533351D01*
X8898701D01*
Y4538546D01*
X8892724Y4560851D01*
X8881178Y4580849D01*
X8864850Y4597177D01*
X8844852Y4608723D01*
X8822547Y4614700D01*
D02*
G37*
G36*
X8550651D02*
X8545455D01*
X8523150Y4608723D01*
X8503152Y4597177D01*
X8486824Y4580849D01*
X8475278Y4560851D01*
X8469301Y4538546D01*
Y4533351D01*
X8550651D01*
Y4614700D01*
D02*
G37*
G36*
X8804651D02*
X8799455D01*
X8777150Y4608723D01*
X8757152Y4597177D01*
X8740824Y4580849D01*
X8729278Y4560851D01*
X8723301Y4538546D01*
Y4533351D01*
X8804651D01*
Y4614700D01*
D02*
G37*
G36*
X11784547Y4598699D02*
X11779352D01*
Y4517349D01*
X11860701D01*
Y4522545D01*
X11854725Y4544850D01*
X11843179Y4564848D01*
X11826851Y4581177D01*
X11806852Y4592723D01*
X11784547Y4598699D01*
D02*
G37*
G36*
X11766652D02*
X11761456D01*
X11739151Y4592723D01*
X11719153Y4581177D01*
X11702824Y4564848D01*
X11691278Y4544850D01*
X11685302Y4522545D01*
Y4517349D01*
X11766652D01*
Y4598699D01*
D02*
G37*
G36*
X8898701Y4520651D02*
X8817351D01*
Y4439300D01*
X8822547D01*
X8844852Y4445277D01*
X8864850Y4456823D01*
X8881178Y4473151D01*
X8892724Y4493149D01*
X8898701Y4515454D01*
Y4520651D01*
D02*
G37*
G36*
X8804651D02*
X8723301D01*
Y4515454D01*
X8729278Y4493149D01*
X8740824Y4473151D01*
X8757152Y4456823D01*
X8777150Y4445277D01*
X8799455Y4439300D01*
X8804651D01*
Y4520651D01*
D02*
G37*
G36*
X8644701D02*
X8563351D01*
Y4439300D01*
X8568547D01*
X8590852Y4445277D01*
X8610850Y4456823D01*
X8627178Y4473151D01*
X8638724Y4493149D01*
X8644701Y4515454D01*
Y4520651D01*
D02*
G37*
G36*
X8550651D02*
X8469301D01*
Y4515454D01*
X8475278Y4493149D01*
X8486824Y4473151D01*
X8503152Y4456823D01*
X8523150Y4445277D01*
X8545455Y4439300D01*
X8550651D01*
Y4520651D01*
D02*
G37*
G36*
X12038213Y4596159D02*
X12015790D01*
X11994131Y4590356D01*
X11974712Y4579144D01*
X11958857Y4563289D01*
X11947645Y4543870D01*
X11941842Y4522211D01*
Y4499788D01*
X11947645Y4478129D01*
X11958857Y4458710D01*
X11974712Y4442854D01*
X11994131Y4431643D01*
X12015790Y4425840D01*
X12038213D01*
X12059872Y4431643D01*
X12079291Y4442854D01*
X12095146Y4458710D01*
X12106358Y4478129D01*
X12112161Y4499788D01*
Y4522211D01*
X12106358Y4543870D01*
X12095146Y4563289D01*
X12079291Y4579144D01*
X12059872Y4590356D01*
X12038213Y4596159D01*
D02*
G37*
G36*
X11860701Y4504649D02*
X11779352D01*
Y4423300D01*
X11784547D01*
X11806852Y4429276D01*
X11826851Y4440822D01*
X11843179Y4457150D01*
X11854725Y4477149D01*
X11860701Y4499454D01*
Y4504649D01*
D02*
G37*
G36*
X11766652D02*
X11685302D01*
Y4499454D01*
X11691278Y4477149D01*
X11702824Y4457150D01*
X11719153Y4440822D01*
X11739151Y4429276D01*
X11761456Y4423300D01*
X11766652D01*
Y4504649D01*
D02*
G37*
G36*
X10600547Y4360700D02*
X10595351D01*
Y4279351D01*
X10676701D01*
Y4284546D01*
X10670724Y4306851D01*
X10659178Y4326849D01*
X10642850Y4343177D01*
X10622852Y4354723D01*
X10600547Y4360700D01*
D02*
G37*
G36*
X9330547D02*
X9325351D01*
Y4279351D01*
X9406701D01*
Y4284546D01*
X9400724Y4306851D01*
X9389178Y4326849D01*
X9372850Y4343177D01*
X9352852Y4354723D01*
X9330547Y4360700D01*
D02*
G37*
G36*
X10346547D02*
X10341351D01*
Y4279351D01*
X10422701D01*
Y4284546D01*
X10416724Y4306851D01*
X10405178Y4326849D01*
X10388850Y4343177D01*
X10368852Y4354723D01*
X10346547Y4360700D01*
D02*
G37*
G36*
X9584547D02*
X9579351D01*
Y4279351D01*
X9660701D01*
Y4284546D01*
X9654724Y4306851D01*
X9643178Y4326849D01*
X9626850Y4343177D01*
X9606852Y4354723D01*
X9584547Y4360700D01*
D02*
G37*
G36*
X9076547D02*
X9071351D01*
Y4279351D01*
X9152701D01*
Y4284546D01*
X9146724Y4306851D01*
X9135178Y4326849D01*
X9118850Y4343177D01*
X9098852Y4354723D01*
X9076547Y4360700D01*
D02*
G37*
G36*
X8568547D02*
X8563351D01*
Y4279351D01*
X8644701D01*
Y4284546D01*
X8638724Y4306851D01*
X8627178Y4326849D01*
X8610850Y4343177D01*
X8590852Y4354723D01*
X8568547Y4360700D01*
D02*
G37*
G36*
X10092547D02*
X10087351D01*
Y4279351D01*
X10168701D01*
Y4284546D01*
X10162724Y4306851D01*
X10151178Y4326849D01*
X10134850Y4343177D01*
X10114852Y4354723D01*
X10092547Y4360700D01*
D02*
G37*
G36*
X9838547D02*
X9833351D01*
Y4279351D01*
X9914701D01*
Y4284546D01*
X9908724Y4306851D01*
X9897178Y4326849D01*
X9880850Y4343177D01*
X9860852Y4354723D01*
X9838547Y4360700D01*
D02*
G37*
G36*
X8822547D02*
X8817351D01*
Y4279351D01*
X8898701D01*
Y4284546D01*
X8892724Y4306851D01*
X8881178Y4326849D01*
X8864850Y4343177D01*
X8844852Y4354723D01*
X8822547Y4360700D01*
D02*
G37*
G36*
X10582651D02*
X10577455D01*
X10555150Y4354723D01*
X10535152Y4343177D01*
X10518824Y4326849D01*
X10507278Y4306851D01*
X10501301Y4284546D01*
Y4279351D01*
X10582651D01*
Y4360700D01*
D02*
G37*
G36*
X9312651D02*
X9307455D01*
X9285150Y4354723D01*
X9265152Y4343177D01*
X9248824Y4326849D01*
X9237278Y4306851D01*
X9231301Y4284546D01*
Y4279351D01*
X9312651D01*
Y4360700D01*
D02*
G37*
G36*
X9566651D02*
X9561455D01*
X9539150Y4354723D01*
X9519152Y4343177D01*
X9502824Y4326849D01*
X9491278Y4306851D01*
X9485301Y4284546D01*
Y4279351D01*
X9566651D01*
Y4360700D01*
D02*
G37*
G36*
X9058651D02*
X9053455D01*
X9031150Y4354723D01*
X9011152Y4343177D01*
X8994824Y4326849D01*
X8983278Y4306851D01*
X8977301Y4284546D01*
Y4279351D01*
X9058651D01*
Y4360700D01*
D02*
G37*
G36*
X8550651D02*
X8545455D01*
X8523150Y4354723D01*
X8503152Y4343177D01*
X8486824Y4326849D01*
X8475278Y4306851D01*
X8469301Y4284546D01*
Y4279351D01*
X8550651D01*
Y4360700D01*
D02*
G37*
G36*
X10328651D02*
X10323455D01*
X10301150Y4354723D01*
X10281152Y4343177D01*
X10264824Y4326849D01*
X10253278Y4306851D01*
X10247301Y4284546D01*
Y4279351D01*
X10328651D01*
Y4360700D01*
D02*
G37*
G36*
X9820651D02*
X9815455D01*
X9793150Y4354723D01*
X9773152Y4343177D01*
X9756824Y4326849D01*
X9745278Y4306851D01*
X9739301Y4284546D01*
Y4279351D01*
X9820651D01*
Y4360700D01*
D02*
G37*
G36*
X8804651D02*
X8799455D01*
X8777150Y4354723D01*
X8757152Y4343177D01*
X8740824Y4326849D01*
X8729278Y4306851D01*
X8723301Y4284546D01*
Y4279351D01*
X8804651D01*
Y4360700D01*
D02*
G37*
G36*
X10074651D02*
X10069455D01*
X10047150Y4354723D01*
X10027152Y4343177D01*
X10010824Y4326849D01*
X9999278Y4306851D01*
X9993301Y4284546D01*
Y4279351D01*
X10074651D01*
Y4360700D01*
D02*
G37*
G36*
X10676701Y4266651D02*
X10595351D01*
Y4185300D01*
X10600547D01*
X10622852Y4191277D01*
X10642850Y4202823D01*
X10659178Y4219151D01*
X10670724Y4239149D01*
X10676701Y4261454D01*
Y4266651D01*
D02*
G37*
G36*
X10582651D02*
X10501301D01*
Y4261454D01*
X10507278Y4239149D01*
X10518824Y4219151D01*
X10535152Y4202823D01*
X10555150Y4191277D01*
X10577455Y4185300D01*
X10582651D01*
Y4266651D01*
D02*
G37*
G36*
X10422701D02*
X10341351D01*
Y4185300D01*
X10346547D01*
X10368852Y4191277D01*
X10388850Y4202823D01*
X10405178Y4219151D01*
X10416724Y4239149D01*
X10422701Y4261454D01*
Y4266651D01*
D02*
G37*
G36*
X10328651D02*
X10247301D01*
Y4261454D01*
X10253278Y4239149D01*
X10264824Y4219151D01*
X10281152Y4202823D01*
X10301150Y4191277D01*
X10323455Y4185300D01*
X10328651D01*
Y4266651D01*
D02*
G37*
G36*
X10168701D02*
X10087351D01*
Y4185300D01*
X10092547D01*
X10114852Y4191277D01*
X10134850Y4202823D01*
X10151178Y4219151D01*
X10162724Y4239149D01*
X10168701Y4261454D01*
Y4266651D01*
D02*
G37*
G36*
X10074651D02*
X9993301D01*
Y4261454D01*
X9999278Y4239149D01*
X10010824Y4219151D01*
X10027152Y4202823D01*
X10047150Y4191277D01*
X10069455Y4185300D01*
X10074651D01*
Y4266651D01*
D02*
G37*
G36*
X9914701D02*
X9833351D01*
Y4185300D01*
X9838547D01*
X9860852Y4191277D01*
X9880850Y4202823D01*
X9897178Y4219151D01*
X9908724Y4239149D01*
X9914701Y4261454D01*
Y4266651D01*
D02*
G37*
G36*
X9820651D02*
X9739301D01*
Y4261454D01*
X9745278Y4239149D01*
X9756824Y4219151D01*
X9773152Y4202823D01*
X9793150Y4191277D01*
X9815455Y4185300D01*
X9820651D01*
Y4266651D01*
D02*
G37*
G36*
X9660701D02*
X9579351D01*
Y4185300D01*
X9584547D01*
X9606852Y4191277D01*
X9626850Y4202823D01*
X9643178Y4219151D01*
X9654724Y4239149D01*
X9660701Y4261454D01*
Y4266651D01*
D02*
G37*
G36*
X9566651D02*
X9485301D01*
Y4261454D01*
X9491278Y4239149D01*
X9502824Y4219151D01*
X9519152Y4202823D01*
X9539150Y4191277D01*
X9561455Y4185300D01*
X9566651D01*
Y4266651D01*
D02*
G37*
G36*
X9406701D02*
X9325351D01*
Y4185300D01*
X9330547D01*
X9352852Y4191277D01*
X9372850Y4202823D01*
X9389178Y4219151D01*
X9400724Y4239149D01*
X9406701Y4261454D01*
Y4266651D01*
D02*
G37*
G36*
X9312651D02*
X9231301D01*
Y4261454D01*
X9237278Y4239149D01*
X9248824Y4219151D01*
X9265152Y4202823D01*
X9285150Y4191277D01*
X9307455Y4185300D01*
X9312651D01*
Y4266651D01*
D02*
G37*
G36*
X9152701D02*
X9071351D01*
Y4185300D01*
X9076547D01*
X9098852Y4191277D01*
X9118850Y4202823D01*
X9135178Y4219151D01*
X9146724Y4239149D01*
X9152701Y4261454D01*
Y4266651D01*
D02*
G37*
G36*
X9058651D02*
X8977301D01*
Y4261454D01*
X8983278Y4239149D01*
X8994824Y4219151D01*
X9011152Y4202823D01*
X9031150Y4191277D01*
X9053455Y4185300D01*
X9058651D01*
Y4266651D01*
D02*
G37*
G36*
X8898701D02*
X8817351D01*
Y4185300D01*
X8822547D01*
X8844852Y4191277D01*
X8864850Y4202823D01*
X8881178Y4219151D01*
X8892724Y4239149D01*
X8898701Y4261454D01*
Y4266651D01*
D02*
G37*
G36*
X8804651D02*
X8723301D01*
Y4261454D01*
X8729278Y4239149D01*
X8740824Y4219151D01*
X8757152Y4202823D01*
X8777150Y4191277D01*
X8799455Y4185300D01*
X8804651D01*
Y4266651D01*
D02*
G37*
G36*
X8644701D02*
X8563351D01*
Y4185300D01*
X8568547D01*
X8590852Y4191277D01*
X8610850Y4202823D01*
X8627178Y4219151D01*
X8638724Y4239149D01*
X8644701Y4261454D01*
Y4266651D01*
D02*
G37*
G36*
X8550651D02*
X8469301D01*
Y4261454D01*
X8475278Y4239149D01*
X8486824Y4219151D01*
X8503152Y4202823D01*
X8523150Y4191277D01*
X8545455Y4185300D01*
X8550651D01*
Y4266651D01*
D02*
G37*
G36*
X12112161Y4342159D02*
X11941842D01*
Y4171840D01*
X12112161D01*
Y4342159D01*
D02*
G37*
G36*
X11784213D02*
X11761790D01*
X11740131Y4336356D01*
X11720712Y4325144D01*
X11704857Y4309289D01*
X11693645Y4289870D01*
X11687842Y4268211D01*
Y4245788D01*
X11693645Y4224129D01*
X11704857Y4204710D01*
X11720712Y4188854D01*
X11740131Y4177643D01*
X11761790Y4171840D01*
X11784213D01*
X11805872Y4177643D01*
X11825291Y4188854D01*
X11841146Y4204710D01*
X11852358Y4224129D01*
X11858161Y4245788D01*
Y4268211D01*
X11852358Y4289870D01*
X11841146Y4309289D01*
X11825291Y4325144D01*
X11805872Y4336356D01*
X11784213Y4342159D01*
D02*
G37*
%LPD*%
G36*
X10146315Y10094963D02*
Y9334884D01*
X10149119Y9313591D01*
X10157337Y9293749D01*
X10170411Y9276710D01*
X10532628Y8914493D01*
X10532630Y8914491D01*
X10617730Y8829391D01*
Y8057846D01*
X10572878Y8012995D01*
X10542699D01*
Y8042694D01*
X10542700Y8042694D01*
X10539081Y8055394D01*
X10540989Y8060000D01*
Y8129998D01*
X10540159Y8132000D01*
Y8140159D01*
X10536256D01*
Y8700001D01*
X10533496Y8713876D01*
X10525637Y8725638D01*
X10525636Y8725639D01*
X10325637Y8925637D01*
X10313875Y8933497D01*
X10300000Y8936257D01*
X10299999Y8936257D01*
X9644652D01*
X9644312Y8936397D01*
X9621251D01*
X9618679Y8936523D01*
X9613374Y8937579D01*
X9608629Y8939544D01*
X9604132Y8942549D01*
X9602225Y8944277D01*
X9598815Y8947687D01*
X9598814Y8947688D01*
X9596221Y8950281D01*
X9595180Y8950712D01*
X9594554Y8951649D01*
X9588452Y8955726D01*
X9587347Y8955946D01*
X9586551Y8956743D01*
X9579771Y8959551D01*
X9578645D01*
X9577708Y8960177D01*
X9570511Y8961608D01*
X9569406Y8961389D01*
X9568365Y8961820D01*
X9551685D01*
X9550004Y8962154D01*
X9325745D01*
X9233950Y9053949D01*
X9213786Y9067423D01*
X9190000Y9072154D01*
X9073499D01*
Y9451406D01*
X9071141Y9457099D01*
X9076255Y9469798D01*
X9081091Y9469799D01*
X9081092Y9469798D01*
X9081121Y9469799D01*
X9123650D01*
Y9583649D01*
X9069799D01*
Y9479974D01*
X9069799Y9473127D01*
X9065058Y9466161D01*
X9060162Y9462403D01*
X9041002D01*
Y9830008D01*
X9040162Y9832035D01*
Y9840171D01*
X9032020D01*
X9030005Y9841005D01*
X8854701D01*
X8842708Y9842711D01*
Y9842711D01*
X8842707Y9842711D01*
X8806358D01*
Y9800011D01*
Y9757311D01*
X8841502D01*
Y9462403D01*
X8741217D01*
X8737777Y9474725D01*
X8740998Y9482501D01*
Y9980011D01*
X8740163Y9982026D01*
Y9990168D01*
X8736260D01*
Y10015823D01*
X8784180Y10063743D01*
X9305286D01*
X9381399Y9987631D01*
X9393162Y9979772D01*
X9407036Y9977011D01*
X9407038Y9977012D01*
X9994834D01*
X9994835Y9977011D01*
X10008710Y9979772D01*
X10020472Y9987631D01*
X10077138Y10044297D01*
X10077139Y10044297D01*
X10084998Y10056060D01*
X10086967Y10065955D01*
X10099667Y10064705D01*
Y10030702D01*
X10063637Y9994672D01*
X10059988Y9989211D01*
X10058707Y9982769D01*
Y9838703D01*
X10037880D01*
Y9758383D01*
X10113200D01*
Y9838703D01*
X10092373D01*
Y9975796D01*
X10128403Y10011826D01*
X10132052Y10017287D01*
X10133333Y10023729D01*
Y10089281D01*
X10145365Y10095565D01*
X10146315Y10094963D01*
D02*
G37*
G36*
X8730000Y9482501D02*
X8622502D01*
Y9980011D01*
X8730000D01*
Y9482501D01*
D02*
G37*
G36*
X9030005Y9451406D02*
X9062502D01*
Y8902502D01*
X8737498D01*
Y9451406D01*
X8852499D01*
Y9830008D01*
X9030005D01*
Y9451406D01*
D02*
G37*
G36*
X9854990Y8420002D02*
X9790000Y8355011D01*
Y8195000D01*
X9760000D01*
Y8480003D01*
X9854990D01*
Y8420002D01*
D02*
G37*
G36*
X9575563Y8949391D02*
X9582343Y8946583D01*
X9588444Y8942506D01*
X9591038Y8939911D01*
X9591039Y8939911D01*
X9594639Y8936311D01*
X9597347Y8933856D01*
X9603420Y8929799D01*
X9610167Y8927004D01*
X9617330Y8925579D01*
X9620981Y8925400D01*
X9644312D01*
Y8874600D01*
X9631766Y8873364D01*
X9608584Y8863762D01*
X9590842Y8846019D01*
X9581239Y8822837D01*
X9580004Y8810291D01*
X9580003D01*
Y8605007D01*
X9580001Y8525001D01*
X9625000Y8480003D01*
X9740000D01*
Y8195000D01*
X9710000D01*
Y8365286D01*
X9696943Y8378342D01*
X9521657D01*
X9450056Y8449944D01*
Y8784943D01*
X9450004Y8784891D01*
X9448768Y8797437D01*
X9439166Y8820619D01*
X9421423Y8838362D01*
X9398241Y8847964D01*
X9385695Y8849200D01*
Y8900000D01*
X9550004D01*
Y8950823D01*
X9568365D01*
X9575563Y8949391D01*
D02*
G37*
G36*
X10529991Y8060000D02*
X10195000D01*
Y8090000D01*
X10388477D01*
X10428474Y8129998D01*
X10529991D01*
Y8060000D01*
D02*
G37*
G36*
X9205000Y7710000D02*
X9046708D01*
X8996708Y7660000D01*
X8560000D01*
Y7740000D01*
X9205000D01*
Y7710000D01*
D02*
G37*
G36*
X10529991Y7360002D02*
X10195000D01*
Y7390002D01*
X10388477D01*
X10428474Y7429999D01*
X10529991D01*
Y7360002D01*
D02*
G37*
G36*
X10573053Y7407874D02*
Y6505362D01*
X10415596Y6347906D01*
X10411947Y6342445D01*
X10410665Y6336003D01*
Y5989729D01*
X10397965Y5984468D01*
X10387290Y5995143D01*
X10367871Y6006355D01*
X10351834Y6010652D01*
Y6313270D01*
X10447618Y6409053D01*
X10451267Y6414515D01*
X10452548Y6420956D01*
Y6984087D01*
X10451267Y6990529D01*
X10447618Y6995990D01*
X10152094Y7291514D01*
Y7382347D01*
X10164110Y7394363D01*
X10175003Y7387295D01*
Y7340002D01*
X10365002D01*
Y7349005D01*
X10447225D01*
X10457309Y7342690D01*
Y7339999D01*
X10529991D01*
Y7306340D01*
X10542709D01*
Y7340574D01*
X10542710Y7342690D01*
X10539078Y7355390D01*
X10540989Y7360002D01*
Y7421978D01*
X10553689Y7427238D01*
X10573053Y7407874D01*
D02*
G37*
G36*
X9540000Y6870009D02*
X9470003D01*
Y6971526D01*
X9510000Y7011524D01*
Y7205000D01*
X9540000D01*
Y6870009D01*
D02*
G37*
G36*
X9959840Y6930323D02*
Y6859842D01*
X9983505D01*
Y6835231D01*
X9988336Y6823567D01*
X10014254Y6797649D01*
X10025918Y6792818D01*
X10053117D01*
X10077539Y6768395D01*
X10070273Y6757700D01*
X9996348D01*
Y6685001D01*
Y6612301D01*
X10047378D01*
X10052238Y6600567D01*
X10043256Y6591585D01*
X10040594Y6585158D01*
X9909838D01*
Y6455940D01*
X9897138Y6450680D01*
X9859015Y6488802D01*
Y6857301D01*
X9893645D01*
Y6900001D01*
X9899995D01*
Y6906351D01*
X9942695D01*
Y6936164D01*
X9947140Y6938304D01*
X9959840Y6930323D01*
D02*
G37*
%LPC*%
G36*
X8842708Y9992708D02*
X8806358D01*
Y9956358D01*
X8842708D01*
Y9992708D01*
D02*
G37*
G36*
X8793658D02*
X8757308D01*
Y9956358D01*
X8793658D01*
Y9992708D01*
D02*
G37*
G36*
X8842708Y9943658D02*
X8806358D01*
Y9907308D01*
X8842708D01*
Y9943658D01*
D02*
G37*
G36*
X8793658D02*
X8757308D01*
Y9907308D01*
X8793658D01*
Y9943658D01*
D02*
G37*
G36*
X9142707Y9842711D02*
X9106357D01*
Y9806361D01*
X9142707D01*
Y9842711D01*
D02*
G37*
G36*
X9093657D02*
X9057307D01*
Y9806361D01*
X9093657D01*
Y9842711D01*
D02*
G37*
G36*
X8793658D02*
X8757308D01*
Y9806361D01*
X8793658D01*
Y9842711D01*
D02*
G37*
G36*
X9142707Y9793661D02*
X9106357D01*
Y9757311D01*
X9142707D01*
Y9793661D01*
D02*
G37*
G36*
X9093657D02*
X9057307D01*
Y9757311D01*
X9093657D01*
Y9793661D01*
D02*
G37*
G36*
X8793658D02*
X8757308D01*
Y9757311D01*
X8793658D01*
Y9793661D01*
D02*
G37*
G36*
X10115740Y9741243D02*
X10081890D01*
Y9704893D01*
X10115740D01*
Y9741243D01*
D02*
G37*
G36*
X10069190D02*
X10035340D01*
Y9704893D01*
X10069190D01*
Y9741243D01*
D02*
G37*
G36*
X10115740Y9692193D02*
X10081890D01*
Y9655843D01*
X10115740D01*
Y9692193D01*
D02*
G37*
G36*
X10069190D02*
X10035340D01*
Y9655843D01*
X10069190D01*
Y9692193D01*
D02*
G37*
G36*
X9190200Y9710199D02*
X9136350D01*
Y9596349D01*
X9190200D01*
Y9710199D01*
D02*
G37*
G36*
X9123650D02*
X9069799D01*
Y9596349D01*
X9123650D01*
Y9710199D01*
D02*
G37*
G36*
X9190200Y9583649D02*
X9136350D01*
Y9469799D01*
X9190200D01*
Y9583649D01*
D02*
G37*
G36*
X10542709Y7293640D02*
X10529991D01*
Y7270002D01*
X10506359D01*
Y7257291D01*
X10542709D01*
Y7293640D01*
D02*
G37*
G36*
X10493659Y7270002D02*
X10457310D01*
Y7257291D01*
X10493659D01*
Y7270002D01*
D02*
G37*
G36*
X9942695Y6893651D02*
X9906345D01*
Y6857301D01*
X9942695D01*
Y6893651D01*
D02*
G37*
G36*
X9983648Y6757700D02*
X9907298D01*
Y6691351D01*
X9983648D01*
Y6757700D01*
D02*
G37*
G36*
Y6678651D02*
X9907298D01*
Y6612301D01*
X9983648D01*
Y6678651D01*
D02*
G37*
%LPD*%
D10*
X11400000Y7750000D02*
D03*
Y7850000D02*
D03*
X11200000D02*
D03*
Y7750000D02*
D03*
X11499999Y5649998D02*
D03*
Y5549998D02*
D03*
X10075540Y9798543D02*
D03*
Y9698543D02*
D03*
X10475539Y9798543D02*
D03*
Y9698543D02*
D03*
X11499999Y8849996D02*
D03*
Y8749996D02*
D03*
X9949998Y8550001D02*
D03*
Y8450001D02*
D03*
X9099998Y10750001D02*
D03*
Y10650002D02*
D03*
X8899998Y10750001D02*
D03*
Y10650002D02*
D03*
D11*
X9130000Y8075000D02*
D03*
Y8024998D02*
D03*
Y7975001D02*
D03*
Y7924998D02*
D03*
Y7875001D02*
D03*
Y7824998D02*
D03*
Y7775001D02*
D03*
Y7724999D02*
D03*
Y7675001D02*
D03*
Y7624999D02*
D03*
Y7575001D02*
D03*
Y7524999D02*
D03*
Y7475002D02*
D03*
Y7424999D02*
D03*
Y7375002D02*
D03*
Y7324999D02*
D03*
X10270002D02*
D03*
Y7375002D02*
D03*
Y7424999D02*
D03*
Y7475002D02*
D03*
Y7524999D02*
D03*
Y7575001D02*
D03*
Y7624999D02*
D03*
Y7675001D02*
D03*
Y7724999D02*
D03*
Y7775001D02*
D03*
Y7824998D02*
D03*
Y7875001D02*
D03*
Y7924998D02*
D03*
Y7975001D02*
D03*
Y8024998D02*
D03*
Y8075000D02*
D03*
D12*
X9325000Y7129998D02*
D03*
X9374998D02*
D03*
X9425000D02*
D03*
X9474998D02*
D03*
X9525000D02*
D03*
X9575002D02*
D03*
X9625000D02*
D03*
X9675002D02*
D03*
X9725000D02*
D03*
X9775002D02*
D03*
X9824999D02*
D03*
X9875002D02*
D03*
X9924999D02*
D03*
X9975002D02*
D03*
X10024999D02*
D03*
X10075001D02*
D03*
X9775002Y8270001D02*
D03*
X10075001D02*
D03*
X10024999D02*
D03*
X9975002D02*
D03*
X9924999D02*
D03*
X9875002D02*
D03*
X9824999D02*
D03*
X9725000D02*
D03*
X9374998D02*
D03*
X9325000D02*
D03*
X9425000D02*
D03*
X9474998D02*
D03*
X9525000D02*
D03*
X9575002D02*
D03*
X9625000D02*
D03*
X9675002D02*
D03*
D13*
X9000002Y9800011D02*
D03*
X9100007D02*
D03*
X8700003Y9950008D02*
D03*
X8800008D02*
D03*
X8700003Y9800011D02*
D03*
X8800008D02*
D03*
X10150001Y8500011D02*
D03*
X10250011D02*
D03*
X9550004Y8700008D02*
D03*
X9650009D02*
D03*
X9500001Y6900012D02*
D03*
X9600011D02*
D03*
X10000000Y6900001D02*
D03*
X9899995D02*
D03*
X10150003D02*
D03*
X10250007D02*
D03*
D14*
X8900003Y9010000D02*
D03*
D15*
X8670000Y9589999D02*
D03*
X8900003D02*
D03*
X9130000D02*
D03*
D16*
X8800008Y8024998D02*
D03*
Y7924993D02*
D03*
X10499999Y8099999D02*
D03*
Y7999994D02*
D03*
X10500009Y7399995D02*
D03*
Y7299990D02*
D03*
X9674992Y8450001D02*
D03*
Y8550011D02*
D03*
X9824989Y8450001D02*
D03*
Y8550011D02*
D03*
X8749990Y7700005D02*
D03*
Y7800010D02*
D03*
X8900003Y7699995D02*
D03*
Y7800000D02*
D03*
X8799993Y8175005D02*
D03*
Y8275010D02*
D03*
D17*
X9099998Y10320000D02*
D03*
Y10479999D02*
D03*
X8899998Y10320000D02*
D03*
Y10479999D02*
D03*
D18*
X10611500Y10192502D02*
D03*
X10531500D02*
D03*
X10051501D02*
D03*
X9971502D02*
D03*
D19*
X10466502D02*
D03*
X10116500D02*
D03*
X10416499D02*
D03*
X10166502D02*
D03*
X10366502D02*
D03*
X10216500D02*
D03*
X10316500D02*
D03*
X10266502D02*
D03*
D20*
X10802498Y10250002D02*
D03*
X9780499D02*
D03*
X10802498Y10643001D02*
D03*
X9780499D02*
D03*
D21*
X8600000Y7840000D02*
D03*
Y7700000D02*
D03*
D22*
X10250002Y8599998D02*
D03*
X10150003D02*
D03*
D23*
X11066500Y10697500D02*
D03*
X11516502D02*
D03*
Y9902500D02*
D03*
X11066500D02*
D03*
D24*
X9989998Y6685001D02*
D03*
X10210002D02*
D03*
Y6514998D02*
D03*
X9989998D02*
D03*
D25*
X8599998Y8024998D02*
D03*
Y8175000D02*
D03*
D26*
X9975002Y8098405D02*
X10011525Y8061882D01*
X9975002Y8098405D02*
Y8270001D01*
X10024999Y8124330D02*
X10070338Y8078991D01*
X10024999Y8124330D02*
Y8270001D01*
X10075001Y8150677D02*
Y8270001D01*
Y8150677D02*
X10120168Y8105510D01*
X8499998Y10027453D02*
X8675889Y10203344D01*
X8854844D02*
X8899998Y10248497D01*
X8675889Y10203344D02*
X8854844D01*
X8899998Y10248497D02*
Y10320000D01*
X8499998Y8926910D02*
Y10027453D01*
X8699998Y10149756D02*
X9049753D01*
X9099998Y10200002D01*
Y10320000D01*
X11899982Y8600017D02*
X12027002Y8472998D01*
X11499999Y8656835D02*
Y8749996D01*
Y8656835D02*
X11556817Y8600017D01*
X11899982D01*
X11556817Y5400019D02*
X11899982D01*
X11499999Y5456836D02*
X11556817Y5400019D01*
X11499999Y5456836D02*
Y5549998D01*
X11899982Y5400019D02*
X12027002Y5272999D01*
X11234078Y6165922D02*
X11896079D01*
X12027002Y6034999D01*
X11003827Y6396173D02*
X11234078Y6165922D01*
X11003827Y6396173D02*
Y7618700D01*
X10881142Y7741385D02*
X11003827Y7618700D01*
X10881142Y7741385D02*
Y8556350D01*
X11066500Y9902500D02*
Y10697500D01*
X11200000Y7850000D02*
X11400000D01*
X8993391Y7475002D02*
X9130000D01*
X8628881Y6560372D02*
X9158911Y6030342D01*
Y4620910D02*
Y6030342D01*
X8628881Y6560372D02*
Y7337020D01*
X8685700Y6591767D02*
X9181771Y6095696D01*
Y5110232D02*
Y6095696D01*
X8685700Y6591767D02*
Y7325417D01*
X8738221Y6620925D02*
Y7316047D01*
Y6620925D02*
X9204631Y6154514D01*
Y5341372D02*
Y6154514D01*
X9162252Y6494612D02*
Y7208866D01*
X9261245Y7307859D01*
Y7637348D01*
X9236736Y6484785D02*
Y7195882D01*
Y6484785D02*
X9681972Y6039550D01*
X9236736Y7195882D02*
X9280413Y7239559D01*
X9452464D01*
X9223592Y7675001D02*
X9261245Y7637348D01*
X9130000Y7675001D02*
X9223592D01*
X9389451Y8077383D02*
X9441519D01*
X9325000Y8141834D02*
Y8270001D01*
Y8141834D02*
X9389451Y8077383D01*
X9333816Y7800761D02*
X9680927D01*
X9746708Y7866543D01*
X9130000Y7824998D02*
X9309579D01*
X9333816Y7800761D01*
X8499998Y8926910D02*
X8904672Y8522235D01*
X8559187Y8940826D02*
X8921394Y8578619D01*
X8559187Y10008945D02*
X8699998Y10149756D01*
X8559187Y8940826D02*
Y10008945D01*
X8904672Y8522235D02*
X9311851D01*
X8921394Y8578619D02*
X9287796D01*
X9474998Y8391418D01*
X9311851Y8522235D02*
X9425000Y8409086D01*
X9452464Y7239559D02*
X9474998Y7217025D01*
Y7129998D02*
Y7217025D01*
X10589886Y6498390D02*
Y7414847D01*
X10529731Y7475002D02*
X10589886Y7414847D01*
X10270002Y7475002D02*
X10529731D01*
X10270002Y7524999D02*
X10551365D01*
X10637873Y7438491D01*
Y6476082D02*
Y7438491D01*
X10687250Y6452823D02*
Y7457006D01*
X10569255Y7575001D02*
X10687250Y7457006D01*
X10270002Y7575001D02*
X10569255D01*
X10270002Y7624999D02*
X10589020D01*
X10734541Y6424547D02*
Y7479478D01*
X10589020Y7624999D02*
X10734541Y7479478D01*
X10270002Y7675001D02*
X10607534D01*
X10781137Y7501399D01*
Y6399677D02*
Y7501399D01*
X10270002Y7724999D02*
X10627299D01*
X10827038Y6371768D02*
Y7525260D01*
X10627299Y7724999D02*
X10827038Y7525260D01*
X10270002Y7775001D02*
X10650173D01*
X10870156Y6334048D02*
Y7555019D01*
X10650173Y7775001D02*
X10870156Y7555019D01*
X10270002Y7824998D02*
X10666200D01*
X10913275Y6299258D02*
Y7577924D01*
X10666200Y7824998D02*
X10913275Y7577924D01*
X10271864Y7873139D02*
X10684084D01*
X10957784Y6264100D02*
Y7599440D01*
X10684084Y7873139D02*
X10957784Y7599440D01*
X10751491Y4689490D02*
Y6057807D01*
X10957784Y6264100D01*
X10728631Y6114614D02*
X10913275Y6299258D01*
X10728631Y5112631D02*
Y6114614D01*
X10705771Y5343771D02*
Y6169664D01*
X10870156Y6334048D01*
X10682911Y5766908D02*
Y6227642D01*
X10827038Y6371768D01*
X10589001Y5926998D02*
Y6207541D01*
X10781137Y6399677D01*
X10496079Y4688078D02*
Y6186085D01*
X10734541Y6424547D01*
X10473219Y5111219D02*
Y6238791D01*
X10687250Y6452823D01*
X10335001Y5926998D02*
Y6320242D01*
X10435715Y6420956D02*
Y6984087D01*
X10335001Y6320242D02*
X10435715Y6420956D01*
X10450359Y6288568D02*
X10637873Y6476082D01*
X10450359Y5342359D02*
Y6288568D01*
X10427499Y5765496D02*
Y6336003D01*
X10589886Y6498390D01*
X10135260Y7284541D02*
X10435715Y6984087D01*
X9452857Y5347146D02*
Y6138501D01*
X8966921Y6624436D02*
Y7282351D01*
Y6624436D02*
X9452857Y6138501D01*
X8910482Y6603548D02*
X9429997Y6084033D01*
Y4637996D02*
Y6084033D01*
X8910482Y6603548D02*
Y7294044D01*
X9319001Y5926998D02*
Y6119848D01*
X8854780Y6584069D02*
Y7307110D01*
Y6584069D02*
X9319001Y6119848D01*
X9162252Y6494612D02*
X9475717Y6181147D01*
X8916859Y7624999D02*
X9130000D01*
X8628881Y7337020D02*
X8916859Y7624999D01*
X8738221Y7316047D02*
X8947173Y7524999D01*
X9130000D01*
X8935285Y7575001D02*
X9130000D01*
X8685700Y7325417D02*
X8935285Y7575001D01*
X8854780Y7307110D02*
X8972669Y7424999D01*
X9130000D01*
X8910482Y7294044D02*
X8991439Y7375002D01*
X9130000D01*
X8966921Y7282351D02*
X9009570Y7324999D01*
X9130000D01*
X10335001Y5227001D02*
X10450359Y5342359D01*
X10335001Y4973001D02*
X10473219Y5111219D01*
X9475717Y5770283D02*
Y6181147D01*
Y5770283D02*
X9573001Y5672998D01*
X9425000Y6432052D02*
Y7129998D01*
Y6432052D02*
X9827001Y6030052D01*
Y5926998D02*
Y6030052D01*
X9727692Y5772307D02*
Y6058488D01*
Y5772307D02*
X9827001Y5672998D01*
X10335001D02*
X10427499Y5765496D01*
X10589001Y5672998D02*
X10682911Y5766908D01*
X10589001Y5227001D02*
X10705771Y5343771D01*
X10589001Y4973001D02*
X10728631Y5112631D01*
X9573001Y4973001D02*
X9681972Y5081973D01*
Y6039550D01*
X9452857Y5347146D02*
X9573001Y5227001D01*
X9204631Y5341372D02*
X9319001Y5227001D01*
X9181771Y5110232D02*
X9319001Y4973001D01*
X9065001Y4527000D02*
X9158911Y4620910D01*
X9319001Y4527000D02*
X9429997Y4637996D01*
X9573001Y4527000D02*
X9704832Y4658831D01*
Y6049019D01*
X10589001Y4527000D02*
X10751491Y4689490D01*
X10250003Y8599999D02*
Y8664336D01*
X10150003Y8599998D02*
Y8664335D01*
X9329760Y8426965D02*
X9374998Y8381727D01*
Y8270001D02*
Y8381727D01*
X9336272Y7875001D02*
X9358366Y7852907D01*
X9404658D02*
X9406266Y7854516D01*
X9358366Y7852907D02*
X9404658D01*
X9130000Y7875001D02*
X9336272D01*
X9130000Y7924998D02*
X9424653D01*
X9458361Y7958705D01*
X9130000Y7975001D02*
X9364924D01*
X9405896Y8015973D01*
X9731935Y8041939D02*
X9733706Y8040168D01*
X9625000Y8102744D02*
X9685805Y8041939D01*
X9731935D01*
X9675002Y8140798D02*
X9716933Y8098867D01*
X9780322D01*
X9325000Y6428850D02*
Y7129998D01*
Y6428850D02*
X9704832Y6049019D01*
X9374395Y6411784D02*
Y7129396D01*
Y6411784D02*
X9727692Y6058488D01*
X10335001Y4527000D02*
X10496079Y4688078D01*
X9425000Y8270001D02*
Y8409086D01*
X9474998Y8270001D02*
Y8391418D01*
X10150002Y8500012D02*
Y8599998D01*
X9675002Y8140798D02*
Y8270001D01*
X9625000Y8102744D02*
Y8270001D01*
X9575002Y8061871D02*
X9657763Y7979110D01*
X9575002Y8061871D02*
Y8270001D01*
X9657763Y7979110D02*
X9814928D01*
X9525000Y8054731D02*
Y8270001D01*
X9495004Y8024734D02*
X9525000Y8054731D01*
X9875002Y8115761D02*
Y8270001D01*
Y8115761D02*
X9946501Y8044262D01*
X9374395Y7129396D02*
X9374998Y7129998D01*
X10270002Y7875001D02*
X10271864Y7873139D01*
X10135260Y7284541D02*
Y7389319D01*
X10170940Y7424999D01*
X10270002D01*
X9099998Y10479999D02*
Y10650002D01*
X8899998Y10479999D02*
Y10650002D01*
X10075540Y9982769D02*
X10116500Y10023729D01*
Y10192502D01*
X10075540Y9798543D02*
Y9982769D01*
X10416499Y10026727D02*
Y10192502D01*
X10475539Y9798543D02*
Y9967687D01*
X10416499Y10026727D02*
X10475539Y9967687D01*
D27*
X10342088Y7962915D02*
X10372167D01*
X10393658Y7904893D02*
X10617655D01*
X10404358Y7930725D02*
X10606956D01*
X10372167Y7962915D02*
X10404358Y7930725D01*
X10342088Y7937083D02*
X10361468D01*
X10393658Y7904893D01*
X10298228Y10253273D02*
X10316500Y10235002D01*
X10298228Y10253273D02*
Y10256930D01*
X10316500Y10192502D02*
Y10235002D01*
X10244574Y10266728D02*
X10288430D01*
X10224934Y10247087D02*
X10244574Y10266728D01*
X10288430D02*
X10298228Y10256930D01*
X10224934Y10200936D02*
Y10247087D01*
X10216500Y10192502D02*
X10224934Y10200936D01*
X10228585Y9334884D02*
X10590804Y8972665D01*
Y8972665D02*
X10700000Y8863469D01*
X10590804Y8972665D02*
Y8972665D01*
X10700000Y8023769D02*
Y8863469D01*
X10606956Y7930725D02*
X10700000Y8023769D01*
X10330002Y7975001D02*
X10342088Y7962915D01*
X10270002Y7975001D02*
X10330002D01*
X10366502Y10150002D02*
Y10192502D01*
X10348225Y10131725D02*
X10366502Y10150002D01*
X10348225Y10128074D02*
Y10131725D01*
X10274936Y10137911D02*
Y10184068D01*
Y10137911D02*
X10294572Y10118276D01*
X10266502Y10192502D02*
X10274936Y10184068D01*
X10338427Y10118276D02*
X10348225Y10128074D01*
X10294572Y10118276D02*
X10338427D01*
X10725832Y8013069D02*
Y8874168D01*
X10600000Y9000000D02*
X10725832Y8874168D01*
X10617655Y7904893D02*
X10725832Y8013069D01*
X10432296Y9167704D02*
X10600000Y9000000D01*
X10330002Y7924998D02*
X10342088Y7937083D01*
X10270002Y7924998D02*
X10330002D01*
X10216500Y10150002D02*
X10228585Y10137916D01*
X10216500Y10150002D02*
Y10192502D01*
X10254417Y9345584D02*
Y10137916D01*
X10266502Y10150002D02*
Y10192502D01*
X10228585Y9334884D02*
Y10137916D01*
X10254417Y9345584D02*
X10432296Y9167704D01*
X10254417Y10137916D02*
X10266502Y10150002D01*
D28*
X8700003Y9950008D02*
Y10030841D01*
X8769162Y10100000D01*
X9320304D01*
X9407036Y10013268D02*
X9994835D01*
X9320304Y10100000D02*
X9407036Y10013268D01*
X9994835D02*
X10051501Y10069935D01*
Y10192502D01*
X9949998Y8900000D02*
X10300000D01*
X9949998Y8550001D02*
Y8900000D01*
X9550004D02*
X9949998D01*
X9550004Y8700008D02*
Y8900000D01*
X10300000D02*
X10499999Y8700001D01*
Y8099999D02*
Y8700001D01*
X10051501Y10192502D02*
X10056101Y10197102D01*
X10110063Y10308854D02*
X10472939D01*
X10526900Y10197102D02*
Y10254892D01*
X10056101D02*
X10110063Y10308854D01*
X10526900Y10197102D02*
X10531500Y10192502D01*
X10472939Y10308854D02*
X10526900Y10254892D01*
X10056101Y10197102D02*
Y10254892D01*
D29*
X10843001Y5672998D02*
Y5926998D01*
Y5227001D02*
Y5672998D01*
Y4973001D02*
Y5227001D01*
Y4527000D02*
Y4973001D01*
Y4273000D02*
Y4527000D01*
X8900003Y9010000D02*
X9190000D01*
X9300000Y8900000D01*
X9550004D01*
D30*
X11481364Y7578277D02*
X11905722D01*
X11400000Y7659642D02*
Y7750000D01*
Y7659642D02*
X11481364Y7578277D01*
X11905722D02*
X12027002Y7456998D01*
X10150001Y8500011D02*
X10150002Y8500012D01*
Y8599998D02*
X10150003Y8599998D01*
X10013384Y8450001D02*
X10063394Y8500011D01*
X10150001D01*
X9949998Y8450001D02*
X10013384D01*
X9924999Y8270001D02*
Y8368706D01*
X9949998Y8393704D01*
Y8450001D01*
D31*
X9696769Y6284464D02*
X9970441Y6010792D01*
X9675002Y7014088D02*
X9696769Y6992321D01*
Y6284464D02*
Y6992321D01*
X9801879Y6414520D02*
Y6959176D01*
X9875002Y7032299D02*
Y7129998D01*
X9801879Y6959176D02*
X9875002Y7032299D01*
X9781559Y6378604D02*
Y6977526D01*
X9824999Y7020966D02*
Y7129998D01*
X9781559Y6977526D02*
X9824999Y7020966D01*
X9753528Y6344922D02*
Y6995580D01*
X9775002Y7017054D01*
Y7129998D01*
X9675002Y7014088D02*
Y7129998D01*
X9753528Y6344922D02*
X10081001Y6017448D01*
X9725000Y6315026D02*
Y7129998D01*
Y6315026D02*
X9990761Y6049265D01*
X9625000Y7006098D02*
X9663667Y6967431D01*
Y6254757D02*
X9950121Y5968303D01*
X9663667Y6254757D02*
Y6967431D01*
X9950121Y5350121D02*
Y5968303D01*
X9970441Y5116441D02*
Y6010792D01*
X9990761Y4690760D02*
Y6049265D01*
X10081001Y5926998D02*
Y6017448D01*
X10183078Y5775076D02*
Y5977085D01*
X9781559Y6378604D02*
X10183078Y5977085D01*
X10203398Y5349399D02*
Y6013001D01*
X9801879Y6414520D02*
X10203398Y6013001D01*
X9822199Y6449341D02*
X10223718Y6047822D01*
Y5115719D02*
Y6047822D01*
X9822199Y6449341D02*
Y6938906D01*
X10244038Y4690038D02*
Y6080451D01*
X9842519Y6481970D02*
Y6930489D01*
Y6481970D02*
X10244038Y6080451D01*
X10081001Y5672998D02*
X10183078Y5775076D01*
X10081001Y4973001D02*
X10223718Y5115719D01*
X10081001Y5227001D02*
X10203398Y5349399D01*
X9827001Y4973001D02*
X9970441Y5116441D01*
X9827001Y5227001D02*
X9950121Y5350121D01*
X9827001Y4527000D02*
X9990761Y4690760D01*
X10081001Y4527000D02*
X10244038Y4690038D01*
X9625000Y7006098D02*
Y7129998D01*
X9860556Y6977263D02*
X9906290D01*
X9822199Y6938906D02*
X9860556Y6977263D01*
X9924999Y6995972D02*
Y7129998D01*
X9906290Y6977263D02*
X9924999Y6995972D01*
X9842519Y6930489D02*
X9868973Y6956943D01*
X9936761D01*
X9975002Y6995183D01*
Y7129998D01*
X10000000Y6987149D02*
X10024999Y7012148D01*
X10000000Y6835231D02*
Y6900001D01*
Y6987149D01*
X10024999Y7012148D02*
Y7129998D01*
X8599998Y8175000D02*
X8600003Y8175005D01*
X8799993D01*
X8889375D01*
X8989375Y8075000D01*
X9130000D01*
X9989998Y6514998D02*
X10000000D01*
X10054920Y6569918D01*
Y6579921D01*
X10100000Y6625001D01*
Y6769263D01*
X10059949Y6809313D02*
X10100000Y6769263D01*
X10025918Y6809313D02*
X10059949D01*
X10000000Y6835231D02*
X10025918Y6809313D01*
X8599998Y8024998D02*
X8800008D01*
X9130000D01*
X10075001Y7015637D02*
Y7129998D01*
Y7015637D02*
X10097780Y6992854D01*
X10123109D01*
X10150003Y6965965D01*
Y6900001D02*
Y6965965D01*
Y6839189D02*
Y6900001D01*
Y6839189D02*
X10210002Y6779189D01*
Y6685001D02*
Y6779189D01*
D32*
X11773002Y9742998D02*
D03*
X12027002D02*
D03*
X11773002Y9488998D02*
D03*
X12027002D02*
D03*
X11773002Y9234998D02*
D03*
X12027002D02*
D03*
X11773002Y8980998D02*
D03*
X12027002D02*
D03*
X11773002Y8726998D02*
D03*
X12027002D02*
D03*
X11773002Y8472998D02*
D03*
X12027002D02*
D03*
X11773002Y8218998D02*
D03*
X12027002D02*
D03*
X11773002Y7964998D02*
D03*
X12027002D02*
D03*
X11773002Y7710998D02*
D03*
X12027002D02*
D03*
X11773002Y7456998D02*
D03*
X10843001Y5672998D02*
D03*
X10589001Y5926998D02*
D03*
Y5672998D02*
D03*
X10335001Y5926998D02*
D03*
Y5672998D02*
D03*
X10081001Y5926998D02*
D03*
Y5672998D02*
D03*
X9827001Y5926998D02*
D03*
Y5672998D02*
D03*
X9573001Y5926998D02*
D03*
Y5672998D02*
D03*
X9319001Y5926998D02*
D03*
Y5672998D02*
D03*
X9065001Y5926998D02*
D03*
Y5672998D02*
D03*
X8811001Y5926998D02*
D03*
Y5672998D02*
D03*
X8557001Y5926998D02*
D03*
Y5672998D02*
D03*
X10843001Y4973001D02*
D03*
X10589001Y5227001D02*
D03*
Y4973001D02*
D03*
X10335001Y5227001D02*
D03*
Y4973001D02*
D03*
X10081001Y5227001D02*
D03*
Y4973001D02*
D03*
X9827001Y5227001D02*
D03*
Y4973001D02*
D03*
X9573001Y5227001D02*
D03*
Y4973001D02*
D03*
X9319001Y5227001D02*
D03*
Y4973001D02*
D03*
X9065001Y5227001D02*
D03*
Y4973001D02*
D03*
X8811001Y5227001D02*
D03*
Y4973001D02*
D03*
X8557001Y5227001D02*
D03*
Y4973001D02*
D03*
X10843001Y4273000D02*
D03*
X10589001Y4527000D02*
D03*
Y4273000D02*
D03*
X10335001Y4527000D02*
D03*
Y4273000D02*
D03*
X10081001Y4527000D02*
D03*
Y4273000D02*
D03*
X9827001Y4527000D02*
D03*
Y4273000D02*
D03*
X9573001Y4527000D02*
D03*
Y4273000D02*
D03*
X9319001Y4527000D02*
D03*
Y4273000D02*
D03*
X9065001Y4527000D02*
D03*
Y4273000D02*
D03*
X8811001Y4527000D02*
D03*
Y4273000D02*
D03*
X8557001Y4527000D02*
D03*
Y4273000D02*
D03*
X11773002Y4256999D02*
D03*
X12027002Y4510999D02*
D03*
X11773002D02*
D03*
X12027002Y4764999D02*
D03*
X11773002D02*
D03*
X12027002Y5018999D02*
D03*
X11773002D02*
D03*
X12027002Y5272999D02*
D03*
X11773002D02*
D03*
X12027002Y5526999D02*
D03*
X11773002D02*
D03*
X12027002Y5780999D02*
D03*
X11773002D02*
D03*
X12027002Y6034999D02*
D03*
X11773002D02*
D03*
X12027002Y6288999D02*
D03*
X11773002D02*
D03*
X12027002Y6542999D02*
D03*
X11773002D02*
D03*
D33*
X12027002Y7456998D02*
D03*
Y4256999D02*
D03*
D34*
X10843001Y5926998D02*
D03*
Y5227001D02*
D03*
Y4527000D02*
D03*
D35*
X10580502Y10300000D02*
D03*
X10002500D02*
D03*
D36*
X10011525Y8061882D02*
D03*
X10070338Y8078991D02*
D03*
X10120168Y8105510D02*
D03*
X8900000Y9800000D02*
D03*
X8950000Y9774598D02*
D03*
X9000002Y9800011D02*
D03*
X10881142Y8556350D02*
D03*
X10500009Y7399995D02*
D03*
X9500001Y6900012D02*
D03*
X10499999Y8099999D02*
D03*
Y7999994D02*
D03*
X9600011Y6900012D02*
D03*
X8600000Y7840000D02*
D03*
X11066500Y9902500D02*
D03*
X11200000Y7750000D02*
D03*
X11499999Y5649998D02*
D03*
Y8849996D02*
D03*
X11200000Y7850000D02*
D03*
X10075540Y9698543D02*
D03*
X10475539D02*
D03*
X8799993Y8275010D02*
D03*
X8800008Y7924993D02*
D03*
X8749990Y7800010D02*
D03*
X8900003Y7800000D02*
D03*
X9989998Y6685001D02*
D03*
X9899995Y6900001D02*
D03*
X10210002Y6514998D02*
D03*
X10250007Y6900001D02*
D03*
X10500009Y7299990D02*
D03*
X9824989Y8550011D02*
D03*
X9650009Y8700008D02*
D03*
X9674992Y8550011D02*
D03*
X8800008Y9950008D02*
D03*
Y9800011D02*
D03*
X9130000Y9589999D02*
D03*
X9100007Y9800011D02*
D03*
X8899998Y10750001D02*
D03*
X9099998D02*
D03*
X11516502Y10697500D02*
D03*
Y9902500D02*
D03*
X9780499Y10643001D02*
D03*
Y10250002D02*
D03*
X9971502Y10192502D02*
D03*
X10611500D02*
D03*
X10802498Y10250002D02*
D03*
Y10643001D02*
D03*
X10250011Y8500011D02*
D03*
X8993391Y7475002D02*
D03*
X9441519Y8077383D02*
D03*
X9746708Y7866543D02*
D03*
X10250003Y8664336D02*
D03*
X10150003Y8664335D02*
D03*
X9329760Y8426965D02*
D03*
X9406266Y7854516D02*
D03*
X9458361Y7958705D02*
D03*
X9405896Y8015973D02*
D03*
X9733706Y8040168D02*
D03*
X9780322Y8098867D02*
D03*
X9495004Y8024734D02*
D03*
X9814928Y7979110D02*
D03*
X9946501Y8044262D02*
D03*
%TF.MD5,f2baa0c8713397b554261e71eae5d069*%
M02*
