%TF.GenerationSoftware,Altium Limited,Altium Designer,23.3.1 (30)*%
G04 Layer_Color=8421504*
%FSLAX45Y45*%
%MOMM*%
%TF.SameCoordinates,A1CC21B4-FEDD-41E5-BD96-91964929AAF4*%
%TF.FilePolarity,Positive*%
%TF.FileFunction,Paste,Top*%
%TF.Part,Single*%
G01*
G75*
%TA.AperFunction,SMDPad,CuDef*%
%ADD10R,0.55000X0.60000*%
%ADD11R,1.50000X0.30000*%
%ADD12R,0.30000X1.50000*%
%ADD13R,0.60000X0.60000*%
%ADD14R,3.25000X2.15000*%
%ADD15R,0.95000X2.15000*%
%ADD16R,0.60000X0.60000*%
%ADD17R,0.80000X0.80000*%
%TA.AperFunction,ConnectorPad*%
%ADD18R,0.60000X1.15000*%
%ADD19R,0.30000X1.15000*%
%ADD20R,2.18000X2.00000*%
%TA.AperFunction,SMDPad,CuDef*%
%ADD21R,0.80000X0.60000*%
%ADD22R,0.60000X0.55000*%
%ADD23R,1.30000X1.55000*%
%ADD24R,1.40000X1.20000*%
%ADD25R,1.50000X0.80000*%
D10*
X11400000Y7750000D02*
D03*
Y7850000D02*
D03*
X11200000D02*
D03*
Y7750000D02*
D03*
X11499999Y5649998D02*
D03*
Y5549998D02*
D03*
X10075540Y9798543D02*
D03*
Y9698543D02*
D03*
X10475539Y9798543D02*
D03*
Y9698543D02*
D03*
X11499999Y8849996D02*
D03*
Y8749996D02*
D03*
X9949998Y8550001D02*
D03*
Y8450001D02*
D03*
X9099998Y10750001D02*
D03*
Y10650002D02*
D03*
X8899998Y10750001D02*
D03*
Y10650002D02*
D03*
D11*
X9130000Y8075000D02*
D03*
Y8024998D02*
D03*
Y7975001D02*
D03*
Y7924998D02*
D03*
Y7875001D02*
D03*
Y7824998D02*
D03*
Y7775001D02*
D03*
Y7724999D02*
D03*
Y7675001D02*
D03*
Y7624999D02*
D03*
Y7575001D02*
D03*
Y7524999D02*
D03*
Y7475002D02*
D03*
Y7424999D02*
D03*
Y7375002D02*
D03*
Y7324999D02*
D03*
X10270002D02*
D03*
Y7375002D02*
D03*
Y7424999D02*
D03*
Y7475002D02*
D03*
Y7524999D02*
D03*
Y7575001D02*
D03*
Y7624999D02*
D03*
Y7675001D02*
D03*
Y7724999D02*
D03*
Y7775001D02*
D03*
Y7824998D02*
D03*
Y7875001D02*
D03*
Y7924998D02*
D03*
Y7975001D02*
D03*
Y8024998D02*
D03*
Y8075000D02*
D03*
D12*
X9325000Y7129998D02*
D03*
X9374998D02*
D03*
X9425000D02*
D03*
X9474998D02*
D03*
X9525000D02*
D03*
X9575002D02*
D03*
X9625000D02*
D03*
X9675002D02*
D03*
X9725000D02*
D03*
X9775002D02*
D03*
X9824999D02*
D03*
X9875002D02*
D03*
X9924999D02*
D03*
X9975002D02*
D03*
X10024999D02*
D03*
X10075001D02*
D03*
X9775002Y8270001D02*
D03*
X10075001D02*
D03*
X10024999D02*
D03*
X9975002D02*
D03*
X9924999D02*
D03*
X9875002D02*
D03*
X9824999D02*
D03*
X9725000D02*
D03*
X9374998D02*
D03*
X9325000D02*
D03*
X9425000D02*
D03*
X9474998D02*
D03*
X9525000D02*
D03*
X9575002D02*
D03*
X9625000D02*
D03*
X9675002D02*
D03*
D13*
X9000002Y9800011D02*
D03*
X9100007D02*
D03*
X8700003Y9950008D02*
D03*
X8800008D02*
D03*
X8700003Y9800011D02*
D03*
X8800008D02*
D03*
X10150001Y8500011D02*
D03*
X10250011D02*
D03*
X9550004Y8700008D02*
D03*
X9650009D02*
D03*
X9500001Y6900012D02*
D03*
X9600011D02*
D03*
X10000000Y6900001D02*
D03*
X9899995D02*
D03*
X10150003D02*
D03*
X10250007D02*
D03*
D14*
X8900003Y9010000D02*
D03*
D15*
X8670000Y9589999D02*
D03*
X8900003D02*
D03*
X9130000D02*
D03*
D16*
X8800008Y8024998D02*
D03*
Y7924993D02*
D03*
X10499999Y8099999D02*
D03*
Y7999994D02*
D03*
X10500009Y7399995D02*
D03*
Y7299990D02*
D03*
X9674992Y8450001D02*
D03*
Y8550011D02*
D03*
X9824989Y8450001D02*
D03*
Y8550011D02*
D03*
X8749990Y7700005D02*
D03*
Y7800010D02*
D03*
X8900003Y7699995D02*
D03*
Y7800000D02*
D03*
X8799993Y8175005D02*
D03*
Y8275010D02*
D03*
D17*
X9099998Y10320000D02*
D03*
Y10479999D02*
D03*
X8899998Y10320000D02*
D03*
Y10479999D02*
D03*
D18*
X10611500Y10192502D02*
D03*
X10531500D02*
D03*
X10051501D02*
D03*
X9971502D02*
D03*
D19*
X10466502D02*
D03*
X10116500D02*
D03*
X10416499D02*
D03*
X10166502D02*
D03*
X10366502D02*
D03*
X10216500D02*
D03*
X10316500D02*
D03*
X10266502D02*
D03*
D20*
X10802498Y10250002D02*
D03*
X9780499D02*
D03*
X10802498Y10643001D02*
D03*
X9780499D02*
D03*
D21*
X8600000Y7840000D02*
D03*
Y7700000D02*
D03*
D22*
X10250002Y8599998D02*
D03*
X10150003D02*
D03*
D23*
X11066500Y10697500D02*
D03*
X11516502D02*
D03*
Y9902500D02*
D03*
X11066500D02*
D03*
D24*
X9989998Y6685001D02*
D03*
X10210002D02*
D03*
Y6514998D02*
D03*
X9989998D02*
D03*
D25*
X8599998Y8024998D02*
D03*
Y8175000D02*
D03*
%TF.MD5,9bbb9db558bfcb21464ad1786c6dc793*%
M02*
