%TF.GenerationSoftware,Altium Limited,Altium Designer,23.3.1 (30)*%
G04 Layer_Color=0*
%FSLAX45Y45*%
%MOMM*%
%TF.SameCoordinates,A1CC21B4-FEDD-41E5-BD96-91964929AAF4*%
%TF.FilePolarity,Positive*%
%TF.FileFunction,Plated,1,4,PTH,Drill*%
%TF.Part,Single*%
G01*
G75*
%TA.AperFunction,ComponentDrill*%
%ADD62C,0.90000*%
%ADD63C,0.90000*%
%TA.AperFunction,ViaDrill,NotFilled*%
%ADD64C,0.30000*%
D62*
X11773002Y9742998D02*
D03*
X12027002D02*
D03*
X11773002Y9488998D02*
D03*
X12027002D02*
D03*
X11773002Y9234998D02*
D03*
X12027002D02*
D03*
X11773002Y8980998D02*
D03*
X12027002D02*
D03*
X11773002Y8726998D02*
D03*
X12027002D02*
D03*
X11773002Y8472998D02*
D03*
X12027002D02*
D03*
X11773002Y8218998D02*
D03*
X12027002D02*
D03*
X11773002Y7964998D02*
D03*
X12027002D02*
D03*
X11773002Y7710998D02*
D03*
X12027002D02*
D03*
X11773002Y7456998D02*
D03*
X12027002D02*
D03*
Y4256999D02*
D03*
X11773002D02*
D03*
X12027002Y4510999D02*
D03*
X11773002D02*
D03*
X12027002Y4764999D02*
D03*
X11773002D02*
D03*
X12027002Y5018999D02*
D03*
X11773002D02*
D03*
X12027002Y5272999D02*
D03*
X11773002D02*
D03*
X12027002Y5526999D02*
D03*
X11773002D02*
D03*
X12027002Y5780999D02*
D03*
X11773002D02*
D03*
X12027002Y6034999D02*
D03*
X11773002D02*
D03*
X12027002Y6288999D02*
D03*
X11773002D02*
D03*
X12027002Y6542999D02*
D03*
X11773002D02*
D03*
D63*
X10843001Y5926998D02*
D03*
Y5672998D02*
D03*
X10589001Y5926998D02*
D03*
Y5672998D02*
D03*
X10335001Y5926998D02*
D03*
Y5672998D02*
D03*
X10081001Y5926998D02*
D03*
Y5672998D02*
D03*
X9827001Y5926998D02*
D03*
Y5672998D02*
D03*
X9573001Y5926998D02*
D03*
Y5672998D02*
D03*
X9319001Y5926998D02*
D03*
Y5672998D02*
D03*
X9065001Y5926998D02*
D03*
Y5672998D02*
D03*
X8811001Y5926998D02*
D03*
Y5672998D02*
D03*
X8557001Y5926998D02*
D03*
Y5672998D02*
D03*
X10843001Y5227001D02*
D03*
Y4973001D02*
D03*
X10589001Y5227001D02*
D03*
Y4973001D02*
D03*
X10335001Y5227001D02*
D03*
Y4973001D02*
D03*
X10081001Y5227001D02*
D03*
Y4973001D02*
D03*
X9827001Y5227001D02*
D03*
Y4973001D02*
D03*
X9573001Y5227001D02*
D03*
Y4973001D02*
D03*
X9319001Y5227001D02*
D03*
Y4973001D02*
D03*
X9065001Y5227001D02*
D03*
Y4973001D02*
D03*
X8811001Y5227001D02*
D03*
Y4973001D02*
D03*
X8557001Y5227001D02*
D03*
Y4973001D02*
D03*
X10843001Y4527000D02*
D03*
Y4273000D02*
D03*
X10589001Y4527000D02*
D03*
Y4273000D02*
D03*
X10335001Y4527000D02*
D03*
Y4273000D02*
D03*
X10081001Y4527000D02*
D03*
Y4273000D02*
D03*
X9827001Y4527000D02*
D03*
Y4273000D02*
D03*
X9573001Y4527000D02*
D03*
Y4273000D02*
D03*
X9319001Y4527000D02*
D03*
Y4273000D02*
D03*
X9065001Y4527000D02*
D03*
Y4273000D02*
D03*
X8811001Y4527000D02*
D03*
Y4273000D02*
D03*
X8557001Y4527000D02*
D03*
Y4273000D02*
D03*
D64*
X10011525Y8061882D02*
D03*
X10070338Y8078991D02*
D03*
X10120168Y8105510D02*
D03*
X8900000Y9800000D02*
D03*
X8950000Y9774598D02*
D03*
X9000002Y9800011D02*
D03*
X10881142Y8556350D02*
D03*
X10500009Y7399995D02*
D03*
X9500001Y6900012D02*
D03*
X10499999Y8099999D02*
D03*
Y7999994D02*
D03*
X9600011Y6900012D02*
D03*
X8600000Y7840000D02*
D03*
X11066500Y9902500D02*
D03*
X11200000Y7750000D02*
D03*
X11499999Y5649998D02*
D03*
Y8849996D02*
D03*
X11200000Y7850000D02*
D03*
X10075540Y9698543D02*
D03*
X10475539D02*
D03*
X8799993Y8275010D02*
D03*
X8800008Y7924993D02*
D03*
X8749990Y7800010D02*
D03*
X8900003Y7800000D02*
D03*
X9989998Y6685001D02*
D03*
X9899995Y6900001D02*
D03*
X10210002Y6514998D02*
D03*
X10250007Y6900001D02*
D03*
X10500009Y7299990D02*
D03*
X9824989Y8550011D02*
D03*
X9650009Y8700008D02*
D03*
X9674992Y8550011D02*
D03*
X8800008Y9950008D02*
D03*
Y9800011D02*
D03*
X9130000Y9589999D02*
D03*
X9100007Y9800011D02*
D03*
X8899998Y10750001D02*
D03*
X9099998D02*
D03*
X11516502Y10697500D02*
D03*
Y9902500D02*
D03*
X9780499Y10643001D02*
D03*
Y10250002D02*
D03*
X9971502Y10192502D02*
D03*
X10611500D02*
D03*
X10802498Y10250002D02*
D03*
Y10643001D02*
D03*
X10250011Y8500011D02*
D03*
X8993391Y7475002D02*
D03*
X9441519Y8077383D02*
D03*
X9746708Y7866543D02*
D03*
X10250003Y8664336D02*
D03*
X10150003Y8664335D02*
D03*
X9329760Y8426965D02*
D03*
X9406266Y7854516D02*
D03*
X9458361Y7958705D02*
D03*
X9405896Y8015973D02*
D03*
X9733706Y8040168D02*
D03*
X9780322Y8098867D02*
D03*
X9495004Y8024734D02*
D03*
X9814928Y7979110D02*
D03*
X9946501Y8044262D02*
D03*
%TF.MD5,081af4018e98fe7b2cca50107984da07*%
M02*
