%TF.GenerationSoftware,Altium Limited,Altium Designer,23.3.1 (30)*%
G04 Layer_Color=65535*
%FSLAX45Y45*%
%MOMM*%
%TF.SameCoordinates,A1CC21B4-FEDD-41E5-BD96-91964929AAF4*%
%TF.FilePolarity,Positive*%
%TF.FileFunction,Legend,Top*%
%TF.Part,Single*%
G01*
G75*
%TA.AperFunction,NonConductor*%
%ADD37C,0.20000*%
%ADD38C,0.50000*%
%ADD39C,0.15000*%
D37*
X9125000Y8160000D02*
G03*
X9125000Y8160000I-10000J0D01*
G01*
X9851000Y6396800D02*
G03*
X9851000Y6396800I-5000J0D01*
G01*
X11646002Y7329998D02*
X11900002D01*
X11646002Y9871014D02*
X11900002D01*
X11646002Y7329998D02*
Y9871014D01*
X11900002Y7329998D02*
X12154002D01*
Y9871014D01*
X11900002D02*
X12154002D01*
X9200002Y8199999D02*
X9280002D01*
X9200002Y8119999D02*
Y8199999D01*
Y7200001D02*
Y7280001D01*
Y7200001D02*
X9280002D01*
X10120000D02*
X10200000D01*
Y7280001D01*
Y8119999D02*
Y8199999D01*
X10120000D02*
X10200000D01*
X8428985Y5799998D02*
Y6053998D01*
X10970001D01*
Y5799998D02*
Y6053998D01*
X8428985Y5545998D02*
X10970001D01*
X8428985D02*
Y5799998D01*
X10970001Y5545998D02*
Y5799998D01*
X8579998Y9153642D02*
Y9440001D01*
X9220002D01*
Y9153642D02*
Y9440001D01*
X8579998Y9153642D02*
X9220002D01*
X8428985Y5100001D02*
Y5354001D01*
X10970001D01*
Y5100001D02*
Y5354001D01*
X8428985Y4846001D02*
X10970001D01*
X8428985D02*
Y5100001D01*
X10970001Y4846001D02*
Y5100001D01*
X9059998Y10415001D02*
X9139998D01*
X8859998D02*
X8939998D01*
X8428985Y4400000D02*
Y4654000D01*
X10970001D01*
Y4400000D02*
Y4654000D01*
X8428985Y4146000D02*
X10970001D01*
X8428985D02*
Y4400000D01*
X10970001Y4146000D02*
Y4400000D01*
X11900002Y6671015D02*
X12154002D01*
Y4129999D02*
Y6671015D01*
X11900002Y4129999D02*
X12154002D01*
X11646002D02*
Y6671015D01*
X11900002D01*
X11646002Y4129999D02*
X11900002D01*
X10738500Y10778998D02*
Y10927999D01*
X9844502D02*
X10738500D01*
X9844502Y10778998D02*
Y10927999D01*
X10738500Y10385999D02*
Y10507000D01*
X9844502Y10385999D02*
Y10507000D01*
X8640000Y7749997D02*
Y7789997D01*
X8560000Y7749997D02*
Y7789997D01*
X10991499Y10575000D02*
X11591498D01*
X10991499Y10024999D02*
Y10575000D01*
Y10024999D02*
X11591498D01*
Y10575000D01*
X9884100Y6422202D02*
Y6777802D01*
Y6422202D02*
X10315900D01*
Y6777802D01*
X9884100D02*
X10315900D01*
D38*
X9335000Y8080000D02*
G03*
X9335000Y8080000I-25000J0D01*
G01*
D39*
X8499998Y8239999D02*
X8699998D01*
Y7959999D02*
Y8239999D01*
X8499998Y7959999D02*
Y8239999D01*
Y7959999D02*
X8699998D01*
%TF.MD5,2a2114c92c9f3627b2c0c15ac9541683*%
M02*
