%TF.GenerationSoftware,Altium Limited,Altium Designer,23.5.1 (21)*%
G04 Layer_Color=0*
%FSLAX45Y45*%
%MOMM*%
%TF.SameCoordinates,237DEE5C-C98C-4AD3-A281-37170FB057C8*%
%TF.FilePolarity,Positive*%
%TF.FileFunction,Plated,1,2,PTH,Drill*%
%TF.Part,Single*%
G01*
G75*
%TA.AperFunction,ComponentDrill*%
%ADD74C,0.75000*%
%ADD75C,0.75000*%
%ADD76C,1.80000*%
%ADD77C,1.65000*%
%ADD78C,0.70000*%
%ADD79C,0.70000*%
%ADD80C,1.00000*%
%ADD81C,4.00000*%
%TA.AperFunction,ViaDrill,NotFilled*%
%ADD82C,0.50000*%
D74*
X8150000Y2700000D02*
D03*
X8650000D02*
D03*
X3150000Y6900000D02*
D03*
X2650000D02*
D03*
X6950000Y2700000D02*
D03*
X7450000D02*
D03*
X11250000D02*
D03*
X10750000D02*
D03*
X9550000D02*
D03*
X10050000D02*
D03*
X6050000D02*
D03*
X5550000D02*
D03*
X4350000D02*
D03*
X4850000D02*
D03*
X3150000Y5500000D02*
D03*
X2650000D02*
D03*
D75*
X8500000Y7950000D02*
D03*
Y7450000D02*
D03*
Y6650000D02*
D03*
Y6150000D02*
D03*
X11500000D02*
D03*
Y6650000D02*
D03*
Y7450000D02*
D03*
Y7950000D02*
D03*
D76*
X5890000Y7800000D02*
D03*
X5494000D02*
D03*
X5098000D02*
D03*
X4702000D02*
D03*
X4306000D02*
D03*
X3910000D02*
D03*
D77*
X12900000Y1413999D02*
D03*
Y1809999D02*
D03*
Y2206000D02*
D03*
Y2602000D02*
D03*
Y2998000D02*
D03*
Y3394000D02*
D03*
Y3790001D02*
D03*
Y4186001D02*
D03*
Y7896000D02*
D03*
Y7500000D02*
D03*
Y6598000D02*
D03*
Y6202000D02*
D03*
D78*
X1500000Y4200000D02*
D03*
Y4000000D02*
D03*
D79*
X2800000Y8100000D02*
D03*
X3000000D02*
D03*
D80*
X1446000Y6250000D02*
D03*
X1700000D02*
D03*
X1954000D02*
D03*
D81*
X1700000Y7950000D02*
D03*
D82*
X7030000Y4100000D02*
D03*
Y4300000D02*
D03*
Y4500000D02*
D03*
X8500000Y4200000D02*
D03*
X8700000D02*
D03*
X8300000D02*
D03*
Y4000000D02*
D03*
X8500000D02*
D03*
X8700000D02*
D03*
X11300000D02*
D03*
X11100000D02*
D03*
X10900000D02*
D03*
Y4200000D02*
D03*
X11300000D02*
D03*
X11100000D02*
D03*
X9630000Y4500000D02*
D03*
Y4300000D02*
D03*
Y4100000D02*
D03*
X9800000Y5400000D02*
D03*
X10000000D02*
D03*
X10200000D02*
D03*
X9600000D02*
D03*
X9400000D02*
D03*
X7200000D02*
D03*
X7400000D02*
D03*
X7600000D02*
D03*
X7000000D02*
D03*
X6800000D02*
D03*
X4200000D02*
D03*
X4400000D02*
D03*
X5000000D02*
D03*
X4800000D02*
D03*
X4600000D02*
D03*
X3500000Y3000000D02*
D03*
X3300000D02*
D03*
X3100000D02*
D03*
Y3200000D02*
D03*
X3500000D02*
D03*
X3300000D02*
D03*
%TF.MD5,1f4e6a1b2b789e75b807b59809065348*%
M02*
