%TF.GenerationSoftware,Altium Limited,Altium Designer,23.5.1 (21)*%
G04 Layer_Color=16711935*
%FSLAX45Y45*%
%MOMM*%
%TF.SameCoordinates,237DEE5C-C98C-4AD3-A281-37170FB057C8*%
%TF.FilePolarity,Negative*%
%TF.FileFunction,Soldermask,Bot*%
%TF.Part,Single*%
G01*
G75*
%TA.AperFunction,ComponentPad*%
%ADD58C,1.60000*%
%ADD59R,3.20320X3.20320*%
%ADD60C,3.20320*%
%ADD61R,2.90320X2.90320*%
%ADD62C,2.90320*%
%ADD63R,1.50320X1.50320*%
%ADD64C,1.50320*%
%ADD65R,1.50320X1.50320*%
%TA.AperFunction,WasherPad*%
%ADD66O,0.45320X0.72820*%
%TA.AperFunction,ComponentPad*%
%ADD67R,2.00320X2.00320*%
%ADD68C,2.00320*%
D58*
X8150000Y2700000D02*
D03*
X8650000D02*
D03*
X8500000Y7950000D02*
D03*
Y7450000D02*
D03*
Y6650000D02*
D03*
Y6150000D02*
D03*
X11500000D02*
D03*
Y6650000D02*
D03*
Y7450000D02*
D03*
Y7950000D02*
D03*
X3150000Y6900000D02*
D03*
X2650000D02*
D03*
X6950000Y2700000D02*
D03*
X7450000D02*
D03*
X11250000D02*
D03*
X10750000D02*
D03*
X9550000D02*
D03*
X10050000D02*
D03*
X6050000D02*
D03*
X5550000D02*
D03*
X4350000D02*
D03*
X4850000D02*
D03*
X3150000Y5500000D02*
D03*
X2650000D02*
D03*
D59*
X5890000Y7800000D02*
D03*
D60*
X5494000D02*
D03*
X5098000D02*
D03*
X4702000D02*
D03*
X4306000D02*
D03*
X3910000D02*
D03*
D61*
X12900000Y1413999D02*
D03*
Y7500000D02*
D03*
Y6202000D02*
D03*
D62*
Y1809999D02*
D03*
Y2206000D02*
D03*
Y2602000D02*
D03*
Y2998000D02*
D03*
Y3394000D02*
D03*
Y3790001D02*
D03*
Y4186001D02*
D03*
Y7896000D02*
D03*
Y6598000D02*
D03*
D63*
X1500000Y4200000D02*
D03*
D64*
Y4000000D02*
D03*
X3000000Y8100000D02*
D03*
D65*
X2800000D02*
D03*
D66*
X6400000Y1600000D02*
D03*
X13100000Y5150000D02*
D03*
X1500000D02*
D03*
X3600000Y1600000D02*
D03*
D67*
X1446000Y6250000D02*
D03*
D68*
X1700000D02*
D03*
X1954000D02*
D03*
%TF.MD5,8c53f10f3cdb5eaa32db83774a7c0eb7*%
M02*
