%TF.GenerationSoftware,Altium Limited,Altium Designer,23.5.1 (21)*%
G04 Layer_Color=8421504*
%FSLAX45Y45*%
%MOMM*%
%TF.SameCoordinates,237DEE5C-C98C-4AD3-A281-37170FB057C8*%
%TF.FilePolarity,Positive*%
%TF.FileFunction,Paste,Top*%
%TF.Part,Single*%
G01*
G75*
%TA.AperFunction,SMDPad,CuDef*%
%ADD10R,8.30000X6.99000*%
%ADD11R,1.07000X2.80000*%
%ADD12R,10.80000X1.91000*%
%ADD13R,1.20000X1.90000*%
%ADD14R,2.90000X5.40000*%
%ADD15R,0.60000X0.55000*%
%ADD16R,5.40000X2.90000*%
D10*
X9810000Y4960000D02*
D03*
X7210000D02*
D03*
X4610000D02*
D03*
D11*
X9460000Y3890000D02*
D03*
X9630000D02*
D03*
X9800000D02*
D03*
X9970000D02*
D03*
X10140000D02*
D03*
X7540000D02*
D03*
X7370000D02*
D03*
X7200000D02*
D03*
X7030000D02*
D03*
X6860000D02*
D03*
X4940000D02*
D03*
X4770000D02*
D03*
X4600000D02*
D03*
X4430000D02*
D03*
X4260000D02*
D03*
D12*
X9800000Y5220000D02*
D03*
X7200000D02*
D03*
X4600000D02*
D03*
D13*
X9820000Y3400000D02*
D03*
X9380000D02*
D03*
X6780000D02*
D03*
X7220000D02*
D03*
X4180000D02*
D03*
X4620000D02*
D03*
D14*
X9505000Y7700000D02*
D03*
X10495000D02*
D03*
X9505000Y6400000D02*
D03*
X10495000D02*
D03*
D15*
X4850000Y3500000D02*
D03*
X4950000D02*
D03*
Y3600000D02*
D03*
X4850000D02*
D03*
X7450000Y3500000D02*
D03*
X7550000D02*
D03*
Y3600000D02*
D03*
X7450000D02*
D03*
D16*
X8500000Y4495000D02*
D03*
Y3505000D02*
D03*
X11100000Y4495000D02*
D03*
Y3505000D02*
D03*
X3300000Y4495000D02*
D03*
Y3505000D02*
D03*
%TF.MD5,e52d6a4e74d2783ed4d29e3142dd99fc*%
M02*
