%TF.GenerationSoftware,Altium Limited,Altium Designer,23.5.1 (21)*%
G04 Layer_Physical_Order=2*
G04 Layer_Color=14461039*
%FSLAX45Y45*%
%MOMM*%
%TF.SameCoordinates,237DEE5C-C98C-4AD3-A281-37170FB057C8*%
%TF.FilePolarity,Positive*%
%TF.FileFunction,Copper,L2,Bot,Signal*%
%TF.Part,Single*%
G01*
G75*
%TA.AperFunction,Conductor*%
%ADD17C,1.00000*%
%ADD20C,2.00000*%
%TA.AperFunction,ComponentPad*%
%ADD24C,1.50000*%
%ADD25R,3.00000X3.00000*%
%ADD26C,3.00000*%
%ADD27R,2.70000X2.70000*%
%ADD28C,2.70000*%
%ADD29R,1.30000X1.30000*%
%ADD30C,1.30000*%
%ADD31R,1.30000X1.30000*%
%TA.AperFunction,WasherPad*%
%ADD32O,0.25000X0.52500*%
%TA.AperFunction,ComponentPad*%
%ADD33R,1.80000X1.80000*%
%ADD34C,1.80000*%
%TA.AperFunction,ViaPad*%
%ADD36C,1.00000*%
G36*
X13559218Y1040782D02*
X2040782D01*
Y2799999D01*
X2037678Y2815606D01*
X2028837Y2828837D01*
X2015606Y2837678D01*
X1999999Y2840782D01*
X1040782D01*
Y8459218D01*
X13559218D01*
Y1040782D01*
D02*
G37*
%LPC*%
G36*
X3013824Y8205000D02*
X2986177D01*
X2959472Y8197844D01*
X2935529Y8184021D01*
X2915979Y8164471D01*
X2902156Y8140529D01*
X2895000Y8113823D01*
Y8086177D01*
X2902156Y8059472D01*
X2915979Y8035529D01*
X2935529Y8015979D01*
X2959472Y8002156D01*
X2986177Y7995000D01*
X3013824D01*
X3040529Y8002156D01*
X3064471Y8015979D01*
X3084021Y8035529D01*
X3097844Y8059472D01*
X3105000Y8086177D01*
Y8113823D01*
X3097844Y8140529D01*
X3084021Y8164471D01*
X3064471Y8184021D01*
X3040529Y8197844D01*
X3013824Y8205000D01*
D02*
G37*
G36*
X8515140Y8065000D02*
X8484860D01*
X8455612Y8057163D01*
X8429389Y8042023D01*
X8407977Y8020612D01*
X8392837Y7994388D01*
X8385000Y7965140D01*
Y7934860D01*
X8392837Y7905612D01*
X8407977Y7879389D01*
X8429389Y7857977D01*
X8455612Y7842837D01*
X8484860Y7835000D01*
X8515140D01*
X8544388Y7842837D01*
X8570612Y7857977D01*
X8592023Y7879389D01*
X8607163Y7905612D01*
X8615000Y7934860D01*
Y7965140D01*
X8607163Y7994388D01*
X8592023Y8020612D01*
X8570612Y8042023D01*
X8544388Y8057163D01*
X8515140Y8065000D01*
D02*
G37*
G36*
X6080000Y7990000D02*
X5700000D01*
Y7610000D01*
X6080000D01*
Y7990000D01*
D02*
G37*
G36*
X5512713D02*
X5475286D01*
X5438579Y7982698D01*
X5404001Y7968375D01*
X5372882Y7947582D01*
X5346418Y7921118D01*
X5325624Y7889998D01*
X5311302Y7855421D01*
X5304000Y7818713D01*
Y7781286D01*
X5311302Y7744579D01*
X5325624Y7710001D01*
X5346418Y7678882D01*
X5372882Y7652418D01*
X5404001Y7631624D01*
X5438579Y7617302D01*
X5475286Y7610000D01*
X5512713D01*
X5549421Y7617302D01*
X5583998Y7631624D01*
X5615118Y7652418D01*
X5641582Y7678882D01*
X5662376Y7710001D01*
X5676698Y7744579D01*
X5684000Y7781286D01*
Y7818713D01*
X5676698Y7855421D01*
X5662376Y7889998D01*
X5641582Y7921118D01*
X5615118Y7947582D01*
X5583998Y7968375D01*
X5549421Y7982698D01*
X5512713Y7990000D01*
D02*
G37*
G36*
X5116713D02*
X5079287D01*
X5042579Y7982698D01*
X5008001Y7968375D01*
X4976882Y7947582D01*
X4950418Y7921118D01*
X4929624Y7889998D01*
X4915302Y7855421D01*
X4908000Y7818713D01*
Y7781286D01*
X4915302Y7744579D01*
X4929624Y7710001D01*
X4950418Y7678882D01*
X4976882Y7652418D01*
X5008001Y7631624D01*
X5042579Y7617302D01*
X5079287Y7610000D01*
X5116713D01*
X5153421Y7617302D01*
X5187999Y7631624D01*
X5219118Y7652418D01*
X5245582Y7678882D01*
X5266376Y7710001D01*
X5280698Y7744579D01*
X5288000Y7781286D01*
Y7818713D01*
X5280698Y7855421D01*
X5266376Y7889998D01*
X5245582Y7921118D01*
X5219118Y7947582D01*
X5187999Y7968375D01*
X5153421Y7982698D01*
X5116713Y7990000D01*
D02*
G37*
G36*
X11515140Y7565000D02*
X11484860D01*
X11455612Y7557163D01*
X11429389Y7542023D01*
X11407977Y7520612D01*
X11392837Y7494388D01*
X11385000Y7465140D01*
Y7434860D01*
X11392837Y7405612D01*
X11407977Y7379389D01*
X11429389Y7357977D01*
X11455612Y7342837D01*
X11484860Y7335000D01*
X11515140D01*
X11544388Y7342837D01*
X11570612Y7357977D01*
X11592023Y7379389D01*
X11607163Y7405612D01*
X11615000Y7434860D01*
Y7465140D01*
X11607163Y7494388D01*
X11592023Y7520612D01*
X11570612Y7542023D01*
X11544388Y7557163D01*
X11515140Y7565000D01*
D02*
G37*
G36*
X13075000Y7675000D02*
X12725000D01*
Y7325000D01*
X13075000D01*
Y7675000D01*
D02*
G37*
G36*
X3165140Y7015000D02*
X3134860D01*
X3105612Y7007163D01*
X3079389Y6992023D01*
X3057977Y6970611D01*
X3042837Y6944388D01*
X3035000Y6915140D01*
Y6884860D01*
X3042837Y6855612D01*
X3057977Y6829388D01*
X3079389Y6807977D01*
X3105612Y6792837D01*
X3134860Y6785000D01*
X3165140D01*
X3194388Y6792837D01*
X3220612Y6807977D01*
X3242023Y6829388D01*
X3257163Y6855612D01*
X3265000Y6884860D01*
Y6915140D01*
X3257163Y6944388D01*
X3242023Y6970611D01*
X3220612Y6992023D01*
X3194388Y7007163D01*
X3165140Y7015000D01*
D02*
G37*
G36*
X8515140Y6765000D02*
X8484860D01*
X8455612Y6757163D01*
X8429389Y6742023D01*
X8407977Y6720611D01*
X8392837Y6694388D01*
X8385000Y6665140D01*
Y6634860D01*
X8392837Y6605612D01*
X8407977Y6579388D01*
X8429389Y6557977D01*
X8455612Y6542837D01*
X8484860Y6535000D01*
X8515140D01*
X8544388Y6542837D01*
X8570612Y6557977D01*
X8592023Y6579388D01*
X8607163Y6605612D01*
X8615000Y6634860D01*
Y6665140D01*
X8607163Y6694388D01*
X8592023Y6720611D01*
X8570612Y6742023D01*
X8544388Y6757163D01*
X8515140Y6765000D01*
D02*
G37*
G36*
X1971115Y6380000D02*
X1936885D01*
X1903822Y6371141D01*
X1874178Y6354026D01*
X1849974Y6329822D01*
X1832859Y6300178D01*
X1824000Y6267115D01*
Y6232885D01*
X1832859Y6199822D01*
X1849974Y6170179D01*
X1874178Y6145974D01*
X1903822Y6128860D01*
X1936885Y6120000D01*
X1971115D01*
X2004178Y6128860D01*
X2033821Y6145974D01*
X2058026Y6170179D01*
X2075140Y6199822D01*
X2084000Y6232885D01*
Y6267115D01*
X2075140Y6300178D01*
X2058026Y6329822D01*
X2033821Y6354026D01*
X2004178Y6371141D01*
X1971115Y6380000D01*
D02*
G37*
G36*
X11515140Y6265000D02*
X11484860D01*
X11455612Y6257163D01*
X11429389Y6242023D01*
X11407977Y6220611D01*
X11392837Y6194388D01*
X11385000Y6165140D01*
Y6134860D01*
X11392837Y6105612D01*
X11407977Y6079388D01*
X11429389Y6057977D01*
X11455612Y6042837D01*
X11484860Y6035000D01*
X11515140D01*
X11544388Y6042837D01*
X11570612Y6057977D01*
X11592023Y6079388D01*
X11607163Y6105612D01*
X11615000Y6134860D01*
Y6165140D01*
X11607163Y6194388D01*
X11592023Y6220611D01*
X11570612Y6242023D01*
X11544388Y6257163D01*
X11515140Y6265000D01*
D02*
G37*
G36*
X13075000Y6377000D02*
X12725000D01*
Y6027000D01*
X13075000D01*
Y6377000D01*
D02*
G37*
G36*
X1576000Y6380000D02*
X1316000D01*
Y6120000D01*
X1355224D01*
Y6054000D01*
X1358317Y6030505D01*
X1367385Y6008612D01*
X1381811Y5989811D01*
X1535812Y5835811D01*
X1554612Y5821385D01*
X1576505Y5812317D01*
X1600000Y5809223D01*
X1600002Y5809224D01*
X2962399D01*
X3059224Y5712399D01*
Y5571858D01*
X3057977Y5570611D01*
X3042837Y5544388D01*
X3035000Y5515140D01*
Y5484860D01*
X3042837Y5455612D01*
X3057977Y5429388D01*
X3079389Y5407977D01*
X3105612Y5392837D01*
X3134860Y5385000D01*
X3165140D01*
X3194388Y5392837D01*
X3220612Y5407977D01*
X3242023Y5429388D01*
X3257163Y5455612D01*
X3265000Y5484860D01*
Y5515140D01*
X3257163Y5544388D01*
X3242023Y5570611D01*
X3240776Y5571858D01*
Y5750000D01*
X3237683Y5773495D01*
X3228615Y5795388D01*
X3214189Y5814189D01*
X3064189Y5964188D01*
X3045388Y5978614D01*
X3036320Y5982371D01*
X3023495Y5987683D01*
X3000000Y5990776D01*
X1637601D01*
X1536776Y6091601D01*
Y6120000D01*
X1576000D01*
Y6380000D01*
D02*
G37*
G36*
X13123637Y5390000D02*
X13076363D01*
X13029996Y5380777D01*
X12986317Y5362685D01*
X12947009Y5336420D01*
X12913580Y5302991D01*
X12887315Y5263682D01*
X12869223Y5220005D01*
X12860001Y5173638D01*
Y5126362D01*
X12869223Y5079994D01*
X12887315Y5036317D01*
X12913580Y4997009D01*
X12947009Y4963580D01*
X12986317Y4937315D01*
X13029996Y4919223D01*
X13076363Y4910000D01*
X13123637D01*
X13170004Y4919223D01*
X13213683Y4937315D01*
X13252991Y4963580D01*
X13286420Y4997009D01*
X13312685Y5036317D01*
X13330777Y5079994D01*
X13339999Y5126362D01*
Y5173638D01*
X13330777Y5220005D01*
X13312685Y5263682D01*
X13286420Y5302991D01*
X13252991Y5336420D01*
X13213683Y5362685D01*
X13170004Y5380777D01*
X13123637Y5390000D01*
D02*
G37*
G36*
X1523638D02*
X1476362D01*
X1429995Y5380777D01*
X1386318Y5362685D01*
X1347009Y5336420D01*
X1313580Y5302991D01*
X1287315Y5263682D01*
X1269223Y5220005D01*
X1260000Y5173638D01*
Y5126362D01*
X1269223Y5079994D01*
X1287315Y5036317D01*
X1313580Y4997009D01*
X1347009Y4963580D01*
X1386318Y4937315D01*
X1429995Y4919223D01*
X1476362Y4910000D01*
X1523638D01*
X1570005Y4919223D01*
X1613683Y4937315D01*
X1652991Y4963580D01*
X1686420Y4997009D01*
X1712685Y5036317D01*
X1730777Y5079994D01*
X1740000Y5126362D01*
Y5173638D01*
X1730777Y5220005D01*
X1712685Y5263682D01*
X1686420Y5302991D01*
X1652991Y5336420D01*
X1613683Y5362685D01*
X1570005Y5380777D01*
X1523638Y5390000D01*
D02*
G37*
G36*
X1513823Y4105000D02*
X1486177D01*
X1459472Y4097844D01*
X1435529Y4084021D01*
X1415979Y4064471D01*
X1402156Y4040528D01*
X1395000Y4013823D01*
Y3986176D01*
X1402156Y3959471D01*
X1415979Y3935529D01*
X1435529Y3915979D01*
X1459472Y3902156D01*
X1486177Y3895000D01*
X1513823D01*
X1540529Y3902156D01*
X1564471Y3915979D01*
X1584021Y3935529D01*
X1597844Y3959471D01*
X1605000Y3986176D01*
Y4013823D01*
X1597844Y4040528D01*
X1584021Y4064471D01*
X1564471Y4084021D01*
X1540529Y4097844D01*
X1513823Y4105000D01*
D02*
G37*
G36*
X10540099Y4600760D02*
X10540098Y4600760D01*
X9576500D01*
X9560892Y4597656D01*
X9547661Y4588815D01*
X9538821Y4575584D01*
X9535716Y4559977D01*
Y4030000D01*
X9538821Y4014393D01*
X9547661Y4001161D01*
X9560892Y3992321D01*
X9576500Y3989216D01*
X10353107D01*
X10471161Y3871162D01*
X10484393Y3862321D01*
X10486982Y3861806D01*
X10500000Y3859216D01*
X10500001Y3859217D01*
X11370000D01*
X11385607Y3862321D01*
X11398838Y3871162D01*
X11407679Y3884393D01*
X11410783Y3900000D01*
Y4300000D01*
X11407679Y4315607D01*
X11398838Y4328838D01*
X11385607Y4337679D01*
X11370000Y4340784D01*
X10816969D01*
X10568938Y4588815D01*
X10555707Y4597656D01*
X10553117Y4598171D01*
X10540099Y4600760D01*
D02*
G37*
G36*
X7940099D02*
X7940098Y4600760D01*
X6976500D01*
X6960892Y4597656D01*
X6947661Y4588815D01*
X6938821Y4575584D01*
X6935716Y4559977D01*
Y4030000D01*
X6938821Y4014393D01*
X6947661Y4001161D01*
X6960892Y3992321D01*
X6976500Y3989216D01*
X7753107D01*
X7871161Y3871162D01*
X7884392Y3862321D01*
X7886982Y3861806D01*
X7900000Y3859216D01*
X7900001Y3859217D01*
X8770000D01*
X8785607Y3862321D01*
X8798838Y3871162D01*
X8807679Y3884393D01*
X8810783Y3900000D01*
Y4300000D01*
X8807679Y4315607D01*
X8798838Y4328838D01*
X8785607Y4337679D01*
X8770000Y4340784D01*
X8216969D01*
X7968938Y4588815D01*
X7955706Y4597656D01*
X7953117Y4598171D01*
X7940099Y4600760D01*
D02*
G37*
G36*
X12917236Y3965000D02*
X12882764D01*
X12848953Y3958275D01*
X12817107Y3945084D01*
X12788444Y3925932D01*
X12764069Y3901557D01*
X12744917Y3872894D01*
X12731725Y3841046D01*
X12725000Y3807236D01*
Y3772765D01*
X12731725Y3738955D01*
X12744917Y3707107D01*
X12764069Y3678445D01*
X12788444Y3654069D01*
X12817107Y3634918D01*
X12848953Y3621726D01*
X12882764Y3615001D01*
X12917236D01*
X12951047Y3621726D01*
X12982893Y3634918D01*
X13011555Y3654069D01*
X13035931Y3678445D01*
X13055083Y3707107D01*
X13068275Y3738955D01*
X13075000Y3772765D01*
Y3807236D01*
X13068275Y3841046D01*
X13055083Y3872894D01*
X13035931Y3901557D01*
X13011555Y3925932D01*
X12982893Y3945084D01*
X12951047Y3958275D01*
X12917236Y3965000D01*
D02*
G37*
G36*
Y3569000D02*
X12882764D01*
X12848953Y3562275D01*
X12817107Y3549083D01*
X12788444Y3529932D01*
X12764069Y3505556D01*
X12744917Y3476894D01*
X12731725Y3445046D01*
X12725000Y3411236D01*
Y3376764D01*
X12731725Y3342955D01*
X12744917Y3311107D01*
X12764069Y3282444D01*
X12788444Y3258069D01*
X12817107Y3238917D01*
X12848953Y3225726D01*
X12882764Y3219000D01*
X12917236D01*
X12951047Y3225726D01*
X12982893Y3238917D01*
X13011555Y3258069D01*
X13035931Y3282444D01*
X13055083Y3311107D01*
X13068275Y3342955D01*
X13075000Y3376764D01*
Y3411236D01*
X13068275Y3445046D01*
X13055083Y3476894D01*
X13035931Y3505556D01*
X13011555Y3529932D01*
X12982893Y3549083D01*
X12951047Y3562275D01*
X12917236Y3569000D01*
D02*
G37*
G36*
X5140000Y5540783D02*
X4060000D01*
X4044392Y5537679D01*
X4031161Y5528838D01*
X4022321Y5515607D01*
X4019216Y5500000D01*
Y4083934D01*
X4022321Y4068326D01*
X4031161Y4055095D01*
X5412208Y2674048D01*
X5413603Y2663453D01*
X5427710Y2629396D01*
X5450151Y2600151D01*
X5479396Y2577710D01*
X5513453Y2563603D01*
X5550000Y2558792D01*
X5586547Y2563603D01*
X5620604Y2577710D01*
X5649849Y2600151D01*
X5906490Y2856792D01*
X12796341D01*
X12817107Y2842917D01*
X12848953Y2829725D01*
X12882764Y2823000D01*
X12917236D01*
X12951047Y2829725D01*
X12982893Y2842917D01*
X13011555Y2862069D01*
X13035931Y2886444D01*
X13055083Y2915106D01*
X13068275Y2946954D01*
X13075000Y2980764D01*
Y3015236D01*
X13068275Y3049046D01*
X13055083Y3080894D01*
X13035931Y3109556D01*
X13011555Y3133932D01*
X12982893Y3153083D01*
X12951047Y3166275D01*
X12917236Y3173000D01*
X12882764D01*
X12848953Y3166275D01*
X12817107Y3153083D01*
X12796341Y3139208D01*
X6318468D01*
X5180784Y4276893D01*
Y5500000D01*
X5177679Y5515607D01*
X5168839Y5528838D01*
X5155607Y5537679D01*
X5140000Y5540783D01*
D02*
G37*
G36*
X11265140Y2815000D02*
X11234860D01*
X11205612Y2807163D01*
X11179388Y2792023D01*
X11157977Y2770611D01*
X11142837Y2744388D01*
X11135000Y2715140D01*
Y2684860D01*
X11142837Y2655612D01*
X11157977Y2629388D01*
X11179388Y2607977D01*
X11205612Y2592837D01*
X11234860Y2585000D01*
X11265140D01*
X11294388Y2592837D01*
X11320611Y2607977D01*
X11342023Y2629388D01*
X11357163Y2655612D01*
X11365000Y2684860D01*
Y2715140D01*
X11357163Y2744388D01*
X11342023Y2770611D01*
X11320611Y2792023D01*
X11294388Y2807163D01*
X11265140Y2815000D01*
D02*
G37*
G36*
X8665140D02*
X8634860D01*
X8605612Y2807163D01*
X8579388Y2792023D01*
X8557977Y2770611D01*
X8542837Y2744388D01*
X8535000Y2715140D01*
Y2684860D01*
X8542837Y2655612D01*
X8557977Y2629388D01*
X8579388Y2607977D01*
X8605612Y2592837D01*
X8634860Y2585000D01*
X8665140D01*
X8694388Y2592837D01*
X8720611Y2607977D01*
X8742023Y2629388D01*
X8757163Y2655612D01*
X8765000Y2684860D01*
Y2715140D01*
X8757163Y2744388D01*
X8742023Y2770611D01*
X8720611Y2792023D01*
X8694388Y2807163D01*
X8665140Y2815000D01*
D02*
G37*
G36*
X4365140D02*
X4334860D01*
X4305612Y2807163D01*
X4279388Y2792023D01*
X4257977Y2770611D01*
X4242837Y2744388D01*
X4235000Y2715140D01*
Y2684860D01*
X4242837Y2655612D01*
X4257977Y2629388D01*
X4279388Y2607977D01*
X4305612Y2592837D01*
X4334860Y2585000D01*
X4365140D01*
X4394388Y2592837D01*
X4420611Y2607977D01*
X4442023Y2629388D01*
X4457163Y2655612D01*
X4465000Y2684860D01*
Y2715140D01*
X4457163Y2744388D01*
X4442023Y2770611D01*
X4420611Y2792023D01*
X4394388Y2807163D01*
X4365140Y2815000D01*
D02*
G37*
G36*
X12917236Y2381000D02*
X12882764D01*
X12848953Y2374274D01*
X12817107Y2361083D01*
X12788444Y2341931D01*
X12764069Y2317556D01*
X12744917Y2288893D01*
X12731725Y2257045D01*
X12725000Y2223236D01*
Y2188764D01*
X12731725Y2154954D01*
X12744917Y2123106D01*
X12764069Y2094444D01*
X12788444Y2070068D01*
X12817107Y2050917D01*
X12848953Y2037725D01*
X12882764Y2031000D01*
X12917236D01*
X12951047Y2037725D01*
X12982893Y2050917D01*
X13011555Y2070068D01*
X13035931Y2094444D01*
X13055083Y2123106D01*
X13068275Y2154954D01*
X13075000Y2188764D01*
Y2223236D01*
X13068275Y2257045D01*
X13055083Y2288893D01*
X13035931Y2317556D01*
X13011555Y2341931D01*
X12982893Y2361083D01*
X12951047Y2374274D01*
X12917236Y2381000D01*
D02*
G37*
G36*
X9550000Y2841208D02*
X9513453Y2836396D01*
X9479396Y2822290D01*
X9450151Y2799849D01*
X9427710Y2770604D01*
X9413603Y2736547D01*
X9408792Y2700000D01*
Y1555207D01*
X7644491D01*
X7091208Y2108491D01*
Y2700000D01*
X7086396Y2736547D01*
X7072290Y2770604D01*
X7049849Y2799849D01*
X7020604Y2822290D01*
X6986547Y2836396D01*
X6950000Y2841208D01*
X6913453Y2836396D01*
X6879396Y2822290D01*
X6850151Y2799849D01*
X6827710Y2770604D01*
X6813603Y2736547D01*
X6808792Y2700000D01*
Y2050000D01*
X6813603Y2013453D01*
X6827710Y1979396D01*
X6850151Y1950151D01*
X7486152Y1314150D01*
X7515397Y1291709D01*
X7549454Y1277603D01*
X7586001Y1272791D01*
X12725000D01*
Y1238999D01*
X13075000D01*
Y1588999D01*
X12725000D01*
Y1555207D01*
X9691208D01*
Y2700000D01*
X9686396Y2736547D01*
X9672290Y2770604D01*
X9649849Y2799849D01*
X9620604Y2822290D01*
X9586547Y2836396D01*
X9550000Y2841208D01*
D02*
G37*
G36*
X3623638Y1840000D02*
X3576362D01*
X3529994Y1830777D01*
X3486317Y1812685D01*
X3447009Y1786420D01*
X3413580Y1752991D01*
X3387315Y1713683D01*
X3369223Y1670006D01*
X3360000Y1623638D01*
Y1576362D01*
X3369223Y1529995D01*
X3387315Y1486318D01*
X3413580Y1447009D01*
X3447009Y1413580D01*
X3486317Y1387315D01*
X3529994Y1369223D01*
X3576362Y1360000D01*
X3623638D01*
X3670005Y1369223D01*
X3713682Y1387315D01*
X3752991Y1413580D01*
X3786420Y1447009D01*
X3812685Y1486318D01*
X3830777Y1529995D01*
X3840000Y1576362D01*
Y1623638D01*
X3830777Y1670006D01*
X3812685Y1713683D01*
X3786420Y1752991D01*
X3752991Y1786420D01*
X3713682Y1812685D01*
X3670005Y1830777D01*
X3623638Y1840000D01*
D02*
G37*
G36*
X6430694Y1990000D02*
X6369306D01*
X6308675Y1980397D01*
X6250292Y1961427D01*
X6195595Y1933558D01*
X6145932Y1897476D01*
X6102524Y1854068D01*
X6066442Y1804405D01*
X6038573Y1749708D01*
X6019603Y1691325D01*
X6010000Y1630694D01*
Y1569306D01*
X6019603Y1508675D01*
X6038573Y1450292D01*
X6066442Y1395596D01*
X6102524Y1345932D01*
X6145932Y1302525D01*
X6195595Y1266442D01*
X6250292Y1238573D01*
X6308675Y1219603D01*
X6369306Y1210000D01*
X6430694D01*
X6491325Y1219603D01*
X6549708Y1238573D01*
X6604404Y1266442D01*
X6654068Y1302525D01*
X6697475Y1345932D01*
X6733558Y1395596D01*
X6761427Y1450292D01*
X6780397Y1508675D01*
X6790000Y1569306D01*
Y1630694D01*
X6780397Y1691325D01*
X6761427Y1749708D01*
X6733558Y1804405D01*
X6697475Y1854068D01*
X6654068Y1897476D01*
X6604404Y1933558D01*
X6549708Y1961427D01*
X6491325Y1980397D01*
X6430694Y1990000D01*
D02*
G37*
%LPD*%
G36*
X10800076Y4300000D02*
X11370000D01*
Y3900000D01*
X10500000D01*
X10370000Y4030000D01*
X9576500D01*
Y4559977D01*
X10540099D01*
X10800076Y4300000D01*
D02*
G37*
G36*
X8200076D02*
X8770000D01*
Y3900000D01*
X7900000D01*
X7770000Y4030000D01*
X6976500D01*
Y4559977D01*
X7940099D01*
X8200076Y4300000D01*
D02*
G37*
G36*
X5140000Y4260000D02*
X6388267Y3011733D01*
X6383406Y3000000D01*
X5850000D01*
X5496967Y2646967D01*
X4060000Y4083934D01*
Y5500000D01*
X5140000D01*
Y4260000D01*
D02*
G37*
D17*
X1446000Y6054000D02*
Y6250000D01*
Y6054000D02*
X1600000Y5900000D01*
X3000000D01*
X3150000Y5750000D01*
Y5500000D02*
Y5750000D01*
D20*
X6950000Y2050000D02*
Y2700000D01*
Y2050000D02*
X7586001Y1413999D01*
X9550000D01*
Y2700000D01*
Y1413999D02*
X12900000D01*
X5550000Y2700000D02*
X5848000Y2998000D01*
X12900000D01*
D24*
X8150000Y2700000D02*
D03*
X8650000D02*
D03*
X8500000Y7950000D02*
D03*
Y7450000D02*
D03*
Y6650000D02*
D03*
Y6150000D02*
D03*
X11500000D02*
D03*
Y6650000D02*
D03*
Y7450000D02*
D03*
Y7950000D02*
D03*
X3150000Y6900000D02*
D03*
X2650000D02*
D03*
X6950000Y2700000D02*
D03*
X7450000D02*
D03*
X11250000D02*
D03*
X10750000D02*
D03*
X9550000D02*
D03*
X10050000D02*
D03*
X6050000D02*
D03*
X5550000D02*
D03*
X4350000D02*
D03*
X4850000D02*
D03*
X3150000Y5500000D02*
D03*
X2650000D02*
D03*
D25*
X5890000Y7800000D02*
D03*
D26*
X5494000D02*
D03*
X5098000D02*
D03*
X4702000D02*
D03*
X4306000D02*
D03*
X3910000D02*
D03*
D27*
X12900000Y1413999D02*
D03*
Y7500000D02*
D03*
Y6202000D02*
D03*
D28*
Y1809999D02*
D03*
Y2206000D02*
D03*
Y2602000D02*
D03*
Y2998000D02*
D03*
Y3394000D02*
D03*
Y3790001D02*
D03*
Y4186001D02*
D03*
Y7896000D02*
D03*
Y6598000D02*
D03*
D29*
X1500000Y4200000D02*
D03*
D30*
Y4000000D02*
D03*
X3000000Y8100000D02*
D03*
D31*
X2800000D02*
D03*
D32*
X6400000Y1600000D02*
D03*
X13100000Y5150000D02*
D03*
X1500000D02*
D03*
X3600000Y1600000D02*
D03*
D33*
X1446000Y6250000D02*
D03*
D34*
X1700000D02*
D03*
X1954000D02*
D03*
D36*
X7030000Y4100000D02*
D03*
Y4300000D02*
D03*
Y4500000D02*
D03*
X8500000Y4200000D02*
D03*
X8700000D02*
D03*
X8300000D02*
D03*
Y4000000D02*
D03*
X8500000D02*
D03*
X8700000D02*
D03*
X11300000D02*
D03*
X11100000D02*
D03*
X10900000D02*
D03*
Y4200000D02*
D03*
X11300000D02*
D03*
X11100000D02*
D03*
X9630000Y4500000D02*
D03*
Y4300000D02*
D03*
Y4100000D02*
D03*
X9800000Y5400000D02*
D03*
X10000000D02*
D03*
X10200000D02*
D03*
X9600000D02*
D03*
X9400000D02*
D03*
X7200000D02*
D03*
X7400000D02*
D03*
X7600000D02*
D03*
X7000000D02*
D03*
X6800000D02*
D03*
X4200000D02*
D03*
X4400000D02*
D03*
X5000000D02*
D03*
X4800000D02*
D03*
X4600000D02*
D03*
X3500000Y3000000D02*
D03*
X3300000D02*
D03*
X3100000D02*
D03*
Y3200000D02*
D03*
X3500000D02*
D03*
X3300000D02*
D03*
%TF.MD5,c07bc1d65a82cd1ca615543b22bb8dee*%
M02*
