%TF.GenerationSoftware,Altium Limited,Altium Designer,23.5.1 (21)*%
G04 Layer_Color=32896*
%FSLAX45Y45*%
%MOMM*%
%TF.SameCoordinates,DD9E7470-14DF-4C20-BCD2-90D554482088*%
%TF.FilePolarity,Positive*%
%TF.FileFunction,Other,Bottom_Designator*%
%TF.Part,Single*%
G01*
G75*
%TA.AperFunction,NonConductor*%
%ADD56C,0.05000*%
D56*
X44540Y10294D02*
Y-11131D01*
X43112Y-15415D01*
X40255Y-18272D01*
X35970Y-19700D01*
X33114D01*
X28829Y-18272D01*
X25973Y-15415D01*
X24544Y-11131D01*
Y10294D01*
X14832Y3152D02*
Y4580D01*
X13404Y7437D01*
X11976Y8865D01*
X9119Y10294D01*
X3406D01*
X549Y8865D01*
X-879Y7437D01*
X-2307Y4580D01*
Y1724D01*
X-879Y-1133D01*
X1978Y-5417D01*
X16260Y-19700D01*
X-3735D01*
X-272960Y15374D02*
Y-14620D01*
Y15374D02*
X-285815D01*
X-290099Y13945D01*
X-291527Y12517D01*
X-292956Y9660D01*
Y6804D01*
X-291527Y3947D01*
X-290099Y2519D01*
X-285815Y1091D01*
X-272960D01*
X-282958D02*
X-292956Y-14620D01*
X-299669Y9660D02*
X-302525Y11089D01*
X-306810Y15374D01*
Y-14620D01*
X-321664Y9660D02*
X-324520Y11089D01*
X-328805Y15374D01*
Y-14620D01*
X-366940Y15374D02*
Y-14620D01*
Y15374D02*
X-379795D01*
X-384079Y13945D01*
X-385507Y12517D01*
X-386936Y9660D01*
Y6804D01*
X-385507Y3947D01*
X-384079Y2519D01*
X-379795Y1091D01*
X-366940D01*
X-376938D02*
X-386936Y-14620D01*
X-412216Y5376D02*
X-410788Y1091D01*
X-407931Y-1766D01*
X-403647Y-3194D01*
X-402218D01*
X-397933Y-1766D01*
X-395077Y1091D01*
X-393649Y5376D01*
Y6804D01*
X-395077Y11089D01*
X-397933Y13945D01*
X-402218Y15374D01*
X-403647D01*
X-407931Y13945D01*
X-410788Y11089D01*
X-412216Y5376D01*
Y-1766D01*
X-410788Y-8907D01*
X-407931Y-13192D01*
X-403647Y-14620D01*
X-400790D01*
X-396505Y-13192D01*
X-395077Y-10335D01*
X-366940Y-246246D02*
Y-276240D01*
Y-246246D02*
X-379795D01*
X-384079Y-247675D01*
X-385507Y-249103D01*
X-386936Y-251960D01*
Y-254816D01*
X-385507Y-257673D01*
X-384079Y-259101D01*
X-379795Y-260529D01*
X-366940D01*
X-376938D02*
X-386936Y-276240D01*
X-413644Y-246246D02*
X-399362Y-276240D01*
X-393649Y-246246D02*
X-413644D01*
X716057Y40774D02*
Y17921D01*
X717485Y13636D01*
X718914Y12208D01*
X721770Y10780D01*
X724627D01*
X727483Y12208D01*
X728912Y13636D01*
X730340Y17921D01*
Y20778D01*
X706917Y33632D02*
Y35060D01*
X705488Y37917D01*
X704060Y39345D01*
X701204Y40774D01*
X695490D01*
X692634Y39345D01*
X691206Y37917D01*
X689777Y35060D01*
Y32204D01*
X691206Y29347D01*
X694062Y25063D01*
X708345Y10780D01*
X688349D01*
X-195324Y8232D02*
X-193896Y11089D01*
X-191039Y13945D01*
X-188183Y15374D01*
X-182470D01*
X-179613Y13945D01*
X-176757Y11089D01*
X-175328Y8232D01*
X-173900Y3947D01*
Y-3194D01*
X-175328Y-7479D01*
X-176757Y-10335D01*
X-179613Y-13192D01*
X-182470Y-14620D01*
X-188183D01*
X-191039Y-13192D01*
X-193896Y-10335D01*
X-195324Y-7479D01*
X-210892Y15374D02*
X-206607Y13945D01*
X-205179Y11089D01*
Y8232D01*
X-206607Y5376D01*
X-209464Y3947D01*
X-215177Y2519D01*
X-219462Y1091D01*
X-222318Y-1766D01*
X-223746Y-4622D01*
Y-8907D01*
X-222318Y-11764D01*
X-220890Y-13192D01*
X-216605Y-14620D01*
X-210892D01*
X-206607Y-13192D01*
X-205179Y-11764D01*
X-203751Y-8907D01*
Y-4622D01*
X-205179Y-1766D01*
X-208035Y1091D01*
X-212320Y2519D01*
X-218033Y3947D01*
X-220890Y5376D01*
X-222318Y8232D01*
Y11089D01*
X-220890Y13945D01*
X-216605Y15374D01*
X-210892D01*
X203456Y8232D02*
X204884Y11089D01*
X207741Y13945D01*
X210597Y15374D01*
X216310D01*
X219167Y13945D01*
X222023Y11089D01*
X223452Y8232D01*
X224880Y3947D01*
Y-3194D01*
X223452Y-7479D01*
X222023Y-10335D01*
X219167Y-13192D01*
X216310Y-14620D01*
X210597D01*
X207741Y-13192D01*
X204884Y-10335D01*
X203456Y-7479D01*
X175034Y15374D02*
X189316Y-14620D01*
X195029Y15374D02*
X175034D01*
X-136904Y226672D02*
X-135476Y229529D01*
X-132619Y232385D01*
X-129763Y233814D01*
X-124050D01*
X-121193Y232385D01*
X-118337Y229529D01*
X-116908Y226672D01*
X-115480Y222387D01*
Y215246D01*
X-116908Y210961D01*
X-118337Y208105D01*
X-121193Y205248D01*
X-124050Y203820D01*
X-129763D01*
X-132619Y205248D01*
X-135476Y208105D01*
X-136904Y210961D01*
X-162470Y229529D02*
X-161042Y232385D01*
X-156757Y233814D01*
X-153900D01*
X-149615Y232385D01*
X-146759Y228100D01*
X-145331Y220959D01*
Y213818D01*
X-146759Y208105D01*
X-149615Y205248D01*
X-153900Y203820D01*
X-155329D01*
X-159613Y205248D01*
X-162470Y208105D01*
X-163898Y212389D01*
Y213818D01*
X-162470Y218103D01*
X-159613Y220959D01*
X-155329Y222387D01*
X-153900D01*
X-149615Y220959D01*
X-146759Y218103D01*
X-145331Y213818D01*
%TF.MD5,9e19bc7a72cabb500acd496c6d413aa9*%
M02*
