%TF.GenerationSoftware,Altium Limited,Altium Designer,23.5.1 (21)*%
G04 Layer_Color=8388736*
%FSLAX45Y45*%
%MOMM*%
%TF.SameCoordinates,DD9E7470-14DF-4C20-BCD2-90D554482088*%
%TF.FilePolarity,Negative*%
%TF.FileFunction,Soldermask,Top*%
%TF.Part,Single*%
G01*
G75*
%TA.AperFunction,NonConductor*%
%ADD38R,4.80000X1.10000*%
%TA.AperFunction,SMDPad,CuDef*%
%ADD39R,0.80320X0.75320*%
%ADD40R,1.50320X1.80320*%
%ADD41R,2.20320X1.80320*%
%ADD42R,0.90000X0.90000*%
%ADD43R,0.75320X0.80320*%
%ADD44R,0.80320X0.80320*%
%ADD45R,0.80320X0.80320*%
G04:AMPARAMS|DCode=46|XSize=1.65mm|YSize=0.7mm|CornerRadius=0.08mm|HoleSize=0mm|Usage=FLASHONLY|Rotation=90.000|XOffset=0mm|YOffset=0mm|HoleType=Round|Shape=RoundedRectangle|*
%AMROUNDEDRECTD46*
21,1,1.65000,0.54000,0,0,90.0*
21,1,1.49000,0.70000,0,0,90.0*
1,1,0.16000,0.27000,0.74500*
1,1,0.16000,0.27000,-0.74500*
1,1,0.16000,-0.27000,-0.74500*
1,1,0.16000,-0.27000,0.74500*
%
%ADD46ROUNDEDRECTD46*%
%TA.AperFunction,ConnectorPad*%
%ADD47R,4.20320X1.70320*%
%ADD48R,4.20320X1.20320*%
%TA.AperFunction,ComponentPad*%
%ADD49R,2.30000X1.60000*%
%ADD50O,2.30000X1.60000*%
D38*
X1240000Y-505000D02*
D03*
D39*
X376573Y423716D02*
D03*
X276573D02*
D03*
X740001Y-510000D02*
D03*
X840000D02*
D03*
X740001Y-350000D02*
D03*
X840000D02*
D03*
X450000Y-100000D02*
D03*
X550000D02*
D03*
Y0D02*
D03*
X450000D02*
D03*
D40*
X835000Y172500D02*
D03*
X585000D02*
D03*
D41*
X710000Y462500D02*
D03*
D42*
X470000Y-510000D02*
D03*
X630001D02*
D03*
Y-350000D02*
D03*
X470000D02*
D03*
D43*
X-417500Y-152500D02*
D03*
Y-52500D02*
D03*
Y152500D02*
D03*
Y52500D02*
D03*
X350000Y0D02*
D03*
Y100000D02*
D03*
D44*
X36509Y530009D02*
D03*
X-63497D02*
D03*
X36509Y420009D02*
D03*
X-63497D02*
D03*
X-63510Y-530009D02*
D03*
X36497D02*
D03*
X-63510Y-420009D02*
D03*
X36497D02*
D03*
D45*
X190009Y-530010D02*
D03*
Y-430003D02*
D03*
D46*
X-190500Y-270000D02*
D03*
X-63500D02*
D03*
X63500D02*
D03*
X190500D02*
D03*
Y270000D02*
D03*
X63500D02*
D03*
X-63500D02*
D03*
X-190500D02*
D03*
D47*
X1300000Y-279500D02*
D03*
Y279500D02*
D03*
D48*
Y0D02*
D03*
D49*
X-640000Y-127000D02*
D03*
D50*
Y127000D02*
D03*
%TF.MD5,b3d1bffd042d13efe151231b93a996b0*%
M02*
