%TF.GenerationSoftware,Altium Limited,Altium Designer,23.5.1 (21)*%
G04 Layer_Color=16711935*
%FSLAX45Y45*%
%MOMM*%
%TF.SameCoordinates,DD9E7470-14DF-4C20-BCD2-90D554482088*%
%TF.FilePolarity,Negative*%
%TF.FileFunction,Soldermask,Bot*%
%TF.Part,Single*%
G01*
G75*
%TA.AperFunction,SMDPad,CuDef*%
%ADD43R,0.75320X0.80320*%
%ADD44R,0.80320X0.80320*%
%ADD45R,0.80320X0.80320*%
%TA.AperFunction,ConnectorPad*%
%ADD47R,4.20320X1.70320*%
%TA.AperFunction,ComponentPad*%
%ADD49R,2.30000X1.60000*%
%ADD50O,2.30000X1.60000*%
%TA.AperFunction,SMDPad,CuDef*%
%ADD51R,0.40000X0.70000*%
%ADD52R,1.80000X0.90000*%
%ADD53R,2.50000X0.86000*%
D43*
X-390000Y-310000D02*
D03*
Y-210000D02*
D03*
Y-50000D02*
D03*
Y50000D02*
D03*
X-300000D02*
D03*
Y-50000D02*
D03*
D44*
X-190010Y220009D02*
D03*
X-90003D02*
D03*
D45*
X199991Y-50010D02*
D03*
Y49997D02*
D03*
X-200009Y-50010D02*
D03*
Y49997D02*
D03*
D47*
X1300000Y279500D02*
D03*
Y-279500D02*
D03*
D49*
X-640000Y-127000D02*
D03*
D50*
Y127000D02*
D03*
D51*
X25000Y100000D02*
D03*
X-75000D02*
D03*
X-25000D02*
D03*
X75000D02*
D03*
X-75000Y-100000D02*
D03*
X-25000D02*
D03*
X25000D02*
D03*
X75000D02*
D03*
D52*
X0Y0D02*
D03*
D53*
X905000Y254000D02*
D03*
Y127000D02*
D03*
Y0D02*
D03*
Y-127000D02*
D03*
Y-254000D02*
D03*
X515000D02*
D03*
Y-127000D02*
D03*
Y0D02*
D03*
Y127000D02*
D03*
Y254000D02*
D03*
%TF.MD5,6f511578b58b9c34a327366c3b25da4a*%
M02*
