%TF.GenerationSoftware,Altium Limited,Altium Designer,23.5.1 (21)*%
G04 Layer_Physical_Order=3*
G04 Layer_Color=16309136*
%FSLAX45Y45*%
%MOMM*%
%TF.SameCoordinates,DD9E7470-14DF-4C20-BCD2-90D554482088*%
%TF.FilePolarity,Positive*%
%TF.FileFunction,Copper,L3,Inr,Signal*%
%TF.Part,Single*%
G01*
G75*
%TA.AperFunction,ComponentPad*%
%ADD27R,2.20000X1.50000*%
%ADD28O,2.20000X1.50000*%
%TA.AperFunction,ViaPad*%
%ADD29C,0.56000*%
G36*
X1460169Y596157D02*
X1478367Y588619D01*
X1494746Y577675D01*
X1508675Y563746D01*
X1519618Y547368D01*
X1527157Y529169D01*
X1531000Y509849D01*
Y500000D01*
X1530999Y-500001D01*
X1530999Y-509850D01*
X1527156Y-529169D01*
X1519618Y-547368D01*
X1508674Y-563747D01*
X1494746Y-577675D01*
X1478367Y-588619D01*
X1460168Y-596157D01*
X1440849Y-600000D01*
X1431000Y-600000D01*
X659999Y-600000D01*
Y-211000D01*
X785000D01*
Y211000D01*
X229991D01*
Y19997D01*
X-360009D01*
Y-600000D01*
X-689849Y-600000D01*
X-709169Y-596157D01*
X-727368Y-588619D01*
X-743746Y-577675D01*
X-757675Y-563746D01*
X-768619Y-547368D01*
X-776157Y-529169D01*
X-780000Y-509849D01*
Y-500000D01*
X-780000D01*
X-780000Y500000D01*
Y509849D01*
X-776157Y529169D01*
X-768619Y547368D01*
X-757675Y563746D01*
X-743747Y577675D01*
X-727368Y588619D01*
X-709169Y596157D01*
X-689850Y600000D01*
X1440849D01*
X1460169Y596157D01*
D02*
G37*
G36*
X768764Y-194764D02*
X659999D01*
X648519Y-199520D01*
X643764Y-211000D01*
Y-600000D01*
X-343773D01*
Y3761D01*
X229991D01*
X241471Y8517D01*
X246227Y19997D01*
Y194764D01*
X768764D01*
Y-194764D01*
D02*
G37*
%LPC*%
G36*
X115053Y573019D02*
X97947D01*
X82142Y566472D01*
X70046Y554376D01*
X63500Y538572D01*
Y521466D01*
X70046Y505661D01*
X82142Y493565D01*
X97947Y487019D01*
X115053D01*
X130857Y493565D01*
X142953Y505661D01*
X149500Y521466D01*
Y538572D01*
X142953Y554376D01*
X130857Y566472D01*
X115053Y573019D01*
D02*
G37*
G36*
Y463019D02*
X97947D01*
X82142Y456472D01*
X70046Y444376D01*
X63500Y428572D01*
Y411466D01*
X70046Y395661D01*
X82142Y383565D01*
X97947Y377019D01*
X115053D01*
X130857Y383565D01*
X142953Y395661D01*
X149500Y411466D01*
Y428572D01*
X142953Y444376D01*
X130857Y456472D01*
X115053Y463019D01*
D02*
G37*
G36*
X718553Y383000D02*
X701447D01*
X685643Y376454D01*
X673547Y364358D01*
X667000Y348553D01*
Y331447D01*
X673547Y315642D01*
X685643Y303547D01*
X701447Y297000D01*
X718553D01*
X734358Y303547D01*
X746454Y315642D01*
X753000Y331447D01*
Y348553D01*
X746454Y364358D01*
X734358Y376454D01*
X718553Y383000D01*
D02*
G37*
G36*
X-111447Y163000D02*
X-128553D01*
X-144358Y156454D01*
X-151766Y149046D01*
X-160002Y145765D01*
X-168260Y149041D01*
X-175661Y156441D01*
X-191465Y162988D01*
X-208572D01*
X-224376Y156441D01*
X-236472Y144345D01*
X-243019Y128541D01*
Y111435D01*
X-236472Y95630D01*
X-224376Y83534D01*
X-208572Y76988D01*
X-191465D01*
X-175661Y83534D01*
X-168253Y90942D01*
X-160017Y94223D01*
X-151758Y90947D01*
X-144358Y83546D01*
X-128553Y77000D01*
X-111447D01*
X-95642Y83546D01*
X-83546Y95642D01*
X-77000Y111447D01*
Y128553D01*
X-83546Y144358D01*
X-95642Y156454D01*
X-111447Y163000D01*
D02*
G37*
G36*
X1408553Y193000D02*
X1391447D01*
X1375642Y186454D01*
X1363546Y174358D01*
X1357000Y158553D01*
Y141447D01*
X1363546Y125642D01*
X1375642Y113546D01*
X1391447Y107000D01*
X1408553D01*
X1424358Y113546D01*
X1436454Y125642D01*
X1443000Y141447D01*
Y158553D01*
X1436454Y174358D01*
X1424358Y186454D01*
X1408553Y193000D01*
D02*
G37*
G36*
X1308553D02*
X1291447D01*
X1275642Y186454D01*
X1263546Y174358D01*
X1257000Y158553D01*
Y141447D01*
X1263546Y125642D01*
X1275642Y113546D01*
X1291447Y107000D01*
X1308553D01*
X1324358Y113546D01*
X1336454Y125642D01*
X1343000Y141447D01*
Y158553D01*
X1336454Y174358D01*
X1324358Y186454D01*
X1308553Y193000D01*
D02*
G37*
G36*
X1208553D02*
X1191447D01*
X1175642Y186454D01*
X1163546Y174358D01*
X1157000Y158553D01*
Y141447D01*
X1163546Y125642D01*
X1175642Y113546D01*
X1191447Y107000D01*
X1208553D01*
X1224357Y113546D01*
X1236453Y125642D01*
X1243000Y141447D01*
Y158553D01*
X1236453Y174358D01*
X1224357Y186454D01*
X1208553Y193000D01*
D02*
G37*
G36*
X-605000Y217776D02*
X-675000D01*
X-698495Y214683D01*
X-720388Y205615D01*
X-739189Y191189D01*
X-753615Y172388D01*
X-762683Y150495D01*
X-765776Y127000D01*
X-762683Y103505D01*
X-753615Y81612D01*
X-739189Y62811D01*
X-720388Y48385D01*
X-698495Y39317D01*
X-675000Y36224D01*
X-605000D01*
X-581505Y39317D01*
X-559612Y48385D01*
X-540811Y62811D01*
X-526385Y81612D01*
X-517317Y103505D01*
X-514224Y127000D01*
X-517317Y150495D01*
X-526385Y172388D01*
X-540811Y191189D01*
X-559612Y205615D01*
X-581505Y214683D01*
X-605000Y217776D01*
D02*
G37*
G36*
X1408553Y-107000D02*
X1391447D01*
X1375642Y-113546D01*
X1363546Y-125642D01*
X1357000Y-141447D01*
Y-158553D01*
X1363546Y-174358D01*
X1375642Y-186454D01*
X1391447Y-193000D01*
X1408553D01*
X1424358Y-186454D01*
X1436454Y-174358D01*
X1443000Y-158553D01*
Y-141447D01*
X1436454Y-125642D01*
X1424358Y-113546D01*
X1408553Y-107000D01*
D02*
G37*
G36*
X1308553D02*
X1291447D01*
X1275642Y-113546D01*
X1263546Y-125642D01*
X1257000Y-141447D01*
Y-158553D01*
X1263546Y-174358D01*
X1275642Y-186454D01*
X1291447Y-193000D01*
X1308553D01*
X1324358Y-186454D01*
X1336454Y-174358D01*
X1343000Y-158553D01*
Y-141447D01*
X1336454Y-125642D01*
X1324358Y-113546D01*
X1308553Y-107000D01*
D02*
G37*
G36*
X1208553D02*
X1191447D01*
X1175642Y-113546D01*
X1163546Y-125642D01*
X1157000Y-141447D01*
Y-158553D01*
X1163546Y-174358D01*
X1175642Y-186454D01*
X1191447Y-193000D01*
X1208553D01*
X1224357Y-186454D01*
X1236453Y-174358D01*
X1243000Y-158553D01*
Y-141447D01*
X1236453Y-125642D01*
X1224357Y-113546D01*
X1208553Y-107000D01*
D02*
G37*
G36*
X-515000Y-37000D02*
X-765000D01*
Y-217000D01*
X-515000D01*
Y-37000D01*
D02*
G37*
G36*
X318553Y-77000D02*
X301447D01*
X285642Y-83546D01*
X273546Y-95642D01*
X267000Y-111447D01*
Y-128553D01*
X273546Y-144357D01*
X285642Y-156453D01*
X301447Y-163000D01*
X318553D01*
X334357Y-156453D01*
X346453Y-144357D01*
X353000Y-128553D01*
Y-111447D01*
X346453Y-95642D01*
X334357Y-83546D01*
X318553Y-77000D01*
D02*
G37*
G36*
X208553Y-77000D02*
X191447D01*
X175643Y-83546D01*
X163547Y-95642D01*
X157000Y-111447D01*
Y-128553D01*
X163547Y-144358D01*
X175643Y-156454D01*
X191447Y-163000D01*
X208553D01*
X224358Y-156454D01*
X236454Y-144358D01*
X243000Y-128553D01*
Y-111447D01*
X236454Y-95642D01*
X224358Y-83546D01*
X208553Y-77000D01*
D02*
G37*
G36*
X288553Y-197000D02*
X271447D01*
X255642Y-203546D01*
X243546Y-215642D01*
X237000Y-231447D01*
Y-248553D01*
X243546Y-264358D01*
X255642Y-276454D01*
X271447Y-283000D01*
X288553D01*
X304358Y-276454D01*
X316454Y-264358D01*
X323000Y-248553D01*
Y-231447D01*
X316454Y-215642D01*
X304358Y-203546D01*
X288553Y-197000D01*
D02*
G37*
G36*
X318553Y-307000D02*
X301447D01*
X285642Y-313546D01*
X273546Y-325642D01*
X267000Y-341447D01*
Y-358553D01*
X273546Y-374358D01*
X285642Y-386454D01*
X301447Y-393000D01*
X318553D01*
X334357Y-386454D01*
X346453Y-374358D01*
X353000Y-358553D01*
Y-341447D01*
X346453Y-325642D01*
X334357Y-313546D01*
X318553Y-307000D01*
D02*
G37*
G36*
X115041Y-377000D02*
X97935D01*
X82130Y-383546D01*
X70034Y-395642D01*
X63488Y-411447D01*
Y-428553D01*
X70034Y-444358D01*
X82130Y-456453D01*
X97935Y-463000D01*
X115041D01*
X130845Y-456453D01*
X142941Y-444358D01*
X149488Y-428553D01*
Y-411447D01*
X142941Y-395642D01*
X130845Y-383546D01*
X115041Y-377000D01*
D02*
G37*
G36*
X388553Y-467000D02*
X371447D01*
X355642Y-473546D01*
X343546Y-485642D01*
X337000Y-501447D01*
Y-518553D01*
X343546Y-534358D01*
X355642Y-546454D01*
X371447Y-553000D01*
X388553D01*
X404358Y-546454D01*
X416454Y-534358D01*
X423000Y-518553D01*
Y-501447D01*
X416454Y-485642D01*
X404358Y-473546D01*
X388553Y-467000D01*
D02*
G37*
G36*
X115041Y-487000D02*
X97935D01*
X82130Y-493546D01*
X70034Y-505642D01*
X63488Y-521447D01*
Y-538553D01*
X70034Y-554358D01*
X82130Y-566454D01*
X97935Y-573000D01*
X115041D01*
X130845Y-566454D01*
X142941Y-554358D01*
X149488Y-538553D01*
Y-521447D01*
X142941Y-505642D01*
X130845Y-493546D01*
X115041Y-487000D01*
D02*
G37*
G36*
X268553Y-487000D02*
X251447D01*
X235642Y-493547D01*
X223546Y-505643D01*
X217000Y-521447D01*
Y-538553D01*
X223546Y-554358D01*
X235642Y-566454D01*
X251447Y-573000D01*
X268553D01*
X284357Y-566454D01*
X296453Y-554358D01*
X303000Y-538553D01*
Y-521447D01*
X296453Y-505643D01*
X284357Y-493547D01*
X268553Y-487000D01*
D02*
G37*
%LPD*%
D27*
X-640000Y-127000D02*
D03*
D28*
Y127000D02*
D03*
D29*
X-120000Y120000D02*
D03*
X710000Y340000D02*
D03*
X-133488Y530019D02*
D03*
X1200000Y-150000D02*
D03*
X1300000D02*
D03*
X1400000D02*
D03*
Y150000D02*
D03*
X1300000D02*
D03*
X1200000D02*
D03*
X709999Y-254000D02*
D03*
X710000Y-127000D02*
D03*
X710000Y254000D02*
D03*
X710000Y127000D02*
D03*
X310000Y-350000D02*
D03*
X380000Y-510000D02*
D03*
X280000Y-240000D02*
D03*
X310000Y-120000D02*
D03*
X-390009Y-379990D02*
D03*
X200000Y-120000D02*
D03*
X909991Y-349990D02*
D03*
Y-509991D02*
D03*
X106500Y530019D02*
D03*
Y420019D02*
D03*
X106488Y-420000D02*
D03*
X-133500Y-530000D02*
D03*
X-299991Y-119990D02*
D03*
X-200000Y-120000D02*
D03*
X-200019Y119988D02*
D03*
X199981D02*
D03*
X260000Y-530000D02*
D03*
X106488Y-530000D02*
D03*
%TF.MD5,cf1009dd4a1200215dbe4d92f1e4680a*%
M02*
