%TF.GenerationSoftware,Altium Limited,Altium Designer,23.5.1 (21)*%
G04 Layer_Color=8388736*
%FSLAX45Y45*%
%MOMM*%
%TF.SameCoordinates,DD9E7470-14DF-4C20-BCD2-90D554482088*%
%TF.FilePolarity,Positive*%
%TF.FileFunction,Other,Dimensions*%
%TF.Part,Single*%
G01*
G75*
%TA.AperFunction,NonConductor*%
%ADD34C,0.25400*%
%ADD55C,0.15240*%
D34*
X1829200Y-447600D02*
X1880000Y-600000D01*
X1930800Y-447600D01*
X1880000Y600000D02*
X1930800Y447600D01*
X1829200D02*
X1880000Y600000D01*
Y-600000D02*
Y-347560D01*
Y266280D02*
Y600000D01*
X1461400Y-600000D02*
X1905400D01*
X1461400Y600000D02*
X1905400D01*
X-780000Y-780000D02*
X-627600Y-729200D01*
X-780000Y-780000D02*
X-627600Y-830800D01*
X1378600D02*
X1531000Y-780000D01*
X1378600Y-729200D02*
X1531000Y-780000D01*
X-780000D02*
X60590D01*
X609130D02*
X1531000D01*
X-780000Y-805400D02*
Y-530400D01*
X1531000Y-805400D02*
Y-530400D01*
D55*
X1848078Y-306920D02*
X1840823Y-292409D01*
X1819056Y-270642D01*
X1971423D01*
X1855334Y-187929D02*
X1848078D01*
X1833567Y-180673D01*
X1826312Y-173417D01*
X1819056Y-158906D01*
Y-129884D01*
X1826312Y-115373D01*
X1833567Y-108117D01*
X1848078Y-100861D01*
X1862589D01*
X1877101Y-108117D01*
X1898867Y-122628D01*
X1971423Y-195184D01*
Y-93606D01*
X1956912Y-52249D02*
X1964168Y-59505D01*
X1971423Y-52249D01*
X1964168Y-44993D01*
X1956912Y-52249D01*
X1819056Y31916D02*
X1826312Y10149D01*
X1848078Y-4362D01*
X1884356Y-11618D01*
X1906123D01*
X1942401Y-4362D01*
X1964168Y10149D01*
X1971423Y31916D01*
Y46427D01*
X1964168Y68194D01*
X1942401Y82705D01*
X1906123Y89960D01*
X1884356D01*
X1848078Y82705D01*
X1826312Y68194D01*
X1819056Y46427D01*
Y31916D01*
Y167595D02*
X1826312Y145829D01*
X1848078Y131317D01*
X1884356Y124062D01*
X1906123D01*
X1942401Y131317D01*
X1964168Y145829D01*
X1971423Y167595D01*
Y182106D01*
X1964168Y203873D01*
X1942401Y218384D01*
X1906123Y225640D01*
X1884356D01*
X1848078Y218384D01*
X1826312Y203873D01*
X1819056Y182106D01*
Y167595D01*
X108485Y-755334D02*
Y-748079D01*
X115741Y-733567D01*
X122997Y-726312D01*
X137508Y-719056D01*
X166530D01*
X181041Y-726312D01*
X188297Y-733567D01*
X195553Y-748079D01*
Y-762590D01*
X188297Y-777101D01*
X173786Y-798868D01*
X101230Y-871423D01*
X202808D01*
X251421Y-719056D02*
X331232D01*
X287698Y-777101D01*
X309465D01*
X323976Y-784356D01*
X331232Y-791612D01*
X338488Y-813379D01*
Y-827890D01*
X331232Y-849657D01*
X316721Y-864168D01*
X294954Y-871423D01*
X273187D01*
X251421Y-864168D01*
X244165Y-856912D01*
X236909Y-842401D01*
X379844Y-856912D02*
X372589Y-864168D01*
X379844Y-871423D01*
X387100Y-864168D01*
X379844Y-856912D01*
X420476Y-748079D02*
X434987Y-740823D01*
X456754Y-719056D01*
Y-871423D01*
X532212Y-748079D02*
X546723Y-740823D01*
X568490Y-719056D01*
Y-871423D01*
%TF.MD5,c2152cb7b3edab024ea819a2b09781f3*%
M02*
