%TF.GenerationSoftware,Altium Limited,Altium Designer,23.5.1 (21)*%
G04 Layer_Physical_Order=1*
G04 Layer_Color=2441676*
%FSLAX45Y45*%
%MOMM*%
%TF.SameCoordinates,DD9E7470-14DF-4C20-BCD2-90D554482088*%
%TF.FilePolarity,Positive*%
%TF.FileFunction,Copper,L1,Top,Signal*%
%TF.Part,Single*%
G01*
G75*
%TA.AperFunction,Conductor*%
%ADD10C,0.36875*%
%TA.AperFunction,SMDPad,CuDef*%
%ADD11R,0.60000X0.55000*%
%ADD12R,1.30000X1.60000*%
%ADD13R,2.00000X1.60000*%
%ADD14R,0.80000X0.80000*%
%ADD15R,0.55000X0.60000*%
%ADD16R,0.60000X0.60000*%
%ADD17R,0.60000X0.60000*%
G04:AMPARAMS|DCode=18|XSize=1.55mm|YSize=0.6mm|CornerRadius=0.03mm|HoleSize=0mm|Usage=FLASHONLY|Rotation=90.000|XOffset=0mm|YOffset=0mm|HoleType=Round|Shape=RoundedRectangle|*
%AMROUNDEDRECTD18*
21,1,1.55000,0.54000,0,0,90.0*
21,1,1.49000,0.60000,0,0,90.0*
1,1,0.06000,0.27000,0.74500*
1,1,0.06000,0.27000,-0.74500*
1,1,0.06000,-0.27000,-0.74500*
1,1,0.06000,-0.27000,0.74500*
%
%ADD18ROUNDEDRECTD18*%
%TA.AperFunction,ConnectorPad*%
%ADD19R,4.00000X1.50000*%
%ADD20R,4.00000X1.00000*%
%TA.AperFunction,Conductor*%
%ADD21C,0.50000*%
%ADD22C,0.20000*%
%TA.AperFunction,NonConductor*%
%ADD23C,0.15000*%
%TA.AperFunction,Conductor*%
%ADD24R,2.00000X2.32500*%
%ADD25R,1.30002X0.60000*%
%ADD26R,4.00000X2.44500*%
%TA.AperFunction,ComponentPad*%
%ADD27R,2.20000X1.50000*%
%ADD28O,2.20000X1.50000*%
%TA.AperFunction,ViaPad*%
%ADD29C,0.56000*%
G36*
X-390009Y22500D02*
X-390009Y82500D01*
X-395099Y82583D01*
X-405256Y83249D01*
X-415349Y84578D01*
X-425332Y86563D01*
X-435165Y89198D01*
X-444804Y92470D01*
X-454208Y96366D01*
X-463338Y100868D01*
X-472153Y105957D01*
X-480617Y111613D01*
X-488693Y117810D01*
X-496346Y124521D01*
X-500004Y128061D01*
X-500004Y128061D01*
X-551976Y180033D01*
X-728042D01*
X-728042Y73967D01*
X-723975Y69900D01*
X-715325Y62314D01*
X-706198Y55310D01*
X-696632Y48918D01*
X-686668Y43166D01*
X-676350Y38077D01*
X-665721Y33675D01*
X-654826Y29977D01*
X-643713Y26999D01*
X-632430Y24754D01*
X-621023Y23253D01*
X-609543Y22500D01*
X-603790D01*
X-603790Y22500D01*
X-390009D01*
D02*
G37*
G36*
X-390000Y-22500D02*
X-390000Y-82500D01*
X-395090Y-82583D01*
X-405247Y-83249D01*
X-415340Y-84578D01*
X-425323Y-86563D01*
X-435156Y-89198D01*
X-444795Y-92470D01*
X-454199Y-96366D01*
X-463329Y-100868D01*
X-472144Y-105957D01*
X-480608Y-111613D01*
X-488684Y-117810D01*
X-496337Y-124521D01*
X-499995Y-128061D01*
X-499995Y-128061D01*
X-551967Y-180033D01*
X-728033D01*
X-728033Y-73967D01*
X-723966Y-69900D01*
X-715316Y-62314D01*
X-706189Y-55310D01*
X-696622Y-48918D01*
X-686659Y-43166D01*
X-676341Y-38077D01*
X-665711Y-33675D01*
X-654817Y-29977D01*
X-643704Y-26999D01*
X-632420Y-24754D01*
X-621014Y-23253D01*
X-609534Y-22500D01*
X-603781D01*
X-603781Y-22500D01*
X-390000D01*
D02*
G37*
G36*
X93500Y-270000D02*
Y-343500D01*
X140000Y-390000D01*
Y-480000D01*
X160009Y-500010D01*
X290000Y-500000D01*
Y-560000D01*
X6497Y-560010D01*
Y-371503D01*
X33500Y-344500D01*
X33500Y-270000D01*
X93500D01*
D02*
G37*
G36*
X900000Y92500D02*
X680000D01*
Y160000D01*
X770000D01*
Y252500D01*
X900000D01*
Y92500D01*
D02*
G37*
G36*
X740000Y220000D02*
X650000D01*
Y92500D01*
X520000D01*
Y290000D01*
X740000D01*
Y220000D01*
D02*
G37*
G36*
X1100000Y-50000D02*
X1300000D01*
Y50000D01*
X1100000D01*
X925000Y17187D01*
Y-17188D01*
X1100000Y-50000D01*
D02*
G37*
D10*
X-238775Y-290000D02*
G03*
X-190491Y-270000I0J68284D01*
G01*
X-417491Y-220649D02*
G03*
X-348140Y-290000I69351J0D01*
G01*
X-348149Y290000D02*
G03*
X-417500Y220649I0J-69351D01*
G01*
X-190500Y270000D02*
G03*
X-238784Y290000I-48284J-48284D01*
G01*
X63500Y100000D02*
G03*
X163500Y0I100000J0D01*
G01*
X-348140Y-290000D02*
X-238775D01*
X-417491Y-220649D02*
Y-152499D01*
X-417500Y152500D02*
Y220649D01*
X-348149Y290000D02*
X-238784D01*
X550000Y0D02*
X1300000D01*
X550000Y-100000D02*
Y0D01*
X163500D02*
X350000D01*
X63500Y100000D02*
Y270000D01*
X350000Y0D02*
X450000D01*
D11*
X376573Y423716D02*
D03*
X276573D02*
D03*
X740001Y-510000D02*
D03*
X840000D02*
D03*
X740001Y-350000D02*
D03*
X840000D02*
D03*
X450000Y-100000D02*
D03*
X550000D02*
D03*
Y0D02*
D03*
X450000D02*
D03*
D12*
X835000Y172500D02*
D03*
X585000D02*
D03*
D13*
X710000Y462500D02*
D03*
D14*
X470000Y-510000D02*
D03*
X630001D02*
D03*
Y-350000D02*
D03*
X470000D02*
D03*
D15*
X-417500Y-152500D02*
D03*
Y-52500D02*
D03*
Y152500D02*
D03*
Y52500D02*
D03*
X350000Y0D02*
D03*
Y100000D02*
D03*
D16*
X36509Y530009D02*
D03*
X-63497D02*
D03*
X36509Y420009D02*
D03*
X-63497D02*
D03*
X-63510Y-530009D02*
D03*
X36497D02*
D03*
X-63510Y-420009D02*
D03*
X36497D02*
D03*
D17*
X190009Y-530010D02*
D03*
Y-430003D02*
D03*
D18*
X-190500Y-270000D02*
D03*
X-63500D02*
D03*
X63500D02*
D03*
X190500D02*
D03*
Y270000D02*
D03*
X63500D02*
D03*
X-63500D02*
D03*
X-190500D02*
D03*
D19*
X1300000Y-279500D02*
D03*
Y279500D02*
D03*
D20*
Y0D02*
D03*
D21*
X376573Y423716D02*
X493717D01*
X532500Y462500D01*
X710000D01*
X-63510Y270000D02*
Y530009D01*
X630001Y-510000D02*
X740001D01*
X630001Y-350000D02*
X740001D01*
X190009Y-270491D02*
X190500Y-270000D01*
X190009Y-430003D02*
Y-270491D01*
X-63510Y-420009D02*
Y-270000D01*
Y-530009D02*
Y-420009D01*
D22*
X223717Y423716D02*
X276573D01*
X190500Y390500D02*
X223717Y423716D01*
X190500Y270000D02*
Y390500D01*
X-48209Y-61790D02*
X359587D01*
X-120000Y10000D02*
Y120000D01*
Y10000D02*
X-48209Y-61790D01*
X359587D02*
X397797Y-100000D01*
X450000D01*
X280000Y-240000D02*
X390000D01*
X450000Y-180000D01*
Y-100000D01*
X190500Y-239500D02*
X310000Y-120000D01*
X190500Y-270000D02*
Y-239500D01*
X310000Y-350000D02*
X310000Y-350000D01*
X470000D01*
X380000Y-510000D02*
X470000D01*
X190500Y270000D02*
X280000D01*
X350000Y100000D02*
Y200000D01*
X280000Y270000D02*
X350000Y200000D01*
D23*
X1054516Y-465017D02*
Y-525957D01*
X1050707Y-537383D01*
X1046898Y-541191D01*
X1039281Y-545000D01*
X1031664D01*
X1024046Y-541191D01*
X1020237Y-537383D01*
X1016429Y-525957D01*
Y-518339D01*
X1075083Y-465017D02*
Y-545000D01*
Y-465017D02*
X1124596D01*
X1075083Y-503104D02*
X1105553D01*
X1156590Y-465017D02*
X1148972Y-468826D01*
X1141355Y-476443D01*
X1137546Y-484061D01*
X1133737Y-495487D01*
Y-514531D01*
X1137546Y-525957D01*
X1141355Y-533574D01*
X1148972Y-541191D01*
X1156590Y-545000D01*
X1171824D01*
X1179442Y-541191D01*
X1187059Y-533574D01*
X1190868Y-525957D01*
X1194677Y-514531D01*
Y-495487D01*
X1190868Y-484061D01*
X1187059Y-476443D01*
X1179442Y-468826D01*
X1171824Y-465017D01*
X1156590D01*
X1266661Y-476443D02*
X1259044Y-468826D01*
X1247618Y-465017D01*
X1232383D01*
X1220957Y-468826D01*
X1213339Y-476443D01*
Y-484061D01*
X1217148Y-491678D01*
X1220957Y-495487D01*
X1228574Y-499296D01*
X1251426Y-506913D01*
X1259044Y-510722D01*
X1262852Y-514531D01*
X1266661Y-522148D01*
Y-533574D01*
X1259044Y-541191D01*
X1247618Y-545000D01*
X1232383D01*
X1220957Y-541191D01*
X1213339Y-533574D01*
X1311223Y-465017D02*
Y-545000D01*
X1284562Y-465017D02*
X1337884D01*
X1396919D02*
X1347406D01*
Y-545000D01*
X1396919D01*
X1347406Y-503104D02*
X1377875D01*
X1410249Y-465017D02*
Y-545000D01*
Y-465017D02*
X1444528D01*
X1455954Y-468826D01*
X1459763Y-472635D01*
X1463571Y-480252D01*
Y-487869D01*
X1459763Y-495487D01*
X1455954Y-499296D01*
X1444528Y-503104D01*
X1410249D01*
X1436911D02*
X1463571Y-545000D01*
D24*
X710000Y426250D02*
D03*
D25*
X-98489Y530000D02*
D03*
X874992Y-509991D02*
D03*
Y-349991D02*
D03*
X-98501Y-530001D02*
D03*
X71501Y530000D02*
D03*
Y420000D02*
D03*
D26*
X1300000Y-232250D02*
D03*
Y232250D02*
D03*
D27*
X-640000Y-127000D02*
D03*
D28*
Y127000D02*
D03*
D29*
X-120000Y120000D02*
D03*
X710000Y340000D02*
D03*
X-133488Y530019D02*
D03*
X1200000Y-150000D02*
D03*
X1300000D02*
D03*
X1400000D02*
D03*
Y150000D02*
D03*
X1300000D02*
D03*
X1200000D02*
D03*
X709999Y-254000D02*
D03*
X710000Y-127000D02*
D03*
X710000Y254000D02*
D03*
X710000Y127000D02*
D03*
X310000Y-350000D02*
D03*
X380000Y-510000D02*
D03*
X280000Y-240000D02*
D03*
X310000Y-120000D02*
D03*
X-390009Y-379990D02*
D03*
X200000Y-120000D02*
D03*
X909991Y-349990D02*
D03*
Y-509991D02*
D03*
X106500Y530019D02*
D03*
Y420019D02*
D03*
X106488Y-420000D02*
D03*
X-133500Y-530000D02*
D03*
X-299991Y-119990D02*
D03*
X-200000Y-120000D02*
D03*
X-200019Y119988D02*
D03*
X199981D02*
D03*
X260000Y-530000D02*
D03*
X106488Y-530000D02*
D03*
%TF.MD5,ef16cb98f04ee4ed7706cc61690136d9*%
M02*
