%TF.GenerationSoftware,Altium Limited,Altium Designer,23.5.1 (21)*%
G04 Layer_Color=8421504*
%FSLAX45Y45*%
%MOMM*%
%TF.SameCoordinates,DD9E7470-14DF-4C20-BCD2-90D554482088*%
%TF.FilePolarity,Positive*%
%TF.FileFunction,Paste,Top*%
%TF.Part,Single*%
G01*
G75*
%TA.AperFunction,SMDPad,CuDef*%
%ADD11R,0.60000X0.55000*%
%ADD12R,1.30000X1.60000*%
%ADD13R,2.00000X1.60000*%
%ADD14R,0.80000X0.80000*%
%ADD15R,0.55000X0.60000*%
%ADD16R,0.60000X0.60000*%
%ADD17R,0.60000X0.60000*%
G04:AMPARAMS|DCode=18|XSize=1.55mm|YSize=0.6mm|CornerRadius=0.03mm|HoleSize=0mm|Usage=FLASHONLY|Rotation=90.000|XOffset=0mm|YOffset=0mm|HoleType=Round|Shape=RoundedRectangle|*
%AMROUNDEDRECTD18*
21,1,1.55000,0.54000,0,0,90.0*
21,1,1.49000,0.60000,0,0,90.0*
1,1,0.06000,0.27000,0.74500*
1,1,0.06000,0.27000,-0.74500*
1,1,0.06000,-0.27000,-0.74500*
1,1,0.06000,-0.27000,0.74500*
%
%ADD18ROUNDEDRECTD18*%
%TA.AperFunction,ConnectorPad*%
%ADD19R,4.00000X1.50000*%
%ADD20R,4.00000X1.00000*%
D11*
X376573Y423716D02*
D03*
X276573D02*
D03*
X740001Y-510000D02*
D03*
X840000D02*
D03*
X740001Y-350000D02*
D03*
X840000D02*
D03*
X450000Y-100000D02*
D03*
X550000D02*
D03*
Y0D02*
D03*
X450000D02*
D03*
D12*
X835000Y172500D02*
D03*
X585000D02*
D03*
D13*
X710000Y462500D02*
D03*
D14*
X470000Y-510000D02*
D03*
X630001D02*
D03*
Y-350000D02*
D03*
X470000D02*
D03*
D15*
X-417500Y-152500D02*
D03*
Y-52500D02*
D03*
Y152500D02*
D03*
Y52500D02*
D03*
X350000Y0D02*
D03*
Y100000D02*
D03*
D16*
X36509Y530009D02*
D03*
X-63497D02*
D03*
X36509Y420009D02*
D03*
X-63497D02*
D03*
X-63510Y-530009D02*
D03*
X36497D02*
D03*
X-63510Y-420009D02*
D03*
X36497D02*
D03*
D17*
X190009Y-530010D02*
D03*
Y-430003D02*
D03*
D18*
X-190500Y-270000D02*
D03*
X-63500D02*
D03*
X63500D02*
D03*
X190500D02*
D03*
Y270000D02*
D03*
X63500D02*
D03*
X-63500D02*
D03*
X-190500D02*
D03*
D19*
X1300000Y-279500D02*
D03*
Y279500D02*
D03*
D20*
Y0D02*
D03*
%TF.MD5,7b06ef86085d46c6e3a8f1b50ee5214a*%
M02*
