%TF.GenerationSoftware,Altium Limited,Altium Designer,21.0.9 (235)*%
G04 Layer_Color=0*
%FSLAX44Y44*%
%MOMM*%
%TF.SameCoordinates,5481C346-4989-4D35-A572-F3394CBA5BAB*%
%TF.FilePolarity,Positive*%
%TF.FileFunction,Plated,1,2,PTH,Drill*%
%TF.Part,Single*%
G01*
G75*
%TA.AperFunction,ComponentDrill*%
%ADD100O,0.5000X1.2000*%
%ADD101C,1.1000*%
%ADD102C,3.0000*%
%ADD103C,1.1000*%
%ADD104C,3.5000*%
%ADD105C,3.5000*%
%ADD106C,3.5000*%
%TA.AperFunction,ViaDrill,NotFilled*%
%ADD107C,0.4000*%
D100*
X33000Y-390000D02*
D03*
X-33000D02*
D03*
D101*
X177038Y-141478D02*
D03*
X151638Y-141478D02*
D03*
X126238Y-141478D02*
D03*
D102*
X0Y0D02*
D03*
D103*
X-158750Y179324D02*
D03*
X-158750Y103124D02*
D03*
X-158750Y128524D02*
D03*
Y153924D02*
D03*
D104*
X324759Y-187500D02*
D03*
D105*
X0Y375000D02*
D03*
D106*
X-324759Y-187500D02*
D03*
D107*
X13000Y-350000D02*
D03*
X112679Y235166D02*
D03*
X135000Y233827D02*
D03*
X157320Y232487D02*
D03*
X256317Y-47974D02*
D03*
X260800Y-69881D02*
D03*
X265283Y-91788D02*
D03*
X197990Y-169705D02*
D03*
X190919Y-190919D02*
D03*
X183848Y-212132D02*
D03*
X147320Y-215166D02*
D03*
X135000Y-233827D02*
D03*
X122679Y-252487D02*
D03*
X20000Y-260000D02*
D03*
X0Y-270000D02*
D03*
X-20000Y-280000D02*
D03*
X-47974Y-256317D02*
D03*
X-69881Y-260800D02*
D03*
X-91788Y-265283D02*
D03*
X-112679Y-235166D02*
D03*
X-260000Y-20000D02*
D03*
X-270000Y0D02*
D03*
X-280000Y20000D02*
D03*
X-147320Y215166D02*
D03*
X-135000Y233827D02*
D03*
X-122679Y252487D02*
D03*
X-256317Y47974D02*
D03*
X-260800Y69881D02*
D03*
X-265283Y91788D02*
D03*
X-232487Y157320D02*
D03*
X-233827Y135000D02*
D03*
X-235166Y112679D02*
D03*
X-53151Y275635D02*
D03*
X-69881Y260800D02*
D03*
X-183848Y212132D02*
D03*
X-190919Y190919D02*
D03*
X-197990Y169705D02*
D03*
X-86611Y245964D02*
D03*
X91788Y265283D02*
D03*
X69881Y260800D02*
D03*
X47974Y256317D02*
D03*
X212132Y183848D02*
D03*
X190919Y190919D02*
D03*
X169705Y197990D02*
D03*
X252487Y122679D02*
D03*
X233827Y135000D02*
D03*
X215166Y147320D02*
D03*
X275635Y53151D02*
D03*
X260800Y69881D02*
D03*
X245964Y86611D02*
D03*
X280000Y-20000D02*
D03*
X270000Y0D02*
D03*
X260000Y20000D02*
D03*
X53151Y-275635D02*
D03*
X69881Y-260800D02*
D03*
X86611Y-245964D02*
D03*
X-157320Y-232487D02*
D03*
X-135000Y-233827D02*
D03*
X-212132Y-183848D02*
D03*
X-190919Y-190919D02*
D03*
X-169705Y-197990D02*
D03*
X-275635Y-53151D02*
D03*
X-260800Y-69881D02*
D03*
X-245964Y-86611D02*
D03*
%TF.MD5,e41acc5a56a50ac176c1767f975f3c67*%
M02*
