%TF.GenerationSoftware,Altium Limited,Altium Designer,21.0.9 (235)*%
G04 Layer_Physical_Order=1*
G04 Layer_Color=255*
%FSLAX44Y44*%
%MOMM*%
%TF.SameCoordinates,5481C346-4989-4D35-A572-F3394CBA5BAB*%
%TF.FilePolarity,Positive*%
%TF.FileFunction,Copper,L1,Top,Signal*%
%TF.Part,Single*%
G01*
G75*
%TA.AperFunction,Conductor*%
%ADD10C,1.0000*%
%TA.AperFunction,SMDPad,CuDef*%
G04:AMPARAMS|DCode=11|XSize=1.6mm|YSize=1mm|CornerRadius=0mm|HoleSize=0mm|Usage=FLASHONLY|Rotation=315.000|XOffset=0mm|YOffset=0mm|HoleType=Round|Shape=Rectangle|*
%AMROTATEDRECTD11*
4,1,4,-0.9192,0.2121,-0.2121,0.9192,0.9192,-0.2121,0.2121,-0.9192,-0.9192,0.2121,0.0*
%
%ADD11ROTATEDRECTD11*%

G04:AMPARAMS|DCode=12|XSize=0.7mm|YSize=1mm|CornerRadius=0mm|HoleSize=0mm|Usage=FLASHONLY|Rotation=75.000|XOffset=0mm|YOffset=0mm|HoleType=Round|Shape=Rectangle|*
%AMROTATEDRECTD12*
4,1,4,0.3924,-0.4675,-0.5736,-0.2087,-0.3924,0.4675,0.5736,0.2087,0.3924,-0.4675,0.0*
%
%ADD12ROTATEDRECTD12*%

G04:AMPARAMS|DCode=13|XSize=0.7mm|YSize=1mm|CornerRadius=0mm|HoleSize=0mm|Usage=FLASHONLY|Rotation=60.000|XOffset=0mm|YOffset=0mm|HoleType=Round|Shape=Rectangle|*
%AMROTATEDRECTD13*
4,1,4,0.2580,-0.5531,-0.6080,-0.0531,-0.2580,0.5531,0.6080,0.0531,0.2580,-0.5531,0.0*
%
%ADD13ROTATEDRECTD13*%

G04:AMPARAMS|DCode=14|XSize=0.7mm|YSize=1mm|CornerRadius=0mm|HoleSize=0mm|Usage=FLASHONLY|Rotation=345.000|XOffset=0mm|YOffset=0mm|HoleType=Round|Shape=Rectangle|*
%AMROTATEDRECTD14*
4,1,4,-0.4675,-0.3924,-0.2087,0.5736,0.4675,0.3924,0.2087,-0.5736,-0.4675,-0.3924,0.0*
%
%ADD14ROTATEDRECTD14*%

G04:AMPARAMS|DCode=15|XSize=0.7mm|YSize=1mm|CornerRadius=0mm|HoleSize=0mm|Usage=FLASHONLY|Rotation=315.000|XOffset=0mm|YOffset=0mm|HoleType=Round|Shape=Rectangle|*
%AMROTATEDRECTD15*
4,1,4,-0.6010,-0.1061,0.1061,0.6010,0.6010,0.1061,-0.1061,-0.6010,-0.6010,-0.1061,0.0*
%
%ADD15ROTATEDRECTD15*%

G04:AMPARAMS|DCode=16|XSize=0.7mm|YSize=1mm|CornerRadius=0mm|HoleSize=0mm|Usage=FLASHONLY|Rotation=285.000|XOffset=0mm|YOffset=0mm|HoleType=Round|Shape=Rectangle|*
%AMROTATEDRECTD16*
4,1,4,-0.5736,0.2087,0.3924,0.4675,0.5736,-0.2087,-0.3924,-0.4675,-0.5736,0.2087,0.0*
%
%ADD16ROTATEDRECTD16*%

G04:AMPARAMS|DCode=17|XSize=0.7mm|YSize=1mm|CornerRadius=0mm|HoleSize=0mm|Usage=FLASHONLY|Rotation=120.000|XOffset=0mm|YOffset=0mm|HoleType=Round|Shape=Rectangle|*
%AMROTATEDRECTD17*
4,1,4,0.6080,-0.0531,-0.2580,-0.5531,-0.6080,0.0531,0.2580,0.5531,0.6080,-0.0531,0.0*
%
%ADD17ROTATEDRECTD17*%

G04:AMPARAMS|DCode=18|XSize=1.6mm|YSize=1mm|CornerRadius=0mm|HoleSize=0mm|Usage=FLASHONLY|Rotation=45.000|XOffset=0mm|YOffset=0mm|HoleType=Round|Shape=Rectangle|*
%AMROTATEDRECTD18*
4,1,4,-0.2121,-0.9192,-0.9192,-0.2121,0.2121,0.9192,0.9192,0.2121,-0.2121,-0.9192,0.0*
%
%ADD18ROTATEDRECTD18*%

G04:AMPARAMS|DCode=19|XSize=0.7mm|YSize=1mm|CornerRadius=0mm|HoleSize=0mm|Usage=FLASHONLY|Rotation=15.000|XOffset=0mm|YOffset=0mm|HoleType=Round|Shape=Rectangle|*
%AMROTATEDRECTD19*
4,1,4,-0.2087,-0.5736,-0.4675,0.3924,0.2087,0.5736,0.4675,-0.3924,-0.2087,-0.5736,0.0*
%
%ADD19ROTATEDRECTD19*%

%ADD20R,0.7000X1.0000*%
%ADD21R,5.5500X6.5000*%
%ADD22R,1.2500X2.8500*%
%ADD23R,1.0000X0.7000*%
G04:AMPARAMS|DCode=24|XSize=0.7mm|YSize=1mm|CornerRadius=0mm|HoleSize=0mm|Usage=FLASHONLY|Rotation=45.000|XOffset=0mm|YOffset=0mm|HoleType=Round|Shape=Rectangle|*
%AMROTATEDRECTD24*
4,1,4,0.1061,-0.6010,-0.6010,0.1061,-0.1061,0.6010,0.6010,-0.1061,0.1061,-0.6010,0.0*
%
%ADD24ROTATEDRECTD24*%

%ADD25R,0.6000X1.0000*%
%ADD26R,1.5500X3.0000*%
%ADD27R,1.1500X1.4500*%
G04:AMPARAMS|DCode=28|XSize=0.7mm|YSize=1mm|CornerRadius=0mm|HoleSize=0mm|Usage=FLASHONLY|Rotation=210.000|XOffset=0mm|YOffset=0mm|HoleType=Round|Shape=Rectangle|*
%AMROTATEDRECTD28*
4,1,4,0.0531,0.6080,0.5531,-0.2580,-0.0531,-0.6080,-0.5531,0.2580,0.0531,0.6080,0.0*
%
%ADD28ROTATEDRECTD28*%

%ADD29R,1.3000X1.5500*%
%ADD30R,1.5000X0.9000*%
G04:AMPARAMS|DCode=31|XSize=0.7mm|YSize=1mm|CornerRadius=0mm|HoleSize=0mm|Usage=FLASHONLY|Rotation=330.000|XOffset=0mm|YOffset=0mm|HoleType=Round|Shape=Rectangle|*
%AMROTATEDRECTD31*
4,1,4,-0.5531,-0.2580,-0.0531,0.6080,0.5531,0.2580,0.0531,-0.6080,-0.5531,-0.2580,0.0*
%
%ADD31ROTATEDRECTD31*%

G04:AMPARAMS|DCode=32|XSize=1.6mm|YSize=1mm|CornerRadius=0mm|HoleSize=0mm|Usage=FLASHONLY|Rotation=105.000|XOffset=0mm|YOffset=0mm|HoleType=Round|Shape=Rectangle|*
%AMROTATEDRECTD32*
4,1,4,0.6900,-0.6433,-0.2759,-0.9022,-0.6900,0.6433,0.2759,0.9022,0.6900,-0.6433,0.0*
%
%ADD32ROTATEDRECTD32*%

G04:AMPARAMS|DCode=33|XSize=1.6mm|YSize=1mm|CornerRadius=0mm|HoleSize=0mm|Usage=FLASHONLY|Rotation=120.000|XOffset=0mm|YOffset=0mm|HoleType=Round|Shape=Rectangle|*
%AMROTATEDRECTD33*
4,1,4,0.8330,-0.4428,-0.0330,-0.9428,-0.8330,0.4428,0.0330,0.9428,0.8330,-0.4428,0.0*
%
%ADD33ROTATEDRECTD33*%

G04:AMPARAMS|DCode=34|XSize=1.6mm|YSize=1mm|CornerRadius=0mm|HoleSize=0mm|Usage=FLASHONLY|Rotation=150.000|XOffset=0mm|YOffset=0mm|HoleType=Round|Shape=Rectangle|*
%AMROTATEDRECTD34*
4,1,4,0.9428,0.0330,0.4428,-0.8330,-0.9428,-0.0330,-0.4428,0.8330,0.9428,0.0330,0.0*
%
%ADD34ROTATEDRECTD34*%

G04:AMPARAMS|DCode=35|XSize=1.6mm|YSize=1mm|CornerRadius=0mm|HoleSize=0mm|Usage=FLASHONLY|Rotation=165.000|XOffset=0mm|YOffset=0mm|HoleType=Round|Shape=Rectangle|*
%AMROTATEDRECTD35*
4,1,4,0.9022,0.2759,0.6433,-0.6900,-0.9022,-0.2759,-0.6433,0.6900,0.9022,0.2759,0.0*
%
%ADD35ROTATEDRECTD35*%

%ADD36R,1.6000X1.0000*%
G04:AMPARAMS|DCode=37|XSize=1.6mm|YSize=1mm|CornerRadius=0mm|HoleSize=0mm|Usage=FLASHONLY|Rotation=195.000|XOffset=0mm|YOffset=0mm|HoleType=Round|Shape=Rectangle|*
%AMROTATEDRECTD37*
4,1,4,0.6433,0.6900,0.9022,-0.2759,-0.6433,-0.6900,-0.9022,0.2759,0.6433,0.6900,0.0*
%
%ADD37ROTATEDRECTD37*%

G04:AMPARAMS|DCode=38|XSize=1.6mm|YSize=1mm|CornerRadius=0mm|HoleSize=0mm|Usage=FLASHONLY|Rotation=240.000|XOffset=0mm|YOffset=0mm|HoleType=Round|Shape=Rectangle|*
%AMROTATEDRECTD38*
4,1,4,-0.0330,0.9428,0.8330,0.4428,0.0330,-0.9428,-0.8330,-0.4428,-0.0330,0.9428,0.0*
%
%ADD38ROTATEDRECTD38*%

G04:AMPARAMS|DCode=39|XSize=1.6mm|YSize=1mm|CornerRadius=0mm|HoleSize=0mm|Usage=FLASHONLY|Rotation=255.000|XOffset=0mm|YOffset=0mm|HoleType=Round|Shape=Rectangle|*
%AMROTATEDRECTD39*
4,1,4,-0.2759,0.9022,0.6900,0.6433,0.2759,-0.9022,-0.6900,-0.6433,-0.2759,0.9022,0.0*
%
%ADD39ROTATEDRECTD39*%

%ADD40R,1.0000X1.6000*%
G04:AMPARAMS|DCode=41|XSize=1.6mm|YSize=1mm|CornerRadius=0mm|HoleSize=0mm|Usage=FLASHONLY|Rotation=30.000|XOffset=0mm|YOffset=0mm|HoleType=Round|Shape=Rectangle|*
%AMROTATEDRECTD41*
4,1,4,-0.4428,-0.8330,-0.9428,0.0330,0.4428,0.8330,0.9428,-0.0330,-0.4428,-0.8330,0.0*
%
%ADD41ROTATEDRECTD41*%

%TA.AperFunction,Conductor*%
%ADD42C,0.3000*%
%ADD43C,0.8000*%
%ADD44C,0.1500*%
%ADD45C,0.5000*%
%TA.AperFunction,ComponentPad*%
G04:AMPARAMS|DCode=46|XSize=0.9mm|YSize=1.6mm|CornerRadius=0.45mm|HoleSize=0mm|Usage=FLASHONLY|Rotation=180.000|XOffset=0mm|YOffset=0mm|HoleType=Round|Shape=RoundedRectangle|*
%AMROUNDEDRECTD46*
21,1,0.9000,0.7000,0,0,180.0*
21,1,0.0000,1.6000,0,0,180.0*
1,1,0.9000,0.0000,0.3500*
1,1,0.9000,0.0000,0.3500*
1,1,0.9000,0.0000,-0.3500*
1,1,0.9000,0.0000,-0.3500*
%
%ADD46ROUNDEDRECTD46*%
%ADD47R,1.5000X2.2000*%
%ADD48O,1.5000X2.2000*%
%ADD49R,4.0000X4.0000*%
%ADD50O,2.2000X1.5000*%
%ADD51R,2.2000X1.5000*%
%ADD52C,5.0000*%
%TA.AperFunction,ViaPad*%
%ADD53C,0.7200*%
G36*
X20540Y418098D02*
X41030Y416586D01*
X61422Y414071D01*
X81665Y410559D01*
X101712Y406057D01*
X121514Y400577D01*
X141023Y394132D01*
X160192Y386738D01*
X178976Y378412D01*
X197328Y369174D01*
X215205Y359047D01*
X232563Y348055D01*
X249361Y336224D01*
X265558Y323584D01*
X281116Y310164D01*
X295996Y295996D01*
X310164Y281116D01*
X323584Y265558D01*
X336224Y249361D01*
X348055Y232563D01*
X359047Y215205D01*
X369174Y197328D01*
X378412Y178976D01*
X386738Y160192D01*
X394132Y141023D01*
X400577Y121514D01*
X406057Y101712D01*
X410559Y81665D01*
X414071Y61422D01*
X416586Y41030D01*
X418098Y20540D01*
X418602Y0D01*
X418098Y-20540D01*
X416586Y-41030D01*
X414071Y-61422D01*
X410559Y-81665D01*
X406057Y-101712D01*
X400577Y-121514D01*
X394132Y-141023D01*
X386738Y-160192D01*
X378412Y-178976D01*
X369174Y-197328D01*
X359047Y-215205D01*
X348055Y-232563D01*
X336224Y-249361D01*
X323584Y-265558D01*
X310164Y-281116D01*
X295996Y-295996D01*
X281116Y-310164D01*
X265558Y-323584D01*
X249361Y-336224D01*
X232563Y-348055D01*
X215205Y-359047D01*
X197328Y-369174D01*
X178976Y-378412D01*
X160192Y-386738D01*
X141023Y-394132D01*
X121514Y-400577D01*
X101712Y-406057D01*
X81665Y-410559D01*
X61422Y-414071D01*
X41030Y-416586D01*
X20540Y-418098D01*
X0Y-418602D01*
X-20540Y-418098D01*
X-41030Y-416586D01*
X-61422Y-414071D01*
X-81665Y-410559D01*
X-101712Y-406057D01*
X-121514Y-400577D01*
X-141023Y-394132D01*
X-160192Y-386738D01*
X-178976Y-378412D01*
X-197328Y-369174D01*
X-215205Y-359047D01*
X-232563Y-348055D01*
X-249361Y-336224D01*
X-265558Y-323584D01*
X-281116Y-310164D01*
X-295996Y-295996D01*
X-310164Y-281116D01*
X-323584Y-265558D01*
X-336224Y-249361D01*
X-348055Y-232563D01*
X-359047Y-215205D01*
X-369174Y-197328D01*
X-378412Y-178976D01*
X-386738Y-160192D01*
X-394132Y-141023D01*
X-400577Y-121514D01*
X-406057Y-101712D01*
X-410559Y-81665D01*
X-414071Y-61422D01*
X-416586Y-41030D01*
X-418098Y-20540D01*
X-418602Y0D01*
X-418098Y20540D01*
X-416586Y41030D01*
X-414071Y61422D01*
X-410559Y81665D01*
X-406057Y101712D01*
X-400577Y121514D01*
X-394132Y141023D01*
X-386738Y160192D01*
X-378412Y178976D01*
X-369174Y197328D01*
X-359047Y215205D01*
X-348055Y232563D01*
X-336224Y249361D01*
X-323584Y265558D01*
X-310164Y281116D01*
X-295996Y295996D01*
X-281116Y310164D01*
X-265558Y323584D01*
X-249361Y336224D01*
X-232563Y348055D01*
X-215205Y359047D01*
X-197328Y369174D01*
X-178976Y378412D01*
X-160192Y386738D01*
X-141023Y394132D01*
X-121514Y400577D01*
X-101712Y406057D01*
X-81665Y410559D01*
X-61422Y414071D01*
X-41030Y416586D01*
X-20540Y418098D01*
X0Y418602D01*
X20540Y418098D01*
D02*
G37*
%LPC*%
G36*
X103527Y392763D02*
X101081Y392276D01*
X99007Y390890D01*
X98454Y390062D01*
X97093Y390475D01*
X97089Y390475D01*
X97086Y390477D01*
X96687Y390514D01*
X96294Y390553D01*
X96290Y390552D01*
X96286Y390553D01*
X95905Y390435D01*
X95525Y390320D01*
X95521Y390318D01*
X95518Y390316D01*
X89022Y386813D01*
X88810Y386637D01*
X88578Y386490D01*
X88503Y386383D01*
X88403Y386301D01*
X88274Y386057D01*
X88116Y385832D01*
X83120Y374518D01*
X77686Y375974D01*
X72888Y358066D01*
X84913Y354843D01*
X85000Y354820D01*
Y354820D01*
X88343Y353924D01*
X88343Y353925D01*
X100368Y350702D01*
X100455Y350679D01*
Y350679D01*
X103798Y349783D01*
X103798Y349783D01*
X115910Y346538D01*
X120709Y364446D01*
X116299Y365628D01*
X117885Y372611D01*
X121202Y374485D01*
X132641Y370706D01*
X150671Y363751D01*
X168337Y355920D01*
X179098Y350504D01*
X180118Y346833D01*
X176302Y340774D01*
X172349Y343056D01*
X163079Y327000D01*
X173860Y320775D01*
X173938Y320730D01*
X173938Y320730D01*
X176935Y319000D01*
X176935Y319000D01*
X187717Y312775D01*
X187795Y312730D01*
X187795Y312730D01*
X190791Y311000D01*
X190791Y311000D01*
X201651Y304730D01*
X210921Y320786D01*
X206968Y323069D01*
X210303Y329397D01*
X213985Y330378D01*
X218740Y327367D01*
X234540Y316240D01*
X249774Y304351D01*
X263025Y292920D01*
X263622Y288280D01*
X258493Y283532D01*
X255265Y286760D01*
X242156Y273650D01*
X251023Y264783D01*
X251023D01*
X253469Y262336D01*
X262089Y253717D01*
X262336Y253469D01*
X264783Y251023D01*
X264783Y251023D01*
X273650Y242156D01*
X286760Y255265D01*
X283532Y258494D01*
X288280Y263622D01*
X292920Y263025D01*
X304351Y249774D01*
X316240Y234540D01*
X327367Y218740D01*
X330378Y213985D01*
X329397Y210303D01*
X323069Y206968D01*
X320786Y210921D01*
X304730Y201651D01*
X311000Y190791D01*
X311000Y190791D01*
X312730Y187795D01*
X312730Y187795D01*
X312775Y187717D01*
X319000Y176935D01*
X319000Y176935D01*
X320730Y173938D01*
X320730Y173938D01*
X320775Y173860D01*
X327000Y163078D01*
X343056Y172348D01*
X340774Y176302D01*
X346833Y180118D01*
X350504Y179098D01*
X355920Y168337D01*
X363751Y150671D01*
X370706Y132641D01*
X374485Y121202D01*
X372611Y117885D01*
X365628Y116299D01*
X364446Y120709D01*
X346538Y115910D01*
X349784Y103798D01*
X349783Y103798D01*
X350679Y100455D01*
X350679D01*
X350702Y100368D01*
X353925Y88343D01*
X353925Y88343D01*
X354820Y85000D01*
X354820D01*
X354843Y84913D01*
X358066Y72888D01*
X375974Y77686D01*
X374792Y82096D01*
X381626Y84212D01*
X384923Y82303D01*
X386156Y76811D01*
X389460Y57771D01*
X391825Y38591D01*
X393113Y21139D01*
X390254Y17436D01*
X383270Y17705D01*
Y22270D01*
X364730D01*
Y9730D01*
X364730D01*
X364730Y6270D01*
X364730D01*
Y-6270D01*
X364730D01*
X364730Y-9730D01*
X364730D01*
Y-22270D01*
X383270D01*
Y-17704D01*
X390254Y-17436D01*
X393113Y-21139D01*
X391825Y-38591D01*
X389460Y-57771D01*
X386156Y-76811D01*
X384923Y-82303D01*
X381626Y-84212D01*
X374792Y-82096D01*
X375974Y-77686D01*
X358066Y-72888D01*
X354843Y-84916D01*
X354820Y-85000D01*
X354820D01*
X353925Y-88343D01*
X353925Y-88343D01*
X350702Y-100368D01*
X350679Y-100455D01*
X350679D01*
X349784Y-103798D01*
X349784Y-103798D01*
X346538Y-115910D01*
X359272Y-119322D01*
X359536Y-123337D01*
X357410Y-124218D01*
X351907Y-125539D01*
X346265Y-125983D01*
X340623Y-125539D01*
X338123Y-124939D01*
X335168Y-124160D01*
X335102Y-124116D01*
X334688Y-124034D01*
X334688Y-124034D01*
X333513Y-123779D01*
X332655Y-123630D01*
X332647Y-123631D01*
X331968Y-123516D01*
X329765Y-123393D01*
X324759Y-123111D01*
X317550Y-123516D01*
X310431Y-124726D01*
X303493Y-126725D01*
X296822Y-129488D01*
X290502Y-132981D01*
X284613Y-137159D01*
X279230Y-141970D01*
X274418Y-147354D01*
X270240Y-153243D01*
X266747Y-159563D01*
X263984Y-166234D01*
X261985Y-173172D01*
X260776Y-180290D01*
X260371Y-187500D01*
X260776Y-194709D01*
X261985Y-201827D01*
X263984Y-208766D01*
X266747Y-215437D01*
X270240Y-221756D01*
X272527Y-224980D01*
X273931Y-226958D01*
X273931Y-226958D01*
X273931Y-226959D01*
X274410Y-227597D01*
X274715Y-227884D01*
X277438Y-230506D01*
X280181Y-233717D01*
X283138Y-238542D01*
X285304Y-243771D01*
X286625Y-249273D01*
X286665Y-249782D01*
X282977Y-251482D01*
X273650Y-242156D01*
X264783Y-251023D01*
X262336Y-253469D01*
X253469Y-262336D01*
Y-262336D01*
X251023Y-264783D01*
X242156Y-273650D01*
X255265Y-286760D01*
X258494Y-283532D01*
X263622Y-288280D01*
X263025Y-292920D01*
X249774Y-304351D01*
X234540Y-316240D01*
X218740Y-327367D01*
X213985Y-330378D01*
X210303Y-329397D01*
X206967Y-323069D01*
X210921Y-320786D01*
X201651Y-304730D01*
X191094Y-310825D01*
X190870Y-310955D01*
X190791Y-311000D01*
X187795Y-312730D01*
X187795Y-312730D01*
X176935Y-319000D01*
X176935Y-319000D01*
X173938Y-320730D01*
X173938Y-320730D01*
X173860Y-320775D01*
X163078Y-327000D01*
X172348Y-343056D01*
X176302Y-340774D01*
X180118Y-346833D01*
X179098Y-350504D01*
X168337Y-355920D01*
X150671Y-363751D01*
X132641Y-370706D01*
X121202Y-374485D01*
X117885Y-372611D01*
X116299Y-365628D01*
X120709Y-364446D01*
X115910Y-346538D01*
X103798Y-349784D01*
X103798Y-349783D01*
X100455Y-350679D01*
Y-350679D01*
X100368Y-350702D01*
X88343Y-353925D01*
X88343Y-353924D01*
X85000Y-354820D01*
Y-354820D01*
X84913Y-354843D01*
X72888Y-358066D01*
X77686Y-375974D01*
X82096Y-374792D01*
X84005Y-380957D01*
X81273Y-385016D01*
X79469Y-385194D01*
X74654Y-384720D01*
X70024Y-383315D01*
X65757Y-381035D01*
X62018Y-377965D01*
X58948Y-374225D01*
X56668Y-369958D01*
X56393Y-369053D01*
Y-350000D01*
Y-325000D01*
X55906Y-322553D01*
X54520Y-320480D01*
X44044Y-310003D01*
Y-240176D01*
X59520Y-224699D01*
X60906Y-222626D01*
X61393Y-220179D01*
X61393Y-220179D01*
Y-206375D01*
X90000D01*
X90972Y-205972D01*
X98472Y-198472D01*
X98875Y-197500D01*
X98875Y-197500D01*
Y-183000D01*
X98770Y-182747D01*
Y-181730D01*
X97753D01*
X97500Y-181625D01*
X91500D01*
X90540Y-180460D01*
Y-180460D01*
X86270D01*
Y-188000D01*
X83730D01*
Y-180460D01*
X79460D01*
X79460Y-180460D01*
X75650Y-181625D01*
X66569Y-181625D01*
X63470Y-178526D01*
X63290Y-174790D01*
X63290Y-173196D01*
Y-166270D01*
X55000D01*
X46710D01*
Y-173196D01*
X46710Y-174790D01*
X47875Y-178117D01*
X47875Y-178600D01*
Y-199250D01*
X48278Y-200222D01*
X48278Y-200222D01*
X48607Y-200551D01*
Y-217531D01*
X33131Y-233008D01*
X31745Y-235082D01*
X31258Y-237528D01*
Y-312651D01*
X31745Y-315097D01*
X33131Y-317171D01*
X43607Y-327648D01*
Y-343607D01*
X-30000D01*
X-30346Y-343676D01*
X-34122Y-343973D01*
X-38143Y-344939D01*
X-41963Y-346521D01*
X-45489Y-348681D01*
X-48633Y-351367D01*
X-51319Y-354511D01*
X-53479Y-358037D01*
X-54783Y-361183D01*
X-54944Y-361425D01*
X-55056Y-361844D01*
X-55062Y-361857D01*
X-55078Y-361927D01*
X-55078Y-361927D01*
X-56027Y-365878D01*
X-56236Y-368536D01*
X-56668Y-369958D01*
X-58948Y-374225D01*
X-62018Y-377965D01*
X-65757Y-381035D01*
X-70024Y-383315D01*
X-74654Y-384720D01*
X-79469Y-385194D01*
X-81273Y-385016D01*
X-84005Y-380957D01*
X-82096Y-374792D01*
X-77686Y-375974D01*
X-72888Y-358066D01*
X-84913Y-354843D01*
X-85000Y-354820D01*
Y-354820D01*
X-88343Y-353925D01*
X-88343Y-353925D01*
X-100368Y-350702D01*
X-100455Y-350679D01*
Y-350679D01*
X-103798Y-349783D01*
X-103798Y-349784D01*
X-115910Y-346538D01*
X-120709Y-364446D01*
X-116299Y-365628D01*
X-117885Y-372611D01*
X-121202Y-374485D01*
X-132641Y-370706D01*
X-150671Y-363751D01*
X-168337Y-355920D01*
X-179098Y-350504D01*
X-180118Y-346833D01*
X-176302Y-340774D01*
X-172348Y-343056D01*
X-163078Y-327000D01*
X-173860Y-320775D01*
X-173938Y-320730D01*
X-173938Y-320730D01*
X-176935Y-319000D01*
X-176935Y-319000D01*
X-187717Y-312775D01*
X-187795Y-312730D01*
X-187795Y-312730D01*
X-190791Y-311000D01*
X-190791Y-311000D01*
X-201651Y-304730D01*
X-210921Y-320786D01*
X-206968Y-323069D01*
X-210303Y-329397D01*
X-213985Y-330378D01*
X-218740Y-327367D01*
X-234540Y-316240D01*
X-249774Y-304351D01*
X-263025Y-292920D01*
X-263622Y-288280D01*
X-258494Y-283532D01*
X-255265Y-286760D01*
X-242156Y-273650D01*
X-251023Y-264783D01*
X-253469Y-262336D01*
X-262336Y-253469D01*
X-264783Y-251023D01*
X-273650Y-242156D01*
X-282977Y-251483D01*
X-286665Y-249782D01*
X-286625Y-249274D01*
X-285304Y-243771D01*
X-283138Y-238542D01*
X-280181Y-233717D01*
X-276653Y-229586D01*
X-276234Y-229181D01*
X-274715Y-227884D01*
D01*
X-274552Y-227692D01*
X-274410Y-227597D01*
X-273931Y-226958D01*
X-273931Y-226958D01*
X-270240Y-221756D01*
X-266747Y-215437D01*
X-263984Y-208766D01*
X-261985Y-201828D01*
X-260776Y-194709D01*
X-260371Y-187500D01*
X-260776Y-180291D01*
X-261985Y-173172D01*
X-263984Y-166234D01*
X-266747Y-159563D01*
X-270240Y-153243D01*
X-274419Y-147354D01*
X-279230Y-141971D01*
X-284614Y-137159D01*
X-290503Y-132981D01*
X-296822Y-129488D01*
X-303493Y-126725D01*
X-310431Y-124726D01*
X-317550Y-123516D01*
X-324759Y-123112D01*
X-329766Y-123393D01*
X-331968Y-123516D01*
X-332647Y-123632D01*
X-332656Y-123630D01*
X-333514Y-123779D01*
X-333511Y-123800D01*
X-335102Y-124117D01*
X-335329Y-124268D01*
X-340623Y-125539D01*
X-346265Y-125983D01*
X-351907Y-125539D01*
X-357410Y-124218D01*
X-359536Y-123337D01*
X-359273Y-119322D01*
X-346538Y-115910D01*
X-349784Y-103798D01*
X-349783Y-103798D01*
X-350679Y-100455D01*
X-350679D01*
X-350702Y-100368D01*
X-353834Y-88681D01*
X-354820Y-85000D01*
X-354820D01*
X-358066Y-72888D01*
X-375974Y-77686D01*
X-374792Y-82096D01*
X-381626Y-84212D01*
X-384923Y-82303D01*
X-386156Y-76811D01*
X-389460Y-57771D01*
X-391825Y-38591D01*
X-393113Y-21139D01*
X-390254Y-17436D01*
X-383270Y-17705D01*
Y-22270D01*
X-364730D01*
Y-9730D01*
X-364730D01*
Y-6270D01*
X-364730D01*
Y6270D01*
X-364730D01*
Y9730D01*
X-364730D01*
Y22270D01*
X-383270D01*
Y17704D01*
X-390254Y17436D01*
X-393113Y21139D01*
X-391825Y38591D01*
X-389460Y57771D01*
X-386156Y76811D01*
X-384923Y82303D01*
X-381626Y84212D01*
X-374792Y82096D01*
X-375974Y77686D01*
X-358066Y72888D01*
X-354820Y85000D01*
X-354820D01*
X-353925Y88343D01*
X-350702Y100368D01*
X-350679Y100455D01*
X-350679D01*
X-349784Y103797D01*
X-349784Y103798D01*
X-346538Y115910D01*
X-364446Y120709D01*
X-365628Y116299D01*
X-372611Y117885D01*
X-374485Y121202D01*
X-370706Y132641D01*
X-363751Y150671D01*
X-355920Y168337D01*
X-350504Y179098D01*
X-346833Y180118D01*
X-340774Y176302D01*
X-343056Y172348D01*
X-327000Y163078D01*
X-320775Y173860D01*
X-320730Y173938D01*
X-320730Y173938D01*
X-319000Y176935D01*
X-319000Y176935D01*
X-312775Y187717D01*
X-312730Y187795D01*
X-312730Y187795D01*
X-311000Y190791D01*
X-311000Y190791D01*
X-304730Y201651D01*
X-320786Y210921D01*
X-323069Y206968D01*
X-329397Y210303D01*
X-330378Y213985D01*
X-327367Y218740D01*
X-316240Y234540D01*
X-304351Y249774D01*
X-292920Y263025D01*
X-288280Y263622D01*
X-283532Y258493D01*
X-286760Y255265D01*
X-273650Y242156D01*
X-264783Y251023D01*
Y251023D01*
X-262336Y253469D01*
X-253469Y262336D01*
Y262336D01*
X-251023Y264783D01*
X-242156Y273650D01*
X-255265Y286760D01*
X-258494Y283532D01*
X-263622Y288280D01*
X-263025Y292920D01*
X-249774Y304351D01*
X-234540Y316240D01*
X-218740Y327367D01*
X-213985Y330378D01*
X-210303Y329397D01*
X-206968Y323069D01*
X-210921Y320786D01*
X-201651Y304730D01*
X-190791Y311000D01*
X-190791Y311000D01*
X-187795Y312730D01*
Y312730D01*
X-187717Y312775D01*
X-176935Y319000D01*
X-176935Y319000D01*
X-173938Y320730D01*
Y320730D01*
X-173860Y320775D01*
X-163078Y327000D01*
X-172348Y343056D01*
X-176302Y340774D01*
X-180118Y346833D01*
X-179098Y350504D01*
X-168337Y355920D01*
X-150671Y363751D01*
X-132641Y370706D01*
X-121202Y374485D01*
X-117885Y372611D01*
X-116299Y365628D01*
X-120709Y364446D01*
X-115910Y346538D01*
X-103798Y349784D01*
X-103798Y349783D01*
X-100455Y350679D01*
Y350679D01*
X-100368Y350702D01*
X-88343Y353925D01*
X-88343Y353925D01*
X-85000Y354820D01*
Y354820D01*
X-84913Y354843D01*
X-72888Y358066D01*
X-77686Y375974D01*
X-83120Y374518D01*
X-88116Y385832D01*
X-88274Y386057D01*
X-88403Y386301D01*
X-88503Y386383D01*
X-88578Y386490D01*
X-88810Y386637D01*
X-89022Y386813D01*
X-95518Y390316D01*
X-95522Y390317D01*
X-95525Y390320D01*
X-95904Y390435D01*
X-96286Y390552D01*
X-96290Y390552D01*
X-96294Y390553D01*
X-96687Y390514D01*
X-97086Y390477D01*
X-97090Y390475D01*
X-97093Y390475D01*
X-98454Y390062D01*
X-99007Y390890D01*
X-101081Y392276D01*
X-103527Y392763D01*
X-105154Y392439D01*
X-105154Y392439D01*
X-117969Y388893D01*
X-136909Y382636D01*
X-155520Y375457D01*
X-173755Y367374D01*
X-191572Y358406D01*
X-208927Y348574D01*
X-225779Y337903D01*
X-242087Y326417D01*
X-257812Y314145D01*
X-272916Y301117D01*
X-287362Y287362D01*
X-301117Y272916D01*
X-314145Y257812D01*
X-326417Y242087D01*
X-337903Y225779D01*
X-348574Y208927D01*
X-358406Y191572D01*
X-367374Y173755D01*
X-375457Y155520D01*
X-382636Y136909D01*
X-388893Y117969D01*
X-394213Y98745D01*
X-398583Y79283D01*
X-401993Y59630D01*
X-404435Y39833D01*
X-405902Y19941D01*
X-406392Y0D01*
X-405902Y-19941D01*
X-404435Y-39833D01*
X-401993Y-59630D01*
X-398583Y-79283D01*
X-394213Y-98745D01*
X-392439Y-105154D01*
X-392439Y-105154D01*
X-392276Y-105974D01*
X-392042Y-106324D01*
X-391282Y-108564D01*
X-388462Y-114281D01*
X-384922Y-119580D01*
X-380719Y-124372D01*
X-375927Y-128574D01*
X-370628Y-132115D01*
X-364912Y-134934D01*
X-358876Y-136983D01*
X-352625Y-138226D01*
X-346265Y-138643D01*
X-339905Y-138226D01*
X-333654Y-136983D01*
X-331351Y-136201D01*
X-324759Y-135769D01*
X-318007Y-136212D01*
X-311370Y-137532D01*
X-304963Y-139707D01*
X-298894Y-142700D01*
X-293267Y-146459D01*
X-288180Y-150921D01*
X-283718Y-156008D01*
X-279959Y-161635D01*
X-276966Y-167703D01*
X-274791Y-174111D01*
X-273471Y-180748D01*
X-273029Y-187500D01*
X-273471Y-194252D01*
X-274791Y-200889D01*
X-276966Y-207296D01*
X-279959Y-213365D01*
X-283629Y-218857D01*
X-285458Y-220462D01*
X-289660Y-225253D01*
X-293201Y-230553D01*
X-296020Y-236269D01*
X-298069Y-242304D01*
X-299312Y-248556D01*
X-299729Y-254915D01*
X-299312Y-261275D01*
X-298069Y-267526D01*
X-296020Y-273562D01*
X-293201Y-279278D01*
X-289698Y-284521D01*
X-289660Y-284578D01*
X-287363Y-287363D01*
X-287363Y-287363D01*
X-287362Y-287363D01*
X-287362Y-287363D01*
X-287361Y-287364D01*
X-284968Y-289642D01*
X-276770Y-297447D01*
X-276549Y-297778D01*
X-276126Y-298061D01*
X-272916Y-301117D01*
X-257812Y-314145D01*
X-242087Y-326417D01*
X-225779Y-337903D01*
X-216201Y-343968D01*
X-215305Y-344567D01*
X-215233Y-344581D01*
X-208927Y-348574D01*
X-203140Y-351852D01*
X-202446Y-352316D01*
X-202254Y-352354D01*
X-191572Y-358406D01*
X-189493Y-359452D01*
X-189306Y-359577D01*
X-189204Y-359598D01*
X-173755Y-367374D01*
X-155520Y-375457D01*
X-136909Y-382636D01*
X-120486Y-388061D01*
X-120400Y-388119D01*
X-120179Y-388163D01*
X-117969Y-388893D01*
X-108572Y-391493D01*
X-106137Y-392168D01*
X-105974Y-392277D01*
X-105154Y-392440D01*
X-105154Y-392440D01*
X-98745Y-394213D01*
X-94513Y-395164D01*
X-90909Y-396053D01*
X-90909Y-396053D01*
X-85311Y-397397D01*
X-79469Y-397857D01*
X-73627Y-397397D01*
X-67929Y-396030D01*
X-62516Y-393787D01*
X-57519Y-390725D01*
X-53063Y-386920D01*
X-49258Y-382464D01*
X-46196Y-377467D01*
X-44152Y-372534D01*
X-44094Y-372446D01*
X-44001Y-372169D01*
X-43953Y-372054D01*
X-43929Y-371954D01*
X-43992Y-371934D01*
X-43607Y-370000D01*
X-43675Y-369657D01*
X-43261Y-366512D01*
X-43132Y-366318D01*
X-42991Y-365818D01*
X-41491Y-362630D01*
X-39702Y-360298D01*
X-36860Y-358118D01*
X-33551Y-356747D01*
X-30343Y-356325D01*
X-30000Y-356393D01*
X-20080D01*
X-17442Y-359142D01*
X-17675Y-364730D01*
X-22270D01*
Y-383270D01*
X-9730D01*
Y-383270D01*
X-6270Y-383270D01*
Y-383270D01*
X6270D01*
Y-383270D01*
X9730D01*
Y-383270D01*
X22270D01*
Y-364730D01*
X17675D01*
X17442Y-359142D01*
X20080Y-356393D01*
X43607D01*
Y-370000D01*
X43992Y-371934D01*
X43930Y-371954D01*
X43953Y-372054D01*
X44001Y-372168D01*
X44094Y-372447D01*
X44152Y-372534D01*
X46196Y-377467D01*
X49258Y-382464D01*
X53063Y-386920D01*
X57519Y-390725D01*
X62516Y-393787D01*
X67929Y-396030D01*
X73627Y-397397D01*
X79469Y-397857D01*
X85311Y-397397D01*
X90909Y-396053D01*
X90909Y-396053D01*
X94513Y-395163D01*
X98745Y-394213D01*
X105155Y-392439D01*
X105974Y-392276D01*
X106137Y-392167D01*
X117969Y-388893D01*
X120179Y-388163D01*
X120400Y-388119D01*
X120486Y-388061D01*
X136909Y-382636D01*
X155520Y-375457D01*
X173755Y-367374D01*
X189204Y-359598D01*
X189306Y-359577D01*
X189493Y-359452D01*
X191572Y-358406D01*
X202254Y-352354D01*
X202446Y-352316D01*
X203140Y-351852D01*
X208927Y-348574D01*
X215233Y-344581D01*
X215305Y-344567D01*
X216201Y-343968D01*
X225779Y-337903D01*
X242087Y-326417D01*
X257812Y-314145D01*
X272916Y-301117D01*
X276125Y-298061D01*
X276549Y-297778D01*
X276770Y-297447D01*
X287362Y-287363D01*
X287363Y-287363D01*
X287363Y-287363D01*
X287363Y-287363D01*
X289660Y-284578D01*
X289698Y-284520D01*
X293201Y-279278D01*
X296020Y-273562D01*
X298069Y-267526D01*
X299312Y-261275D01*
X299729Y-254915D01*
X299312Y-248555D01*
X298069Y-242304D01*
X296020Y-236269D01*
X293201Y-230553D01*
X289660Y-225253D01*
X285458Y-220461D01*
X283629Y-218857D01*
X279959Y-213365D01*
X276966Y-207296D01*
X274791Y-200889D01*
X273471Y-194252D01*
X273028Y-187500D01*
X273471Y-180747D01*
X274791Y-174111D01*
X276966Y-167703D01*
X279959Y-161634D01*
X283718Y-156008D01*
X288180Y-150920D01*
X293267Y-146459D01*
X298894Y-142699D01*
X304962Y-139707D01*
X311370Y-137532D01*
X318007Y-136212D01*
X324759Y-135769D01*
X331350Y-136201D01*
X333654Y-136983D01*
X339905Y-138226D01*
X346265Y-138643D01*
X352625Y-138226D01*
X358876Y-136983D01*
X364911Y-134934D01*
X370628Y-132115D01*
X375927Y-128574D01*
X380719Y-124372D01*
X384921Y-119580D01*
X388462Y-114281D01*
X391281Y-108564D01*
X392042Y-106325D01*
X392276Y-105974D01*
X392439Y-105154D01*
X392439Y-105154D01*
X394213Y-98745D01*
X395848Y-91463D01*
X395889Y-91402D01*
X396099Y-90345D01*
X398583Y-79283D01*
X401993Y-59630D01*
X404435Y-39833D01*
X405902Y-19941D01*
X406011Y-15511D01*
X406111Y-15011D01*
X406033Y-14621D01*
X406299Y-3771D01*
X406392Y-0D01*
X406393Y-0D01*
Y0D01*
X406392D01*
X406299Y3771D01*
X406033Y14621D01*
X406111Y15011D01*
X406011Y15511D01*
X405902Y19941D01*
X404435Y39833D01*
X401993Y59630D01*
X398583Y79283D01*
X396099Y90345D01*
X395889Y91402D01*
X395848Y91463D01*
X394213Y98745D01*
X393446Y101518D01*
X392439Y105154D01*
X392276Y105974D01*
X392168Y106137D01*
X391433Y108789D01*
X388893Y117969D01*
X388163Y120179D01*
X388119Y120400D01*
X388061Y120486D01*
X382636Y136909D01*
X375457Y155520D01*
X367374Y173755D01*
X359598Y189204D01*
X359577Y189306D01*
X359452Y189493D01*
X358406Y191572D01*
X352354Y202254D01*
X352316Y202446D01*
X351852Y203140D01*
X348574Y208927D01*
X344581Y215233D01*
X344567Y215305D01*
X343968Y216201D01*
X337903Y225779D01*
X326417Y242087D01*
X314145Y257812D01*
X301117Y272916D01*
X298061Y276126D01*
X297778Y276549D01*
X297447Y276770D01*
X287364Y287361D01*
X287363Y287363D01*
X287361Y287364D01*
X276770Y297447D01*
X276549Y297778D01*
X276126Y298061D01*
X272916Y301117D01*
X257812Y314145D01*
X242087Y326417D01*
X225779Y337903D01*
X216201Y343968D01*
X215305Y344567D01*
X215233Y344581D01*
X208927Y348574D01*
X203140Y351853D01*
X202446Y352316D01*
X202254Y352354D01*
X191572Y358406D01*
X189493Y359452D01*
X189306Y359577D01*
X189204Y359598D01*
X173755Y367374D01*
X155520Y375457D01*
X136909Y382636D01*
X120486Y388061D01*
X120400Y388119D01*
X120179Y388163D01*
X117969Y388893D01*
X105154Y392439D01*
X105154Y392439D01*
X103527Y392763D01*
D02*
G37*
G36*
X2167Y402540D02*
X1270D01*
Y376270D01*
X27540D01*
Y377167D01*
X26862Y381449D01*
X25522Y385571D01*
X23554Y389434D01*
X21006Y392941D01*
X17941Y396006D01*
X14434Y398554D01*
X10572Y400522D01*
X6449Y401861D01*
X2167Y402540D01*
D02*
G37*
G36*
X-1270D02*
X-2167D01*
X-6449Y401861D01*
X-10572Y400522D01*
X-14434Y398554D01*
X-17941Y396006D01*
X-21006Y392941D01*
X-23554Y389434D01*
X-25522Y385571D01*
X-26862Y381449D01*
X-27540Y377167D01*
Y376270D01*
X-1270D01*
Y402540D01*
D02*
G37*
G36*
X27540Y373730D02*
X1270D01*
Y347460D01*
X2167D01*
X6449Y348138D01*
X10572Y349477D01*
X14434Y351445D01*
X17941Y353993D01*
X21006Y357058D01*
X23554Y360565D01*
X25522Y364428D01*
X26862Y368551D01*
X27540Y372832D01*
Y373730D01*
D02*
G37*
G36*
X-1270D02*
X-27540D01*
Y372832D01*
X-26862Y368551D01*
X-25522Y364428D01*
X-23554Y360565D01*
X-21006Y357058D01*
X-17941Y353993D01*
X-14434Y351445D01*
X-10572Y349477D01*
X-6449Y348138D01*
X-2167Y347460D01*
X-1270D01*
Y373730D01*
D02*
G37*
G36*
X-65263Y329610D02*
X-77038Y326455D01*
X-77376Y326364D01*
X-80718Y325468D01*
X-81056Y325378D01*
X-92830Y322223D01*
Y322223D01*
X-96173Y321327D01*
X-96260Y321304D01*
X-96511Y321237D01*
X-108285Y318082D01*
X-103487Y300173D01*
X-103487D01*
X-103332Y300060D01*
X-104111Y295906D01*
X-106326Y295313D01*
X-103856Y286098D01*
X-91744Y289344D01*
X-94213Y298559D01*
X-94213D01*
X-93900Y301113D01*
X-91374Y303419D01*
X-88032Y304315D01*
X-87945Y304338D01*
X-87694Y304405D01*
X-83965Y305404D01*
X-82940Y301579D01*
X-87007Y300490D01*
X-84538Y291275D01*
X-72425Y294520D01*
X-74894Y303735D01*
X-78961Y302645D01*
X-79986Y306471D01*
X-76257Y307470D01*
X-75919Y307560D01*
X-72577Y308456D01*
X-72239Y308546D01*
X-70309Y309063D01*
X-69807Y308478D01*
X-67689Y305666D01*
D01*
X-65219Y296451D01*
X-53107Y299697D01*
X-55576Y308912D01*
X-57790Y308318D01*
X-60542Y311525D01*
X-60465Y311701D01*
X-60465Y311701D01*
X-65263Y329610D01*
D02*
G37*
G36*
X65263Y329610D02*
X60465Y311701D01*
X60464Y311701D01*
X60542Y311525D01*
X57790Y308318D01*
X55576Y308911D01*
X53107Y299697D01*
X65219Y296451D01*
X67689Y305666D01*
D01*
X69806Y308478D01*
X70309Y309063D01*
X72239Y308546D01*
X72577Y308456D01*
X75919Y307560D01*
X76257Y307470D01*
X79986Y306471D01*
X78961Y302645D01*
X74894Y303735D01*
X72425Y294520D01*
X84538Y291275D01*
X87007Y300490D01*
X82940Y301579D01*
X83965Y305404D01*
X87694Y304405D01*
X88032Y304315D01*
X91374Y303419D01*
X91712Y303328D01*
X93642Y302811D01*
X93785Y302053D01*
X94213Y298559D01*
X94213D01*
X91744Y289344D01*
X103856Y286098D01*
X106326Y295313D01*
X104112Y295906D01*
X103332Y300060D01*
X103487Y300173D01*
X103487D01*
X108285Y318082D01*
X96511Y321237D01*
X96173Y321327D01*
X92830Y322223D01*
X92493Y322313D01*
X81056Y325378D01*
X80718Y325468D01*
X77376Y326364D01*
X77038Y326455D01*
X65263Y329610D01*
D02*
G37*
G36*
X-148349Y301487D02*
X-158905Y295392D01*
X-159208Y295217D01*
X-162205Y293487D01*
X-162508Y293312D01*
X-173065Y287217D01*
X-173065Y287217D01*
X-176061Y285487D01*
X-176140Y285442D01*
X-176364Y285312D01*
X-186921Y279217D01*
X-177651Y263161D01*
X-177651D01*
X-177472Y263091D01*
X-177150Y258878D01*
X-179135Y257731D01*
X-174365Y249470D01*
X-163505Y255740D01*
X-168275Y264002D01*
X-168634Y266550D01*
X-166791Y269431D01*
X-163795Y271161D01*
X-163717Y271206D01*
X-163492Y271336D01*
X-160149Y273266D01*
X-158168Y269837D01*
X-161815Y267731D01*
X-157045Y259470D01*
X-146185Y265740D01*
X-150955Y274002D01*
X-154601Y271896D01*
X-156581Y275326D01*
X-153238Y277256D01*
X-152935Y277431D01*
X-149938Y279161D01*
X-149635Y279336D01*
X-147905Y280335D01*
X-147268Y279899D01*
X-144494Y277731D01*
X-139724Y269470D01*
X-128864Y275740D01*
X-133634Y284002D01*
X-135619Y282855D01*
X-139108Y285241D01*
X-139079Y285431D01*
X-139079Y285431D01*
X-148349Y301487D01*
D02*
G37*
G36*
X148349D02*
X139079Y285431D01*
X139079Y285431D01*
X139108Y285241D01*
X135619Y282856D01*
X133635Y284002D01*
X128865Y275740D01*
X139725Y269470D01*
X144494Y277732D01*
X147268Y279899D01*
X147905Y280335D01*
X149635Y279336D01*
X149938Y279161D01*
X152935Y277431D01*
X156581Y275326D01*
X154601Y271896D01*
X150955Y274002D01*
X146185Y265740D01*
X157045Y259470D01*
X161815Y267731D01*
X158168Y269837D01*
X160149Y273266D01*
X163492Y271336D01*
X163717Y271206D01*
X163795Y271161D01*
X166791Y269431D01*
X168634Y266550D01*
X168276Y264002D01*
X163505Y255740D01*
X174366Y249470D01*
X179135Y257732D01*
X177150Y258878D01*
X177472Y263091D01*
X177651Y263161D01*
X177651D01*
X186921Y279217D01*
X176364Y285312D01*
X176140Y285442D01*
X176061Y285487D01*
X173065Y287217D01*
X173065Y287217D01*
X162508Y293312D01*
X162205Y293487D01*
X158905Y295392D01*
X148349Y301487D01*
D02*
G37*
G36*
X-51435Y293457D02*
X-63548Y290211D01*
X-61078Y280996D01*
X-59694Y281367D01*
X-58105Y279410D01*
X-57430Y278029D01*
X-58021Y276604D01*
Y274667D01*
X-57279Y272877D01*
X-55909Y271507D01*
X-54119Y270765D01*
X-52182D01*
X-50392Y271507D01*
X-50107Y271791D01*
X-26608D01*
X2776Y242408D01*
X4023Y241574D01*
X5494Y241282D01*
X5494Y241282D01*
X69212D01*
X76156Y234338D01*
Y225770D01*
X50980D01*
Y158230D01*
X109020D01*
Y225770D01*
X83844D01*
Y235930D01*
X83844Y235930D01*
X83551Y237401D01*
X82718Y238648D01*
X82718Y238648D01*
X73522Y247844D01*
X72275Y248677D01*
X70804Y248969D01*
X70804Y248969D01*
X52492D01*
X51938Y249984D01*
X51324Y252780D01*
X52103Y253558D01*
X52844Y255348D01*
Y257286D01*
X52103Y259076D01*
X51111Y260067D01*
X57011Y282086D01*
X61078Y280996D01*
X63548Y290211D01*
X51435Y293457D01*
X48966Y284242D01*
X53033Y283152D01*
X47147Y261187D01*
X47006D01*
X45216Y260445D01*
X43846Y259076D01*
X43104Y257286D01*
Y255348D01*
X43846Y253558D01*
X44625Y252780D01*
X44011Y249984D01*
X43457Y248969D01*
X7086D01*
X-22297Y278353D01*
X-23544Y279187D01*
X-25015Y279479D01*
X-25016Y279479D01*
X-46875D01*
X-47938Y280593D01*
X-48966Y284242D01*
D01*
X-51435Y293457D01*
D02*
G37*
G36*
X70753Y288280D02*
X68284Y279065D01*
X72351Y277976D01*
X69054Y265670D01*
X68912D01*
X67123Y264928D01*
X65753Y263558D01*
X65011Y261768D01*
Y259831D01*
X65753Y258041D01*
X67123Y256671D01*
X68912Y255930D01*
X70850D01*
X72640Y256671D01*
X74010Y258041D01*
X74751Y259831D01*
Y261768D01*
X74010Y263558D01*
X73018Y264550D01*
X76330Y276909D01*
X80397Y275820D01*
X82866Y285035D01*
X70753Y288280D01*
D02*
G37*
G36*
X90072Y283104D02*
X87603Y273889D01*
X88988Y273518D01*
X89251Y269503D01*
X89029Y269411D01*
X87659Y268041D01*
X86918Y266251D01*
Y264314D01*
X87659Y262524D01*
X89029Y261154D01*
X90819Y260413D01*
X92757D01*
X94546Y261154D01*
X95916Y262524D01*
X96658Y264314D01*
Y266251D01*
X96067Y267677D01*
X96742Y269058D01*
X98331Y271014D01*
X99715Y270644D01*
X102184Y279858D01*
X90072Y283104D01*
D02*
G37*
G36*
X125634Y270145D02*
X120864Y261883D01*
X124511Y259778D01*
X113113Y240036D01*
X111711D01*
X109921Y239295D01*
X108551Y237925D01*
X107809Y236135D01*
Y234198D01*
X108551Y232408D01*
X109921Y231038D01*
X111711Y230296D01*
X113648D01*
X115438Y231038D01*
X116808Y232408D01*
X117549Y234198D01*
Y236135D01*
X116808Y237925D01*
X116708Y238025D01*
X128078Y257719D01*
X131725Y255613D01*
X136494Y263875D01*
X125634Y270145D01*
D02*
G37*
G36*
X-125634Y270145D02*
X-136494Y263875D01*
X-131724Y255613D01*
X-130483Y256330D01*
X-127458Y253677D01*
X-127549Y253456D01*
Y251518D01*
X-126808Y249728D01*
X-125438Y248358D01*
X-123648Y247617D01*
X-121711D01*
X-119921Y248358D01*
X-118551Y249728D01*
X-117809Y251518D01*
Y253456D01*
X-118551Y255245D01*
X-119921Y256615D01*
X-121346Y257206D01*
X-121846Y258660D01*
X-122105Y261167D01*
X-120864Y261883D01*
X-125634Y270145D01*
D02*
G37*
G36*
X142955Y260145D02*
X138185Y251883D01*
X139498Y251125D01*
X140484Y247445D01*
X135433Y238697D01*
X134031D01*
X132241Y237955D01*
X130871Y236585D01*
X130130Y234795D01*
Y232858D01*
X130871Y231068D01*
X132241Y229698D01*
X134031Y228957D01*
X135969D01*
X137758Y229698D01*
X139128Y231068D01*
X139870Y232858D01*
Y234795D01*
X139128Y236585D01*
X139028Y236685D01*
X145399Y247718D01*
X149045Y245613D01*
X153815Y253875D01*
X142955Y260145D01*
D02*
G37*
G36*
X221324Y252819D02*
X208214Y239709D01*
Y239709D01*
X208193Y239518D01*
X204207Y238116D01*
X202586Y239737D01*
X195840Y232991D01*
X204707Y224124D01*
X211453Y230870D01*
X214693Y232246D01*
X215421Y232502D01*
X216834Y231089D01*
X217082Y230842D01*
X219528Y228395D01*
X219776Y228148D01*
X222505Y225418D01*
X219705Y222618D01*
X216728Y225595D01*
X209982Y218849D01*
X218849Y209982D01*
X225595Y216728D01*
X222618Y219705D01*
X225418Y222505D01*
X228148Y219776D01*
X228395Y219528D01*
X230842Y217082D01*
X231089Y216834D01*
X232502Y215421D01*
X232246Y214693D01*
X230870Y211453D01*
X224124Y204707D01*
X232992Y195840D01*
X239737Y202586D01*
X238116Y204207D01*
X239518Y208193D01*
X239709Y208214D01*
X239709D01*
X252819Y221324D01*
X244199Y229944D01*
X243952Y230191D01*
X241505Y232638D01*
X241257Y232885D01*
X232885Y241257D01*
X232638Y241505D01*
X230191Y243952D01*
X229944Y244199D01*
X221324Y252819D01*
D02*
G37*
G36*
X160275Y250145D02*
X155505Y241884D01*
X156747Y241167D01*
X156487Y238659D01*
X155987Y237206D01*
X154562Y236615D01*
X153192Y235245D01*
X152450Y233456D01*
Y231518D01*
X153192Y229728D01*
X154562Y228358D01*
X156352Y227617D01*
X158289D01*
X160079Y228358D01*
X161449Y229728D01*
X162190Y231518D01*
Y233456D01*
X162098Y233678D01*
X165123Y236331D01*
X166365Y235613D01*
X171135Y243875D01*
X160275Y250145D01*
D02*
G37*
G36*
X-142955Y260145D02*
X-153815Y253875D01*
X-149045Y245613D01*
X-145398Y247719D01*
X-139028Y236685D01*
X-139128Y236585D01*
X-139870Y234795D01*
Y232858D01*
X-139128Y231068D01*
X-137758Y229698D01*
X-135969Y228957D01*
X-134031D01*
X-132241Y229698D01*
X-130871Y231068D01*
X-130130Y232858D01*
Y234795D01*
X-130871Y236585D01*
X-132241Y237955D01*
X-134031Y238697D01*
X-135433D01*
X-141831Y249778D01*
X-138185Y251883D01*
X-142955Y260145D01*
D02*
G37*
G36*
X-221324Y252819D02*
X-229944Y244199D01*
X-230191Y243952D01*
X-232638Y241505D01*
X-232885Y241257D01*
X-241258Y232885D01*
X-241505Y232638D01*
X-243952Y230191D01*
X-244199Y229944D01*
X-252819Y221324D01*
X-239709Y208214D01*
X-239709D01*
X-239518Y208193D01*
X-238116Y204207D01*
X-239737Y202586D01*
X-232991Y195840D01*
X-224124Y204707D01*
X-230870Y211453D01*
X-232246Y214693D01*
X-232502Y215421D01*
X-231089Y216834D01*
X-230842Y217082D01*
X-228395Y219528D01*
X-228148Y219776D01*
X-225418Y222505D01*
X-222618Y219705D01*
X-225595Y216728D01*
X-218849Y209982D01*
X-209982Y218849D01*
X-216728Y225595D01*
X-219705Y222618D01*
X-222505Y225418D01*
X-219776Y228148D01*
X-219528Y228395D01*
X-217082Y230842D01*
X-216834Y231089D01*
X-215421Y232502D01*
X-214693Y232246D01*
X-211453Y230870D01*
X-204707Y224124D01*
X-195840Y232991D01*
X-202586Y239737D01*
X-204207Y238116D01*
X-208193Y239518D01*
X-208214Y239709D01*
Y239709D01*
X-221324Y252819D01*
D02*
G37*
G36*
X191272Y228424D02*
X184526Y221678D01*
X187504Y218701D01*
X171373Y202570D01*
X170674Y202860D01*
X168737D01*
X166947Y202118D01*
X165577Y200748D01*
X164835Y198958D01*
Y197021D01*
X165577Y195231D01*
X166947Y193861D01*
X168737Y193120D01*
X170674D01*
X172464Y193861D01*
X173834Y195231D01*
X174575Y197021D01*
Y198958D01*
X174286Y199657D01*
X190416Y215788D01*
X193393Y212811D01*
X200139Y219556D01*
X191272Y228424D01*
D02*
G37*
G36*
X-160275Y250145D02*
X-171135Y243875D01*
X-166365Y235613D01*
X-162719Y237718D01*
X-151349Y218025D01*
X-151449Y217925D01*
X-152190Y216135D01*
Y214198D01*
X-151449Y212408D01*
X-150079Y211038D01*
X-148289Y210296D01*
X-146352D01*
X-144562Y211038D01*
X-143192Y212408D01*
X-142450Y214198D01*
Y216135D01*
X-143192Y217925D01*
X-144562Y219295D01*
X-146352Y220036D01*
X-147754D01*
X-159152Y239778D01*
X-155505Y241883D01*
X-160275Y250145D01*
D02*
G37*
G36*
X-191272Y228424D02*
X-200139Y219556D01*
X-193393Y212811D01*
X-192237Y213967D01*
X-191688Y213831D01*
X-188717Y212098D01*
Y211163D01*
X-187976Y209373D01*
X-186606Y208003D01*
X-184816Y207262D01*
X-182879D01*
X-181089Y208003D01*
X-179719Y209373D01*
X-178978Y211163D01*
Y213100D01*
X-179719Y214890D01*
X-181089Y216260D01*
X-182879Y217002D01*
X-183814D01*
X-185547Y219972D01*
X-185599Y220182D01*
Y220605D01*
X-184526Y221678D01*
X-191272Y228424D01*
D02*
G37*
G36*
X205414Y214281D02*
X198668Y207536D01*
X199741Y206463D01*
Y202653D01*
X192586Y195499D01*
X191887Y195789D01*
X189950D01*
X188160Y195047D01*
X186790Y193677D01*
X186049Y191887D01*
Y189950D01*
X186790Y188160D01*
X188160Y186790D01*
X189950Y186049D01*
X191887D01*
X193677Y186790D01*
X195047Y188160D01*
X195789Y189950D01*
Y191887D01*
X195499Y192586D01*
X204559Y201646D01*
X207536Y198669D01*
X214281Y205414D01*
X205414Y214281D01*
D02*
G37*
G36*
X-205414Y214281D02*
X-214281Y205414D01*
X-207536Y198668D01*
X-206463Y199741D01*
X-202653D01*
X-195499Y192586D01*
X-195789Y191887D01*
Y189950D01*
X-195047Y188160D01*
X-193677Y186790D01*
X-191887Y186049D01*
X-189950D01*
X-188160Y186790D01*
X-186790Y188160D01*
X-186049Y189950D01*
Y191887D01*
X-186790Y193677D01*
X-188160Y195047D01*
X-189950Y195789D01*
X-191887D01*
X-192586Y195499D01*
X-201646Y204559D01*
X-198668Y207536D01*
X-205414Y214281D01*
D02*
G37*
G36*
X219556Y200139D02*
X212811Y193393D01*
X213967Y192237D01*
X213831Y191687D01*
X212099Y188717D01*
X211163D01*
X209373Y187976D01*
X208003Y186606D01*
X207262Y184816D01*
Y182879D01*
X208003Y181089D01*
X209373Y179719D01*
X211163Y178978D01*
X213100D01*
X214890Y179719D01*
X216260Y181089D01*
X217002Y182879D01*
Y183814D01*
X219971Y185547D01*
X220181Y185599D01*
X220606D01*
X221678Y184527D01*
X228424Y191272D01*
X219556Y200139D01*
D02*
G37*
G36*
X-155250Y189451D02*
X-157480D01*
Y180594D01*
X-145290D01*
X-145468Y181945D01*
X-146480Y184387D01*
X-148089Y186485D01*
X-150187Y188094D01*
X-152629Y189106D01*
X-155250Y189451D01*
D02*
G37*
G36*
X-160020D02*
X-162250D01*
X-164871Y189106D01*
X-167313Y188094D01*
X-169411Y186485D01*
X-171020Y184387D01*
X-172031Y181945D01*
X-172209Y180594D01*
X-160020D01*
Y189451D01*
D02*
G37*
G36*
X279217Y186921D02*
X263161Y177651D01*
Y177651D01*
X263091Y177472D01*
X258878Y177150D01*
X257731Y179135D01*
X249470Y174365D01*
X255740Y163505D01*
X264002Y168275D01*
X266550Y168634D01*
X269431Y166791D01*
X271161Y163795D01*
X271206Y163717D01*
X271336Y163492D01*
X273266Y160149D01*
X269837Y158168D01*
X267731Y161815D01*
X259470Y157045D01*
X265740Y146185D01*
X274002Y150955D01*
X271896Y154601D01*
X275326Y156581D01*
X277256Y153238D01*
X277431Y152935D01*
X279161Y149938D01*
X279336Y149635D01*
X280335Y147905D01*
X279899Y147268D01*
X277731Y144494D01*
X269470Y139724D01*
X275740Y128864D01*
X284002Y133634D01*
X282855Y135619D01*
X285241Y139108D01*
X285431Y139079D01*
X285431Y139079D01*
X301487Y148349D01*
X295392Y158905D01*
X295217Y159208D01*
X293487Y162205D01*
X293312Y162508D01*
X287217Y173065D01*
X287217Y173065D01*
X285487Y176061D01*
X285442Y176140D01*
X285312Y176364D01*
X279217Y186921D01*
D02*
G37*
G36*
X-145290Y178054D02*
X-157480D01*
Y169197D01*
X-155250D01*
X-152629Y169542D01*
X-150187Y170554D01*
X-148089Y172163D01*
X-146480Y174261D01*
X-145468Y176703D01*
X-145290Y178054D01*
D02*
G37*
G36*
X-160020D02*
X-172209D01*
X-172031Y176703D01*
X-171020Y174261D01*
X-169411Y172163D01*
X-167313Y170554D01*
X-164871Y169542D01*
X-162250Y169197D01*
X-160020D01*
Y178054D01*
D02*
G37*
G36*
X-219557Y200139D02*
X-228424Y191272D01*
X-221678Y184526D01*
X-218701Y187504D01*
X-202570Y171373D01*
X-202860Y170674D01*
Y168737D01*
X-202118Y166947D01*
X-200748Y165577D01*
X-198958Y164835D01*
X-197021D01*
X-195231Y165577D01*
X-193861Y166947D01*
X-193120Y168737D01*
Y170674D01*
X-193861Y172464D01*
X-195231Y173834D01*
X-197021Y174575D01*
X-198958D01*
X-199657Y174286D01*
X-215788Y190416D01*
X-212811Y193393D01*
X-219557Y200139D01*
D02*
G37*
G36*
X-279217Y186921D02*
X-285312Y176364D01*
X-285487Y176061D01*
X-287217Y173065D01*
X-287392Y172762D01*
X-293312Y162508D01*
X-293487Y162205D01*
X-295217Y159208D01*
X-301487Y148349D01*
X-285431Y139079D01*
X-285431Y139079D01*
X-285241Y139108D01*
X-282855Y135619D01*
X-284002Y133634D01*
X-275740Y128864D01*
X-269470Y139724D01*
X-277731Y144494D01*
X-279899Y147268D01*
X-280335Y147905D01*
X-279336Y149635D01*
X-279161Y149938D01*
X-277431Y152935D01*
X-275326Y156581D01*
X-271896Y154601D01*
X-274002Y150955D01*
X-265740Y146185D01*
X-259470Y157045D01*
X-267731Y161815D01*
X-269837Y158168D01*
X-273266Y160149D01*
X-271336Y163492D01*
X-271161Y163795D01*
X-269431Y166791D01*
X-269256Y167094D01*
X-268257Y168825D01*
X-267487Y168766D01*
X-264002Y168275D01*
X-255740Y163505D01*
X-249470Y174365D01*
X-257731Y179135D01*
X-258878Y177150D01*
X-263091Y177472D01*
X-263161Y177651D01*
Y177651D01*
X-279217Y186921D01*
D02*
G37*
G36*
X-70753Y288280D02*
X-82866Y285035D01*
X-80397Y275820D01*
X-78932Y276212D01*
X-75633Y274307D01*
X-73018Y264550D01*
X-74010Y263558D01*
X-74751Y261768D01*
Y259831D01*
X-74010Y258041D01*
X-72640Y256671D01*
X-70850Y255930D01*
X-68912D01*
X-67122Y256671D01*
X-66838Y256956D01*
X-29284D01*
X-3844Y231516D01*
Y225770D01*
X-29020D01*
Y158230D01*
X29020D01*
Y225770D01*
X3844D01*
Y233108D01*
X3551Y234579D01*
X2718Y235826D01*
X-24974Y263518D01*
X-26221Y264351D01*
X-27692Y264643D01*
X-27692Y264643D01*
X-66838D01*
X-67122Y264928D01*
X-68912Y265670D01*
X-69054D01*
X-72351Y277976D01*
X-68284Y279065D01*
X-70753Y288280D01*
D02*
G37*
G36*
X-90072Y283104D02*
X-102184Y279858D01*
X-99715Y270643D01*
X-95648Y271733D01*
X-89748Y249714D01*
X-90740Y248723D01*
X-91482Y246933D01*
Y244995D01*
X-90740Y243206D01*
X-89370Y241835D01*
X-87580Y241094D01*
X-87177D01*
X-83844Y237760D01*
Y225770D01*
X-109020D01*
Y158230D01*
X-50980D01*
Y225770D01*
X-76156D01*
Y239353D01*
X-76449Y240824D01*
X-77282Y242071D01*
X-77282Y242071D01*
X-81742Y246530D01*
Y246933D01*
X-82483Y248723D01*
X-83853Y250093D01*
X-85643Y250834D01*
X-85784D01*
X-91670Y272799D01*
X-87603Y273889D01*
X-90072Y283104D01*
D02*
G37*
G36*
X-155250Y162770D02*
X-162250D01*
X-164539Y162468D01*
X-166673Y161585D01*
X-168505Y160179D01*
X-169911Y158347D01*
X-170573Y156748D01*
X-175514D01*
X-175514Y156748D01*
X-176595Y156533D01*
X-177511Y155921D01*
X-177511Y155921D01*
X-186655Y146777D01*
X-187267Y145861D01*
X-187482Y144780D01*
X-187482Y144780D01*
Y97536D01*
X-187482Y97536D01*
X-187267Y96455D01*
X-186655Y95539D01*
X-173955Y82839D01*
X-173955Y82839D01*
X-173039Y82227D01*
X-171958Y82012D01*
X-171958Y82012D01*
X-149506D01*
X-136174Y68680D01*
Y19304D01*
X-136174Y19304D01*
X-135959Y18223D01*
X-135347Y17307D01*
X-94943Y-23097D01*
X-94943Y-23097D01*
X-94027Y-23709D01*
X-92946Y-23924D01*
X-92946Y-23924D01*
X-88005D01*
X-85270Y-26870D01*
Y-30330D01*
X-85270Y-30680D01*
Y-41520D01*
X-85270Y-41870D01*
X-85270Y-45330D01*
X-85270Y-45680D01*
X-85270Y-55776D01*
X-86540Y-59060D01*
X-86540Y-60154D01*
Y-64830D01*
X-76500D01*
X-66460D01*
Y-60154D01*
X-66460Y-59060D01*
X-67730Y-55776D01*
X-67730Y-55250D01*
Y-45680D01*
X-67730Y-45330D01*
X-67730Y-41870D01*
X-67730Y-41520D01*
Y-30680D01*
X-67730Y-30330D01*
Y-26870D01*
X-67730Y-26520D01*
Y-15680D01*
X-67730Y-15330D01*
Y-11870D01*
X-67730Y-11520D01*
X-67730Y-1424D01*
X-66460Y1860D01*
X-66460Y2954D01*
Y7630D01*
X-76500D01*
X-86540D01*
Y2954D01*
X-86540Y1860D01*
X-85270Y-1424D01*
X-85270Y-1950D01*
Y-11520D01*
X-85270Y-11870D01*
Y-15330D01*
X-88005Y-18276D01*
X-91776D01*
X-130526Y20474D01*
Y49572D01*
X-128873Y50128D01*
X-126716Y50206D01*
X-126457Y49819D01*
X-98541Y21903D01*
X-98541Y21903D01*
X-97625Y21291D01*
X-96544Y21076D01*
X-96544Y21076D01*
X-88368D01*
X-86027Y17266D01*
X-86540Y15940D01*
X-86540Y14846D01*
Y10170D01*
X-76500D01*
X-66460D01*
Y14846D01*
X-66460Y15940D01*
X-67730Y19224D01*
X-67730Y19750D01*
Y29320D01*
X-67730Y29670D01*
X-67730Y33130D01*
X-67730Y33480D01*
Y44320D01*
X-67730Y44670D01*
Y48130D01*
X-67730Y48480D01*
Y59670D01*
X-85270D01*
Y48480D01*
X-85270Y48130D01*
Y44670D01*
X-88005Y41724D01*
X-95896D01*
X-114778Y60606D01*
Y105156D01*
X-114993Y106237D01*
X-115605Y107153D01*
X-115605Y107153D01*
X-138973Y130521D01*
X-139889Y131133D01*
X-140970Y131348D01*
X-140970Y131348D01*
X-146927D01*
X-147589Y132947D01*
X-148995Y134779D01*
X-150827Y136185D01*
X-152961Y137068D01*
X-155250Y137370D01*
X-162250D01*
X-164539Y137068D01*
X-166673Y136185D01*
X-168505Y134779D01*
X-169911Y132947D01*
X-170794Y130813D01*
X-171096Y128524D01*
X-170794Y126235D01*
X-169911Y124101D01*
X-168505Y122269D01*
X-166673Y120863D01*
X-164539Y119980D01*
X-162250Y119678D01*
X-155250D01*
X-152961Y119980D01*
X-150827Y120863D01*
X-148995Y122269D01*
X-147589Y124101D01*
X-146927Y125700D01*
X-142140D01*
X-120426Y103986D01*
Y98821D01*
X-124236Y97242D01*
X-132115Y105121D01*
X-133031Y105733D01*
X-134112Y105948D01*
X-134112Y105948D01*
X-146480D01*
Y111894D01*
X-171020D01*
Y94354D01*
X-146480D01*
Y100300D01*
X-135282D01*
X-127284Y92302D01*
Y72094D01*
X-128937Y71538D01*
X-131094Y71460D01*
X-131353Y71847D01*
X-146339Y86833D01*
X-147255Y87445D01*
X-148336Y87660D01*
X-148336Y87660D01*
X-170788D01*
X-181834Y98706D01*
Y143610D01*
X-174344Y151100D01*
X-170573D01*
X-169911Y149501D01*
X-168505Y147669D01*
X-166673Y146264D01*
X-164539Y145380D01*
X-162250Y145078D01*
X-155250D01*
X-152961Y145380D01*
X-150827Y146264D01*
X-148995Y147669D01*
X-147589Y149501D01*
X-146706Y151635D01*
X-146404Y153924D01*
X-146706Y156214D01*
X-147589Y158347D01*
X-148995Y160179D01*
X-150827Y161585D01*
X-152961Y162468D01*
X-155250Y162770D01*
D02*
G37*
G36*
X243875Y171135D02*
X235613Y166365D01*
X237718Y162719D01*
X218025Y151349D01*
X217925Y151449D01*
X216135Y152190D01*
X214198D01*
X212408Y151449D01*
X211038Y150079D01*
X210296Y148289D01*
Y146352D01*
X211038Y144562D01*
X212408Y143192D01*
X214198Y142450D01*
X216135D01*
X217925Y143192D01*
X219295Y144562D01*
X220036Y146352D01*
Y147754D01*
X239778Y159152D01*
X241883Y155505D01*
X250145Y160275D01*
X243875Y171135D01*
D02*
G37*
G36*
X-243875Y171135D02*
X-250145Y160275D01*
X-241883Y155505D01*
X-241167Y156746D01*
X-238659Y156487D01*
X-237206Y155987D01*
X-236615Y154562D01*
X-235245Y153192D01*
X-233456Y152450D01*
X-231518D01*
X-229728Y153192D01*
X-228358Y154562D01*
X-227617Y156352D01*
Y158289D01*
X-228358Y160079D01*
X-229728Y161449D01*
X-231518Y162190D01*
X-233456D01*
X-233677Y162099D01*
X-236330Y165124D01*
X-235613Y166365D01*
X-243875Y171135D01*
D02*
G37*
G36*
X253875Y153815D02*
X245613Y149045D01*
X247719Y145398D01*
X236685Y139028D01*
X236585Y139128D01*
X234795Y139870D01*
X232858D01*
X231068Y139128D01*
X229698Y137758D01*
X228957Y135969D01*
Y134031D01*
X229698Y132241D01*
X231068Y130871D01*
X232858Y130130D01*
X234795D01*
X236585Y130871D01*
X237955Y132241D01*
X238697Y134031D01*
Y135433D01*
X249778Y141831D01*
X251883Y138185D01*
X260145Y142955D01*
X253875Y153815D01*
D02*
G37*
G36*
X-253875Y153815D02*
X-260145Y142955D01*
X-251883Y138185D01*
X-251125Y139498D01*
X-247445Y140484D01*
X-238697Y135433D01*
Y134031D01*
X-237955Y132241D01*
X-236585Y130871D01*
X-234795Y130130D01*
X-232858D01*
X-231068Y130871D01*
X-229698Y132241D01*
X-228957Y134031D01*
Y135969D01*
X-229698Y137758D01*
X-231068Y139128D01*
X-232858Y139870D01*
X-234795D01*
X-236585Y139128D01*
X-236685Y139028D01*
X-247718Y145399D01*
X-245613Y149045D01*
X-253875Y153815D01*
D02*
G37*
G36*
X31590Y144790D02*
X24070D01*
Y129270D01*
X31590D01*
Y144790D01*
D02*
G37*
G36*
X111590D02*
X104070D01*
Y129270D01*
X111590D01*
Y144790D01*
D02*
G37*
G36*
X101530D02*
X94010D01*
Y129270D01*
X101530D01*
Y144790D01*
D02*
G37*
G36*
X21530D02*
X14010D01*
Y129270D01*
X21530D01*
Y144790D01*
D02*
G37*
G36*
X-48410Y144790D02*
X-55930D01*
Y129270D01*
X-48410D01*
Y144790D01*
D02*
G37*
G36*
X-58470D02*
X-65990D01*
Y129270D01*
X-58470D01*
Y144790D01*
D02*
G37*
G36*
X263875Y136494D02*
X255613Y131724D01*
X256330Y130483D01*
X253677Y127458D01*
X253456Y127549D01*
X251518D01*
X249728Y126808D01*
X248358Y125438D01*
X247617Y123648D01*
Y121711D01*
X248358Y119921D01*
X249728Y118551D01*
X251518Y117809D01*
X253456D01*
X255245Y118551D01*
X256615Y119921D01*
X257206Y121346D01*
X258660Y121846D01*
X261167Y122105D01*
X261883Y120864D01*
X270145Y125634D01*
X263875Y136494D01*
D02*
G37*
G36*
X-48410Y126730D02*
X-55930D01*
Y111210D01*
X-48410D01*
Y126730D01*
D02*
G37*
G36*
X-58470D02*
X-65990D01*
Y111210D01*
X-58470D01*
Y126730D01*
D02*
G37*
G36*
X111590Y126730D02*
X104070D01*
Y111210D01*
X111590D01*
Y126730D01*
D02*
G37*
G36*
X101530D02*
X94010D01*
Y111210D01*
X101530D01*
Y126730D01*
D02*
G37*
G36*
X31590D02*
X24070D01*
Y111210D01*
X31590D01*
Y126730D01*
D02*
G37*
G36*
X21530D02*
X14010D01*
Y111210D01*
X21530D01*
Y126730D01*
D02*
G37*
G36*
X-263875Y136494D02*
X-270145Y125634D01*
X-261883Y120864D01*
X-259778Y124511D01*
X-240036Y113113D01*
Y111711D01*
X-239295Y109921D01*
X-237925Y108551D01*
X-236135Y107809D01*
X-234198D01*
X-232408Y108551D01*
X-231038Y109921D01*
X-230296Y111711D01*
Y113648D01*
X-231038Y115438D01*
X-232408Y116808D01*
X-234198Y117549D01*
X-236135D01*
X-237925Y116808D01*
X-238025Y116708D01*
X-257718Y128078D01*
X-255613Y131724D01*
X-263875Y136494D01*
D02*
G37*
G36*
X196540Y115040D02*
X188770D01*
Y106020D01*
X196540D01*
Y115040D01*
D02*
G37*
G36*
X186230D02*
X178460D01*
Y106020D01*
X186230D01*
Y115040D01*
D02*
G37*
G36*
X318082Y108285D02*
X300173Y103487D01*
Y103487D01*
X300060Y103332D01*
X295906Y104111D01*
X295313Y106326D01*
X286098Y103856D01*
X289344Y91744D01*
X298559Y94213D01*
Y94213D01*
X301113Y93900D01*
X303419Y91374D01*
X304315Y88032D01*
X304338Y87945D01*
X304405Y87694D01*
X305404Y83965D01*
X301579Y82940D01*
X300490Y87007D01*
X291275Y84538D01*
X294520Y72425D01*
X303735Y74894D01*
X302645Y78961D01*
X306471Y79986D01*
X307470Y76257D01*
X307560Y75919D01*
X308456Y72577D01*
X308546Y72239D01*
X309063Y70309D01*
X308478Y69806D01*
X305666Y67689D01*
D01*
X296451Y65219D01*
X299697Y53107D01*
X308911Y55576D01*
X308318Y57790D01*
X311525Y60542D01*
X311701Y60465D01*
X311701Y60465D01*
X329610Y65263D01*
X326455Y77038D01*
X326364Y77376D01*
X325468Y80718D01*
X325378Y81056D01*
X322223Y92830D01*
X322223D01*
X321327Y96173D01*
X321304Y96260D01*
X321237Y96511D01*
X318082Y108285D01*
D02*
G37*
G36*
X196540Y103480D02*
X188770D01*
Y94460D01*
X196540D01*
Y103480D01*
D02*
G37*
G36*
X186230D02*
X178460D01*
Y94460D01*
X186230D01*
Y103480D01*
D02*
G37*
G36*
X64720Y143520D02*
X49680D01*
Y112480D01*
X54376D01*
Y105972D01*
X54376Y105972D01*
X54591Y104891D01*
X55203Y103975D01*
X61175Y98003D01*
X61175Y98003D01*
X62091Y97391D01*
X63172Y97176D01*
X63172Y97176D01*
X67230D01*
Y93730D01*
X76770D01*
Y106270D01*
X67230D01*
Y105050D01*
X63420Y103746D01*
X60024Y107142D01*
Y112480D01*
X64720D01*
Y143520D01*
D02*
G37*
G36*
X-15280D02*
X-30320D01*
Y112480D01*
X-25624D01*
Y105972D01*
X-25624Y105972D01*
X-25409Y104891D01*
X-24797Y103975D01*
X-18825Y98003D01*
X-18825Y98003D01*
X-17909Y97391D01*
X-16828Y97176D01*
X-16828Y97176D01*
X-12770D01*
Y93730D01*
X-3230D01*
Y106270D01*
X-12770D01*
Y105050D01*
X-16580Y103746D01*
X-19976Y107142D01*
Y112480D01*
X-15280D01*
Y143520D01*
D02*
G37*
G36*
X-95280D02*
X-110320D01*
Y112480D01*
X-105624D01*
Y105972D01*
X-105624Y105972D01*
X-105409Y104891D01*
X-104797Y103975D01*
X-98825Y98003D01*
X-98825Y98003D01*
X-97909Y97391D01*
X-96828Y97176D01*
X-96828Y97176D01*
X-92770D01*
Y93730D01*
X-83230D01*
Y106270D01*
X-92770D01*
Y105050D01*
X-96580Y103746D01*
X-99976Y107142D01*
Y112480D01*
X-95280D01*
Y143520D01*
D02*
G37*
G36*
X-318082Y108285D02*
X-321237Y96511D01*
X-321304Y96260D01*
X-321327Y96173D01*
X-322223Y92830D01*
X-322223D01*
X-325378Y81056D01*
X-325468Y80718D01*
X-326364Y77376D01*
X-329609Y65263D01*
X-311701Y60465D01*
X-311701Y60465D01*
X-311525Y60542D01*
X-308318Y57790D01*
X-308912Y55576D01*
X-299697Y53107D01*
X-296451Y65219D01*
X-305666Y67689D01*
D01*
X-308478Y69807D01*
X-309063Y70309D01*
X-308546Y72239D01*
X-308456Y72577D01*
X-307560Y75919D01*
X-306471Y79986D01*
X-302645Y78961D01*
X-303735Y74894D01*
X-294520Y72425D01*
X-291275Y84538D01*
X-300490Y87007D01*
X-301579Y82940D01*
X-305404Y83965D01*
X-304405Y87694D01*
X-304338Y87945D01*
X-304315Y88032D01*
X-303419Y91374D01*
X-301113Y93900D01*
X-298559Y94213D01*
Y94213D01*
X-289344Y91744D01*
X-286098Y103856D01*
X-295313Y106326D01*
X-295906Y104111D01*
X-300060Y103332D01*
X-300173Y103487D01*
Y103487D01*
X-318082Y108285D01*
D02*
G37*
G36*
X279858Y102185D02*
X270643Y99715D01*
X271733Y95648D01*
X249714Y89748D01*
X248723Y90740D01*
X246933Y91482D01*
X244995D01*
X243205Y90740D01*
X241835Y89370D01*
X241094Y87580D01*
Y85643D01*
X241835Y83853D01*
X243205Y82483D01*
X244995Y81742D01*
X246933D01*
X248723Y82483D01*
X250093Y83853D01*
X250834Y85643D01*
Y85784D01*
X272799Y91670D01*
X273889Y87603D01*
X283104Y90072D01*
X279858Y102185D01*
D02*
G37*
G36*
X-279858Y102184D02*
X-283104Y90072D01*
X-273889Y87603D01*
X-273518Y88988D01*
X-269503Y89251D01*
X-269411Y89029D01*
X-268041Y87659D01*
X-266251Y86918D01*
X-264314D01*
X-262524Y87659D01*
X-261154Y89029D01*
X-260413Y90819D01*
Y92757D01*
X-261154Y94546D01*
X-262524Y95916D01*
X-264314Y96658D01*
X-266251D01*
X-267676Y96067D01*
X-269058Y96742D01*
X-271014Y98331D01*
X-270643Y99715D01*
X-279858Y102184D01*
D02*
G37*
G36*
X285035Y82866D02*
X275820Y80397D01*
X276910Y76330D01*
X264550Y73018D01*
X263558Y74010D01*
X261768Y74751D01*
X259831D01*
X258041Y74010D01*
X256671Y72640D01*
X255930Y70850D01*
Y68912D01*
X256671Y67122D01*
X258041Y65753D01*
X259831Y65011D01*
X261768D01*
X263558Y65753D01*
X264928Y67122D01*
X265670Y68912D01*
Y69054D01*
X277976Y72351D01*
X279065Y68284D01*
X288280Y70753D01*
X285035Y82866D01*
D02*
G37*
G36*
X-285035Y82866D02*
X-288280Y70753D01*
X-279065Y68284D01*
X-278673Y69749D01*
X-275373Y71654D01*
X-265670Y69054D01*
Y68912D01*
X-264928Y67122D01*
X-263558Y65753D01*
X-261768Y65011D01*
X-259831D01*
X-258041Y65753D01*
X-256671Y67122D01*
X-255930Y68912D01*
Y70850D01*
X-256671Y72640D01*
X-258041Y74010D01*
X-259831Y74751D01*
X-261768D01*
X-263558Y74010D01*
X-264550Y73018D01*
X-276910Y76330D01*
X-275820Y80397D01*
X-285035Y82866D01*
D02*
G37*
G36*
X290211Y63548D02*
X280996Y61078D01*
X281367Y59694D01*
X279410Y58105D01*
X278029Y57430D01*
X276604Y58021D01*
X274667D01*
X272877Y57279D01*
X271507Y55909D01*
X270765Y54119D01*
Y52182D01*
X271507Y50392D01*
X272877Y49022D01*
X274667Y48281D01*
X276604D01*
X278394Y49022D01*
X279764Y50392D01*
X279856Y50614D01*
X283871Y50351D01*
X284242Y48966D01*
X293457Y51435D01*
X290211Y63548D01*
D02*
G37*
G36*
X108540Y60940D02*
X99770D01*
Y55170D01*
X108540D01*
Y60940D01*
D02*
G37*
G36*
X97230D02*
X88460D01*
Y55170D01*
X97230D01*
Y60940D01*
D02*
G37*
G36*
X-290211Y63548D02*
X-293457Y51435D01*
X-284242Y48966D01*
X-283152Y53033D01*
X-261187Y47147D01*
Y47006D01*
X-260445Y45216D01*
X-259076Y43846D01*
X-257286Y43104D01*
X-255348D01*
X-253558Y43846D01*
X-252188Y45216D01*
X-251447Y47006D01*
Y48943D01*
X-252188Y50733D01*
X-253558Y52103D01*
X-255348Y52844D01*
X-257286D01*
X-259076Y52103D01*
X-260067Y51111D01*
X-282086Y57011D01*
X-280996Y61078D01*
X-290211Y63548D01*
D02*
G37*
G36*
X150270Y113770D02*
X134730D01*
Y95730D01*
X139676D01*
Y66470D01*
X114930Y41724D01*
X110368D01*
X108027Y45534D01*
X108540Y46860D01*
X108540Y47954D01*
Y52630D01*
X98500D01*
X88460D01*
Y47954D01*
X88460Y46860D01*
X89730Y43576D01*
X89730Y43050D01*
Y33480D01*
X89730Y33130D01*
Y29670D01*
X89730Y29320D01*
Y18480D01*
X89730Y18130D01*
Y14670D01*
X89730Y14320D01*
Y3480D01*
X89730Y3130D01*
Y-330D01*
X86995Y-3276D01*
X77270D01*
X67824Y6170D01*
Y53830D01*
X89997Y76003D01*
X89997Y76003D01*
X90609Y76919D01*
X90824Y78000D01*
Y93730D01*
X92770D01*
Y106270D01*
X83230D01*
Y93730D01*
X85176D01*
Y79170D01*
X63003Y56997D01*
X62391Y56081D01*
X62176Y55000D01*
X62176Y55000D01*
Y22207D01*
X58366Y20628D01*
X10824Y68170D01*
Y93730D01*
X12770D01*
Y106270D01*
X3230D01*
Y93730D01*
X5176D01*
Y69207D01*
X1366Y67628D01*
X-33003Y101997D01*
X-33919Y102609D01*
X-35000Y102824D01*
X-35000Y102824D01*
X-67230D01*
Y106270D01*
X-76770D01*
Y93730D01*
X-67230D01*
Y97176D01*
X-36170D01*
X8003Y53003D01*
X8003Y53003D01*
X8004Y53003D01*
X52176Y8830D01*
Y-20000D01*
X52176Y-20000D01*
X52391Y-21081D01*
X53003Y-21997D01*
X69103Y-38097D01*
X69103Y-38097D01*
X70019Y-38709D01*
X71100Y-38924D01*
X86995D01*
X89730Y-41870D01*
Y-45330D01*
X89730Y-45680D01*
Y-56870D01*
X89730D01*
Y-60330D01*
X89730D01*
Y-71870D01*
X93877D01*
Y-111024D01*
X91500Y-113625D01*
X90230Y-113730D01*
X90125Y-115000D01*
X90125Y-115000D01*
X90125Y-117145D01*
Y-165134D01*
X90125Y-167000D01*
X90125Y-167000D01*
X90230Y-167253D01*
Y-168270D01*
X91500Y-168375D01*
X93365Y-168375D01*
X93366Y-168375D01*
X93997Y-168375D01*
X103431Y-168375D01*
X106530Y-171474D01*
X106710Y-175210D01*
X106710Y-176804D01*
Y-183730D01*
X115000D01*
X123290D01*
Y-176804D01*
X123290Y-175210D01*
X122125Y-171883D01*
X122125Y-171400D01*
Y-158265D01*
X122447Y-157508D01*
X123015Y-156707D01*
X124968Y-155156D01*
Y-142748D01*
X116111D01*
Y-144978D01*
X116233Y-145901D01*
X112624Y-147680D01*
X108375Y-143431D01*
X108375Y-116866D01*
X108375Y-115000D01*
X108375Y-115000D01*
X108270Y-114748D01*
Y-113730D01*
X107000Y-113625D01*
X104623Y-111249D01*
Y-71870D01*
X107270D01*
Y-68924D01*
X121076D01*
X121077Y-68924D01*
X122157Y-68709D01*
X123074Y-68097D01*
X126830Y-64341D01*
X127442Y-63425D01*
X127657Y-62344D01*
X131276Y-61424D01*
X142210D01*
X148814Y-68028D01*
Y-129655D01*
X147215Y-130317D01*
X145383Y-131723D01*
X143977Y-133555D01*
X143094Y-135689D01*
X142792Y-137978D01*
Y-144978D01*
X143094Y-147267D01*
X143977Y-149401D01*
X145383Y-151233D01*
X147215Y-152639D01*
X149349Y-153522D01*
X151638Y-153824D01*
X153927Y-153522D01*
X156061Y-152639D01*
X157893Y-151233D01*
X159299Y-149401D01*
X160182Y-147267D01*
X160484Y-144978D01*
Y-137978D01*
X160182Y-135689D01*
X159299Y-133555D01*
X157893Y-131723D01*
X156061Y-130317D01*
X154462Y-129655D01*
Y-66858D01*
X154462Y-66858D01*
X154247Y-65777D01*
X153635Y-64861D01*
X153635Y-64861D01*
X147374Y-58600D01*
X154297Y-51677D01*
X154297Y-51677D01*
X154909Y-50761D01*
X155124Y-49680D01*
X157814Y-47370D01*
X158570D01*
X158570Y-37830D01*
X162212Y-37424D01*
X163830D01*
X174214Y-47808D01*
Y-129208D01*
X168268D01*
Y-153748D01*
X185808D01*
Y-129208D01*
X179862D01*
Y-46638D01*
X179862Y-46638D01*
X179647Y-45557D01*
X179035Y-44641D01*
X179035Y-44641D01*
X166997Y-32603D01*
X166081Y-31991D01*
X165000Y-31776D01*
X165000Y-31776D01*
X162212D01*
X158570Y-31370D01*
X158570Y-27966D01*
Y-21830D01*
X155124D01*
Y-7300D01*
X154909Y-6219D01*
X154297Y-5303D01*
X154297Y-5303D01*
X145324Y3670D01*
Y16230D01*
X150270D01*
Y34270D01*
X134730D01*
Y28074D01*
X130920D01*
X120094Y38900D01*
X144497Y63303D01*
X144497Y63303D01*
X145109Y64219D01*
X145324Y65300D01*
X145324Y65300D01*
Y95730D01*
X150270D01*
Y113770D01*
D02*
G37*
G36*
X196540Y35540D02*
X188770D01*
Y26520D01*
X196540D01*
Y35540D01*
D02*
G37*
G36*
X186230D02*
X178460D01*
Y26520D01*
X186230D01*
Y35540D01*
D02*
G37*
G36*
X-303230Y26270D02*
X-312770D01*
Y23978D01*
X-316580Y22150D01*
X-316730Y22270D01*
Y22270D01*
X-335270D01*
Y10080D01*
X-335270Y9730D01*
Y6270D01*
X-335270Y5920D01*
Y-5920D01*
X-335270Y-6270D01*
Y-9730D01*
X-335270Y-10080D01*
Y-22270D01*
X-316730D01*
Y-22270D01*
X-316580Y-22150D01*
X-312770Y-23978D01*
Y-26270D01*
X-303230D01*
Y-13730D01*
X-312770D01*
Y-13730D01*
X-316034Y-12412D01*
X-316730Y-12078D01*
Y-10080D01*
X-316730Y-9730D01*
Y-6270D01*
X-316730Y-5920D01*
Y-2060D01*
X-312770D01*
Y-6270D01*
X-303230D01*
Y6270D01*
X-312770D01*
Y2060D01*
X-316730D01*
Y5920D01*
X-316730Y6270D01*
Y9730D01*
X-316730Y10080D01*
Y12078D01*
X-316034Y12412D01*
X-312770Y13730D01*
Y13730D01*
X-303230D01*
Y26270D01*
D02*
G37*
G36*
X296770D02*
X287230D01*
Y22060D01*
X264418Y22060D01*
X264129Y22759D01*
X262759Y24129D01*
X260969Y24870D01*
X259031D01*
X257241Y24129D01*
X255872Y22759D01*
X255130Y20969D01*
Y19031D01*
X255872Y17241D01*
X257241Y15871D01*
X259031Y15130D01*
X260969D01*
X262759Y15871D01*
X264129Y17241D01*
X264418Y17940D01*
X287230Y17940D01*
Y13730D01*
X296770D01*
Y26270D01*
D02*
G37*
G36*
X-287230Y26270D02*
X-296770D01*
Y13730D01*
X-287230D01*
Y15365D01*
X-286745Y15658D01*
X-283420Y16533D01*
X-282759Y15871D01*
X-280969Y15130D01*
X-279031D01*
X-277241Y15871D01*
X-275871Y17241D01*
X-275130Y19031D01*
Y20969D01*
X-275871Y22759D01*
X-277241Y24129D01*
X-279031Y24870D01*
X-280969D01*
X-282759Y24129D01*
X-283420Y23467D01*
X-286745Y24342D01*
X-286930Y24454D01*
X-287230Y24754D01*
Y26270D01*
D02*
G37*
G36*
X196540Y23980D02*
X188770D01*
Y14960D01*
X196540D01*
Y23980D01*
D02*
G37*
G36*
X186230D02*
X178460D01*
Y14960D01*
X186230D01*
Y23980D01*
D02*
G37*
G36*
X312770Y26270D02*
X303230D01*
Y13730D01*
X312770D01*
Y13730D01*
X316034Y12412D01*
X316730Y12078D01*
Y10080D01*
X316730Y9730D01*
X316730Y6270D01*
X316730Y5920D01*
Y2060D01*
X312770D01*
Y6270D01*
X303230D01*
Y-6270D01*
X312770D01*
Y-2060D01*
X316730D01*
Y-5920D01*
X316730Y-6270D01*
X316730Y-9730D01*
X316730Y-10080D01*
Y-12078D01*
X316034Y-12412D01*
X312770Y-13730D01*
Y-13730D01*
X303230D01*
Y-26270D01*
X312770D01*
Y-23978D01*
X316580Y-22150D01*
X316730Y-22270D01*
Y-22270D01*
X335270D01*
Y-10080D01*
X335270Y-9730D01*
X335270Y-6270D01*
X335270Y-5920D01*
Y5920D01*
X335270Y6270D01*
X335270Y9730D01*
X335270Y10080D01*
Y22270D01*
X316730D01*
Y22270D01*
X316580Y22150D01*
X312770Y23978D01*
Y26270D01*
D02*
G37*
G36*
X296770Y6270D02*
X287230D01*
Y2060D01*
X274418Y2060D01*
X274129Y2759D01*
X272759Y4129D01*
X270969Y4870D01*
X269031D01*
X267241Y4129D01*
X265871Y2759D01*
X265130Y969D01*
Y-969D01*
X265871Y-2759D01*
X267241Y-4129D01*
X269031Y-4870D01*
X270969D01*
X272759Y-4129D01*
X274129Y-2759D01*
X274418Y-2060D01*
X287230Y-2060D01*
Y-6270D01*
X296770D01*
Y6270D01*
D02*
G37*
G36*
X22540Y22540D02*
X1270D01*
Y1270D01*
X22540D01*
Y22540D01*
D02*
G37*
G36*
X-1270D02*
X-22540D01*
Y1270D01*
X-1270D01*
Y22540D01*
D02*
G37*
G36*
X-287230Y6270D02*
X-296770D01*
Y-6270D01*
X-287230D01*
Y-4754D01*
X-284536Y-2060D01*
X-274418Y-2060D01*
X-274129Y-2759D01*
X-272759Y-4129D01*
X-270969Y-4870D01*
X-269031D01*
X-267241Y-4129D01*
X-265871Y-2759D01*
X-265130Y-969D01*
Y969D01*
X-265871Y2759D01*
X-267241Y4129D01*
X-269031Y4870D01*
X-270969D01*
X-272759Y4129D01*
X-274129Y2759D01*
X-274418Y2060D01*
X-287230Y2060D01*
Y6270D01*
D02*
G37*
G36*
X296770Y-13730D02*
X287230D01*
Y-15365D01*
X286745Y-15659D01*
X283420Y-16533D01*
X282759Y-15871D01*
X280969Y-15130D01*
X279031D01*
X277241Y-15871D01*
X275871Y-17241D01*
X275130Y-19031D01*
Y-20969D01*
X275871Y-22759D01*
X277241Y-24129D01*
X279031Y-24870D01*
X280969D01*
X282759Y-24129D01*
X283420Y-23467D01*
X286745Y-24342D01*
X286930Y-24454D01*
X287230Y-24754D01*
Y-26270D01*
X296770D01*
Y-13730D01*
D02*
G37*
G36*
X22540Y-1270D02*
X1270D01*
Y-22540D01*
X22540D01*
Y-1270D01*
D02*
G37*
G36*
X-1270D02*
X-22540D01*
Y-22540D01*
X-1270D01*
Y-1270D01*
D02*
G37*
G36*
X-287230Y-13730D02*
X-296770D01*
Y-26270D01*
X-287230D01*
Y-22060D01*
X-264418Y-22060D01*
X-264129Y-22759D01*
X-262759Y-24129D01*
X-260969Y-24870D01*
X-259031D01*
X-257241Y-24129D01*
X-255872Y-22759D01*
X-255130Y-20969D01*
Y-19031D01*
X-255872Y-17241D01*
X-257241Y-15871D01*
X-259031Y-15130D01*
X-260969D01*
X-262759Y-15871D01*
X-264129Y-17241D01*
X-264418Y-17940D01*
X-287230Y-17940D01*
Y-13730D01*
D02*
G37*
G36*
X-274667Y-48281D02*
X-276604D01*
X-278394Y-49022D01*
X-279764Y-50392D01*
X-279856Y-50614D01*
X-283871Y-50351D01*
X-284242Y-48966D01*
X-293457Y-51435D01*
X-290211Y-63548D01*
X-280996Y-61078D01*
X-281367Y-59694D01*
X-279410Y-58105D01*
X-278029Y-57430D01*
X-276604Y-58021D01*
X-274667D01*
X-272877Y-57279D01*
X-271507Y-55909D01*
X-270765Y-54119D01*
Y-52182D01*
X-271507Y-50392D01*
X-272877Y-49022D01*
X-274667Y-48281D01*
D02*
G37*
G36*
X-299697Y-53107D02*
X-308911Y-55576D01*
X-308318Y-57790D01*
X-311525Y-60542D01*
X-311701Y-60465D01*
X-311701Y-60465D01*
X-329610Y-65263D01*
X-326455Y-77038D01*
X-326364Y-77376D01*
X-325468Y-80718D01*
X-325378Y-81056D01*
X-322313Y-92493D01*
X-321327Y-96173D01*
X-321237Y-96511D01*
X-318082Y-108285D01*
X-300173Y-103487D01*
Y-103487D01*
X-300060Y-103332D01*
X-295906Y-104111D01*
X-295313Y-106326D01*
X-286098Y-103856D01*
X-289344Y-91744D01*
X-298559Y-94213D01*
Y-94213D01*
X-302053Y-93785D01*
X-302811Y-93642D01*
X-303329Y-91712D01*
X-304315Y-88032D01*
X-304405Y-87694D01*
X-305404Y-83965D01*
X-301579Y-82940D01*
X-300490Y-87007D01*
X-291275Y-84538D01*
X-294520Y-72425D01*
X-303735Y-74894D01*
X-302645Y-78961D01*
X-306471Y-79986D01*
X-307470Y-76257D01*
X-307560Y-75919D01*
X-308456Y-72577D01*
X-308546Y-72239D01*
X-309063Y-70309D01*
X-308478Y-69806D01*
X-305666Y-67688D01*
D01*
X-296451Y-65219D01*
X-299697Y-53107D01*
D02*
G37*
G36*
X257285Y-43104D02*
X255348D01*
X253558Y-43846D01*
X252188Y-45216D01*
X251447Y-47006D01*
Y-48943D01*
X252188Y-50733D01*
X253558Y-52103D01*
X255348Y-52844D01*
X257285D01*
X259075Y-52103D01*
X260067Y-51111D01*
X282086Y-57011D01*
X280996Y-61079D01*
X290211Y-63548D01*
X293457Y-51435D01*
X284242Y-48966D01*
X283152Y-53033D01*
X261187Y-47147D01*
Y-47006D01*
X260445Y-45216D01*
X259075Y-43846D01*
X257285Y-43104D01*
D02*
G37*
G36*
X-259831Y-65011D02*
X-261768D01*
X-263558Y-65753D01*
X-264928Y-67122D01*
X-265670Y-68912D01*
Y-69054D01*
X-277976Y-72351D01*
X-279065Y-68284D01*
X-288280Y-70753D01*
X-285035Y-82866D01*
X-275820Y-80397D01*
X-276910Y-76330D01*
X-264550Y-73018D01*
X-263558Y-74010D01*
X-261768Y-74751D01*
X-259831D01*
X-258041Y-74010D01*
X-256671Y-72640D01*
X-255930Y-70850D01*
Y-68912D01*
X-256671Y-67122D01*
X-258041Y-65753D01*
X-259831Y-65011D01*
D02*
G37*
G36*
X-66460Y-67370D02*
X-75230D01*
Y-73140D01*
X-66460D01*
Y-67370D01*
D02*
G37*
G36*
X-77770D02*
X-86540D01*
Y-73140D01*
X-77770D01*
Y-67370D01*
D02*
G37*
G36*
X299697Y-53107D02*
X296451Y-65220D01*
X305666Y-67689D01*
D01*
X308478Y-69807D01*
X309063Y-70310D01*
X308546Y-72239D01*
X308456Y-72577D01*
X307560Y-75919D01*
X307470Y-76258D01*
X306470Y-79986D01*
X302645Y-78961D01*
X303735Y-74894D01*
X294520Y-72425D01*
X291275Y-84538D01*
X300490Y-87007D01*
X301579Y-82940D01*
X305404Y-83965D01*
X304405Y-87694D01*
X304315Y-88032D01*
X303419Y-91374D01*
X302812Y-93642D01*
X302053Y-93784D01*
X298559Y-94213D01*
Y-94213D01*
X289344Y-91744D01*
X286098Y-103857D01*
X295313Y-106326D01*
X295907Y-104112D01*
X300060Y-103332D01*
X300173Y-103487D01*
Y-103487D01*
X318082Y-108285D01*
X321237Y-96511D01*
X321327Y-96173D01*
X322223Y-92830D01*
X325378Y-81056D01*
X325468Y-80718D01*
X326364Y-77376D01*
X326455Y-77038D01*
X329609Y-65263D01*
X311701Y-60465D01*
X311701Y-60465D01*
X311526Y-60542D01*
X308319Y-57790D01*
X308912Y-55576D01*
X299697Y-53107D01*
D02*
G37*
G36*
X261768Y-65011D02*
X259831D01*
X258041Y-65753D01*
X256671Y-67122D01*
X255930Y-68912D01*
Y-70850D01*
X256671Y-72640D01*
X258041Y-74010D01*
X259831Y-74751D01*
X261768D01*
X263558Y-74010D01*
X264550Y-73018D01*
X276910Y-76330D01*
X275820Y-80397D01*
X285035Y-82866D01*
X288280Y-70753D01*
X279065Y-68284D01*
X277976Y-72351D01*
X265670Y-69054D01*
Y-68912D01*
X264928Y-67122D01*
X263558Y-65753D01*
X261768Y-65011D01*
D02*
G37*
G36*
X-244995Y-81741D02*
X-246933D01*
X-248723Y-82483D01*
X-250093Y-83853D01*
X-250834Y-85643D01*
Y-85784D01*
X-272799Y-91670D01*
X-273889Y-87603D01*
X-283104Y-90072D01*
X-279858Y-102184D01*
X-270643Y-99715D01*
X-271733Y-95648D01*
X-249714Y-89748D01*
X-248723Y-90740D01*
X-246933Y-91481D01*
X-244995D01*
X-243205Y-90740D01*
X-241835Y-89370D01*
X-241094Y-87580D01*
Y-85643D01*
X-241835Y-83853D01*
X-243205Y-82483D01*
X-244995Y-81741D01*
D02*
G37*
G36*
X266251Y-86918D02*
X264314D01*
X262524Y-87659D01*
X261154Y-89029D01*
X260413Y-90819D01*
Y-92757D01*
X261154Y-94546D01*
X262524Y-95916D01*
X264314Y-96658D01*
X266251D01*
X267677Y-96067D01*
X269057Y-96741D01*
X271015Y-98331D01*
X270644Y-99715D01*
X279859Y-102185D01*
X283104Y-90072D01*
X273889Y-87603D01*
X273518Y-88988D01*
X269503Y-89251D01*
X269411Y-89029D01*
X268041Y-87659D01*
X266251Y-86918D01*
D02*
G37*
G36*
X127508Y-128019D02*
Y-140208D01*
X136365D01*
Y-137978D01*
X136020Y-135357D01*
X135008Y-132915D01*
X133399Y-130817D01*
X131301Y-129208D01*
X128859Y-128196D01*
X127508Y-128019D01*
D02*
G37*
G36*
X124968D02*
X123617Y-128196D01*
X121175Y-129208D01*
X119077Y-130817D01*
X117468Y-132915D01*
X116456Y-135357D01*
X116111Y-137978D01*
Y-140208D01*
X124968D01*
Y-128019D01*
D02*
G37*
G36*
X136365Y-142748D02*
X127508D01*
Y-154937D01*
X128859Y-154760D01*
X131301Y-153748D01*
X133399Y-152139D01*
X135008Y-150041D01*
X136020Y-147599D01*
X136365Y-144978D01*
Y-142748D01*
D02*
G37*
G36*
X63290Y-155210D02*
X56270D01*
Y-163730D01*
X63290D01*
Y-155210D01*
D02*
G37*
G36*
X53730D02*
X46710D01*
Y-163730D01*
X53730D01*
Y-155210D01*
D02*
G37*
G36*
X78500Y-113625D02*
X76634Y-113625D01*
X63000D01*
X62747Y-113730D01*
X61730D01*
Y-114747D01*
X61625Y-115000D01*
Y-147500D01*
X61625Y-147500D01*
X62028Y-148472D01*
X71125Y-157569D01*
Y-167000D01*
X71230Y-167253D01*
Y-168270D01*
X72247D01*
X72500Y-168375D01*
X78500D01*
X78753Y-168270D01*
X79770D01*
Y-167253D01*
X79875Y-167000D01*
X79875Y-117497D01*
X79875Y-115000D01*
X79770Y-113730D01*
X78753Y-113730D01*
X78500Y-113625D01*
X78500Y-113625D01*
D02*
G37*
G36*
X-211163Y-178978D02*
X-213100D01*
X-214890Y-179719D01*
X-216260Y-181089D01*
X-217002Y-182879D01*
Y-183814D01*
X-219971Y-185547D01*
X-220522Y-185682D01*
X-221678Y-184526D01*
X-228424Y-191272D01*
X-219556Y-200139D01*
X-212811Y-193393D01*
X-213967Y-192237D01*
X-213831Y-191687D01*
X-212098Y-188717D01*
X-211163D01*
X-209373Y-187976D01*
X-208003Y-186606D01*
X-207262Y-184816D01*
Y-182879D01*
X-208003Y-181089D01*
X-209373Y-179719D01*
X-211163Y-178978D01*
D02*
G37*
G36*
X323489Y-159960D02*
X322592D01*
X318310Y-160638D01*
X314188Y-161978D01*
X310325Y-163946D01*
X306818Y-166493D01*
X303753Y-169559D01*
X301205Y-173066D01*
X299237Y-176928D01*
X297897Y-181051D01*
X297219Y-185332D01*
Y-186230D01*
X323489Y-186230D01*
X323489Y-159960D01*
D02*
G37*
G36*
X-322592D02*
X-323489D01*
X-323489Y-186230D01*
X-297219Y-186230D01*
Y-185332D01*
X-297897Y-181051D01*
X-299237Y-176928D01*
X-301205Y-173066D01*
X-303753Y-169559D01*
X-306818Y-166493D01*
X-310325Y-163946D01*
X-314188Y-161978D01*
X-318310Y-160638D01*
X-322592Y-159960D01*
D02*
G37*
G36*
X-326029D02*
X-326927D01*
X-331208Y-160638D01*
X-335331Y-161978D01*
X-339193Y-163946D01*
X-342700Y-166493D01*
X-345766Y-169559D01*
X-348314Y-173066D01*
X-350281Y-176928D01*
X-351621Y-181051D01*
X-352299Y-185332D01*
Y-186230D01*
X-326029Y-186230D01*
X-326029Y-159960D01*
D02*
G37*
G36*
X326927D02*
X326029D01*
X326029Y-186230D01*
X352299Y-186230D01*
Y-185332D01*
X351621Y-181051D01*
X350281Y-176928D01*
X348314Y-173066D01*
X345766Y-169559D01*
X342700Y-166493D01*
X339193Y-163946D01*
X335331Y-161978D01*
X331208Y-160638D01*
X326927Y-159960D01*
D02*
G37*
G36*
X123290Y-186270D02*
X116270D01*
Y-194790D01*
X123290D01*
Y-186270D01*
D02*
G37*
G36*
X113730D02*
X106710D01*
Y-194790D01*
X113730D01*
Y-186270D01*
D02*
G37*
G36*
X-189950Y-186049D02*
X-191887D01*
X-193677Y-186790D01*
X-195047Y-188160D01*
X-195789Y-189950D01*
Y-191887D01*
X-195499Y-192586D01*
X-204558Y-201646D01*
X-207536Y-198668D01*
X-214281Y-205414D01*
X-205414Y-214281D01*
X-198668Y-207536D01*
X-201646Y-204558D01*
X-192586Y-195499D01*
X-191887Y-195789D01*
X-189950D01*
X-188160Y-195047D01*
X-186790Y-193677D01*
X-186049Y-191887D01*
Y-189950D01*
X-186790Y-188160D01*
X-188160Y-186790D01*
X-189950Y-186049D01*
D02*
G37*
G36*
X198958Y-164835D02*
X197021D01*
X195231Y-165577D01*
X193861Y-166947D01*
X193120Y-168737D01*
Y-170674D01*
X193861Y-172464D01*
X195231Y-173834D01*
X197021Y-174575D01*
X198958D01*
X199657Y-174286D01*
X215788Y-190416D01*
X212811Y-193394D01*
X219557Y-200139D01*
X228424Y-191272D01*
X221678Y-184527D01*
X218701Y-187504D01*
X202570Y-171373D01*
X202860Y-170674D01*
Y-168737D01*
X202118Y-166947D01*
X200748Y-165577D01*
X198958Y-164835D01*
D02*
G37*
G36*
X-168737Y-193120D02*
X-170674D01*
X-172464Y-193861D01*
X-173834Y-195231D01*
X-174575Y-197021D01*
Y-198958D01*
X-174286Y-199657D01*
X-190416Y-215788D01*
X-193393Y-212811D01*
X-200139Y-219556D01*
X-191272Y-228424D01*
X-184526Y-221678D01*
X-187504Y-218701D01*
X-171373Y-202570D01*
X-170674Y-202860D01*
X-168737D01*
X-166947Y-202118D01*
X-165577Y-200748D01*
X-164835Y-198958D01*
Y-197021D01*
X-165577Y-195231D01*
X-166947Y-193861D01*
X-168737Y-193120D01*
D02*
G37*
G36*
X191887Y-186049D02*
X189950D01*
X188160Y-186790D01*
X186790Y-188160D01*
X186049Y-189950D01*
Y-191887D01*
X186790Y-193677D01*
X188160Y-195047D01*
X189950Y-195789D01*
X191887D01*
X192586Y-195499D01*
X201646Y-204559D01*
X198669Y-207536D01*
X205414Y-214281D01*
X214281Y-205414D01*
X207536Y-198668D01*
X204558Y-201646D01*
X195499Y-192586D01*
X195789Y-191887D01*
Y-189950D01*
X195047Y-188160D01*
X193677Y-186790D01*
X191887Y-186049D01*
D02*
G37*
G36*
X326029Y-188770D02*
X326029Y-215040D01*
X326927D01*
X331208Y-214362D01*
X335331Y-213022D01*
X339193Y-211054D01*
X342700Y-208506D01*
X345766Y-205441D01*
X348314Y-201934D01*
X350281Y-198071D01*
X351621Y-193949D01*
X352299Y-189667D01*
Y-188770D01*
X326029Y-188770D01*
D02*
G37*
G36*
X297219Y-188770D02*
Y-189667D01*
X297897Y-193949D01*
X299237Y-198071D01*
X301205Y-201934D01*
X303753Y-205441D01*
X306818Y-208506D01*
X310325Y-211054D01*
X314188Y-213022D01*
X318310Y-214362D01*
X322592Y-215040D01*
X323489D01*
X323489Y-188770D01*
X297219Y-188770D01*
D02*
G37*
G36*
X-297219D02*
X-323489Y-188770D01*
X-323489Y-215040D01*
X-322592D01*
X-318310Y-214362D01*
X-314188Y-213022D01*
X-310325Y-211054D01*
X-306818Y-208506D01*
X-303753Y-205441D01*
X-301205Y-201934D01*
X-299237Y-198071D01*
X-297897Y-193949D01*
X-297219Y-189667D01*
Y-188770D01*
D02*
G37*
G36*
X-326029Y-188770D02*
X-352299Y-188770D01*
Y-189667D01*
X-351621Y-193949D01*
X-350281Y-198071D01*
X-348314Y-201934D01*
X-345766Y-205441D01*
X-342700Y-208506D01*
X-339193Y-211054D01*
X-335331Y-213022D01*
X-331208Y-214362D01*
X-326927Y-215040D01*
X-326029D01*
X-326029Y-188770D01*
D02*
G37*
G36*
X232992Y-195840D02*
X224125Y-204707D01*
X230870Y-211453D01*
X232246Y-214693D01*
X232502Y-215422D01*
X231089Y-216834D01*
X230842Y-217082D01*
X228395Y-219528D01*
X228148Y-219776D01*
X225418Y-222505D01*
X222618Y-219705D01*
X225595Y-216728D01*
X218849Y-209982D01*
X209982Y-218849D01*
X216728Y-225595D01*
X219705Y-222618D01*
X222505Y-225418D01*
X219776Y-228148D01*
X219528Y-228395D01*
X217082Y-230842D01*
X216834Y-231089D01*
X215422Y-232502D01*
X214693Y-232246D01*
X211453Y-230870D01*
X204707Y-224125D01*
X195840Y-232992D01*
X202586Y-239737D01*
X204207Y-238117D01*
X208193Y-239518D01*
X208214Y-239709D01*
Y-239709D01*
X221324Y-252819D01*
X229944Y-244199D01*
X230191Y-243952D01*
X232638Y-241505D01*
X232885Y-241258D01*
X241257Y-232885D01*
X241505Y-232638D01*
X243952Y-230191D01*
X244199Y-229944D01*
X252819Y-221324D01*
X239709Y-208214D01*
X239709D01*
X239518Y-208193D01*
X238117Y-204207D01*
X239737Y-202586D01*
X232992Y-195840D01*
D02*
G37*
G36*
X-232992Y-195840D02*
X-239737Y-202586D01*
X-238116Y-204207D01*
X-239518Y-208193D01*
X-239709Y-208214D01*
X-239709D01*
X-252819Y-221324D01*
X-244199Y-229944D01*
X-243952Y-230191D01*
X-241505Y-232638D01*
X-241257Y-232885D01*
X-232885Y-241257D01*
X-232638Y-241505D01*
X-230191Y-243952D01*
X-229944Y-244199D01*
X-221324Y-252819D01*
X-208214Y-239709D01*
Y-239709D01*
X-208193Y-239518D01*
X-204207Y-238116D01*
X-202586Y-239737D01*
X-195840Y-232992D01*
X-204707Y-224124D01*
X-211453Y-230870D01*
X-214693Y-232246D01*
X-215421Y-232502D01*
X-216834Y-231089D01*
X-217082Y-230842D01*
X-219528Y-228395D01*
X-219776Y-228148D01*
X-222505Y-225418D01*
X-219705Y-222618D01*
X-216728Y-225595D01*
X-209982Y-218849D01*
X-218849Y-209982D01*
X-225595Y-216728D01*
X-222618Y-219705D01*
X-225418Y-222505D01*
X-228148Y-219776D01*
X-228395Y-219528D01*
X-230842Y-217082D01*
X-231089Y-216834D01*
X-232502Y-215421D01*
X-232246Y-214693D01*
X-230870Y-211453D01*
X-224124Y-204707D01*
X-232992Y-195840D01*
D02*
G37*
G36*
X184816Y-207262D02*
X182879D01*
X181089Y-208003D01*
X179719Y-209373D01*
X178978Y-211163D01*
Y-213100D01*
X179719Y-214890D01*
X181089Y-216260D01*
X182879Y-217002D01*
X183815D01*
X185547Y-219970D01*
X185599Y-220181D01*
Y-220606D01*
X184527Y-221678D01*
X191272Y-228424D01*
X200140Y-219557D01*
X193394Y-212811D01*
X192237Y-213967D01*
X191686Y-213831D01*
X188717Y-212099D01*
Y-211163D01*
X187976Y-209373D01*
X186606Y-208003D01*
X184816Y-207262D01*
D02*
G37*
G36*
X-156352Y-227617D02*
X-158289D01*
X-160079Y-228358D01*
X-161449Y-229728D01*
X-162190Y-231518D01*
Y-233456D01*
X-162099Y-233677D01*
X-165124Y-236330D01*
X-166365Y-235613D01*
X-171135Y-243875D01*
X-160275Y-250145D01*
X-155505Y-241883D01*
X-156746Y-241167D01*
X-156487Y-238659D01*
X-155987Y-237206D01*
X-154562Y-236615D01*
X-153192Y-235245D01*
X-152450Y-233456D01*
Y-231518D01*
X-153192Y-229728D01*
X-154562Y-228358D01*
X-156352Y-227617D01*
D02*
G37*
G36*
X-134031Y-228957D02*
X-135969D01*
X-137759Y-229698D01*
X-139128Y-231068D01*
X-139870Y-232858D01*
Y-234795D01*
X-139128Y-236585D01*
X-139028Y-236685D01*
X-145399Y-247718D01*
X-149045Y-245613D01*
X-153815Y-253875D01*
X-142955Y-260145D01*
X-138185Y-251883D01*
X-141831Y-249778D01*
X-135433Y-238697D01*
X-134031D01*
X-132241Y-237955D01*
X-130871Y-236585D01*
X-130130Y-234795D01*
Y-232858D01*
X-130871Y-231068D01*
X-132241Y-229698D01*
X-134031Y-228957D01*
D02*
G37*
G36*
X148289Y-210296D02*
X146352D01*
X144562Y-211038D01*
X143192Y-212408D01*
X142450Y-214198D01*
Y-216135D01*
X143192Y-217925D01*
X144562Y-219295D01*
X146352Y-220036D01*
X147754D01*
X159152Y-239778D01*
X155506Y-241883D01*
X160275Y-250145D01*
X171136Y-243875D01*
X166366Y-235613D01*
X162719Y-237719D01*
X151349Y-218025D01*
X151449Y-217925D01*
X152190Y-216135D01*
Y-214198D01*
X151449Y-212408D01*
X150079Y-211038D01*
X148289Y-210296D01*
D02*
G37*
G36*
X-111711Y-230296D02*
X-113648D01*
X-115438Y-231038D01*
X-116808Y-232408D01*
X-117549Y-234198D01*
Y-236135D01*
X-116808Y-237925D01*
X-116708Y-238025D01*
X-128078Y-257719D01*
X-131724Y-255613D01*
X-136494Y-263875D01*
X-125634Y-270145D01*
X-120864Y-261883D01*
X-124511Y-259778D01*
X-113113Y-240036D01*
X-111711D01*
X-109921Y-239295D01*
X-108551Y-237925D01*
X-107809Y-236135D01*
Y-234198D01*
X-108551Y-232408D01*
X-109921Y-231038D01*
X-111711Y-230296D01*
D02*
G37*
G36*
X135969Y-228957D02*
X134031D01*
X132241Y-229698D01*
X130871Y-231068D01*
X130130Y-232858D01*
Y-234795D01*
X130871Y-236585D01*
X132241Y-237955D01*
X134031Y-238697D01*
X135433D01*
X141831Y-249778D01*
X138185Y-251883D01*
X142955Y-260145D01*
X153815Y-253875D01*
X149045Y-245613D01*
X145398Y-247719D01*
X139028Y-236685D01*
X139128Y-236585D01*
X139870Y-234795D01*
Y-232858D01*
X139128Y-231068D01*
X137758Y-229698D01*
X135969Y-228957D01*
D02*
G37*
G36*
X123648Y-247617D02*
X121711D01*
X119921Y-248358D01*
X118551Y-249728D01*
X117809Y-251518D01*
Y-253456D01*
X118551Y-255245D01*
X119921Y-256615D01*
X121346Y-257206D01*
X121846Y-258659D01*
X122106Y-261167D01*
X120865Y-261883D01*
X125635Y-270145D01*
X136495Y-263875D01*
X131725Y-255613D01*
X130482Y-256331D01*
X127457Y-253678D01*
X127549Y-253456D01*
Y-251518D01*
X126808Y-249728D01*
X125438Y-248358D01*
X123648Y-247617D01*
D02*
G37*
G36*
X-90819Y-260413D02*
X-92757D01*
X-94546Y-261154D01*
X-95916Y-262524D01*
X-96658Y-264314D01*
Y-266251D01*
X-96067Y-267677D01*
X-96742Y-269058D01*
X-98331Y-271014D01*
X-99715Y-270643D01*
X-102184Y-279858D01*
X-90072Y-283104D01*
X-87603Y-273889D01*
X-88988Y-273518D01*
X-89251Y-269503D01*
X-89029Y-269411D01*
X-87659Y-268041D01*
X-86918Y-266251D01*
Y-264314D01*
X-87659Y-262524D01*
X-89029Y-261154D01*
X-90819Y-260413D01*
D02*
G37*
G36*
X174365Y-249470D02*
X163505Y-255740D01*
X168275Y-264002D01*
X168766Y-267488D01*
X168825Y-268257D01*
X167094Y-269256D01*
X166791Y-269431D01*
X163795Y-271161D01*
X163492Y-271336D01*
X160149Y-273266D01*
X158168Y-269837D01*
X161815Y-267732D01*
X157045Y-259470D01*
X146185Y-265740D01*
X150955Y-274002D01*
X154601Y-271896D01*
X156581Y-275326D01*
X153238Y-277256D01*
X152935Y-277431D01*
X149938Y-279161D01*
X149635Y-279336D01*
X147905Y-280335D01*
X147268Y-279899D01*
X144494Y-277732D01*
X139725Y-269470D01*
X128864Y-275740D01*
X133635Y-284002D01*
X135619Y-282856D01*
X139108Y-285241D01*
X139079Y-285431D01*
X139079Y-285431D01*
X148349Y-301487D01*
X158905Y-295392D01*
X159208Y-295217D01*
X162205Y-293487D01*
X162508Y-293312D01*
X172762Y-287392D01*
X173065Y-287217D01*
X176061Y-285487D01*
X176364Y-285312D01*
X186921Y-279217D01*
X177651Y-263161D01*
X177651D01*
X177472Y-263091D01*
X177150Y-258878D01*
X179135Y-257732D01*
X174365Y-249470D01*
D02*
G37*
G36*
X-68912Y-255930D02*
X-70850D01*
X-72640Y-256671D01*
X-74010Y-258041D01*
X-74751Y-259831D01*
Y-261768D01*
X-74010Y-263558D01*
X-73018Y-264550D01*
X-76330Y-276910D01*
X-80397Y-275820D01*
X-82866Y-285035D01*
X-70753Y-288280D01*
X-68284Y-279065D01*
X-69749Y-278673D01*
X-71654Y-275373D01*
X-69054Y-265670D01*
X-68912D01*
X-67122Y-264928D01*
X-65753Y-263558D01*
X-65011Y-261768D01*
Y-259831D01*
X-65753Y-258041D01*
X-67122Y-256671D01*
X-68912Y-255930D01*
D02*
G37*
G36*
X-47006Y-251447D02*
X-48943D01*
X-50733Y-252188D01*
X-52103Y-253558D01*
X-52844Y-255348D01*
Y-257285D01*
X-52103Y-259076D01*
X-51111Y-260067D01*
X-57011Y-282086D01*
X-61078Y-280996D01*
X-63548Y-290211D01*
X-51435Y-293457D01*
X-48966Y-284242D01*
X-53033Y-283152D01*
X-47147Y-261187D01*
X-47006D01*
X-45216Y-260445D01*
X-43846Y-259076D01*
X-43104Y-257285D01*
Y-255348D01*
X-43846Y-253558D01*
X-45216Y-252188D01*
X-47006Y-251447D01*
D02*
G37*
G36*
X87580Y-241094D02*
X85643D01*
X83853Y-241835D01*
X82483Y-243205D01*
X81741Y-244995D01*
Y-246933D01*
X82483Y-248723D01*
X83853Y-250093D01*
X85643Y-250834D01*
X85784D01*
X91670Y-272799D01*
X87603Y-273889D01*
X90072Y-283104D01*
X102184Y-279858D01*
X99715Y-270643D01*
X95648Y-271733D01*
X89748Y-249714D01*
X90740Y-248723D01*
X91481Y-246933D01*
Y-244995D01*
X90740Y-243205D01*
X89370Y-241835D01*
X87580Y-241094D01*
D02*
G37*
G36*
X-174365Y-249470D02*
X-179135Y-257731D01*
X-177150Y-258878D01*
X-177472Y-263091D01*
X-177651Y-263161D01*
X-177651D01*
X-186921Y-279217D01*
X-176364Y-285312D01*
X-176061Y-285487D01*
X-173065Y-287217D01*
X-172762Y-287392D01*
X-162508Y-293312D01*
X-162205Y-293487D01*
X-159208Y-295217D01*
X-148349Y-301487D01*
X-139079Y-285431D01*
X-139079Y-285431D01*
X-139108Y-285241D01*
X-135619Y-282855D01*
X-133634Y-284002D01*
X-128864Y-275740D01*
X-139724Y-269470D01*
X-144494Y-277731D01*
X-147268Y-279899D01*
X-147905Y-280335D01*
X-149635Y-279336D01*
X-149938Y-279161D01*
X-152935Y-277431D01*
X-156581Y-275326D01*
X-154601Y-271896D01*
X-150955Y-274002D01*
X-146185Y-265740D01*
X-157045Y-259470D01*
X-161815Y-267731D01*
X-158168Y-269837D01*
X-160149Y-273266D01*
X-163492Y-271336D01*
X-163795Y-271161D01*
X-166791Y-269431D01*
X-167094Y-269256D01*
X-168825Y-268257D01*
X-168766Y-267487D01*
X-168275Y-264002D01*
X-163505Y-255740D01*
X-174365Y-249470D01*
D02*
G37*
G36*
X70850Y-255930D02*
X68912D01*
X67122Y-256671D01*
X65753Y-258041D01*
X65011Y-259831D01*
Y-261768D01*
X65753Y-263558D01*
X67122Y-264928D01*
X68912Y-265670D01*
X69054D01*
X72351Y-277976D01*
X68284Y-279065D01*
X70753Y-288280D01*
X82866Y-285035D01*
X80397Y-275820D01*
X76330Y-276910D01*
X73018Y-264550D01*
X74010Y-263558D01*
X74751Y-261768D01*
Y-259831D01*
X74010Y-258041D01*
X72640Y-256671D01*
X70850Y-255930D01*
D02*
G37*
G36*
X54119Y-270765D02*
X52182D01*
X50392Y-271507D01*
X49022Y-272877D01*
X48281Y-274667D01*
Y-276604D01*
X49022Y-278394D01*
X50392Y-279764D01*
X50614Y-279856D01*
X50351Y-283871D01*
X48966Y-284242D01*
X51435Y-293457D01*
X63548Y-290211D01*
X61078Y-280996D01*
X59694Y-281367D01*
X58105Y-279410D01*
X57430Y-278029D01*
X58021Y-276604D01*
Y-274667D01*
X57279Y-272877D01*
X55909Y-271507D01*
X54119Y-270765D01*
D02*
G37*
G36*
X969Y-265130D02*
X-969D01*
X-2759Y-265871D01*
X-4129Y-267241D01*
X-4870Y-269031D01*
Y-270968D01*
X-4129Y-272758D01*
X-2759Y-274128D01*
X-2060Y-274418D01*
X-2060Y-287230D01*
X-6270D01*
Y-296770D01*
X6270D01*
Y-287230D01*
X2060D01*
X2060Y-274418D01*
X2759Y-274128D01*
X4129Y-272758D01*
X4870Y-270968D01*
Y-269031D01*
X4129Y-267241D01*
X2759Y-265871D01*
X969Y-265130D01*
D02*
G37*
G36*
X20969Y-255130D02*
X19031D01*
X17241Y-255871D01*
X15871Y-257241D01*
X15130Y-259031D01*
Y-260968D01*
X15871Y-262758D01*
X17241Y-264128D01*
X17940Y-264418D01*
X17940Y-287230D01*
X13730D01*
Y-296770D01*
X26270D01*
Y-287230D01*
X22060D01*
X22060Y-264418D01*
X22759Y-264128D01*
X24129Y-262758D01*
X24870Y-260968D01*
Y-259031D01*
X24129Y-257241D01*
X22759Y-255871D01*
X20969Y-255130D01*
D02*
G37*
G36*
X-19031Y-275130D02*
X-20969D01*
X-22759Y-275871D01*
X-24129Y-277241D01*
X-24870Y-279031D01*
Y-280968D01*
X-24129Y-282758D01*
X-23467Y-283420D01*
X-24341Y-286744D01*
X-24453Y-286930D01*
X-24754Y-287230D01*
X-26270D01*
Y-296770D01*
X-13730D01*
Y-287230D01*
X-15365D01*
X-15659Y-286744D01*
X-16533Y-283420D01*
X-15871Y-282758D01*
X-15130Y-280968D01*
Y-279031D01*
X-15871Y-277241D01*
X-17241Y-275871D01*
X-19031Y-275130D01*
D02*
G37*
G36*
X103856Y-286098D02*
X91744Y-289344D01*
X94213Y-298559D01*
X94213D01*
X93900Y-301113D01*
X91374Y-303419D01*
X88032Y-304315D01*
X87945Y-304338D01*
X87694Y-304405D01*
X83965Y-305404D01*
X82940Y-301579D01*
X87007Y-300490D01*
X84538Y-291275D01*
X72425Y-294520D01*
X74894Y-303735D01*
X78961Y-302645D01*
X79986Y-306471D01*
X76257Y-307470D01*
X75919Y-307560D01*
X72577Y-308456D01*
X72239Y-308546D01*
X70309Y-309063D01*
X69806Y-308478D01*
X67689Y-305666D01*
D01*
X65219Y-296451D01*
X53107Y-299697D01*
X55576Y-308911D01*
X57790Y-308318D01*
X60542Y-311525D01*
X60465Y-311701D01*
X60465Y-311701D01*
X65263Y-329610D01*
X77038Y-326455D01*
X77376Y-326364D01*
X80718Y-325468D01*
X81056Y-325378D01*
X92830Y-322223D01*
Y-322223D01*
X96173Y-321327D01*
X96260Y-321304D01*
X96511Y-321237D01*
X108285Y-318082D01*
X103487Y-300173D01*
X103487D01*
X103332Y-300060D01*
X104111Y-295906D01*
X106326Y-295313D01*
X103856Y-286098D01*
D02*
G37*
G36*
X-103856Y-286098D02*
X-106326Y-295313D01*
X-104111Y-295906D01*
X-103332Y-300060D01*
X-103487Y-300173D01*
X-103487D01*
X-108285Y-318082D01*
X-96511Y-321237D01*
X-96173Y-321327D01*
X-92830Y-322223D01*
X-92492Y-322313D01*
X-81056Y-325378D01*
X-80718Y-325468D01*
X-77376Y-326364D01*
X-77038Y-326455D01*
X-65263Y-329610D01*
X-60465Y-311701D01*
X-60465Y-311701D01*
X-60542Y-311525D01*
X-57790Y-308318D01*
X-55576Y-308911D01*
X-53107Y-299697D01*
X-65219Y-296451D01*
X-67689Y-305666D01*
D01*
X-69806Y-308478D01*
X-70309Y-309063D01*
X-72239Y-308546D01*
X-72577Y-308456D01*
X-75919Y-307560D01*
X-76257Y-307470D01*
X-79986Y-306471D01*
X-78961Y-302645D01*
X-74894Y-303735D01*
X-72425Y-294520D01*
X-84538Y-291275D01*
X-87007Y-300490D01*
X-82940Y-301579D01*
X-83965Y-305404D01*
X-87694Y-304405D01*
X-88032Y-304315D01*
X-91374Y-303419D01*
X-91712Y-303328D01*
X-93642Y-302811D01*
X-93785Y-302053D01*
X-94213Y-298559D01*
X-94213D01*
X-91744Y-289344D01*
X-103856Y-286098D01*
D02*
G37*
G36*
X6270Y-303230D02*
X-6270D01*
Y-312770D01*
X-2060D01*
Y-316730D01*
X-5920D01*
X-6270Y-316730D01*
X-9730D01*
X-10080Y-316730D01*
X-12078D01*
X-12412Y-316034D01*
X-13730Y-312770D01*
X-13730D01*
Y-303230D01*
X-26270D01*
Y-312770D01*
X-23978D01*
X-22150Y-316580D01*
X-22270Y-316730D01*
X-22270D01*
Y-335270D01*
X-10080D01*
X-9730Y-335270D01*
X-6270D01*
X-5920Y-335270D01*
X5920D01*
X6270Y-335270D01*
X9730Y-335270D01*
X10080Y-335270D01*
X22270D01*
Y-316730D01*
X22270D01*
X22150Y-316580D01*
X23978Y-312770D01*
X26270D01*
Y-303230D01*
X13730D01*
Y-312770D01*
X13730D01*
X12412Y-316034D01*
X12078Y-316730D01*
X10080D01*
X9730Y-316730D01*
X6270Y-316730D01*
X5920Y-316730D01*
X2060D01*
Y-312770D01*
X6270D01*
Y-303230D01*
D02*
G37*
G36*
X-31730Y-379566D02*
Y-388730D01*
X-25899D01*
Y-386500D01*
X-26141Y-384662D01*
X-26851Y-382950D01*
X-27979Y-381479D01*
X-29450Y-380351D01*
X-31162Y-379641D01*
X-31730Y-379566D01*
D02*
G37*
G36*
X34270D02*
Y-388730D01*
X40101D01*
Y-386500D01*
X39859Y-384662D01*
X39149Y-382950D01*
X38021Y-381479D01*
X36550Y-380351D01*
X34838Y-379641D01*
X34270Y-379566D01*
D02*
G37*
G36*
X31730D02*
X31162Y-379641D01*
X29450Y-380351D01*
X27979Y-381479D01*
X26851Y-382950D01*
X26141Y-384662D01*
X25899Y-386500D01*
Y-388730D01*
X31730D01*
Y-379566D01*
D02*
G37*
G36*
X-34270D02*
X-34838Y-379641D01*
X-36550Y-380351D01*
X-38021Y-381479D01*
X-39149Y-382950D01*
X-39859Y-384662D01*
X-40101Y-386500D01*
Y-388730D01*
X-34270D01*
Y-379566D01*
D02*
G37*
G36*
X-25899Y-391270D02*
X-31730D01*
Y-400434D01*
X-31162Y-400359D01*
X-29450Y-399649D01*
X-27979Y-398521D01*
X-26851Y-397050D01*
X-26141Y-395338D01*
X-25899Y-393500D01*
Y-391270D01*
D02*
G37*
G36*
X31730D02*
X25899D01*
Y-393500D01*
X26141Y-395338D01*
X26851Y-397050D01*
X27979Y-398521D01*
X29450Y-399649D01*
X31162Y-400359D01*
X31730Y-400434D01*
Y-391270D01*
D02*
G37*
G36*
X40101D02*
X34270D01*
Y-400434D01*
X34838Y-400359D01*
X36550Y-399649D01*
X38021Y-398521D01*
X39149Y-397050D01*
X39859Y-395338D01*
X40101Y-393500D01*
Y-391270D01*
D02*
G37*
G36*
X-34270D02*
X-40101D01*
Y-393500D01*
X-39859Y-395338D01*
X-39149Y-397050D01*
X-38021Y-398521D01*
X-36550Y-399649D01*
X-34838Y-400359D01*
X-34270Y-400434D01*
Y-391270D01*
D02*
G37*
%LPD*%
G36*
X66000Y-183000D02*
X78500Y-183000D01*
Y-193000D01*
X80500Y-195000D01*
X90000Y-195000D01*
X91500Y-193500D01*
Y-183000D01*
X97500D01*
Y-197500D01*
X90000Y-205000D01*
X55000D01*
X49250Y-199250D01*
Y-177750D01*
X60750D01*
X66000Y-183000D01*
D02*
G37*
G36*
X107000Y-144000D02*
X120750Y-157750D01*
Y-172250D01*
X109250Y-172250D01*
X104000Y-167000D01*
X91500Y-167000D01*
Y-115000D01*
X91500Y-115000D01*
X107000Y-115000D01*
X107000Y-144000D01*
D02*
G37*
G36*
X78500Y-167000D02*
X72500D01*
Y-157000D01*
X63000Y-147500D01*
Y-115000D01*
X78500D01*
X78500Y-167000D01*
D02*
G37*
D10*
X50000Y-370000D02*
G03*
X88955Y-389983I29469J9486D01*
G01*
X117954Y382213D02*
G03*
X103527Y386370I-117954J-382213D01*
G01*
X186859Y353671D02*
G03*
X117954Y382213I-186859J-353671D01*
G01*
X200000Y346410D02*
G03*
X186859Y353671I-200000J-346410D01*
G01*
X212859Y338660D02*
G03*
X200000Y346410I-212859J-338660D01*
G01*
X272029Y293258D02*
G03*
X212859Y338660I-272029J-293258D01*
G01*
X282842Y282843D02*
G03*
X272029Y293258I-282842J-282843D01*
G01*
X293258Y272029D02*
G03*
X282842Y282843I-293258J-272029D01*
G01*
X338660Y212859D02*
G03*
X293258Y272029I-338660J-212859D01*
G01*
X346410Y200000D02*
G03*
X338660Y212859I-346410J-200000D01*
G01*
X353671Y186859D02*
G03*
X346410Y200000I-353671J-186859D01*
G01*
X382213Y117954D02*
G03*
X353671Y186859I-382213J-117954D01*
G01*
X386370Y103528D02*
G03*
X382213Y117954I-386370J-103528D01*
G01*
X389983Y88955D02*
G03*
X386370Y103528I-389983J-88955D01*
G01*
X399718Y15011D02*
G03*
X389983Y88955I-399718J-15011D01*
G01*
X400000Y0D02*
G03*
X399718Y15011I-400000J-0D01*
G01*
Y-15011D02*
G03*
X400000Y0I-399718J15011D01*
G01*
X389983Y-88955D02*
G03*
X399718Y-15011I-389983J88955D01*
G01*
X386370Y-103527D02*
G03*
X389983Y-88955I-386370J103527D01*
G01*
X272029Y-293258D02*
G03*
X282842Y-282842I-272029J293258D01*
G01*
X282842Y-282842D02*
G03*
X278931Y-223077I-31839J27927D01*
G01*
X332655Y-130023D02*
G03*
X278931Y-223077I-7897J-57477D01*
G01*
X332655Y-130023D02*
G03*
X386370Y-103527I13609J40105D01*
G01*
X-88955Y-389983D02*
G03*
X-50000Y-370000I9486J29469D01*
G01*
X-30000Y-350000D02*
G03*
X-49038Y-363872I-0J-20000D01*
G01*
X-49038Y-363872D02*
G03*
X-50000Y-370000I19038J-6128D01*
G01*
X-103528Y-386370D02*
G03*
X-88955Y-389983I103527J386370D01*
G01*
X212859Y-338660D02*
G03*
X272029Y-293258I-212859J338660D01*
G01*
X200000Y-346410D02*
G03*
X212859Y-338660I-200000J346410D01*
G01*
X186859Y-353671D02*
G03*
X200000Y-346410I-186859J353671D01*
G01*
X117954Y-382213D02*
G03*
X186859Y-353671I-117954J382213D01*
G01*
X103528Y-386370D02*
G03*
X117954Y-382213I-103528J386370D01*
G01*
X88955Y-389983D02*
G03*
X103528Y-386370I-88955J389983D01*
G01*
X-117954Y-382213D02*
G03*
X-103527Y-386370I117954J382213D01*
G01*
X-186859Y-353671D02*
G03*
X-117954Y-382213I186859J353671D01*
G01*
X-200000Y-346410D02*
G03*
X-186859Y-353671I200000J346410D01*
G01*
X-212859Y-338660D02*
G03*
X-200000Y-346410I212859J338660D01*
G01*
X-272029Y-293258D02*
G03*
X-212859Y-338660I272029J293258D01*
G01*
X-282842Y-282843D02*
G03*
X-272029Y-293258I282842J282843D01*
G01*
X-103527Y386370D02*
G03*
X-386370Y-103527I103527J-386370D01*
G01*
D02*
G03*
X-332656Y-130023I40105J13609D01*
G01*
X-278931Y-223077D02*
G03*
X-332656Y-130023I-45828J35577D01*
G01*
X-278931Y-223077D02*
G03*
X-282842Y-282842I27927J-31839D01*
G01*
X37651Y-312651D02*
Y-237528D01*
X55000Y-220179D01*
Y-185000D01*
X-15000Y-350000D02*
X0D01*
X13000D01*
X50000Y-370000D02*
Y-350000D01*
X37651Y-312651D02*
X50000Y-325000D01*
Y-350000D02*
Y-325000D01*
X15000Y-350000D02*
X50000D01*
X13000D02*
X15000D01*
X-30000D02*
X-15000D01*
D11*
X253144Y-275771D02*
D03*
X264458Y-264458D02*
D03*
X275771Y-253144D02*
D03*
X241830Y-219203D02*
D03*
X230517Y-230517D02*
D03*
X219203Y-241830D02*
D03*
X-219203Y241830D02*
D03*
X-230517Y230517D02*
D03*
X-241830Y219203D02*
D03*
X-275771Y253144D02*
D03*
X-264458Y264458D02*
D03*
X-253144Y275771D02*
D03*
D12*
X-56257Y-287227D02*
D03*
X-60398Y-302681D02*
D03*
X-94894Y-276874D02*
D03*
X-99035Y-292328D02*
D03*
X56257Y287226D02*
D03*
X60398Y302681D02*
D03*
X75575Y282050D02*
D03*
X79716Y297505D02*
D03*
X-75575Y-282050D02*
D03*
X-79716Y-297505D02*
D03*
X94894Y276874D02*
D03*
X99035Y292328D02*
D03*
D13*
X-128679Y-262879D02*
D03*
X-136679Y-276736D02*
D03*
X128680Y262879D02*
D03*
X136679Y276736D02*
D03*
X146000Y252879D02*
D03*
X154000Y266736D02*
D03*
X163320Y242879D02*
D03*
X171320Y256736D02*
D03*
X-146000Y-252879D02*
D03*
X-154000Y-266736D02*
D03*
X-163320Y-242879D02*
D03*
X-171320Y-256736D02*
D03*
D14*
X-276874Y94894D02*
D03*
X-292328Y99035D02*
D03*
X-287226Y56257D02*
D03*
X-302681Y60398D02*
D03*
X-282050Y75575D02*
D03*
X-297505Y79716D02*
D03*
X282050Y-75575D02*
D03*
X297505Y-79716D02*
D03*
X276874Y-94894D02*
D03*
X292329Y-99035D02*
D03*
X287227Y-56257D02*
D03*
X302682Y-60398D02*
D03*
D15*
X-192333Y220617D02*
D03*
X-203647Y231931D02*
D03*
X-220617Y192333D02*
D03*
X-231931Y203647D02*
D03*
X-206475Y206475D02*
D03*
X-217789Y217789D02*
D03*
X220617Y-192333D02*
D03*
X231931Y-203647D02*
D03*
X192333Y-220617D02*
D03*
X203647Y-231931D02*
D03*
X206475Y-206475D02*
D03*
X217789Y-217789D02*
D03*
D16*
X-94894Y276874D02*
D03*
X-99035Y292328D02*
D03*
X-56257Y287227D02*
D03*
X-60398Y302681D02*
D03*
X-75575Y282050D02*
D03*
X-79716Y297505D02*
D03*
X94894Y-276874D02*
D03*
X99035Y-292328D02*
D03*
X75575Y-282050D02*
D03*
X79716Y-297505D02*
D03*
X56257Y-287226D02*
D03*
X60398Y-302681D02*
D03*
D17*
X163321Y-242879D02*
D03*
X171320Y-256736D02*
D03*
X146000Y-252879D02*
D03*
X154000Y-266736D02*
D03*
X128680Y-262879D02*
D03*
X136679Y-276736D02*
D03*
X-163320Y242879D02*
D03*
X-171320Y256736D02*
D03*
X-146000Y252879D02*
D03*
X-154000Y266736D02*
D03*
X-128679Y262879D02*
D03*
X-136679Y276735D02*
D03*
D18*
X275771Y253144D02*
D03*
X264458Y264458D02*
D03*
X253144Y275771D02*
D03*
X219203Y241830D02*
D03*
X230517Y230517D02*
D03*
X241830Y219203D02*
D03*
X-241830Y-219203D02*
D03*
X-230517Y-230517D02*
D03*
X-219203Y-241830D02*
D03*
X-253144Y-275771D02*
D03*
X-264458Y-264458D02*
D03*
X-275771Y-253144D02*
D03*
D19*
X-276874Y-94894D02*
D03*
X-292328Y-99035D02*
D03*
X-282050Y-75575D02*
D03*
X-297505Y-79716D02*
D03*
X-287227Y-56257D02*
D03*
X-302681Y-60398D02*
D03*
X276874Y94894D02*
D03*
X292328Y99035D02*
D03*
X282050Y75575D02*
D03*
X297505Y79716D02*
D03*
X287226Y56257D02*
D03*
X302681Y60398D02*
D03*
D20*
X-8000Y100000D02*
D03*
X8000Y100000D02*
D03*
X72000Y100000D02*
D03*
X88000Y100000D02*
D03*
X-88000Y100000D02*
D03*
X-72000Y100000D02*
D03*
X292000Y20000D02*
D03*
X308000Y20000D02*
D03*
X292000Y0D02*
D03*
X308000Y-0D02*
D03*
X292000Y-20000D02*
D03*
X308000D02*
D03*
X-292000Y-20000D02*
D03*
X-308000Y-20000D02*
D03*
X-292000Y0D02*
D03*
X-308000Y0D02*
D03*
X-292000Y20000D02*
D03*
X-308000Y20000D02*
D03*
D21*
X0Y192000D02*
D03*
X80000D02*
D03*
X-80000D02*
D03*
D22*
X22800Y128000D02*
D03*
X-22800D02*
D03*
X102800D02*
D03*
X57200D02*
D03*
X-57200Y128000D02*
D03*
X-102800Y128000D02*
D03*
D23*
X20000Y-292000D02*
D03*
Y-308000D02*
D03*
X0Y-292000D02*
D03*
X0Y-308000D02*
D03*
X-20000Y-292000D02*
D03*
Y-308000D02*
D03*
X152300Y-42600D02*
D03*
Y-26600D02*
D03*
D24*
X-192333Y-220617D02*
D03*
X-203647Y-231931D02*
D03*
X-206475Y-206475D02*
D03*
X-217789Y-217789D02*
D03*
X-220617Y-192333D02*
D03*
X-231931Y-203647D02*
D03*
X192333Y220617D02*
D03*
X203647Y231931D02*
D03*
X206475Y206475D02*
D03*
X217789Y217789D02*
D03*
X220617Y192333D02*
D03*
X231931Y203647D02*
D03*
D25*
X75500Y-188000D02*
D03*
X85000Y-188000D02*
D03*
X94500Y-188000D02*
D03*
X94500Y-162000D02*
D03*
X75500Y-162000D02*
D03*
D26*
X99250Y-130000D02*
D03*
X70750Y-130000D02*
D03*
D27*
X55000Y-165000D02*
D03*
X55000Y-185000D02*
D03*
X115000Y-185000D02*
D03*
X115000Y-165000D02*
D03*
D28*
X242879Y163320D02*
D03*
X256736Y171320D02*
D03*
X252879Y146000D02*
D03*
X266736Y154000D02*
D03*
X262879Y128679D02*
D03*
X276736Y136679D02*
D03*
D29*
X142500Y104750D02*
D03*
X187500D02*
D03*
Y25250D02*
D03*
X142500D02*
D03*
D30*
X-76500Y-66100D02*
D03*
X-76500Y-51100D02*
D03*
X-76500Y-36100D02*
D03*
Y-21100D02*
D03*
Y-6100D02*
D03*
Y8900D02*
D03*
X-76500Y23900D02*
D03*
X-76500Y38900D02*
D03*
Y53900D02*
D03*
X98500D02*
D03*
X98500Y38900D02*
D03*
Y23900D02*
D03*
Y8900D02*
D03*
Y-6100D02*
D03*
Y-21100D02*
D03*
X98500Y-36100D02*
D03*
Y-51100D02*
D03*
Y-66100D02*
D03*
D31*
X-262879Y128679D02*
D03*
X-276736Y136679D02*
D03*
X-252879Y146000D02*
D03*
X-266736Y154000D02*
D03*
X-242879Y163320D02*
D03*
X-256736Y171320D02*
D03*
D32*
X-68920Y319033D02*
D03*
X-84375Y314891D02*
D03*
X-99830Y310750D02*
D03*
X-112253Y357115D02*
D03*
X-96798Y361256D02*
D03*
X-81343Y365397D02*
D03*
X68920Y-319033D02*
D03*
X84375Y-314891D02*
D03*
X99830Y-310750D02*
D03*
X112253Y-357115D02*
D03*
X96798Y-361256D02*
D03*
X81343Y-365397D02*
D03*
D33*
X-149143Y290324D02*
D03*
X-163000Y282324D02*
D03*
X-176856Y274324D02*
D03*
X-200856Y315893D02*
D03*
X-187000Y323893D02*
D03*
X-173144Y331893D02*
D03*
X149143Y-290324D02*
D03*
X163000Y-282324D02*
D03*
X176856Y-274324D02*
D03*
X200856Y-315893D02*
D03*
X187000Y-323893D02*
D03*
X173143Y-331893D02*
D03*
D34*
X-274324Y176856D02*
D03*
X-282324Y163000D02*
D03*
X-290324Y149143D02*
D03*
X-331893Y173144D02*
D03*
X-323893Y187000D02*
D03*
X-315893Y200856D02*
D03*
D35*
X-310751Y99830D02*
D03*
X-314891Y84375D02*
D03*
X-319033Y68920D02*
D03*
X-365397Y81343D02*
D03*
X-361256Y96798D02*
D03*
X-357115Y112253D02*
D03*
X310750Y-99830D02*
D03*
X314891Y-84375D02*
D03*
X319033Y-68920D02*
D03*
X365397Y-81343D02*
D03*
X361256Y-96798D02*
D03*
X357115Y-112253D02*
D03*
D36*
X-326000Y16000D02*
D03*
Y0D02*
D03*
Y-16000D02*
D03*
X-374000Y-16000D02*
D03*
Y0D02*
D03*
Y16000D02*
D03*
X326000Y-16000D02*
D03*
X326000Y-0D02*
D03*
X326000Y16000D02*
D03*
X374000Y16000D02*
D03*
X374000Y0D02*
D03*
X374000Y-16000D02*
D03*
D37*
X-319033Y-68920D02*
D03*
X-314891Y-84375D02*
D03*
X-310751Y-99830D02*
D03*
X-357115Y-112253D02*
D03*
X-361256Y-96798D02*
D03*
X-365397Y-81343D02*
D03*
X319033Y68920D02*
D03*
X314891Y84375D02*
D03*
X310750Y99830D02*
D03*
X357115Y112253D02*
D03*
X361256Y96798D02*
D03*
X365397Y81343D02*
D03*
D38*
X-176856Y-274324D02*
D03*
X-163000Y-282324D02*
D03*
X-149143Y-290324D02*
D03*
X-173143Y-331893D02*
D03*
X-187000Y-323893D02*
D03*
X-200856Y-315893D02*
D03*
X176856Y274324D02*
D03*
X163000Y282324D02*
D03*
X149143Y290324D02*
D03*
X173144Y331893D02*
D03*
X187000Y323893D02*
D03*
X200856Y315893D02*
D03*
D39*
X-99830Y-310750D02*
D03*
X-84375Y-314891D02*
D03*
X-68920Y-319033D02*
D03*
X-81343Y-365397D02*
D03*
X-96798Y-361256D02*
D03*
X-112253Y-357115D02*
D03*
X99830Y310750D02*
D03*
X84375Y314892D02*
D03*
X68920Y319033D02*
D03*
X81343Y365397D02*
D03*
X96798Y361256D02*
D03*
X112253Y357115D02*
D03*
D40*
X-16000Y-326000D02*
D03*
X-0D02*
D03*
X16000Y-326000D02*
D03*
Y-374000D02*
D03*
X-0D02*
D03*
X-16000Y-374000D02*
D03*
D41*
X290324Y149143D02*
D03*
X282324Y163000D02*
D03*
X274324Y176856D02*
D03*
X315893Y200856D02*
D03*
X323893Y187000D02*
D03*
X331893Y173143D02*
D03*
D42*
X-175514Y153924D02*
X-158750D01*
X-184658Y144780D02*
X-175514Y153924D01*
X-184658Y97536D02*
Y144780D01*
Y97536D02*
X-171958Y84836D01*
X-148336D01*
X-133350Y69850D01*
Y19304D02*
Y69850D01*
Y19304D02*
X-92946Y-21100D01*
X-76500D01*
X-96544Y23900D02*
X-76500D01*
X-124460Y51816D02*
X-96544Y23900D01*
X-124460Y51816D02*
Y93472D01*
X-134112Y103124D02*
X-124460Y93472D01*
X-158750Y103124D02*
X-134112D01*
X-158750Y128524D02*
X-140970D01*
X-117602Y105156D01*
Y59436D02*
Y105156D01*
Y59436D02*
X-97066Y38900D01*
X-76500D01*
X177038Y-141478D02*
Y-46638D01*
X165000Y-34600D02*
X177038Y-46638D01*
X143380Y-58600D02*
X152300Y-49680D01*
Y-42600D01*
X142500Y2500D02*
X152300Y-7300D01*
Y-26600D02*
Y-7300D01*
X124832Y-58600D02*
Y-54856D01*
Y-62344D02*
Y-58600D01*
X143380D01*
X151638Y-66858D01*
Y-141478D02*
Y-66858D01*
X121100Y-51100D02*
X124844Y-54844D01*
X121077Y-66100D02*
X124832Y-62344D01*
Y-54856D02*
X124844Y-54844D01*
X98500Y-66100D02*
X121077D01*
X98500Y-51100D02*
X121100D01*
X142500Y65300D02*
Y104750D01*
X116100Y38900D02*
X142500Y65300D01*
X98500Y38900D02*
X116100D01*
X129750Y25250D02*
X142500D01*
X116100Y38900D02*
X129750Y25250D01*
X142500Y2500D02*
Y25250D01*
X98500Y8900D02*
X121100D01*
X130000Y0D01*
Y-25000D02*
Y0D01*
Y-25000D02*
X139600Y-34600D01*
X165000D01*
X8000Y67000D02*
Y100000D01*
X60000Y-10000D02*
Y15000D01*
X8000Y67000D02*
X60000Y15000D01*
X10000Y55000D02*
X10000D01*
X55000Y10000D01*
Y-20000D02*
Y10000D01*
X-72000Y100000D02*
X-35000D01*
X10000Y55000D01*
X55000Y-20000D02*
X71100Y-36100D01*
X60000Y-10000D02*
X71100Y-21100D01*
X88000Y78000D02*
Y100000D01*
X65000Y55000D02*
X88000Y78000D01*
X65000Y5000D02*
Y55000D01*
Y5000D02*
X76100Y-6100D01*
X98500D01*
X71100Y-21100D02*
X98500D01*
X71100Y-36100D02*
X98500D01*
X57200Y105972D02*
Y128000D01*
Y105972D02*
X63172Y100000D01*
X72000D01*
X-22800Y105972D02*
Y128000D01*
Y105972D02*
X-16828Y100000D01*
X-8000D01*
X-96828D02*
X-88000D01*
X-102800Y105972D02*
X-96828Y100000D01*
X-102800Y105972D02*
Y128000D01*
D43*
X98500Y-66100D02*
X99250Y-66850D01*
Y-130000D02*
Y-66850D01*
D44*
X-90000Y385000D02*
X-81343Y365397D01*
X-96496Y388504D02*
X-90000Y385000D01*
X-103528Y386370D02*
X-96496Y388504D01*
X81343Y365397D02*
X90000Y385000D01*
X96495Y388504D01*
X103527Y386370D01*
X361256Y-96798D02*
X386370Y-103527D01*
X386370Y-103527D01*
X282842Y-282842D02*
X282843Y-282842D01*
X-88955Y-389983D02*
X-88955Y-389983D01*
X357115Y-112253D02*
X378695Y-117155D01*
X290807Y-269382D02*
X293257Y-272029D01*
X378695Y-117155D02*
X382213Y-117954D01*
X-88955Y-389983D02*
X-81343Y-365397D01*
X264458Y-264458D02*
X282842Y-282842D01*
X275771Y-253144D02*
X290807Y-269382D01*
X96798Y361256D02*
X103527Y386370D01*
Y386370D02*
X103527Y386370D01*
X253144Y-275771D02*
X272029Y-293258D01*
X-16000Y-374000D02*
X-15000Y-350000D01*
X-0Y-374000D02*
X0Y-350000D01*
X15000Y-350000D02*
X16000Y-374000D01*
X-81343Y-365397D02*
X-81343Y-365397D01*
X389983Y88955D02*
X390253Y89039D01*
X386370Y103528D02*
X386370Y103528D01*
X357115Y112253D02*
X382213Y117954D01*
X382488Y118017D01*
X353671Y186859D02*
X353910Y187010D01*
X323893Y187000D02*
X346410Y200000D01*
X346410Y200000D01*
X315893Y200856D02*
X338660Y212859D01*
X338910Y212990D01*
X275771Y253144D02*
X293258Y272029D01*
X293449Y272236D01*
X264458Y264458D02*
X282842Y282843D01*
X282843Y282843D01*
X253144Y275772D02*
X272029Y293258D01*
X272236Y293449D01*
X200856Y315893D02*
X212859Y338660D01*
X212990Y338910D01*
X187000Y323893D02*
X200000Y346410D01*
X200000Y346410D01*
X173143Y331893D02*
X186859Y353671D01*
X187010Y353910D01*
X112253Y357115D02*
X117954Y382213D01*
X118017Y382488D01*
X-293449Y-272236D02*
X-290807Y-269383D01*
X365397Y81343D02*
X389983Y88955D01*
X-346410Y200000D02*
X-323893Y187000D01*
X-282843Y-282843D02*
X-282842Y-282843D01*
X-117954Y-382213D02*
X-112253Y-357115D01*
X-103527Y-386370D02*
X-96798Y-361256D01*
X-382213Y117954D02*
X-357115Y112253D01*
X-212990Y338910D02*
X-212859Y338660D01*
X399718Y-15011D02*
X400000Y-15000D01*
X-382488Y-118017D02*
X-378696Y-117155D01*
X-200000Y-346410D02*
X-187000Y-323893D01*
X365397Y-81343D02*
X389983Y-88955D01*
X-103527Y386370D02*
X-96798Y361256D01*
X-386370Y103528D02*
X-386370Y103528D01*
X-212859Y-338660D02*
X-200856Y-315893D01*
X-212859Y338660D02*
X-200856Y315893D01*
X374000Y0D02*
X400000Y0D01*
X-386370Y103528D02*
X-361256Y96798D01*
X-282842Y282842D02*
X-264458Y264458D01*
X-186859Y353671D02*
X-173144Y331893D01*
X-378696Y-117155D02*
X-357115Y-112253D01*
X-399718Y-15011D02*
X-374000Y-16000D01*
X-118017Y382488D02*
X-117954Y382213D01*
X-112253Y357115D01*
X-272029Y-293258D02*
X-253144Y-275772D01*
X-200000Y346410D02*
X-200000Y346410D01*
X331893Y173144D02*
X353671Y186859D01*
X-272029Y293258D02*
X-253144Y275771D01*
X-386370Y-103527D02*
X-361256Y-96798D01*
X-293449Y272236D02*
X-293258Y272029D01*
X-187010Y353910D02*
X-186859Y353671D01*
X361256Y96798D02*
X386370Y103528D01*
X-290807Y-269383D02*
X-275771Y-253144D01*
X400000Y0D02*
X400000Y0D01*
X-400000Y0D02*
X-374000Y0D01*
X-103528Y-386370D02*
X-103527Y-386370D01*
X-400000Y0D02*
X-400000D01*
X-338910Y212990D02*
X-338660Y212859D01*
X-389983Y-88955D02*
X-365397Y-81343D01*
X-338660Y212859D02*
X-315893Y200856D01*
X-390253Y89039D02*
X-389983Y88955D01*
X-382488Y118017D02*
X-382213Y117954D01*
X-272236Y293449D02*
X-272029Y293258D01*
X-353671Y186859D02*
X-331893Y173144D01*
X399718Y15011D02*
X400000Y15000D01*
X-399718Y15011D02*
X-374000Y16000D01*
X-353910Y187010D02*
X-353671Y186859D01*
X-400000Y-15000D02*
X-399718Y-15011D01*
X-400000Y15000D02*
X-399718Y15011D01*
X-389983Y88955D02*
X-365397Y81343D01*
X-293258Y272029D02*
X-275772Y253144D01*
X389983Y-88955D02*
X390253Y-89039D01*
X-282842Y-282843D02*
X-264458Y-264458D01*
X374000Y16000D02*
X399718Y15011D01*
X-103528Y386370D02*
X-103527Y386370D01*
X-200000Y346410D02*
X-187000Y323893D01*
X374000Y-16000D02*
X399718Y-15011D01*
X-282843Y282843D02*
X-282842Y282842D01*
X-346410Y200000D02*
X-346410Y200000D01*
X-186859Y-353671D02*
X-173143Y-331893D01*
X-390253Y-89039D02*
X-389983Y-88955D01*
X200856Y-315893D02*
X212859Y-338660D01*
X187000Y-323893D02*
X200000Y-346410D01*
X81343Y-365397D02*
X88955Y-389983D01*
X96798Y-361256D02*
X103528Y-386370D01*
X173143Y-331893D02*
X186859Y-353671D01*
X112253Y-357115D02*
X117954Y-382213D01*
X112679Y235166D02*
Y235166D01*
X128679Y262879D01*
X135000Y233827D02*
X146000Y252879D01*
X157320Y232487D02*
X163320Y242879D01*
X256317Y-47974D02*
Y-47974D01*
X287226Y-56256D01*
X260800Y-69881D02*
X282050Y-75575D01*
X265283Y-91788D02*
X276874Y-94894D01*
X197990Y-169705D02*
Y-169705D01*
X220617Y-192333D01*
X190919Y-190919D02*
X206475Y-206475D01*
X183848Y-212132D02*
X192333Y-220617D01*
X147320Y-215166D02*
Y-215166D01*
X163320Y-242879D01*
X135000Y-233827D02*
X146000Y-252879D01*
X122679Y-252487D02*
X128679Y-262879D01*
X20000Y-260000D02*
Y-260000D01*
X20000Y-292000D01*
X-0Y-292000D02*
X0Y-270000D01*
X-20000Y-280000D02*
X-20000Y-292000D01*
X-47974Y-256317D02*
Y-256317D01*
X-56256Y-287226D02*
X-47974Y-256317D01*
X-75575Y-282050D02*
X-69881Y-260800D01*
X-94894Y-276874D02*
X-91788Y-265283D01*
X-128679Y-262879D02*
X-112679Y-235166D01*
Y-235166D01*
X-260000Y-20000D02*
X-260000Y-20000D01*
X-292000Y-20000D02*
X-260000Y-20000D01*
X-292000Y0D02*
X-270000Y0D01*
X-292000Y20000D02*
X-280000Y20000D01*
X-147320Y215166D02*
X-147320D01*
X-163320Y242879D02*
X-147320Y215166D01*
X-146000Y252879D02*
X-135000Y233827D01*
X-128679Y262879D02*
X-122679Y252487D01*
X-256317Y47974D02*
X-256317D01*
X-287226Y56256D02*
X-256317Y47974D01*
X-282050Y75575D02*
X-260800Y69881D01*
X-276874Y94894D02*
X-265283Y91788D01*
X-319033Y68920D02*
X-302682Y60398D01*
X-242879Y163320D02*
X-232487Y157320D01*
X-252879Y146000D02*
X-233827Y135000D01*
X-262879Y128679D02*
X-235166Y112679D01*
X-235166D02*
X-235166D01*
X-56257Y287226D02*
X-53151Y275635D01*
X-75575Y282050D02*
X-69881Y260800D01*
X-192333Y220617D02*
X-183848Y212132D01*
X-206475Y206475D02*
X-190919Y190919D01*
X-220617Y192333D02*
X-197990Y169705D01*
X-197990D02*
X-197990D01*
X-94894Y276874D02*
X-86611Y245964D01*
X91788Y265283D02*
X94894Y276874D01*
X69881Y260800D02*
X75575Y282050D01*
X47974Y256317D02*
X56256Y287226D01*
X47974Y256317D02*
X47974D01*
X212132Y183848D02*
X220617Y192333D01*
X190919Y190919D02*
X206475Y206475D01*
X169705Y197990D02*
X192333Y220617D01*
X169705Y197990D02*
X169705D01*
X252487Y122679D02*
X262879Y128679D01*
X233827Y135000D02*
X252879Y146000D01*
X215166Y147320D02*
X242879Y163320D01*
X215166Y147320D02*
X215166D01*
X275635Y53151D02*
X287226Y56257D01*
X260800Y69881D02*
X282050Y75575D01*
X245964Y86611D02*
X276874Y94894D01*
X245964Y86611D02*
X245964D01*
X280000Y-20000D02*
X292000Y-20000D01*
X270000Y0D02*
X292000Y-0D01*
X260000Y20000D02*
X292000Y20000D01*
X260000Y20000D02*
X260000D01*
X53151Y-275635D02*
X56257Y-287226D01*
X69881Y-260800D02*
X75575Y-282050D01*
X86611Y-245964D02*
X94894Y-276874D01*
X86611Y-245964D02*
X86611Y-245964D01*
X-163320Y-242879D02*
X-157320Y-232487D01*
X-146000Y-252879D02*
X-135000Y-233827D01*
X-220617Y-192333D02*
X-212132Y-183848D01*
X-206475Y-206475D02*
X-190919Y-190919D01*
X-192333Y-220617D02*
X-169705Y-197990D01*
Y-197990D01*
X-287226Y-56257D02*
X-275635Y-53151D01*
X-282050Y-75575D02*
X-260800Y-69881D01*
X-276874Y-94894D02*
X-245964Y-86611D01*
Y-86611D01*
X-310750Y99830D02*
X-292329Y99035D01*
X-314891Y84375D02*
X-297505Y79716D01*
X-274324Y176856D02*
X-256736Y171320D01*
X-282324Y163000D02*
X-266736Y154000D01*
X-290324Y149143D02*
X-276736Y136679D01*
X-219203Y241830D02*
X-203647Y231931D01*
X-230517Y230517D02*
X-217789Y217789D01*
X-241830Y219203D02*
X-231931Y203647D01*
X-149143Y290324D02*
X-136679Y276736D01*
X-163000Y282324D02*
X-154000Y266736D01*
X-176856Y274324D02*
X-171320Y256736D01*
X-68920Y319033D02*
X-60398Y302682D01*
X-84375Y314891D02*
X-79716Y297505D01*
X-99830Y310750D02*
X-99035Y292329D01*
X99035Y292329D02*
X99830Y310751D01*
X79716Y297505D02*
X84375Y314891D01*
X60398Y302682D02*
X68920Y319033D01*
X171320Y256736D02*
X176856Y274324D01*
X154000Y266736D02*
X163000Y282324D01*
X136679Y276736D02*
X149143Y290324D01*
X231931Y203647D02*
X241830Y219203D01*
X217789Y217789D02*
X230517Y230517D01*
X203647Y231931D02*
X219203Y241830D01*
X276736Y136679D02*
X290324Y149143D01*
X266736Y154000D02*
X282324Y163000D01*
X256736Y171320D02*
X274324Y176856D01*
X302682Y60398D02*
X319033Y68920D01*
X297505Y79716D02*
X314891Y84375D01*
X292329Y99035D02*
X310750Y99830D01*
X308000Y-20000D02*
X326000Y-16000D01*
X308000Y0D02*
X326000Y-0D01*
X308000Y20000D02*
X326000Y16000D01*
X292329Y-99035D02*
X310751Y-99830D01*
X297505Y-79716D02*
X314891Y-84375D01*
X302682Y-60398D02*
X319033Y-68920D01*
X203647Y-231931D02*
X219203Y-241830D01*
X217789Y-217789D02*
X230517Y-230517D01*
X231931Y-203647D02*
X241830Y-219203D01*
X136679Y-276736D02*
X149143Y-290324D01*
X154000Y-266736D02*
X163000Y-282324D01*
X171320Y-256736D02*
X176856Y-274324D01*
X60398Y-302682D02*
X68920Y-319033D01*
X79716Y-297505D02*
X84375Y-314891D01*
X99035Y-292329D02*
X99830Y-310750D01*
X-20000Y-308000D02*
X-16000Y-326000D01*
X-0Y-326000D02*
X0Y-308000D01*
X16000Y-326000D02*
X20000Y-308000D01*
X-99830Y-310750D02*
X-99035Y-292329D01*
X-84375Y-314891D02*
X-79716Y-297505D01*
X-68920Y-319033D02*
X-60398Y-302682D01*
X-176856Y-274324D02*
X-171320Y-256736D01*
X-163000Y-282324D02*
X-154000Y-266736D01*
X-149143Y-290324D02*
X-136679Y-276736D01*
X-241830Y-219203D02*
X-231931Y-203647D01*
X-230517Y-230517D02*
X-217789Y-217789D01*
X-219203Y-241830D02*
X-203647Y-231931D01*
X-319033Y-68920D02*
X-302682Y-60398D01*
X-314891Y-84375D02*
X-297505Y-79716D01*
X-310750Y-99830D02*
X-292329Y-99035D01*
X-326000Y-16000D02*
X-308000Y-20000D01*
X-326000Y0D02*
X-308000Y0D01*
X-326000Y16000D02*
X-308000Y20000D01*
D45*
X5494Y245126D02*
X70804D01*
X-53151Y275635D02*
X-25015D01*
X5494Y245126D01*
X0Y192000D02*
Y233108D01*
X-27692Y260800D02*
X0Y233108D01*
X-69881Y260800D02*
X-27692D01*
X80000Y192000D02*
Y235930D01*
X70804Y245126D02*
X80000Y235930D01*
X-86611Y245964D02*
X-80000Y239353D01*
Y192000D02*
Y239353D01*
D46*
X33000Y-390000D02*
D03*
X-33000D02*
D03*
D47*
X177038Y-141478D02*
D03*
D48*
X151638Y-141478D02*
D03*
X126238Y-141478D02*
D03*
D49*
X0Y0D02*
D03*
D50*
X-158750Y179324D02*
D03*
X-158750Y128524D02*
D03*
Y153924D02*
D03*
D51*
X-158750Y103124D02*
D03*
D52*
X324759Y-187500D02*
D03*
X0Y375000D02*
D03*
X-324759Y-187500D02*
D03*
D53*
X13000Y-350000D02*
D03*
X112679Y235166D02*
D03*
X135000Y233827D02*
D03*
X157320Y232487D02*
D03*
X256317Y-47974D02*
D03*
X260800Y-69881D02*
D03*
X265283Y-91788D02*
D03*
X197990Y-169705D02*
D03*
X190919Y-190919D02*
D03*
X183848Y-212132D02*
D03*
X147320Y-215166D02*
D03*
X135000Y-233827D02*
D03*
X122679Y-252487D02*
D03*
X20000Y-260000D02*
D03*
X0Y-270000D02*
D03*
X-20000Y-280000D02*
D03*
X-47974Y-256317D02*
D03*
X-69881Y-260800D02*
D03*
X-91788Y-265283D02*
D03*
X-112679Y-235166D02*
D03*
X-260000Y-20000D02*
D03*
X-270000Y0D02*
D03*
X-280000Y20000D02*
D03*
X-147320Y215166D02*
D03*
X-135000Y233827D02*
D03*
X-122679Y252487D02*
D03*
X-256317Y47974D02*
D03*
X-260800Y69881D02*
D03*
X-265283Y91788D02*
D03*
X-232487Y157320D02*
D03*
X-233827Y135000D02*
D03*
X-235166Y112679D02*
D03*
X-53151Y275635D02*
D03*
X-69881Y260800D02*
D03*
X-183848Y212132D02*
D03*
X-190919Y190919D02*
D03*
X-197990Y169705D02*
D03*
X-86611Y245964D02*
D03*
X91788Y265283D02*
D03*
X69881Y260800D02*
D03*
X47974Y256317D02*
D03*
X212132Y183848D02*
D03*
X190919Y190919D02*
D03*
X169705Y197990D02*
D03*
X252487Y122679D02*
D03*
X233827Y135000D02*
D03*
X215166Y147320D02*
D03*
X275635Y53151D02*
D03*
X260800Y69881D02*
D03*
X245964Y86611D02*
D03*
X280000Y-20000D02*
D03*
X270000Y0D02*
D03*
X260000Y20000D02*
D03*
X53151Y-275635D02*
D03*
X69881Y-260800D02*
D03*
X86611Y-245964D02*
D03*
X-157320Y-232487D02*
D03*
X-135000Y-233827D02*
D03*
X-212132Y-183848D02*
D03*
X-190919Y-190919D02*
D03*
X-169705Y-197990D02*
D03*
X-275635Y-53151D02*
D03*
X-260800Y-69881D02*
D03*
X-245964Y-86611D02*
D03*
%TF.MD5,69f2278de7d822caba1f15dc7557167e*%
M02*
