%TF.GenerationSoftware,Altium Limited,Altium Designer,21.6.4 (81)*%
G04 Layer_Color=8388736*
%FSLAX45Y45*%
%MOMM*%
%TF.SameCoordinates,213DF370-AA75-4346-93E6-04E6A5F56B15*%
%TF.FilePolarity,Negative*%
%TF.FileFunction,Soldermask,Top*%
%TF.Part,Single*%
G01*
G75*
%TA.AperFunction,SMDPad,CuDef*%
%ADD36R,1.60000X1.00000*%
%TA.AperFunction,ComponentPad*%
G04:AMPARAMS|DCode=60|XSize=1.1032mm|YSize=1.8032mm|CornerRadius=0.5516mm|HoleSize=0mm|Usage=FLASHONLY|Rotation=180.000|XOffset=0mm|YOffset=0mm|HoleType=Round|Shape=RoundedRectangle|*
%AMROUNDEDRECTD60*
21,1,1.10320,0.70000,0,0,180.0*
21,1,0.00000,1.80320,0,0,180.0*
1,1,1.10320,0.00000,0.35000*
1,1,1.10320,0.00000,0.35000*
1,1,1.10320,0.00000,-0.35000*
1,1,1.10320,0.00000,-0.35000*
%
%ADD60ROUNDEDRECTD60*%
%ADD61R,1.60000X2.30000*%
%ADD62O,1.60000X2.30000*%
%ADD63R,4.10000X4.10000*%
%ADD64O,2.30000X1.60000*%
%ADD65R,2.30000X1.60000*%
%ADD66C,5.20320*%
%TA.AperFunction,SMDPad,CuDef*%
%ADD70R,0.90320X1.20320*%
%ADD71R,1.05000X2.25000*%
%ADD72R,3.35000X2.25000*%
G04:AMPARAMS|DCode=73|XSize=1.7mm|YSize=1.1mm|CornerRadius=0mm|HoleSize=0mm|Usage=FLASHONLY|Rotation=315.000|XOffset=0mm|YOffset=0mm|HoleType=Round|Shape=Rectangle|*
%AMROTATEDRECTD73*
4,1,4,-0.98995,0.21213,-0.21213,0.98995,0.98995,-0.21213,0.21213,-0.98995,-0.98995,0.21213,0.0*
%
%ADD73ROTATEDRECTD73*%

G04:AMPARAMS|DCode=74|XSize=0.9032mm|YSize=1.2032mm|CornerRadius=0mm|HoleSize=0mm|Usage=FLASHONLY|Rotation=75.000|XOffset=0mm|YOffset=0mm|HoleType=Round|Shape=Rectangle|*
%AMROTATEDRECTD74*
4,1,4,0.46422,-0.59192,-0.69798,-0.28051,-0.46422,0.59192,0.69798,0.28051,0.46422,-0.59192,0.0*
%
%ADD74ROTATEDRECTD74*%

G04:AMPARAMS|DCode=75|XSize=0.9032mm|YSize=1.2032mm|CornerRadius=0mm|HoleSize=0mm|Usage=FLASHONLY|Rotation=60.000|XOffset=0mm|YOffset=0mm|HoleType=Round|Shape=Rectangle|*
%AMROTATEDRECTD75*
4,1,4,0.29520,-0.69190,-0.74680,-0.09030,-0.29520,0.69190,0.74680,0.09030,0.29520,-0.69190,0.0*
%
%ADD75ROTATEDRECTD75*%

G04:AMPARAMS|DCode=76|XSize=0.9032mm|YSize=1.2032mm|CornerRadius=0mm|HoleSize=0mm|Usage=FLASHONLY|Rotation=345.000|XOffset=0mm|YOffset=0mm|HoleType=Round|Shape=Rectangle|*
%AMROTATEDRECTD76*
4,1,4,-0.59192,-0.46422,-0.28051,0.69798,0.59192,0.46422,0.28051,-0.69798,-0.59192,-0.46422,0.0*
%
%ADD76ROTATEDRECTD76*%

G04:AMPARAMS|DCode=77|XSize=0.9032mm|YSize=1.2032mm|CornerRadius=0mm|HoleSize=0mm|Usage=FLASHONLY|Rotation=315.000|XOffset=0mm|YOffset=0mm|HoleType=Round|Shape=Rectangle|*
%AMROTATEDRECTD77*
4,1,4,-0.74473,-0.10607,0.10607,0.74473,0.74473,0.10607,-0.10607,-0.74473,-0.74473,-0.10607,0.0*
%
%ADD77ROTATEDRECTD77*%

G04:AMPARAMS|DCode=78|XSize=0.9032mm|YSize=1.2032mm|CornerRadius=0mm|HoleSize=0mm|Usage=FLASHONLY|Rotation=285.000|XOffset=0mm|YOffset=0mm|HoleType=Round|Shape=Rectangle|*
%AMROTATEDRECTD78*
4,1,4,-0.69798,0.28051,0.46422,0.59192,0.69798,-0.28051,-0.46422,-0.59192,-0.69798,0.28051,0.0*
%
%ADD78ROTATEDRECTD78*%

G04:AMPARAMS|DCode=79|XSize=0.9032mm|YSize=1.2032mm|CornerRadius=0mm|HoleSize=0mm|Usage=FLASHONLY|Rotation=120.000|XOffset=0mm|YOffset=0mm|HoleType=Round|Shape=Rectangle|*
%AMROTATEDRECTD79*
4,1,4,0.74680,-0.09030,-0.29520,-0.69190,-0.74680,0.09030,0.29520,0.69190,0.74680,-0.09030,0.0*
%
%ADD79ROTATEDRECTD79*%

G04:AMPARAMS|DCode=80|XSize=1.7mm|YSize=1.1mm|CornerRadius=0mm|HoleSize=0mm|Usage=FLASHONLY|Rotation=45.000|XOffset=0mm|YOffset=0mm|HoleType=Round|Shape=Rectangle|*
%AMROTATEDRECTD80*
4,1,4,-0.21213,-0.98995,-0.98995,-0.21213,0.21213,0.98995,0.98995,0.21213,-0.21213,-0.98995,0.0*
%
%ADD80ROTATEDRECTD80*%

G04:AMPARAMS|DCode=81|XSize=0.9032mm|YSize=1.2032mm|CornerRadius=0mm|HoleSize=0mm|Usage=FLASHONLY|Rotation=15.000|XOffset=0mm|YOffset=0mm|HoleType=Round|Shape=Rectangle|*
%AMROTATEDRECTD81*
4,1,4,-0.28051,-0.69798,-0.59192,0.46422,0.28051,0.69798,0.59192,-0.46422,-0.28051,-0.69798,0.0*
%
%ADD81ROTATEDRECTD81*%

%ADD82R,5.65000X6.60000*%
%ADD83R,1.35000X2.95000*%
%ADD84R,1.20320X0.90320*%
G04:AMPARAMS|DCode=85|XSize=0.9032mm|YSize=1.2032mm|CornerRadius=0mm|HoleSize=0mm|Usage=FLASHONLY|Rotation=45.000|XOffset=0mm|YOffset=0mm|HoleType=Round|Shape=Rectangle|*
%AMROTATEDRECTD85*
4,1,4,0.10607,-0.74473,-0.74473,0.10607,-0.10607,0.74473,0.74473,-0.10607,0.10607,-0.74473,0.0*
%
%ADD85ROTATEDRECTD85*%

%ADD86R,1.65320X1.35320*%
G04:AMPARAMS|DCode=87|XSize=0.9032mm|YSize=1.2032mm|CornerRadius=0mm|HoleSize=0mm|Usage=FLASHONLY|Rotation=210.000|XOffset=0mm|YOffset=0mm|HoleType=Round|Shape=Rectangle|*
%AMROTATEDRECTD87*
4,1,4,0.09030,0.74680,0.69190,-0.29520,-0.09030,-0.74680,-0.69190,0.29520,0.09030,0.74680,0.0*
%
%ADD87ROTATEDRECTD87*%

%ADD88R,1.40000X1.65000*%
G04:AMPARAMS|DCode=89|XSize=0.9032mm|YSize=1.2032mm|CornerRadius=0mm|HoleSize=0mm|Usage=FLASHONLY|Rotation=330.000|XOffset=0mm|YOffset=0mm|HoleType=Round|Shape=Rectangle|*
%AMROTATEDRECTD89*
4,1,4,-0.69190,-0.29520,-0.09030,0.74680,0.69190,0.29520,0.09030,-0.74680,-0.69190,-0.29520,0.0*
%
%ADD89ROTATEDRECTD89*%

G04:AMPARAMS|DCode=90|XSize=1.7mm|YSize=1.1mm|CornerRadius=0mm|HoleSize=0mm|Usage=FLASHONLY|Rotation=105.000|XOffset=0mm|YOffset=0mm|HoleType=Round|Shape=Rectangle|*
%AMROTATEDRECTD90*
4,1,4,0.75126,-0.67869,-0.31126,-0.96339,-0.75126,0.67869,0.31126,0.96339,0.75126,-0.67869,0.0*
%
%ADD90ROTATEDRECTD90*%

G04:AMPARAMS|DCode=91|XSize=1.7mm|YSize=1.1mm|CornerRadius=0mm|HoleSize=0mm|Usage=FLASHONLY|Rotation=120.000|XOffset=0mm|YOffset=0mm|HoleType=Round|Shape=Rectangle|*
%AMROTATEDRECTD91*
4,1,4,0.90132,-0.46112,-0.05132,-1.01112,-0.90132,0.46112,0.05132,1.01112,0.90132,-0.46112,0.0*
%
%ADD91ROTATEDRECTD91*%

G04:AMPARAMS|DCode=92|XSize=1.7mm|YSize=1.1mm|CornerRadius=0mm|HoleSize=0mm|Usage=FLASHONLY|Rotation=150.000|XOffset=0mm|YOffset=0mm|HoleType=Round|Shape=Rectangle|*
%AMROTATEDRECTD92*
4,1,4,1.01112,0.05132,0.46112,-0.90132,-1.01112,-0.05132,-0.46112,0.90132,1.01112,0.05132,0.0*
%
%ADD92ROTATEDRECTD92*%

G04:AMPARAMS|DCode=93|XSize=1.7mm|YSize=1.1mm|CornerRadius=0mm|HoleSize=0mm|Usage=FLASHONLY|Rotation=165.000|XOffset=0mm|YOffset=0mm|HoleType=Round|Shape=Rectangle|*
%AMROTATEDRECTD93*
4,1,4,0.96339,0.31126,0.67869,-0.75126,-0.96339,-0.31126,-0.67869,0.75126,0.96339,0.31126,0.0*
%
%ADD93ROTATEDRECTD93*%

%ADD94R,1.70000X1.10000*%
G04:AMPARAMS|DCode=95|XSize=1.7mm|YSize=1.1mm|CornerRadius=0mm|HoleSize=0mm|Usage=FLASHONLY|Rotation=195.000|XOffset=0mm|YOffset=0mm|HoleType=Round|Shape=Rectangle|*
%AMROTATEDRECTD95*
4,1,4,0.67869,0.75126,0.96339,-0.31126,-0.67869,-0.75126,-0.96339,0.31126,0.67869,0.75126,0.0*
%
%ADD95ROTATEDRECTD95*%

G04:AMPARAMS|DCode=96|XSize=1.7mm|YSize=1.1mm|CornerRadius=0mm|HoleSize=0mm|Usage=FLASHONLY|Rotation=240.000|XOffset=0mm|YOffset=0mm|HoleType=Round|Shape=Rectangle|*
%AMROTATEDRECTD96*
4,1,4,-0.05132,1.01112,0.90132,0.46112,0.05132,-1.01112,-0.90132,-0.46112,-0.05132,1.01112,0.0*
%
%ADD96ROTATEDRECTD96*%

G04:AMPARAMS|DCode=97|XSize=1.7mm|YSize=1.1mm|CornerRadius=0mm|HoleSize=0mm|Usage=FLASHONLY|Rotation=255.000|XOffset=0mm|YOffset=0mm|HoleType=Round|Shape=Rectangle|*
%AMROTATEDRECTD97*
4,1,4,-0.31126,0.96339,0.75126,0.67869,0.31126,-0.96339,-0.75126,-0.67869,-0.31126,0.96339,0.0*
%
%ADD97ROTATEDRECTD97*%

%ADD98R,1.10000X1.70000*%
G04:AMPARAMS|DCode=99|XSize=1.7mm|YSize=1.1mm|CornerRadius=0mm|HoleSize=0mm|Usage=FLASHONLY|Rotation=30.000|XOffset=0mm|YOffset=0mm|HoleType=Round|Shape=Rectangle|*
%AMROTATEDRECTD99*
4,1,4,-0.46112,-0.90132,-1.01112,0.05132,0.46112,0.90132,1.01112,-0.05132,-0.46112,-0.90132,0.0*
%
%ADD99ROTATEDRECTD99*%

D36*
X-765000Y-661000D02*
D03*
X-764999Y-511000D02*
D03*
X-765000Y-361000D02*
D03*
Y-211000D02*
D03*
Y-61000D02*
D03*
Y89000D02*
D03*
X-765000Y239001D02*
D03*
X-764999Y389000D02*
D03*
Y539000D02*
D03*
X985000D02*
D03*
X985000Y389000D02*
D03*
Y239000D02*
D03*
Y89000D02*
D03*
Y-61000D02*
D03*
Y-211000D02*
D03*
X985000Y-361000D02*
D03*
Y-511000D02*
D03*
Y-661000D02*
D03*
D60*
X330000Y-3900000D02*
D03*
X-330000D02*
D03*
D61*
X-1739902Y-325122D02*
D03*
D62*
X-1485901Y-325121D02*
D03*
X-1231900Y-325120D02*
D03*
D63*
X0Y0D02*
D03*
D64*
X-1587499Y1793240D02*
D03*
X-1587500Y1285240D02*
D03*
Y1539241D02*
D03*
D65*
X-1587500Y1031240D02*
D03*
D66*
X3247592Y-1874998D02*
D03*
X0Y3749997D02*
D03*
X-3247592Y-1874998D02*
D03*
D70*
X-80000Y-1071880D02*
D03*
X80000D02*
D03*
X-80000Y1000000D02*
D03*
X80000Y1000000D02*
D03*
X720000Y1000000D02*
D03*
X880000Y1000000D02*
D03*
X-880000Y1000000D02*
D03*
X-720000Y1000000D02*
D03*
X2919997Y200000D02*
D03*
X3079997Y200000D02*
D03*
X2920000Y0D02*
D03*
X3080000Y-0D02*
D03*
X2920000Y-200000D02*
D03*
X3080000D02*
D03*
X-2920000Y-200000D02*
D03*
X-3080000Y-200000D02*
D03*
X-2920000Y0D02*
D03*
X-3080000Y0D02*
D03*
X-2920000Y200000D02*
D03*
X-3080000Y200000D02*
D03*
D71*
X486280Y-1912620D02*
D03*
X716280Y-1912620D02*
D03*
X946280Y-1912620D02*
D03*
D72*
X716281Y-1332621D02*
D03*
D73*
X2531441Y-2757714D02*
D03*
X2644577Y-2644577D02*
D03*
X2757714Y-2531440D02*
D03*
X2418303Y-2192029D02*
D03*
X2305166Y-2305166D02*
D03*
X2192029Y-2418303D02*
D03*
X-2192030Y2418303D02*
D03*
X-2305166Y2305166D02*
D03*
X-2418303Y2192029D02*
D03*
X-2757714Y2531440D02*
D03*
X-2644577Y2644577D02*
D03*
X-2531440Y2757714D02*
D03*
D74*
X-562566Y-2872265D02*
D03*
X-603976Y-3026813D02*
D03*
X-948936Y-2768737D02*
D03*
X-990347Y-2923285D02*
D03*
X562566Y2872264D02*
D03*
X603977Y3026812D02*
D03*
X755751Y2820500D02*
D03*
X797162Y2975049D02*
D03*
X-755751Y-2820500D02*
D03*
X-797162Y-2975049D02*
D03*
X948935Y2768737D02*
D03*
X990348Y2923285D02*
D03*
D75*
X-1286793Y-2628792D02*
D03*
X-1366793Y-2767356D02*
D03*
X1286795Y2628794D02*
D03*
X1366795Y2767358D02*
D03*
X1459998Y2528791D02*
D03*
X1539999Y2667356D02*
D03*
X1633204Y2428794D02*
D03*
X1713205Y2567358D02*
D03*
X-1459998Y-2528791D02*
D03*
X-1539999Y-2667356D02*
D03*
X-1633203Y-2428792D02*
D03*
X-1713204Y-2567356D02*
D03*
D76*
X-2768736Y948936D02*
D03*
X-2923284Y990347D02*
D03*
X-2872264Y562566D02*
D03*
X-3026813Y603977D02*
D03*
X-2820500Y755751D02*
D03*
X-2975049Y797162D02*
D03*
X2820501Y-755751D02*
D03*
X2975049Y-797162D02*
D03*
X2768740Y-948936D02*
D03*
X2923288Y-990348D02*
D03*
X2872266Y-562567D02*
D03*
X3026815Y-603978D02*
D03*
D77*
X-1923327Y2206170D02*
D03*
X-2036465Y2319307D02*
D03*
X-2206171Y1923328D02*
D03*
X-2319307Y2036465D02*
D03*
X-2064750Y2064749D02*
D03*
X-2177887Y2177887D02*
D03*
X2206172Y-1923330D02*
D03*
X2319310Y-2036468D02*
D03*
X1923330Y-2206173D02*
D03*
X2036468Y-2319310D02*
D03*
X2064750Y-2064750D02*
D03*
X2177887Y-2177887D02*
D03*
D78*
X-948936Y2768736D02*
D03*
X-990347Y2923284D02*
D03*
X-562566Y2872265D02*
D03*
X-603977Y3026813D02*
D03*
X-755751Y2820501D02*
D03*
X-797162Y2975049D02*
D03*
X948936Y-2768737D02*
D03*
X990347Y-2923285D02*
D03*
X755751Y-2820500D02*
D03*
X797162Y-2975049D02*
D03*
X562566Y-2872264D02*
D03*
X603977Y-3026812D02*
D03*
D79*
X1633205Y-2428794D02*
D03*
X1713204Y-2567359D02*
D03*
X1459999Y-2528791D02*
D03*
X1539998Y-2667357D02*
D03*
X1286796Y-2628794D02*
D03*
X1366795Y-2767358D02*
D03*
X-1633203Y2428792D02*
D03*
X-1713204Y2567356D02*
D03*
X-1459999Y2528792D02*
D03*
X-1539999Y2667356D02*
D03*
X-1286792Y2628791D02*
D03*
X-1366792Y2767355D02*
D03*
D80*
X2757714Y2531440D02*
D03*
X2644577Y2644577D02*
D03*
X2531440Y2757714D02*
D03*
X2192029Y2418303D02*
D03*
X2305166Y2305166D02*
D03*
X2418303Y2192029D02*
D03*
X-2418303Y-2192029D02*
D03*
X-2305166Y-2305166D02*
D03*
X-2192029Y-2418303D02*
D03*
X-2531441Y-2757714D02*
D03*
X-2644577Y-2644577D02*
D03*
X-2757714Y-2531440D02*
D03*
D81*
X-2768737Y-948936D02*
D03*
X-2923285Y-990347D02*
D03*
X-2820500Y-755751D02*
D03*
X-2975049Y-797162D02*
D03*
X-2872265Y-562566D02*
D03*
X-3026813Y-603976D02*
D03*
X2768736Y948937D02*
D03*
X2923285Y990348D02*
D03*
X2820500Y755751D02*
D03*
X2975049Y797162D02*
D03*
X2872264Y562566D02*
D03*
X3026812Y603977D02*
D03*
D82*
X0Y1920000D02*
D03*
X800000D02*
D03*
X-800000D02*
D03*
D83*
X228000Y1280000D02*
D03*
X-228000D02*
D03*
X1028000D02*
D03*
X572000D02*
D03*
X-572000Y1280000D02*
D03*
X-1028000Y1280000D02*
D03*
D84*
X200000Y-2920000D02*
D03*
Y-3080000D02*
D03*
X0Y-2919997D02*
D03*
X0Y-3079997D02*
D03*
X-200000Y-2920000D02*
D03*
Y-3080000D02*
D03*
X1523000Y-426000D02*
D03*
Y-266000D02*
D03*
D85*
X-1923329Y-2206171D02*
D03*
X-2036465Y-2319308D02*
D03*
X-2064749Y-2064749D02*
D03*
X-2177887Y-2177887D02*
D03*
X-2206171Y-1923328D02*
D03*
X-2319309Y-2036466D02*
D03*
X1923328Y2206171D02*
D03*
X2036466Y2319308D02*
D03*
X2064750Y2064750D02*
D03*
X2177887Y2177887D02*
D03*
X2206171Y1923329D02*
D03*
X2319309Y2036466D02*
D03*
D86*
X1146280Y-2200000D02*
D03*
X946280Y-2200000D02*
D03*
X916280Y-1071881D02*
D03*
X716281Y-1071880D02*
D03*
D87*
X2428792Y1633203D02*
D03*
X2567356Y1713203D02*
D03*
X2528791Y1459999D02*
D03*
X2667356Y1539999D02*
D03*
X2628792Y1286793D02*
D03*
X2767356Y1366794D02*
D03*
D88*
X1425000Y1047500D02*
D03*
X1875000D02*
D03*
Y252500D02*
D03*
X1425000D02*
D03*
D89*
X-2628792Y1286792D02*
D03*
X-2767356Y1366793D02*
D03*
X-2528792Y1459998D02*
D03*
X-2667356Y1539999D02*
D03*
X-2428793Y1633203D02*
D03*
X-2567356Y1713204D02*
D03*
D90*
X-689202Y3190327D02*
D03*
X-843749Y3148915D02*
D03*
X-998297Y3107504D02*
D03*
X-1122530Y3571148D02*
D03*
X-967982Y3612560D02*
D03*
X-813435Y3653971D02*
D03*
X689202Y-3190327D02*
D03*
X843749Y-3148915D02*
D03*
X998297Y-3107504D02*
D03*
X1122530Y-3571148D02*
D03*
X967982Y-3612559D02*
D03*
X813434Y-3653971D02*
D03*
D91*
X-1491434Y2903240D02*
D03*
X-1629999Y2823240D02*
D03*
X-1768563Y2743240D02*
D03*
X-2008563Y3158933D02*
D03*
X-1869999Y3238933D02*
D03*
X-1731435Y3318933D02*
D03*
X1491434Y-2903240D02*
D03*
X1629998Y-2823240D02*
D03*
X1768563Y-2743240D02*
D03*
X2008563Y-3158932D02*
D03*
X1869998Y-3238933D02*
D03*
X1731434Y-3318932D02*
D03*
D92*
X-2743240Y1768562D02*
D03*
X-2823240Y1629999D02*
D03*
X-2903240Y1491434D02*
D03*
X-3318933Y1731435D02*
D03*
X-3238932Y1869999D02*
D03*
X-3158932Y2008563D02*
D03*
D93*
X-3107505Y998297D02*
D03*
X-3148915Y843750D02*
D03*
X-3190326Y689202D02*
D03*
X-3653970Y813434D02*
D03*
X-3612559Y967983D02*
D03*
X-3571149Y1122530D02*
D03*
X3107504Y-998297D02*
D03*
X3148915Y-843749D02*
D03*
X3190326Y-689202D02*
D03*
X3653971Y-813435D02*
D03*
X3612560Y-967983D02*
D03*
X3571149Y-1122530D02*
D03*
D94*
X-3259997Y160000D02*
D03*
Y0D02*
D03*
Y-160000D02*
D03*
X-3739997Y-160000D02*
D03*
Y0D02*
D03*
Y160000D02*
D03*
X3259997Y-160000D02*
D03*
X3259997Y-0D02*
D03*
X3259997Y160000D02*
D03*
X3739997Y160000D02*
D03*
X3739997Y0D02*
D03*
X3739997Y-160000D02*
D03*
D95*
X-3190327Y-689202D02*
D03*
X-3148915Y-843749D02*
D03*
X-3107505Y-998298D02*
D03*
X-3571148Y-1122530D02*
D03*
X-3612560Y-967982D02*
D03*
X-3653970Y-813434D02*
D03*
X3190327Y689202D02*
D03*
X3148915Y843749D02*
D03*
X3107504Y998297D02*
D03*
X3571148Y1122530D02*
D03*
X3612560Y967982D02*
D03*
X3653971Y813434D02*
D03*
D96*
X-1768563Y-2743240D02*
D03*
X-1629999Y-2823240D02*
D03*
X-1491434Y-2903240D02*
D03*
X-1731434Y-3318933D02*
D03*
X-1869999Y-3238932D02*
D03*
X-2008563Y-3158932D02*
D03*
X1768562Y2743241D02*
D03*
X1629998Y2823240D02*
D03*
X1491434Y2903240D02*
D03*
X1731435Y3318932D02*
D03*
X1869999Y3238932D02*
D03*
X2008563Y3158932D02*
D03*
D97*
X-998297Y-3107504D02*
D03*
X-843749Y-3148915D02*
D03*
X-689201Y-3190327D02*
D03*
X-813434Y-3653971D02*
D03*
X-967983Y-3612560D02*
D03*
X-1122530Y-3571148D02*
D03*
X998298Y3107504D02*
D03*
X843749Y3148916D02*
D03*
X689201Y3190327D02*
D03*
X813434Y3653971D02*
D03*
X967983Y3612559D02*
D03*
X1122531Y3571148D02*
D03*
D98*
X-160000Y-3259997D02*
D03*
X-0D02*
D03*
X160000Y-3259997D02*
D03*
Y-3739997D02*
D03*
X-0D02*
D03*
X-160000Y-3739997D02*
D03*
D99*
X2903241Y1491435D02*
D03*
X2823240Y1629999D02*
D03*
X2743240Y1768563D02*
D03*
X3158932Y2008562D02*
D03*
X3238933Y1869999D02*
D03*
X3318933Y1731434D02*
D03*
%TF.MD5,5e88416ef7d415e3385d789f05944147*%
M02*
