%TF.GenerationSoftware,Altium Limited,Altium Designer,21.6.4 (81)*%
G04 Layer_Color=16711935*
%FSLAX45Y45*%
%MOMM*%
%TF.SameCoordinates,213DF370-AA75-4346-93E6-04E6A5F56B15*%
%TF.FilePolarity,Negative*%
%TF.FileFunction,Soldermask,Bot*%
%TF.Part,Single*%
G01*
G75*
%TA.AperFunction,ConnectorPad*%
%ADD58R,2.10320X1.85420*%
%ADD59R,0.60320X1.55320*%
%TA.AperFunction,ComponentPad*%
G04:AMPARAMS|DCode=60|XSize=1.1032mm|YSize=1.8032mm|CornerRadius=0.5516mm|HoleSize=0mm|Usage=FLASHONLY|Rotation=180.000|XOffset=0mm|YOffset=0mm|HoleType=Round|Shape=RoundedRectangle|*
%AMROUNDEDRECTD60*
21,1,1.10320,0.70000,0,0,180.0*
21,1,0.00000,1.80320,0,0,180.0*
1,1,1.10320,0.00000,0.35000*
1,1,1.10320,0.00000,0.35000*
1,1,1.10320,0.00000,-0.35000*
1,1,1.10320,0.00000,-0.35000*
%
%ADD60ROUNDEDRECTD60*%
%ADD61R,1.60000X2.30000*%
%ADD62O,1.60000X2.30000*%
%ADD63R,4.10000X4.10000*%
%ADD64O,2.30000X1.60000*%
%ADD65R,2.30000X1.60000*%
%ADD66C,5.20320*%
D58*
X127000Y-3900000D02*
D03*
X-130000Y-3900000D02*
D03*
D59*
X130000Y-3632500D02*
D03*
X65000Y-3632500D02*
D03*
X0D02*
D03*
X-65000D02*
D03*
X-130000D02*
D03*
D60*
X330000Y-3900000D02*
D03*
X-330000D02*
D03*
D61*
X-1739902Y-325122D02*
D03*
D62*
X-1485901Y-325121D02*
D03*
X-1231900Y-325120D02*
D03*
D63*
X0Y0D02*
D03*
D64*
X-1587499Y1793240D02*
D03*
X-1587500Y1285240D02*
D03*
Y1539241D02*
D03*
D65*
X-1587500Y1031240D02*
D03*
D66*
X3247592Y-1874998D02*
D03*
X0Y3749997D02*
D03*
X-3247592Y-1874998D02*
D03*
%TF.MD5,bd61d9efb5e52473577877b57d39107b*%
M02*
