%TF.GenerationSoftware,Altium Limited,Altium Designer,21.6.4 (81)*%
G04 Layer_Color=0*
%FSLAX45Y45*%
%MOMM*%
%TF.SameCoordinates,213DF370-AA75-4346-93E6-04E6A5F56B15*%
%TF.FilePolarity,Positive*%
%TF.FileFunction,Plated,1,2,PTH,Drill*%
%TF.Part,Single*%
G01*
G75*
%TA.AperFunction,ComponentDrill*%
%ADD101O,0.50000X1.20000*%
%ADD102C,1.10000*%
%ADD103C,3.00000*%
%ADD104C,1.10000*%
%ADD105C,3.50000*%
%ADD106C,3.50000*%
%ADD107C,3.50000*%
%TA.AperFunction,ViaDrill,NotFilled*%
%ADD108C,0.40000*%
D101*
X330000Y-3900000D02*
D03*
X-330000D02*
D03*
D102*
X-1739902Y-325122D02*
D03*
X-1485901Y-325121D02*
D03*
X-1231900Y-325120D02*
D03*
D103*
X0Y0D02*
D03*
D104*
X-1587499Y1793240D02*
D03*
X-1587500Y1031240D02*
D03*
X-1587500Y1285240D02*
D03*
Y1539241D02*
D03*
D105*
X3247592Y-1874998D02*
D03*
D106*
X0Y3749997D02*
D03*
D107*
X-3247592Y-1874998D02*
D03*
D108*
X130000Y-3500000D02*
D03*
X1126793Y2351664D02*
D03*
X1349998Y2338266D02*
D03*
X1573204Y2324868D02*
D03*
X2563168Y-479744D02*
D03*
X2607997Y-698811D02*
D03*
X2652826Y-917878D02*
D03*
X1979897Y-1697054D02*
D03*
X1909186Y-1909186D02*
D03*
X1838475Y-2121318D02*
D03*
X1473204Y-2151663D02*
D03*
X1349998Y-2338266D02*
D03*
X1226793Y-2524868D02*
D03*
X200000Y-2599997D02*
D03*
X0Y-2699997D02*
D03*
X-200000Y-2799997D02*
D03*
X-479744Y-2563168D02*
D03*
X-698811Y-2607997D02*
D03*
X-917878Y-2652826D02*
D03*
X-1126793Y-2351664D02*
D03*
X-2600001Y-200000D02*
D03*
X-2700000Y0D02*
D03*
X-2800000Y200000D02*
D03*
X-1473204Y2151664D02*
D03*
X-1349998Y2338266D02*
D03*
X-1226793Y2524868D02*
D03*
X-2563169Y479744D02*
D03*
X-2607997Y698811D02*
D03*
X-2652826Y917878D02*
D03*
X-2324868Y1573204D02*
D03*
X-2338266Y1349998D02*
D03*
X-2351664Y1126794D02*
D03*
X-531507Y2756353D02*
D03*
X-698811Y2607997D02*
D03*
X-1838475Y2121318D02*
D03*
X-1909186Y1909186D02*
D03*
X-1979897Y1697054D02*
D03*
X-866115Y2459641D02*
D03*
X917878Y2652826D02*
D03*
X698811Y2607997D02*
D03*
X479744Y2563169D02*
D03*
X2121318Y1838475D02*
D03*
X1909186Y1909186D02*
D03*
X1697054Y1979897D02*
D03*
X2524868Y1226793D02*
D03*
X2338266Y1349998D02*
D03*
X2151663Y1473204D02*
D03*
X2756353Y531507D02*
D03*
X2607997Y698811D02*
D03*
X2459640Y866115D02*
D03*
X2800000Y-200000D02*
D03*
X2700000Y0D02*
D03*
X2600000Y200001D02*
D03*
X531507Y-2756353D02*
D03*
X698811Y-2607997D02*
D03*
X866114Y-2459640D02*
D03*
X-1573204Y-2324868D02*
D03*
X-1349999Y-2338266D02*
D03*
X-2121318Y-1838475D02*
D03*
X-1909186Y-1909186D02*
D03*
X-1697054Y-1979897D02*
D03*
X-2756353Y-531507D02*
D03*
X-2607997Y-698810D02*
D03*
X-2459640Y-866114D02*
D03*
%TF.MD5,dda140f3b544767ae63f5dd611b11f59*%
M02*
