%TF.GenerationSoftware,Altium Limited,Altium Designer,21.0.9 (235)*%
G04 Layer_Color=65535*
%FSLAX44Y44*%
%MOMM*%
%TF.SameCoordinates,5481C346-4989-4D35-A572-F3394CBA5BAB*%
%TF.FilePolarity,Positive*%
%TF.FileFunction,Legend,Top*%
%TF.Part,Single*%
G01*
G75*
%TA.AperFunction,NonConductor*%
%ADD66C,0.1500*%
%ADD67C,0.2500*%
%ADD68C,0.2000*%
G36*
X-23580Y-96232D02*
Y-96269D01*
X-23617Y-96528D01*
Y-96787D01*
X-23654Y-97083D01*
X-23765Y-99194D01*
Y-99231D01*
Y-99268D01*
Y-99379D01*
Y-99528D01*
Y-99861D01*
Y-100305D01*
X-30468D01*
Y-100268D01*
Y-100231D01*
Y-100120D01*
Y-99972D01*
X-30431Y-99602D01*
Y-99157D01*
Y-98639D01*
X-30394Y-98120D01*
Y-97602D01*
Y-97120D01*
Y-97046D01*
Y-96861D01*
Y-96602D01*
Y-96195D01*
X-29209D01*
X-28654Y-96232D01*
X-24728D01*
X-24136Y-96195D01*
X-23580D01*
Y-96232D01*
D02*
G37*
G36*
X-125385Y-96232D02*
Y-96269D01*
X-125422Y-96528D01*
Y-96787D01*
X-125459Y-97083D01*
X-125570Y-99194D01*
Y-99231D01*
Y-99268D01*
Y-99380D01*
Y-99528D01*
Y-99861D01*
Y-100305D01*
X-132273D01*
Y-100268D01*
Y-100231D01*
Y-100120D01*
Y-99972D01*
X-132236Y-99602D01*
Y-99157D01*
Y-98639D01*
X-132199Y-98120D01*
Y-97602D01*
Y-97120D01*
Y-97046D01*
Y-96861D01*
Y-96602D01*
Y-96195D01*
X-131014D01*
X-130458Y-96232D01*
X-126533D01*
X-125940Y-96195D01*
X-125385D01*
Y-96232D01*
D02*
G37*
G36*
X-173676D02*
Y-96269D01*
X-173713Y-96528D01*
Y-96787D01*
X-173750Y-97083D01*
X-173861Y-99194D01*
Y-99231D01*
Y-99268D01*
Y-99380D01*
Y-99528D01*
Y-99861D01*
Y-100305D01*
X-180564D01*
Y-100268D01*
Y-100231D01*
Y-100120D01*
Y-99972D01*
X-180527Y-99602D01*
Y-99157D01*
Y-98639D01*
X-180490Y-98120D01*
Y-97602D01*
Y-97120D01*
Y-97046D01*
Y-96861D01*
Y-96602D01*
Y-96195D01*
X-179305D01*
X-178749Y-96232D01*
X-174824D01*
X-174231Y-96195D01*
X-173676D01*
Y-96232D01*
D02*
G37*
G36*
X-215338Y-96232D02*
Y-96269D01*
X-215375Y-96528D01*
Y-96787D01*
X-215412Y-97083D01*
X-215523Y-99194D01*
Y-99231D01*
Y-99268D01*
Y-99380D01*
Y-99528D01*
Y-99861D01*
Y-100305D01*
X-222226D01*
Y-100268D01*
Y-100231D01*
Y-100120D01*
Y-99972D01*
X-222189Y-99602D01*
Y-99157D01*
Y-98639D01*
X-222152Y-98120D01*
Y-97602D01*
Y-97121D01*
Y-97046D01*
Y-96861D01*
Y-96602D01*
Y-96195D01*
X-220967D01*
X-220412Y-96232D01*
X-216486D01*
X-215894Y-96195D01*
X-215338D01*
Y-96232D01*
D02*
G37*
G36*
X10194Y-100750D02*
Y-100787D01*
X10157Y-100972D01*
Y-101231D01*
X10120Y-101676D01*
X10083Y-101935D01*
Y-102231D01*
X10046Y-102564D01*
X10009Y-102935D01*
Y-103379D01*
X9972Y-103860D01*
X9935Y-104379D01*
X9898Y-104934D01*
X9935Y-104897D01*
X10009Y-104823D01*
X10120Y-104675D01*
X10231Y-104527D01*
X10527Y-104157D01*
X10675Y-104009D01*
X10824Y-103860D01*
X10898Y-103786D01*
X11083Y-103638D01*
X11342Y-103453D01*
X11638Y-103231D01*
X11675D01*
X11712Y-103157D01*
X11934Y-103046D01*
X12194Y-102861D01*
X12527Y-102712D01*
X12564D01*
X12601Y-102675D01*
X12823Y-102564D01*
X13157Y-102453D01*
X13564Y-102342D01*
X13601D01*
X13675Y-102305D01*
X13786D01*
X13934Y-102268D01*
X14379Y-102194D01*
X14860Y-102120D01*
X14897D01*
X14971Y-102083D01*
X15119D01*
X15305Y-102046D01*
X15786Y-102009D01*
X16860D01*
X17230Y-102046D01*
X17638Y-102083D01*
X18119Y-102157D01*
X19119Y-102342D01*
X19193D01*
X19341Y-102416D01*
X19600Y-102490D01*
X19934Y-102601D01*
X20304Y-102750D01*
X20674Y-102972D01*
X21082Y-103194D01*
X21452Y-103490D01*
X21489Y-103527D01*
X21600Y-103638D01*
X21785Y-103786D01*
X21971Y-104009D01*
X22193Y-104305D01*
X22415Y-104601D01*
X22600Y-104934D01*
X22748Y-105305D01*
Y-105342D01*
X22822Y-105490D01*
X22859Y-105675D01*
X22933Y-105934D01*
X23008Y-106268D01*
X23045Y-106638D01*
X23119Y-107045D01*
Y-107490D01*
Y-107527D01*
Y-107564D01*
Y-107675D01*
Y-107823D01*
Y-108193D01*
X23082Y-108712D01*
Y-108749D01*
Y-108860D01*
Y-109008D01*
X23045Y-109230D01*
Y-109489D01*
X23008Y-109823D01*
Y-110193D01*
X22970Y-110601D01*
X22563Y-116341D01*
Y-116378D01*
Y-116526D01*
Y-116711D01*
X22526Y-116970D01*
Y-117563D01*
X22489Y-118155D01*
Y-118192D01*
Y-118266D01*
Y-118414D01*
Y-118637D01*
Y-118896D01*
Y-119192D01*
Y-119525D01*
Y-119896D01*
X15416D01*
Y-119859D01*
Y-119785D01*
X15453Y-119674D01*
Y-119488D01*
X15490Y-119266D01*
X15527Y-119044D01*
Y-118748D01*
X15564Y-118414D01*
X15638Y-117637D01*
X15712Y-116748D01*
X15823Y-115785D01*
X15897Y-114711D01*
Y-114674D01*
Y-114563D01*
X15934Y-114415D01*
Y-114230D01*
X15971Y-113970D01*
Y-113711D01*
X16045Y-113045D01*
X16082Y-112341D01*
X16119Y-111600D01*
X16156Y-110897D01*
Y-110304D01*
Y-110267D01*
Y-110230D01*
Y-110045D01*
X16119Y-109749D01*
X16082Y-109415D01*
X15971Y-109045D01*
X15860Y-108675D01*
X15675Y-108304D01*
X15453Y-108045D01*
X15416Y-108008D01*
X15342Y-107934D01*
X15194Y-107823D01*
X14971Y-107712D01*
X14712Y-107601D01*
X14416Y-107490D01*
X14082Y-107416D01*
X13675Y-107379D01*
X13527D01*
X13342Y-107416D01*
X13083D01*
X12527Y-107564D01*
X12231Y-107675D01*
X11934Y-107823D01*
X11897D01*
X11823Y-107897D01*
X11675Y-107971D01*
X11527Y-108082D01*
X11157Y-108415D01*
X10935Y-108638D01*
X10749Y-108897D01*
Y-108934D01*
X10675Y-109008D01*
X10601Y-109156D01*
X10490Y-109378D01*
X10379Y-109638D01*
X10268Y-109934D01*
X10120Y-110304D01*
X10009Y-110749D01*
Y-110823D01*
X9972Y-111008D01*
X9898Y-111341D01*
X9824Y-111823D01*
X9750Y-112415D01*
X9639Y-113156D01*
X9564Y-114008D01*
X9490Y-115007D01*
Y-115082D01*
Y-115156D01*
Y-115304D01*
X9453Y-115452D01*
Y-115674D01*
Y-115933D01*
X9416Y-116193D01*
Y-116526D01*
X9379Y-116896D01*
Y-117267D01*
X9342Y-117711D01*
Y-118192D01*
X9305Y-118711D01*
Y-119303D01*
X9268Y-119896D01*
X2380D01*
Y-119859D01*
Y-119785D01*
X2417Y-119637D01*
Y-119488D01*
X2454Y-119266D01*
Y-119007D01*
X2528Y-118414D01*
X2602Y-117785D01*
X2639Y-117081D01*
X2713Y-116378D01*
X2750Y-115748D01*
Y-115711D01*
Y-115600D01*
X2787Y-115415D01*
Y-115156D01*
X2824Y-114822D01*
Y-114415D01*
X2861Y-113970D01*
X2898Y-113452D01*
X2936Y-112896D01*
X2973Y-112267D01*
X3009Y-111637D01*
X3047Y-110934D01*
X3084Y-110193D01*
X3121Y-109415D01*
X3232Y-107749D01*
Y-107712D01*
Y-107601D01*
Y-107453D01*
X3269Y-107231D01*
Y-106971D01*
Y-106638D01*
X3306Y-106305D01*
Y-105897D01*
X3343Y-105045D01*
X3380Y-104046D01*
X3417Y-103046D01*
X3454Y-102009D01*
Y-101972D01*
Y-101898D01*
Y-101750D01*
Y-101527D01*
Y-101268D01*
X3491Y-100972D01*
Y-100676D01*
Y-100305D01*
Y-99453D01*
X3528Y-98565D01*
Y-97602D01*
Y-96602D01*
X4787D01*
X5343Y-96639D01*
X9305D01*
X10564Y-96602D01*
X10194Y-100750D01*
D02*
G37*
G36*
X-43430Y-102823D02*
X-43949Y-112489D01*
X-43986Y-114859D01*
X-43282Y-114859D01*
X-43023Y-114896D01*
X-41764D01*
X-41134Y-114933D01*
X-37653D01*
X-36542Y-114896D01*
X-35394D01*
X-34320Y-114859D01*
X-33802Y-114822D01*
X-33357D01*
X-33727Y-119896D01*
X-51911Y-119896D01*
Y-119859D01*
X-51874Y-119711D01*
Y-119525D01*
X-51837Y-119229D01*
X-51800Y-118896D01*
X-51763Y-118489D01*
X-51726Y-118044D01*
X-51688Y-117563D01*
X-51577Y-116526D01*
X-51503Y-115452D01*
X-51392Y-114341D01*
X-51318Y-113341D01*
Y-113304D01*
Y-113119D01*
X-51281Y-112897D01*
X-51244Y-112526D01*
Y-112119D01*
X-51207Y-111637D01*
X-51170Y-111082D01*
X-51096Y-110452D01*
X-51059Y-109786D01*
X-51022Y-109045D01*
X-50985Y-108305D01*
X-50948Y-107490D01*
X-50874Y-105823D01*
X-50800Y-104120D01*
Y-104083D01*
Y-103897D01*
Y-103675D01*
X-50763Y-103342D01*
Y-102972D01*
X-50726Y-102527D01*
Y-102009D01*
X-50689Y-101453D01*
Y-100268D01*
X-50652Y-99009D01*
X-50615Y-97750D01*
Y-97157D01*
Y-96602D01*
X-49207D01*
X-48578Y-96639D01*
X-44504D01*
X-43800Y-96602D01*
X-42986Y-96602D01*
X-43430Y-102823D01*
D02*
G37*
G36*
X-91610Y-100750D02*
Y-100787D01*
X-91647Y-100972D01*
Y-101231D01*
X-91684Y-101676D01*
X-91721Y-101935D01*
Y-102231D01*
X-91758Y-102564D01*
X-91795Y-102935D01*
Y-103379D01*
X-91833Y-103861D01*
X-91869Y-104379D01*
X-91906Y-104934D01*
X-91869Y-104897D01*
X-91795Y-104823D01*
X-91684Y-104675D01*
X-91573Y-104527D01*
X-91277Y-104157D01*
X-91129Y-104009D01*
X-90981Y-103861D01*
X-90907Y-103786D01*
X-90722Y-103638D01*
X-90462Y-103453D01*
X-90166Y-103231D01*
X-90129D01*
X-90092Y-103157D01*
X-89870Y-103046D01*
X-89611Y-102861D01*
X-89277Y-102712D01*
X-89240D01*
X-89203Y-102675D01*
X-88981Y-102564D01*
X-88648Y-102453D01*
X-88240Y-102342D01*
X-88203D01*
X-88129Y-102305D01*
X-88018D01*
X-87870Y-102268D01*
X-87425Y-102194D01*
X-86944Y-102120D01*
X-86907D01*
X-86833Y-102083D01*
X-86685D01*
X-86500Y-102046D01*
X-86018Y-102009D01*
X-84944D01*
X-84574Y-102046D01*
X-84167Y-102083D01*
X-83685Y-102157D01*
X-82685Y-102342D01*
X-82611D01*
X-82463Y-102416D01*
X-82204Y-102490D01*
X-81871Y-102601D01*
X-81500Y-102750D01*
X-81130Y-102972D01*
X-80723Y-103194D01*
X-80352Y-103490D01*
X-80315Y-103527D01*
X-80204Y-103638D01*
X-80019Y-103786D01*
X-79834Y-104009D01*
X-79612Y-104305D01*
X-79389Y-104601D01*
X-79204Y-104934D01*
X-79056Y-105305D01*
Y-105342D01*
X-78982Y-105490D01*
X-78945Y-105675D01*
X-78871Y-105934D01*
X-78797Y-106268D01*
X-78760Y-106638D01*
X-78686Y-107045D01*
Y-107490D01*
Y-107527D01*
Y-107564D01*
Y-107675D01*
Y-107823D01*
Y-108193D01*
X-78723Y-108712D01*
Y-108749D01*
Y-108860D01*
Y-109008D01*
X-78760Y-109230D01*
Y-109489D01*
X-78797Y-109823D01*
Y-110193D01*
X-78834Y-110601D01*
X-79241Y-116341D01*
Y-116378D01*
Y-116526D01*
Y-116711D01*
X-79278Y-116970D01*
Y-117563D01*
X-79315Y-118155D01*
Y-118192D01*
Y-118266D01*
Y-118414D01*
Y-118637D01*
Y-118896D01*
Y-119192D01*
Y-119525D01*
Y-119896D01*
X-86389D01*
Y-119859D01*
Y-119785D01*
X-86352Y-119674D01*
Y-119488D01*
X-86314Y-119266D01*
X-86278Y-119044D01*
Y-118748D01*
X-86241Y-118414D01*
X-86166Y-117637D01*
X-86092Y-116748D01*
X-85981Y-115785D01*
X-85907Y-114711D01*
Y-114674D01*
Y-114563D01*
X-85870Y-114415D01*
Y-114230D01*
X-85833Y-113970D01*
Y-113711D01*
X-85759Y-113045D01*
X-85722Y-112341D01*
X-85685Y-111600D01*
X-85648Y-110897D01*
Y-110304D01*
Y-110267D01*
Y-110230D01*
Y-110045D01*
X-85685Y-109749D01*
X-85722Y-109416D01*
X-85833Y-109045D01*
X-85944Y-108675D01*
X-86129Y-108305D01*
X-86352Y-108045D01*
X-86389Y-108008D01*
X-86463Y-107934D01*
X-86611Y-107823D01*
X-86833Y-107712D01*
X-87092Y-107601D01*
X-87388Y-107490D01*
X-87722Y-107416D01*
X-88129Y-107379D01*
X-88277D01*
X-88462Y-107416D01*
X-88722D01*
X-89277Y-107564D01*
X-89573Y-107675D01*
X-89870Y-107823D01*
X-89907D01*
X-89981Y-107897D01*
X-90129Y-107971D01*
X-90277Y-108082D01*
X-90647Y-108416D01*
X-90870Y-108638D01*
X-91055Y-108897D01*
Y-108934D01*
X-91129Y-109008D01*
X-91203Y-109156D01*
X-91314Y-109378D01*
X-91425Y-109638D01*
X-91536Y-109934D01*
X-91684Y-110304D01*
X-91795Y-110749D01*
Y-110823D01*
X-91833Y-111008D01*
X-91906Y-111341D01*
X-91981Y-111823D01*
X-92055Y-112415D01*
X-92166Y-113156D01*
X-92240Y-114008D01*
X-92314Y-115007D01*
Y-115082D01*
Y-115156D01*
Y-115304D01*
X-92351Y-115452D01*
Y-115674D01*
Y-115933D01*
X-92388Y-116193D01*
Y-116526D01*
X-92425Y-116896D01*
Y-117267D01*
X-92462Y-117711D01*
Y-118192D01*
X-92499Y-118711D01*
Y-119303D01*
X-92536Y-119896D01*
X-99424D01*
Y-119859D01*
Y-119785D01*
X-99387Y-119637D01*
Y-119488D01*
X-99350Y-119266D01*
Y-119007D01*
X-99276Y-118414D01*
X-99202Y-117785D01*
X-99165Y-117081D01*
X-99091Y-116378D01*
X-99054Y-115748D01*
Y-115711D01*
Y-115600D01*
X-99017Y-115415D01*
Y-115156D01*
X-98980Y-114822D01*
Y-114415D01*
X-98943Y-113970D01*
X-98906Y-113452D01*
X-98869Y-112897D01*
X-98832Y-112267D01*
X-98795Y-111637D01*
X-98758Y-110934D01*
X-98721Y-110193D01*
X-98684Y-109416D01*
X-98573Y-107749D01*
Y-107712D01*
Y-107601D01*
Y-107453D01*
X-98535Y-107231D01*
Y-106971D01*
Y-106638D01*
X-98498Y-106305D01*
Y-105897D01*
X-98461Y-105045D01*
X-98424Y-104046D01*
X-98387Y-103046D01*
X-98350Y-102009D01*
Y-101972D01*
Y-101898D01*
Y-101750D01*
Y-101527D01*
Y-101268D01*
X-98313Y-100972D01*
Y-100676D01*
Y-100305D01*
Y-99453D01*
X-98276Y-98565D01*
Y-97602D01*
Y-96602D01*
X-97017D01*
X-96462Y-96639D01*
X-92499D01*
X-91240Y-96602D01*
X-91610Y-100750D01*
D02*
G37*
G36*
X-136606Y-101713D02*
X-137383Y-115822D01*
X-137457Y-119896D01*
X-146123D01*
Y-119859D01*
X-146160Y-119822D01*
X-146271Y-119637D01*
X-146419Y-119340D01*
X-146605Y-118970D01*
X-147012Y-118192D01*
X-147234Y-117822D01*
X-147419Y-117489D01*
X-150271Y-112637D01*
Y-112600D01*
X-150345Y-112526D01*
X-150419Y-112415D01*
X-150493Y-112230D01*
X-150641Y-112008D01*
X-150752Y-111749D01*
X-151086Y-111156D01*
X-151493Y-110452D01*
X-151937Y-109675D01*
X-152382Y-108860D01*
X-152826Y-108045D01*
X-152863Y-107971D01*
X-152974Y-107786D01*
X-153122Y-107527D01*
X-153308Y-107156D01*
X-153567Y-106712D01*
X-153826Y-106194D01*
X-154122Y-105601D01*
X-154456Y-105008D01*
X-154789Y-113082D01*
X-154937Y-119896D01*
X-161677D01*
X-161344Y-116341D01*
X-160714Y-104194D01*
X-160492Y-99268D01*
Y-96602D01*
X-158937D01*
X-158196Y-96639D01*
X-153530D01*
X-152715Y-96602D01*
X-151789D01*
X-144494Y-109860D01*
X-143494Y-111823D01*
Y-111786D01*
Y-111674D01*
X-143457Y-111526D01*
Y-111304D01*
Y-111008D01*
X-143420Y-110638D01*
Y-110230D01*
X-143383Y-109749D01*
X-143346Y-109193D01*
X-143309Y-108601D01*
Y-107934D01*
X-143272Y-107231D01*
X-143235Y-106453D01*
X-143197Y-105601D01*
X-143160Y-104712D01*
X-143124Y-103786D01*
Y-103712D01*
Y-103564D01*
Y-103305D01*
X-143086Y-102935D01*
Y-102527D01*
X-143049Y-102046D01*
Y-101527D01*
X-143012Y-100935D01*
Y-99750D01*
X-142975Y-98565D01*
X-142938Y-98009D01*
Y-97491D01*
Y-97009D01*
Y-96602D01*
X-141716D01*
X-141198Y-96639D01*
X-137902D01*
X-137531Y-96602D01*
X-136198D01*
X-136606Y-101713D01*
D02*
G37*
G36*
X-183527Y-96639D02*
Y-96787D01*
X-183564Y-96972D01*
Y-97232D01*
X-183601Y-97528D01*
Y-97898D01*
X-183675Y-98713D01*
X-183712Y-99565D01*
X-183786Y-100379D01*
Y-100787D01*
X-183823Y-101157D01*
Y-101453D01*
Y-101713D01*
X-185304Y-101638D01*
X-194414Y-101638D01*
X-194563Y-105675D01*
X-192081Y-105712D01*
X-187304Y-105712D01*
X-186526Y-105675D01*
X-185675D01*
Y-105712D01*
Y-105823D01*
X-185712Y-105971D01*
Y-106194D01*
Y-106490D01*
X-185749Y-106786D01*
X-185786Y-107527D01*
X-185823Y-108342D01*
X-185860Y-109156D01*
X-185897Y-110008D01*
Y-110749D01*
X-186156D01*
X-186341Y-110712D01*
X-186823D01*
X-187415Y-110675D01*
X-188082D01*
X-188748Y-110638D01*
X-191378D01*
X-192118Y-110675D01*
X-192970D01*
X-193896Y-110712D01*
X-194859Y-110749D01*
X-195044Y-116896D01*
Y-119155D01*
Y-119896D01*
X-202710D01*
Y-119859D01*
Y-119748D01*
X-202673Y-119563D01*
X-202636Y-119340D01*
Y-119044D01*
X-202599Y-118711D01*
X-202562Y-118303D01*
X-202525Y-117896D01*
X-202451Y-117007D01*
X-202377Y-116081D01*
X-202302Y-115193D01*
X-202228Y-114341D01*
Y-114304D01*
Y-114193D01*
X-202191Y-114008D01*
Y-113785D01*
X-202154Y-113452D01*
Y-113082D01*
X-202117Y-112637D01*
X-202080Y-112119D01*
Y-111526D01*
X-202043Y-110897D01*
X-202006Y-110193D01*
X-201969Y-109416D01*
X-201932Y-108601D01*
X-201895Y-107749D01*
X-201858Y-106823D01*
X-201821Y-105823D01*
Y-105749D01*
Y-105601D01*
Y-105305D01*
X-201784Y-104935D01*
Y-104490D01*
X-201747Y-104009D01*
Y-103453D01*
X-201710Y-102861D01*
Y-101638D01*
X-201673Y-100416D01*
X-201636Y-99861D01*
Y-99342D01*
Y-98898D01*
Y-98491D01*
Y-96602D01*
X-198525D01*
X-197822Y-96639D01*
X-186600Y-96639D01*
X-185082Y-96602D01*
X-183527D01*
Y-96639D01*
D02*
G37*
G36*
X-231633Y-116452D02*
X-232707Y-119896D01*
X-241595D01*
X-242002Y-117563D01*
X-243521Y-109452D01*
Y-109416D01*
Y-109341D01*
X-243557Y-109193D01*
X-243594Y-108971D01*
X-243669Y-108490D01*
X-243743Y-107934D01*
Y-107897D01*
Y-107786D01*
X-243780Y-107601D01*
X-243817Y-107342D01*
X-243854Y-107008D01*
X-243891Y-106601D01*
X-243928Y-106082D01*
X-244002Y-105527D01*
X-244594Y-108156D01*
Y-108193D01*
X-244632Y-108305D01*
X-244669Y-108490D01*
X-244743Y-108712D01*
X-244817Y-108971D01*
X-244891Y-109267D01*
X-245039Y-109934D01*
X-247779Y-119896D01*
X-256334D01*
X-256926Y-116785D01*
Y-116748D01*
X-256964Y-116563D01*
X-257001Y-116341D01*
X-257075Y-115970D01*
X-257186Y-115526D01*
X-257297Y-115007D01*
X-257408Y-114378D01*
X-257556Y-113674D01*
X-260333Y-100935D01*
X-261333Y-96602D01*
X-260074D01*
X-259556Y-96639D01*
X-255741D01*
X-255112Y-96602D01*
X-254371D01*
Y-96639D01*
X-254334Y-96713D01*
Y-96861D01*
X-254297Y-97046D01*
X-254260Y-97306D01*
X-254223Y-97565D01*
X-254112Y-98157D01*
X-254001Y-98824D01*
X-253853Y-99528D01*
X-253742Y-100157D01*
X-253631Y-100713D01*
X-252223Y-107564D01*
Y-107601D01*
X-252186Y-107675D01*
Y-107786D01*
X-252149Y-107971D01*
X-252112Y-108193D01*
X-252038Y-108416D01*
X-252001Y-108749D01*
X-251927Y-109082D01*
X-251853Y-109452D01*
X-251779Y-109860D01*
X-251631Y-110786D01*
X-251409Y-111823D01*
X-251223Y-112971D01*
X-250668Y-110601D01*
X-248631Y-102712D01*
X-247224Y-96602D01*
X-245854D01*
X-245224Y-96639D01*
X-240891D01*
X-240150Y-96602D01*
X-239336D01*
X-238262Y-103786D01*
X-236780Y-112934D01*
X-236114Y-110452D01*
Y-110415D01*
X-236077Y-110341D01*
X-236040Y-110193D01*
X-236003Y-110045D01*
X-235892Y-109601D01*
X-235744Y-109119D01*
Y-109082D01*
X-235707Y-108971D01*
X-235632Y-108786D01*
X-235558Y-108527D01*
X-235410Y-108193D01*
X-235262Y-107712D01*
X-235077Y-107156D01*
X-234855Y-106490D01*
X-232781Y-99935D01*
X-231818Y-96602D01*
X-230596D01*
X-230077Y-96639D01*
X-226337D01*
X-225707Y-96602D01*
X-225004D01*
X-231633Y-116452D01*
D02*
G37*
G36*
X-23617Y-102527D02*
Y-102638D01*
X-23654Y-102787D01*
Y-103046D01*
X-23691Y-103305D01*
X-23728Y-103638D01*
X-23765Y-104009D01*
Y-104416D01*
X-23839Y-105305D01*
X-23914Y-106231D01*
X-23988Y-107193D01*
X-24062Y-108156D01*
Y-108193D01*
Y-108267D01*
Y-108415D01*
Y-108564D01*
X-24099Y-108823D01*
Y-109082D01*
Y-109378D01*
Y-109712D01*
X-24136Y-110489D01*
Y-111378D01*
X-24173Y-112341D01*
Y-113341D01*
Y-113378D01*
Y-113563D01*
Y-113785D01*
Y-114119D01*
Y-114526D01*
X-24210Y-114970D01*
Y-115452D01*
Y-115970D01*
Y-117081D01*
X-24247Y-118155D01*
Y-118674D01*
Y-119118D01*
Y-119525D01*
Y-119896D01*
X-31542D01*
Y-119859D01*
Y-119785D01*
X-31505Y-119711D01*
Y-119563D01*
X-31468Y-119155D01*
X-31431Y-118674D01*
X-31357Y-118155D01*
X-31320Y-117600D01*
X-31246Y-117007D01*
X-31209Y-116489D01*
Y-116415D01*
X-31172Y-116229D01*
Y-115970D01*
X-31135Y-115563D01*
X-31098Y-115044D01*
X-31061Y-114489D01*
X-31024Y-113785D01*
X-30987Y-113045D01*
Y-113008D01*
Y-112934D01*
Y-112823D01*
X-30950Y-112674D01*
Y-112489D01*
Y-112230D01*
X-30913Y-111674D01*
X-30876Y-110971D01*
Y-110193D01*
X-30839Y-109341D01*
X-30802Y-108415D01*
Y-108378D01*
Y-108304D01*
Y-108156D01*
Y-107971D01*
X-30765Y-107712D01*
Y-107416D01*
Y-107082D01*
Y-106712D01*
Y-106305D01*
X-30728Y-105860D01*
Y-104823D01*
X-30691Y-103712D01*
Y-102490D01*
X-29395D01*
X-28839Y-102527D01*
X-25136D01*
X-24432Y-102490D01*
X-23617D01*
Y-102527D01*
D02*
G37*
G36*
X-125422Y-102527D02*
Y-102638D01*
X-125459Y-102787D01*
Y-103046D01*
X-125496Y-103305D01*
X-125533Y-103638D01*
X-125570Y-104009D01*
Y-104416D01*
X-125644Y-105305D01*
X-125718Y-106231D01*
X-125792Y-107193D01*
X-125866Y-108156D01*
Y-108193D01*
Y-108267D01*
Y-108416D01*
Y-108564D01*
X-125903Y-108823D01*
Y-109082D01*
Y-109378D01*
Y-109712D01*
X-125940Y-110489D01*
Y-111378D01*
X-125977Y-112341D01*
Y-113341D01*
Y-113378D01*
Y-113563D01*
Y-113785D01*
Y-114119D01*
Y-114526D01*
X-126014Y-114970D01*
Y-115452D01*
Y-115970D01*
Y-117081D01*
X-126051Y-118155D01*
Y-118674D01*
Y-119118D01*
Y-119525D01*
Y-119896D01*
X-133347D01*
Y-119859D01*
Y-119785D01*
X-133310Y-119711D01*
Y-119563D01*
X-133273Y-119155D01*
X-133236Y-118674D01*
X-133161Y-118155D01*
X-133125Y-117600D01*
X-133050Y-117007D01*
X-133013Y-116489D01*
Y-116415D01*
X-132976Y-116230D01*
Y-115970D01*
X-132939Y-115563D01*
X-132902Y-115044D01*
X-132865Y-114489D01*
X-132828Y-113785D01*
X-132791Y-113045D01*
Y-113008D01*
Y-112934D01*
Y-112823D01*
X-132754Y-112674D01*
Y-112489D01*
Y-112230D01*
X-132717Y-111674D01*
X-132680Y-110971D01*
Y-110193D01*
X-132643Y-109341D01*
X-132606Y-108416D01*
Y-108378D01*
Y-108305D01*
Y-108156D01*
Y-107971D01*
X-132569Y-107712D01*
Y-107416D01*
Y-107082D01*
Y-106712D01*
Y-106305D01*
X-132532Y-105860D01*
Y-104823D01*
X-132495Y-103712D01*
Y-102490D01*
X-131199D01*
X-130643Y-102527D01*
X-126940D01*
X-126236Y-102490D01*
X-125422D01*
Y-102527D01*
D02*
G37*
G36*
X-173713D02*
Y-102638D01*
X-173750Y-102787D01*
Y-103046D01*
X-173787Y-103305D01*
X-173824Y-103638D01*
X-173861Y-104009D01*
Y-104416D01*
X-173935Y-105305D01*
X-174009Y-106231D01*
X-174083Y-107193D01*
X-174157Y-108156D01*
Y-108193D01*
Y-108267D01*
Y-108416D01*
Y-108564D01*
X-174194Y-108823D01*
Y-109082D01*
Y-109378D01*
Y-109712D01*
X-174231Y-110489D01*
Y-111378D01*
X-174268Y-112341D01*
Y-113341D01*
Y-113378D01*
Y-113563D01*
Y-113785D01*
Y-114119D01*
Y-114526D01*
X-174305Y-114970D01*
Y-115452D01*
Y-115970D01*
Y-117081D01*
X-174342Y-118155D01*
Y-118674D01*
Y-119118D01*
Y-119525D01*
Y-119896D01*
X-181638D01*
Y-119859D01*
Y-119785D01*
X-181601Y-119711D01*
Y-119563D01*
X-181564Y-119155D01*
X-181527Y-118674D01*
X-181453Y-118155D01*
X-181416Y-117600D01*
X-181342Y-117007D01*
X-181305Y-116489D01*
Y-116415D01*
X-181268Y-116230D01*
Y-115970D01*
X-181231Y-115563D01*
X-181194Y-115044D01*
X-181157Y-114489D01*
X-181119Y-113785D01*
X-181082Y-113045D01*
Y-113008D01*
Y-112934D01*
Y-112823D01*
X-181045Y-112674D01*
Y-112489D01*
Y-112230D01*
X-181008Y-111674D01*
X-180971Y-110971D01*
Y-110193D01*
X-180934Y-109341D01*
X-180897Y-108416D01*
Y-108378D01*
Y-108305D01*
Y-108156D01*
Y-107971D01*
X-180860Y-107712D01*
Y-107416D01*
Y-107082D01*
Y-106712D01*
Y-106305D01*
X-180823Y-105860D01*
Y-104823D01*
X-180786Y-103712D01*
Y-102490D01*
X-179490D01*
X-178935Y-102527D01*
X-175231D01*
X-174528Y-102490D01*
X-173713D01*
Y-102527D01*
D02*
G37*
G36*
X-215375Y-102527D02*
Y-102638D01*
X-215412Y-102787D01*
Y-103046D01*
X-215449Y-103305D01*
X-215486Y-103638D01*
X-215523Y-104009D01*
Y-104416D01*
X-215597Y-105305D01*
X-215672Y-106231D01*
X-215746Y-107193D01*
X-215820Y-108156D01*
Y-108193D01*
Y-108267D01*
Y-108416D01*
Y-108564D01*
X-215857Y-108823D01*
Y-109082D01*
Y-109378D01*
Y-109712D01*
X-215894Y-110489D01*
Y-111378D01*
X-215931Y-112341D01*
Y-113341D01*
Y-113378D01*
Y-113563D01*
Y-113785D01*
Y-114119D01*
Y-114526D01*
X-215968Y-114971D01*
Y-115452D01*
Y-115970D01*
Y-117081D01*
X-216005Y-118155D01*
Y-118674D01*
Y-119118D01*
Y-119525D01*
Y-119896D01*
X-223300D01*
Y-119859D01*
Y-119785D01*
X-223263Y-119711D01*
Y-119563D01*
X-223226Y-119155D01*
X-223189Y-118674D01*
X-223115Y-118155D01*
X-223078Y-117600D01*
X-223004Y-117007D01*
X-222967Y-116489D01*
Y-116415D01*
X-222930Y-116230D01*
Y-115970D01*
X-222893Y-115563D01*
X-222856Y-115044D01*
X-222819Y-114489D01*
X-222782Y-113785D01*
X-222745Y-113045D01*
Y-113008D01*
Y-112934D01*
Y-112823D01*
X-222708Y-112674D01*
Y-112489D01*
Y-112230D01*
X-222671Y-111674D01*
X-222634Y-110971D01*
Y-110193D01*
X-222597Y-109341D01*
X-222560Y-108416D01*
Y-108378D01*
Y-108305D01*
Y-108156D01*
Y-107971D01*
X-222523Y-107712D01*
Y-107416D01*
Y-107082D01*
Y-106712D01*
Y-106305D01*
X-222486Y-105860D01*
Y-104823D01*
X-222449Y-103712D01*
Y-102490D01*
X-221152D01*
X-220597Y-102527D01*
X-216894D01*
X-216190Y-102490D01*
X-215375D01*
Y-102527D01*
D02*
G37*
G36*
X-204450Y-108490D02*
Y-108564D01*
X-204487Y-108675D01*
Y-108823D01*
Y-109045D01*
X-204524Y-109304D01*
X-204562Y-109860D01*
X-204599Y-110601D01*
X-204636Y-111378D01*
X-204673Y-112267D01*
X-204710Y-113193D01*
X-205599D01*
X-206191Y-113156D01*
X-212153D01*
X-212968Y-113193D01*
X-213857D01*
Y-113156D01*
Y-113082D01*
Y-112934D01*
X-213820Y-112786D01*
Y-112563D01*
X-213783Y-112304D01*
X-213746Y-111674D01*
X-213709Y-110934D01*
X-213672Y-110156D01*
Y-109304D01*
X-213635Y-108453D01*
X-213005D01*
X-212746Y-108490D01*
X-211450D01*
X-210672Y-108527D01*
X-207635D01*
X-206969Y-108490D01*
X-205339D01*
X-204450Y-108453D01*
Y-108490D01*
D02*
G37*
G36*
X35303Y-97972D02*
Y-98046D01*
Y-98157D01*
X35266Y-98343D01*
Y-98528D01*
Y-98787D01*
X35228Y-99379D01*
X35191Y-100120D01*
X35154Y-100935D01*
Y-101824D01*
X35117Y-102750D01*
X39006D01*
Y-102787D01*
Y-102898D01*
Y-103083D01*
X38969Y-103342D01*
Y-103601D01*
Y-103934D01*
X38932Y-104675D01*
X38895Y-105490D01*
Y-106231D01*
X38858Y-106601D01*
Y-106934D01*
Y-107231D01*
Y-107453D01*
X34932D01*
X34710Y-111712D01*
Y-111749D01*
Y-111860D01*
Y-112045D01*
Y-112230D01*
X34673Y-112637D01*
Y-112823D01*
Y-112934D01*
Y-112971D01*
Y-113082D01*
Y-113230D01*
X34710Y-113415D01*
X34747Y-113859D01*
X34858Y-114304D01*
Y-114341D01*
X34895Y-114378D01*
X35006Y-114600D01*
X35191Y-114859D01*
X35488Y-115082D01*
X35525D01*
X35562Y-115119D01*
X35784Y-115193D01*
X36117Y-115267D01*
X36525Y-115304D01*
X37043D01*
X37376Y-115267D01*
X37450D01*
X37562Y-115230D01*
X37747Y-115193D01*
X37969Y-115119D01*
X38228Y-115044D01*
X38561Y-114970D01*
X38969Y-114859D01*
Y-114933D01*
X38932Y-115119D01*
X38858Y-115415D01*
X38784Y-115785D01*
X38672Y-116193D01*
X38598Y-116674D01*
X38413Y-117711D01*
X38080Y-119785D01*
X38006D01*
X37784Y-119822D01*
X37487Y-119896D01*
X37117Y-119970D01*
X36673Y-120044D01*
X36228Y-120118D01*
X35821Y-120192D01*
X35414Y-120229D01*
X35266D01*
X35080Y-120266D01*
X34821D01*
X34525Y-120303D01*
X34228D01*
X33562Y-120340D01*
X33043D01*
X32710Y-120303D01*
X32303Y-120266D01*
X31858Y-120229D01*
X30970Y-120081D01*
X30933D01*
X30784Y-120044D01*
X30562Y-119970D01*
X30303Y-119896D01*
X29711Y-119637D01*
X29377Y-119451D01*
X29081Y-119229D01*
X29044Y-119192D01*
X28970Y-119118D01*
X28822Y-118970D01*
X28674Y-118785D01*
X28525Y-118563D01*
X28340Y-118303D01*
X28192Y-118007D01*
X28081Y-117711D01*
Y-117674D01*
X28044Y-117563D01*
X28007Y-117378D01*
X27970Y-117155D01*
X27896Y-116896D01*
X27859Y-116600D01*
X27822Y-115896D01*
Y-115859D01*
Y-115748D01*
Y-115563D01*
Y-115304D01*
Y-115267D01*
Y-115193D01*
Y-115082D01*
Y-114896D01*
X27859Y-114637D01*
Y-114304D01*
X27896Y-113859D01*
X27933Y-113341D01*
X28340Y-107453D01*
X25674D01*
Y-107416D01*
Y-107231D01*
X25711Y-106971D01*
Y-106638D01*
X25748Y-106194D01*
X25785Y-105638D01*
Y-105045D01*
X25822Y-104342D01*
X25859Y-102750D01*
X28711D01*
Y-102712D01*
X28748Y-102601D01*
Y-102379D01*
X28785Y-102009D01*
X28822Y-101564D01*
X28859Y-101268D01*
Y-100972D01*
X28896Y-100602D01*
X28933Y-100231D01*
Y-99787D01*
X28970Y-99305D01*
X31895Y-98750D01*
X31932D01*
X32044Y-98713D01*
X32266Y-98639D01*
X32599Y-98565D01*
X33080Y-98454D01*
X33340Y-98417D01*
X33673Y-98343D01*
X34006Y-98231D01*
X34414Y-98157D01*
X34821Y-98046D01*
X35303Y-97935D01*
Y-97972D01*
D02*
G37*
G36*
X-66502Y-97972D02*
Y-98046D01*
Y-98157D01*
X-66539Y-98343D01*
Y-98528D01*
Y-98787D01*
X-66576Y-99380D01*
X-66613Y-100120D01*
X-66650Y-100935D01*
Y-101824D01*
X-66687Y-102750D01*
X-62799D01*
Y-102787D01*
Y-102898D01*
Y-103083D01*
X-62835Y-103342D01*
Y-103601D01*
Y-103934D01*
X-62873Y-104675D01*
X-62910Y-105490D01*
Y-106231D01*
X-62947Y-106601D01*
Y-106934D01*
Y-107231D01*
Y-107453D01*
X-66872D01*
X-67094Y-111712D01*
Y-111749D01*
Y-111860D01*
Y-112045D01*
Y-112230D01*
X-67131Y-112637D01*
Y-112823D01*
Y-112934D01*
Y-112971D01*
Y-113082D01*
Y-113230D01*
X-67094Y-113415D01*
X-67057Y-113859D01*
X-66946Y-114304D01*
Y-114341D01*
X-66909Y-114378D01*
X-66798Y-114600D01*
X-66613Y-114859D01*
X-66317Y-115082D01*
X-66280D01*
X-66242Y-115119D01*
X-66020Y-115193D01*
X-65687Y-115267D01*
X-65280Y-115304D01*
X-64761D01*
X-64428Y-115267D01*
X-64354D01*
X-64243Y-115230D01*
X-64058Y-115193D01*
X-63835Y-115119D01*
X-63576Y-115044D01*
X-63243Y-114970D01*
X-62835Y-114859D01*
Y-114933D01*
X-62873Y-115119D01*
X-62947Y-115415D01*
X-63021Y-115785D01*
X-63132Y-116193D01*
X-63206Y-116674D01*
X-63391Y-117711D01*
X-63724Y-119785D01*
X-63798D01*
X-64021Y-119822D01*
X-64317Y-119896D01*
X-64687Y-119970D01*
X-65132Y-120044D01*
X-65576Y-120118D01*
X-65983Y-120192D01*
X-66391Y-120229D01*
X-66539D01*
X-66724Y-120266D01*
X-66983D01*
X-67280Y-120303D01*
X-67576D01*
X-68242Y-120340D01*
X-68761D01*
X-69094Y-120303D01*
X-69502Y-120266D01*
X-69946Y-120229D01*
X-70835Y-120081D01*
X-70872D01*
X-71020Y-120044D01*
X-71242Y-119970D01*
X-71501Y-119896D01*
X-72094Y-119637D01*
X-72427Y-119452D01*
X-72723Y-119229D01*
X-72760Y-119192D01*
X-72834Y-119118D01*
X-72983Y-118970D01*
X-73131Y-118785D01*
X-73279Y-118563D01*
X-73464Y-118303D01*
X-73612Y-118007D01*
X-73723Y-117711D01*
Y-117674D01*
X-73760Y-117563D01*
X-73797Y-117378D01*
X-73834Y-117155D01*
X-73908Y-116896D01*
X-73945Y-116600D01*
X-73983Y-115896D01*
Y-115859D01*
Y-115748D01*
Y-115563D01*
Y-115304D01*
Y-115267D01*
Y-115193D01*
Y-115082D01*
Y-114896D01*
X-73945Y-114637D01*
Y-114304D01*
X-73908Y-113859D01*
X-73871Y-113341D01*
X-73464Y-107453D01*
X-76130D01*
Y-107416D01*
Y-107231D01*
X-76093Y-106971D01*
Y-106638D01*
X-76056Y-106194D01*
X-76019Y-105638D01*
Y-105045D01*
X-75982Y-104342D01*
X-75945Y-102750D01*
X-73094D01*
Y-102712D01*
X-73057Y-102601D01*
Y-102379D01*
X-73020Y-102009D01*
X-72983Y-101564D01*
X-72945Y-101268D01*
Y-100972D01*
X-72909Y-100602D01*
X-72871Y-100231D01*
Y-99787D01*
X-72834Y-99305D01*
X-69909Y-98750D01*
X-69872D01*
X-69761Y-98713D01*
X-69538Y-98639D01*
X-69205Y-98565D01*
X-68724Y-98454D01*
X-68464Y-98417D01*
X-68131Y-98343D01*
X-67798Y-98231D01*
X-67391Y-98157D01*
X-66983Y-98046D01*
X-66502Y-97935D01*
Y-97972D01*
D02*
G37*
G36*
X-8137Y-102083D02*
X-7619D01*
X-7064Y-102120D01*
X-6434Y-102157D01*
X-5730Y-102231D01*
X-5656D01*
X-5545Y-102268D01*
X-5397D01*
X-5175Y-102305D01*
X-4953D01*
X-4693Y-102342D01*
X-4360Y-102379D01*
X-4027Y-102453D01*
X-3619Y-102490D01*
X-3212Y-102564D01*
X-2731Y-102638D01*
X-1731Y-102787D01*
X-546Y-103009D01*
X-953Y-108638D01*
X-1323Y-114822D01*
Y-114859D01*
Y-114933D01*
Y-115044D01*
Y-115193D01*
X-1360Y-115563D01*
Y-115896D01*
X-1471Y-121414D01*
Y-121451D01*
Y-121599D01*
X-1508Y-121784D01*
Y-122044D01*
X-1546Y-122340D01*
X-1583Y-122710D01*
X-1731Y-123414D01*
Y-123451D01*
X-1768Y-123562D01*
X-1805Y-123747D01*
X-1879Y-123932D01*
X-2064Y-124488D01*
X-2360Y-125043D01*
X-2397Y-125080D01*
X-2434Y-125154D01*
X-2545Y-125303D01*
X-2657Y-125488D01*
X-3027Y-125895D01*
X-3471Y-126340D01*
X-3508Y-126377D01*
X-3582Y-126451D01*
X-3731Y-126562D01*
X-3916Y-126710D01*
X-4175Y-126858D01*
X-4434Y-127006D01*
X-5064Y-127303D01*
X-5101D01*
X-5212Y-127376D01*
X-5397Y-127451D01*
X-5656Y-127525D01*
X-5990Y-127636D01*
X-6360Y-127747D01*
X-6767Y-127858D01*
X-7212Y-127932D01*
X-7286D01*
X-7434Y-127969D01*
X-7693Y-128006D01*
X-8063Y-128043D01*
X-8471Y-128117D01*
X-8952Y-128154D01*
X-9471Y-128191D01*
X-10545D01*
X-10841Y-128154D01*
X-11174D01*
X-11581Y-128117D01*
X-12026Y-128080D01*
X-12211D01*
X-12470Y-128043D01*
X-12767Y-128006D01*
X-13137D01*
X-13544Y-127969D01*
X-14470Y-127858D01*
X-14507D01*
X-14692Y-127821D01*
X-14914Y-127784D01*
X-15211Y-127747D01*
X-15544Y-127710D01*
X-15877Y-127636D01*
X-16618Y-127525D01*
X-16655D01*
X-16766Y-127488D01*
X-16988Y-127451D01*
X-17248Y-127414D01*
X-17581Y-127339D01*
X-17988Y-127265D01*
X-18433Y-127191D01*
X-18914Y-127080D01*
X-19062Y-124821D01*
Y-124784D01*
Y-124673D01*
Y-124488D01*
Y-124229D01*
X-19099Y-123858D01*
X-19136Y-123340D01*
X-19173Y-122747D01*
X-19210Y-122007D01*
X-19173D01*
X-19099Y-122044D01*
X-18988Y-122081D01*
X-18840Y-122118D01*
X-18433Y-122266D01*
X-17914Y-122414D01*
X-17322Y-122599D01*
X-16655Y-122747D01*
X-15989Y-122895D01*
X-15359Y-123044D01*
X-15285D01*
X-15063Y-123081D01*
X-14766Y-123118D01*
X-14359Y-123192D01*
X-13915Y-123229D01*
X-13433Y-123303D01*
X-12915Y-123340D01*
X-12100D01*
X-11878Y-123303D01*
X-11359Y-123229D01*
X-10804Y-123118D01*
X-10767D01*
X-10693Y-123081D01*
X-10545Y-123044D01*
X-10359Y-122970D01*
X-9989Y-122821D01*
X-9619Y-122636D01*
X-9582D01*
X-9545Y-122599D01*
X-9359Y-122414D01*
X-9100Y-122192D01*
X-8878Y-121896D01*
Y-121859D01*
X-8804Y-121821D01*
X-8693Y-121599D01*
X-8545Y-121303D01*
X-8397Y-120896D01*
Y-120859D01*
X-8360Y-120785D01*
X-8323Y-120711D01*
X-8286Y-120562D01*
X-8212Y-120155D01*
X-8137Y-119674D01*
Y-119637D01*
Y-119525D01*
X-8100Y-119377D01*
Y-119155D01*
X-8063Y-118896D01*
X-8026Y-118563D01*
Y-118155D01*
X-7989Y-117711D01*
X-8026Y-117748D01*
X-8100Y-117822D01*
X-8212Y-117933D01*
X-8397Y-118081D01*
X-8767Y-118414D01*
X-9174Y-118711D01*
X-9211D01*
X-9248Y-118785D01*
X-9359Y-118822D01*
X-9508Y-118933D01*
X-9878Y-119118D01*
X-10359Y-119377D01*
X-10396D01*
X-10470Y-119414D01*
X-10619Y-119488D01*
X-10804Y-119563D01*
X-11063Y-119637D01*
X-11322Y-119748D01*
X-11915Y-119896D01*
X-11952D01*
X-12063Y-119933D01*
X-12248D01*
X-12470Y-119970D01*
X-12730Y-120007D01*
X-13026D01*
X-13692Y-120044D01*
X-14063D01*
X-14470Y-120007D01*
X-14989Y-119933D01*
X-15618Y-119785D01*
X-16285Y-119637D01*
X-16951Y-119377D01*
X-17618Y-119044D01*
X-17692Y-119007D01*
X-17914Y-118859D01*
X-18211Y-118637D01*
X-18581Y-118303D01*
X-18988Y-117933D01*
X-19396Y-117452D01*
X-19803Y-116896D01*
X-20173Y-116267D01*
Y-116229D01*
X-20210Y-116193D01*
X-20247Y-116081D01*
X-20321Y-115933D01*
X-20433Y-115563D01*
X-20581Y-115082D01*
X-20766Y-114526D01*
X-20877Y-113859D01*
X-20988Y-113119D01*
X-21025Y-112341D01*
Y-112304D01*
Y-112230D01*
Y-112082D01*
Y-111934D01*
X-20988Y-111712D01*
Y-111452D01*
X-20914Y-110860D01*
X-20803Y-110156D01*
X-20655Y-109415D01*
X-20433Y-108638D01*
X-20136Y-107897D01*
Y-107860D01*
X-20099Y-107823D01*
X-20025Y-107712D01*
X-19951Y-107564D01*
X-19766Y-107193D01*
X-19470Y-106712D01*
X-19099Y-106194D01*
X-18618Y-105638D01*
X-18099Y-105083D01*
X-17507Y-104527D01*
X-17470D01*
X-17433Y-104453D01*
X-17211Y-104305D01*
X-16840Y-104046D01*
X-16396Y-103749D01*
X-15803Y-103453D01*
X-15174Y-103120D01*
X-14470Y-102823D01*
X-13729Y-102601D01*
X-13692D01*
X-13618Y-102564D01*
X-13507D01*
X-13359Y-102527D01*
X-13174Y-102453D01*
X-12952Y-102416D01*
X-12396Y-102305D01*
X-11693Y-102231D01*
X-10915Y-102120D01*
X-10026Y-102083D01*
X-9100Y-102046D01*
X-8545D01*
X-8137Y-102083D01*
D02*
G37*
G36*
X-109942Y-102083D02*
X-109423D01*
X-108868Y-102120D01*
X-108238Y-102157D01*
X-107535Y-102231D01*
X-107460D01*
X-107349Y-102268D01*
X-107201D01*
X-106979Y-102305D01*
X-106757D01*
X-106498Y-102342D01*
X-106164Y-102379D01*
X-105831Y-102453D01*
X-105424Y-102490D01*
X-105016Y-102564D01*
X-104535Y-102638D01*
X-103535Y-102787D01*
X-102350Y-103009D01*
X-102757Y-108638D01*
X-103128Y-114822D01*
Y-114859D01*
Y-114933D01*
Y-115044D01*
Y-115193D01*
X-103165Y-115563D01*
Y-115896D01*
X-103276Y-121414D01*
Y-121451D01*
Y-121599D01*
X-103313Y-121784D01*
Y-122044D01*
X-103350Y-122340D01*
X-103387Y-122710D01*
X-103535Y-123414D01*
Y-123451D01*
X-103572Y-123562D01*
X-103609Y-123747D01*
X-103683Y-123933D01*
X-103868Y-124488D01*
X-104164Y-125043D01*
X-104202Y-125080D01*
X-104239Y-125155D01*
X-104350Y-125303D01*
X-104461Y-125488D01*
X-104831Y-125895D01*
X-105275Y-126340D01*
X-105313Y-126377D01*
X-105387Y-126451D01*
X-105535Y-126562D01*
X-105720Y-126710D01*
X-105979Y-126858D01*
X-106238Y-127006D01*
X-106868Y-127303D01*
X-106905D01*
X-107016Y-127377D01*
X-107201Y-127451D01*
X-107460Y-127525D01*
X-107794Y-127636D01*
X-108164Y-127747D01*
X-108572Y-127858D01*
X-109016Y-127932D01*
X-109090D01*
X-109238Y-127969D01*
X-109497Y-128006D01*
X-109868Y-128043D01*
X-110275Y-128117D01*
X-110756Y-128154D01*
X-111275Y-128191D01*
X-112349D01*
X-112645Y-128154D01*
X-112978D01*
X-113386Y-128117D01*
X-113830Y-128080D01*
X-114015D01*
X-114275Y-128043D01*
X-114571Y-128006D01*
X-114941D01*
X-115349Y-127969D01*
X-116274Y-127858D01*
X-116311D01*
X-116497Y-127821D01*
X-116719Y-127784D01*
X-117015Y-127747D01*
X-117348Y-127710D01*
X-117682Y-127636D01*
X-118422Y-127525D01*
X-118459D01*
X-118570Y-127488D01*
X-118793Y-127451D01*
X-119052Y-127414D01*
X-119385Y-127339D01*
X-119792Y-127266D01*
X-120237Y-127191D01*
X-120718Y-127080D01*
X-120866Y-124821D01*
Y-124784D01*
Y-124673D01*
Y-124488D01*
Y-124229D01*
X-120904Y-123858D01*
X-120941Y-123340D01*
X-120978Y-122747D01*
X-121015Y-122007D01*
X-120978D01*
X-120904Y-122044D01*
X-120792Y-122081D01*
X-120644Y-122118D01*
X-120237Y-122266D01*
X-119719Y-122414D01*
X-119126Y-122599D01*
X-118459Y-122747D01*
X-117793Y-122895D01*
X-117163Y-123044D01*
X-117089D01*
X-116867Y-123081D01*
X-116571Y-123118D01*
X-116163Y-123192D01*
X-115719Y-123229D01*
X-115238Y-123303D01*
X-114719Y-123340D01*
X-113904D01*
X-113682Y-123303D01*
X-113164Y-123229D01*
X-112608Y-123118D01*
X-112571D01*
X-112497Y-123081D01*
X-112349Y-123044D01*
X-112164Y-122970D01*
X-111793Y-122822D01*
X-111423Y-122636D01*
X-111386D01*
X-111349Y-122599D01*
X-111164Y-122414D01*
X-110905Y-122192D01*
X-110682Y-121896D01*
Y-121859D01*
X-110608Y-121822D01*
X-110497Y-121599D01*
X-110349Y-121303D01*
X-110201Y-120896D01*
Y-120859D01*
X-110164Y-120785D01*
X-110127Y-120711D01*
X-110090Y-120562D01*
X-110016Y-120155D01*
X-109942Y-119674D01*
Y-119637D01*
Y-119525D01*
X-109905Y-119377D01*
Y-119155D01*
X-109868Y-118896D01*
X-109831Y-118563D01*
Y-118155D01*
X-109794Y-117711D01*
X-109831Y-117748D01*
X-109905Y-117822D01*
X-110016Y-117933D01*
X-110201Y-118081D01*
X-110571Y-118414D01*
X-110979Y-118711D01*
X-111016D01*
X-111053Y-118785D01*
X-111164Y-118822D01*
X-111312Y-118933D01*
X-111682Y-119118D01*
X-112164Y-119377D01*
X-112201D01*
X-112275Y-119414D01*
X-112423Y-119488D01*
X-112608Y-119563D01*
X-112867Y-119637D01*
X-113127Y-119748D01*
X-113719Y-119896D01*
X-113756D01*
X-113867Y-119933D01*
X-114052D01*
X-114275Y-119970D01*
X-114534Y-120007D01*
X-114830D01*
X-115497Y-120044D01*
X-115867D01*
X-116274Y-120007D01*
X-116793Y-119933D01*
X-117422Y-119785D01*
X-118089Y-119637D01*
X-118756Y-119377D01*
X-119422Y-119044D01*
X-119496Y-119007D01*
X-119719Y-118859D01*
X-120015Y-118637D01*
X-120385Y-118303D01*
X-120792Y-117933D01*
X-121200Y-117452D01*
X-121607Y-116896D01*
X-121978Y-116267D01*
Y-116230D01*
X-122015Y-116193D01*
X-122052Y-116081D01*
X-122126Y-115933D01*
X-122237Y-115563D01*
X-122385Y-115082D01*
X-122570Y-114526D01*
X-122681Y-113859D01*
X-122792Y-113119D01*
X-122829Y-112341D01*
Y-112304D01*
Y-112230D01*
Y-112082D01*
Y-111934D01*
X-122792Y-111712D01*
Y-111452D01*
X-122718Y-110860D01*
X-122607Y-110156D01*
X-122459Y-109416D01*
X-122237Y-108638D01*
X-121940Y-107897D01*
Y-107860D01*
X-121903Y-107823D01*
X-121829Y-107712D01*
X-121755Y-107564D01*
X-121570Y-107193D01*
X-121274Y-106712D01*
X-120904Y-106194D01*
X-120422Y-105638D01*
X-119904Y-105083D01*
X-119311Y-104527D01*
X-119274D01*
X-119237Y-104453D01*
X-119015Y-104305D01*
X-118645Y-104046D01*
X-118200Y-103749D01*
X-117608Y-103453D01*
X-116978Y-103120D01*
X-116274Y-102823D01*
X-115534Y-102601D01*
X-115497D01*
X-115423Y-102564D01*
X-115311D01*
X-115163Y-102527D01*
X-114978Y-102453D01*
X-114756Y-102416D01*
X-114200Y-102305D01*
X-113497Y-102231D01*
X-112719Y-102120D01*
X-111830Y-102083D01*
X-110905Y-102046D01*
X-110349D01*
X-109942Y-102083D01*
D02*
G37*
%LPC*%
G36*
X-9397Y-107045D02*
X-9656D01*
X-9952Y-107082D01*
X-10285Y-107119D01*
X-10693Y-107193D01*
X-11137Y-107304D01*
X-11581Y-107453D01*
X-12026Y-107638D01*
X-12063Y-107675D01*
X-12211Y-107749D01*
X-12396Y-107897D01*
X-12656Y-108082D01*
X-12952Y-108342D01*
X-13211Y-108638D01*
X-13507Y-109008D01*
X-13766Y-109415D01*
X-13803Y-109452D01*
X-13841Y-109601D01*
X-13952Y-109860D01*
X-14063Y-110156D01*
X-14174Y-110526D01*
X-14248Y-110934D01*
X-14322Y-111378D01*
X-14359Y-111860D01*
Y-111897D01*
Y-112008D01*
Y-112193D01*
X-14322Y-112415D01*
X-14248Y-112971D01*
X-14063Y-113563D01*
Y-113600D01*
X-13989Y-113674D01*
X-13915Y-113822D01*
X-13803Y-114008D01*
X-13470Y-114415D01*
X-13248Y-114600D01*
X-12989Y-114785D01*
X-12952D01*
X-12841Y-114859D01*
X-12693Y-114933D01*
X-12507Y-115007D01*
X-12248Y-115082D01*
X-11989Y-115156D01*
X-11693Y-115193D01*
X-11396Y-115230D01*
X-11174D01*
X-10952Y-115193D01*
X-10656Y-115119D01*
X-10322Y-115007D01*
X-9952Y-114859D01*
X-9582Y-114674D01*
X-9211Y-114378D01*
X-9174Y-114341D01*
X-9063Y-114230D01*
X-8878Y-114008D01*
X-8693Y-113748D01*
X-8471Y-113378D01*
X-8249Y-112971D01*
X-8063Y-112489D01*
X-7915Y-111934D01*
Y-111860D01*
X-7841Y-111637D01*
X-7804Y-111267D01*
X-7730Y-110749D01*
X-7656Y-110119D01*
X-7582Y-109304D01*
X-7508Y-108342D01*
X-7471Y-107268D01*
X-7508D01*
X-7656Y-107231D01*
X-7841Y-107193D01*
X-8100Y-107156D01*
X-8397Y-107119D01*
X-8730Y-107082D01*
X-9397Y-107045D01*
D02*
G37*
G36*
X-111201Y-107045D02*
X-111460D01*
X-111756Y-107082D01*
X-112090Y-107119D01*
X-112497Y-107193D01*
X-112941Y-107305D01*
X-113386Y-107453D01*
X-113830Y-107638D01*
X-113867Y-107675D01*
X-114015Y-107749D01*
X-114200Y-107897D01*
X-114460Y-108082D01*
X-114756Y-108342D01*
X-115015Y-108638D01*
X-115311Y-109008D01*
X-115571Y-109416D01*
X-115608Y-109452D01*
X-115645Y-109601D01*
X-115756Y-109860D01*
X-115867Y-110156D01*
X-115978Y-110526D01*
X-116052Y-110934D01*
X-116126Y-111378D01*
X-116163Y-111860D01*
Y-111897D01*
Y-112008D01*
Y-112193D01*
X-116126Y-112415D01*
X-116052Y-112971D01*
X-115867Y-113563D01*
Y-113600D01*
X-115793Y-113674D01*
X-115719Y-113822D01*
X-115608Y-114008D01*
X-115274Y-114415D01*
X-115052Y-114600D01*
X-114793Y-114785D01*
X-114756D01*
X-114645Y-114859D01*
X-114497Y-114933D01*
X-114312Y-115007D01*
X-114052Y-115082D01*
X-113793Y-115156D01*
X-113497Y-115193D01*
X-113201Y-115230D01*
X-112978D01*
X-112756Y-115193D01*
X-112460Y-115119D01*
X-112127Y-115007D01*
X-111756Y-114859D01*
X-111386Y-114674D01*
X-111016Y-114378D01*
X-110979Y-114341D01*
X-110868Y-114230D01*
X-110682Y-114008D01*
X-110497Y-113748D01*
X-110275Y-113378D01*
X-110053Y-112971D01*
X-109868Y-112489D01*
X-109719Y-111934D01*
Y-111860D01*
X-109645Y-111637D01*
X-109608Y-111267D01*
X-109534Y-110749D01*
X-109460Y-110119D01*
X-109386Y-109304D01*
X-109312Y-108342D01*
X-109275Y-107268D01*
X-109312D01*
X-109460Y-107231D01*
X-109645Y-107193D01*
X-109905Y-107156D01*
X-110201Y-107119D01*
X-110534Y-107082D01*
X-111201Y-107045D01*
D02*
G37*
%LPD*%
D66*
X247572Y-283267D02*
G03*
X247572Y-283267I-800J0D01*
G01*
X258988Y-247487D02*
G03*
X258988Y-247487I-11500J0D01*
G01*
X282574Y246372D02*
G03*
X282574Y246372I693J400D01*
G01*
X237528Y241737D02*
G03*
X237528Y241737I9960J5750D01*
G01*
X-100546Y332324D02*
G03*
X-100546Y332324I9960J5750D01*
G01*
X-72770Y368303D02*
G03*
X-72770Y368303I693J400D01*
G01*
X-163500Y303109D02*
G03*
X-163500Y303109I-11500J0D01*
G01*
X-164249Y337484D02*
G03*
X-164249Y337484I-800J0D01*
G01*
X-237528Y241737D02*
G03*
X-237528Y241737I-9960J5750D01*
G01*
X-246079Y282867D02*
G03*
X-246079Y282867I-693J400D01*
G01*
X-314609Y175000D02*
G03*
X-314609Y175000I11500J0D01*
G01*
X-312479Y209746D02*
G03*
X-312479Y209746I800J0D01*
G01*
X-349182Y87610D02*
G03*
X-349182Y87610I11108J2977D01*
G01*
X-356117Y121723D02*
G03*
X-356117Y121723I773J207D01*
G01*
X-338499Y0D02*
G03*
X-338499Y0I-11500J0D01*
G01*
X-373994Y25806D02*
G03*
X-373994Y25806I-800J0D01*
G01*
X-349182Y-87610D02*
G03*
X-349182Y-87610I11108J-2977D01*
G01*
X-369475Y-71870D02*
G03*
X-369475Y-71870I773J-207D01*
G01*
X-235987Y-247487D02*
G03*
X-235987Y-247487I-11500J0D01*
G01*
X-282467Y-246772D02*
G03*
X-282467Y-246772I-800J0D01*
G01*
X-163500Y-303109D02*
G03*
X-163500Y-303109I-11500J0D01*
G01*
X-208946Y-311679D02*
G03*
X-208946Y-311679I-800J0D01*
G01*
X-79086Y-338074D02*
G03*
X-79086Y-338074I-11500J0D01*
G01*
X-121131Y-355345D02*
G03*
X-121131Y-355345I-800J0D01*
G01*
X11500Y-350000D02*
G03*
X11500Y-350000I-11500J0D01*
G01*
X-25006Y-374794D02*
G03*
X-25006Y-374794I-800J0D01*
G01*
X102087Y-338074D02*
G03*
X102087Y-338074I-11500J0D01*
G01*
X72877Y-368703D02*
G03*
X72877Y-368703I-800J0D01*
G01*
X186500Y-303109D02*
G03*
X186500Y-303109I-11500J0D01*
G01*
X165849Y-337484D02*
G03*
X165849Y-337484I-800J0D01*
G01*
X326573Y-90587D02*
G03*
X326573Y-90587I11500J0D01*
G01*
X354544Y-121931D02*
G03*
X354544Y-121931I800J0D01*
G01*
X338891Y-2977D02*
G03*
X338891Y-2977I11108J2977D01*
G01*
X374022Y-26013D02*
G03*
X374022Y-26013I773J207D01*
G01*
X326573Y90587D02*
G03*
X326573Y90587I11500J0D01*
G01*
X367903Y72077D02*
G03*
X367903Y72077I800J0D01*
G01*
X292000Y172023D02*
G03*
X292000Y172023I11108J2977D01*
G01*
X336712Y164842D02*
G03*
X336712Y164842I773J207D01*
G01*
X172023Y292000D02*
G03*
X172023Y292000I2977J11108D01*
G01*
X209539Y310906D02*
G03*
X209539Y310906I207J773D01*
G01*
X100546Y332324D02*
G03*
X100546Y332324I-9960J5750D01*
G01*
X122623Y354944D02*
G03*
X122623Y354944I-693J400D01*
G01*
X251023Y-215667D02*
X279307Y-243952D01*
X215667Y-251023D02*
X243952Y-279307D01*
X215667Y251023D02*
X243952Y279307D01*
X251023Y215667D02*
X279307Y243952D01*
X-71615Y363863D02*
X-61262Y325226D01*
X-119911Y350922D02*
X-109558Y312285D01*
X-163349Y332929D02*
X-143349Y298288D01*
X-206651Y307929D02*
X-186651Y273288D01*
X-243952Y279307D02*
X-215667Y251023D01*
X-279307Y243952D02*
X-251023Y215667D01*
X-307929Y206651D02*
X-273288Y186651D01*
X-332929Y163349D02*
X-298288Y143349D01*
X-350922Y119911D02*
X-312285Y109558D01*
X-363863Y71615D02*
X-325226Y61262D01*
X-370000Y25000D02*
X-330000D01*
X-370000Y-25000D02*
X-330000D01*
X-363863Y-71615D02*
X-325226Y-61262D01*
X-350922Y-119911D02*
X-312285Y-109558D01*
X-279307Y-243952D02*
X-251023Y-215667D01*
X-243952Y-279307D02*
X-215667Y-251023D01*
X-206651Y-307929D02*
X-186651Y-273288D01*
X-163349Y-332929D02*
X-143349Y-298288D01*
X-119911Y-350922D02*
X-109558Y-312285D01*
X-71615Y-363863D02*
X-61262Y-325226D01*
X-25000Y-370000D02*
Y-330000D01*
X25000Y-370000D02*
Y-330000D01*
X61262Y-325226D02*
X71615Y-363863D01*
X109558Y-312285D02*
X119911Y-350922D01*
X143349Y-298288D02*
X163349Y-332929D01*
X186651Y-273288D02*
X206651Y-307929D01*
X312285Y-109558D02*
X350922Y-119911D01*
X325226Y-61262D02*
X363863Y-71615D01*
X330000Y-25000D02*
X370000D01*
X330000Y25000D02*
X370000D01*
X325226Y61262D02*
X363863Y71615D01*
X312285Y109558D02*
X350922Y119911D01*
X298288Y143349D02*
X332929Y163349D01*
X273288Y186651D02*
X307929Y206651D01*
X186651Y273288D02*
X206651Y307929D01*
X143349Y298288D02*
X163349Y332929D01*
X109558Y312285D02*
X119911Y350922D01*
X61262Y325226D02*
X71615Y363863D01*
D67*
X66676Y-187543D02*
G03*
X66676Y-187543I323J-1207D01*
G01*
X-35460Y46868D02*
X-44744D01*
Y31872D01*
X-35460D01*
X-44744Y39727D02*
X-39031D01*
X-22963Y44726D02*
X-24391Y46154D01*
X-26534Y46868D01*
X-29390D01*
X-31533Y46154D01*
X-32961Y44726D01*
Y43298D01*
X-32247Y41870D01*
X-31533Y41155D01*
X-30104Y40441D01*
X-25819Y39013D01*
X-24391Y38299D01*
X-23677Y37585D01*
X-22963Y36156D01*
Y34014D01*
X-24391Y32586D01*
X-26534Y31872D01*
X-29390D01*
X-31533Y32586D01*
X-32961Y34014D01*
X-19607Y39013D02*
X-13179D01*
X-11037Y39727D01*
X-10323Y40441D01*
X-9609Y41870D01*
Y44012D01*
X-10323Y45440D01*
X-11037Y46154D01*
X-13179Y46868D01*
X-19607D01*
Y31872D01*
X-6252Y46868D02*
Y31872D01*
Y46868D02*
X175D01*
X2317Y46154D01*
X3031Y45440D01*
X3746Y44012D01*
Y42584D01*
X3031Y41155D01*
X2317Y40441D01*
X175Y39727D01*
X-6252D01*
X-1253D02*
X3746Y31872D01*
X16386Y46868D02*
X7102D01*
Y31872D01*
X16386D01*
X7102Y39727D02*
X12815D01*
X28883Y44726D02*
X27455Y46154D01*
X25312Y46868D01*
X22456D01*
X20313Y46154D01*
X18885Y44726D01*
Y43298D01*
X19599Y41870D01*
X20313Y41155D01*
X21742Y40441D01*
X26026Y39013D01*
X27455Y38299D01*
X28169Y37585D01*
X28883Y36156D01*
Y34014D01*
X27455Y32586D01*
X25312Y31872D01*
X22456D01*
X20313Y32586D01*
X18885Y34014D01*
X42237Y44726D02*
X40809Y46154D01*
X38667Y46868D01*
X35810D01*
X33668Y46154D01*
X32239Y44726D01*
Y43298D01*
X32954Y41870D01*
X33668Y41155D01*
X35096Y40441D01*
X39381Y39013D01*
X40809Y38299D01*
X41523Y37585D01*
X42237Y36156D01*
Y34014D01*
X40809Y32586D01*
X38667Y31872D01*
X35810D01*
X33668Y32586D01*
X32239Y34014D01*
X45594Y46868D02*
Y31872D01*
X48736Y46868D02*
Y31872D01*
Y46868D02*
X58020D01*
X48736Y39727D02*
X54449D01*
X-258834Y-126096D02*
Y-141092D01*
Y-126096D02*
X-252406D01*
X-250264Y-126810D01*
X-249550Y-127524D01*
X-248836Y-128952D01*
Y-130380D01*
X-249550Y-131809D01*
X-250264Y-132523D01*
X-252406Y-133237D01*
X-258834D01*
X-253834D02*
X-248836Y-141092D01*
X-245479Y-135379D02*
X-236910D01*
Y-133951D01*
X-237624Y-132523D01*
X-238338Y-131809D01*
X-239766Y-131095D01*
X-241908D01*
X-243337Y-131809D01*
X-244765Y-133237D01*
X-245479Y-135379D01*
Y-136807D01*
X-244765Y-138950D01*
X-243337Y-140378D01*
X-241908Y-141092D01*
X-239766D01*
X-238338Y-140378D01*
X-236910Y-138950D01*
X-233696Y-131095D02*
X-229411Y-141092D01*
X-225126Y-131095D02*
X-229411Y-141092D01*
X-221984Y-139664D02*
X-222698Y-140378D01*
X-221984Y-141092D01*
X-221270Y-140378D01*
X-221984Y-139664D01*
X-194776Y-141092D02*
X-200489Y-126096D01*
X-206202Y-141092D01*
X-204060Y-136093D02*
X-196918D01*
D68*
X-50892Y-57809D02*
G03*
X-50892Y-57809I-1812J-6762D01*
G01*
X-54981Y-297921D02*
X-53946Y-294057D01*
X-62708Y-295850D02*
X-61673Y-291987D01*
X-93618Y-287568D02*
X-92583Y-283704D01*
X-101346Y-285498D02*
X-100310Y-281634D01*
X-130215Y-273539D02*
X-128215Y-270075D01*
X-137143Y-269539D02*
X-135143Y-266075D01*
X-287568Y93618D02*
X-283704Y92583D01*
X-285498Y101345D02*
X-281634Y100310D01*
X-297921Y54981D02*
X-294057Y53946D01*
X-295850Y62708D02*
X-291987Y61673D01*
X-292745Y74300D02*
X-288881Y73264D01*
X-290674Y82027D02*
X-286810Y80992D01*
X-202232Y224860D02*
X-199404Y222031D01*
X-196575Y230517D02*
X-193747Y227688D01*
X-230517Y196576D02*
X-227688Y193747D01*
X-224860Y202232D02*
X-222031Y199404D01*
X-216374Y210718D02*
X-213546Y207889D01*
X-210718Y216374D02*
X-207889Y213546D01*
X-101346Y285498D02*
X-100310Y281634D01*
X-93618Y287568D02*
X-92583Y283704D01*
X-62708Y295850D02*
X-61673Y291987D01*
X-54981Y297921D02*
X-53946Y294057D01*
X-82027Y290674D02*
X-80992Y286810D01*
X-74300Y292745D02*
X-73264Y288881D01*
X169785Y-246076D02*
X171785Y-249540D01*
X162856Y-250075D02*
X164856Y-253540D01*
X152464Y-256075D02*
X154464Y-259539D01*
X145536Y-260075D02*
X147536Y-263539D01*
X135144Y-266076D02*
X137144Y-269540D01*
X128216Y-270076D02*
X130215Y-273540D01*
X227688Y-193747D02*
X230517Y-196576D01*
X222031Y-199404D02*
X224860Y-202232D01*
X199404Y-222032D02*
X202232Y-224860D01*
X193747Y-227688D02*
X196576Y-230517D01*
X213546Y-207889D02*
X216374Y-210718D01*
X207889Y-213546D02*
X210718Y-216374D01*
X-171784Y249539D02*
X-169784Y246075D01*
X-164856Y253539D02*
X-162856Y250075D01*
X-154464Y259539D02*
X-152464Y256075D01*
X-147536Y263539D02*
X-145536Y260075D01*
X-137143Y269539D02*
X-135143Y266075D01*
X-130215Y273539D02*
X-128215Y270075D01*
X288881Y-73264D02*
X292745Y-74300D01*
X286810Y-80992D02*
X290674Y-82027D01*
X283705Y-92583D02*
X287568Y-93618D01*
X281634Y-100310D02*
X285498Y-101346D01*
X294057Y-53946D02*
X297921Y-54981D01*
X291987Y-61673D02*
X295851Y-62709D01*
X128215Y270076D02*
X130215Y273540D01*
X135144Y266075D02*
X137144Y269540D01*
X100310Y-281634D02*
X101346Y-285498D01*
X92583Y-283704D02*
X93618Y-287568D01*
X-285498Y-101346D02*
X-281634Y-100310D01*
X-287568Y-93618D02*
X-283704Y-92583D01*
X145536Y260075D02*
X147536Y263539D01*
X152464Y256075D02*
X154464Y259539D01*
X80992Y-286810D02*
X82027Y-290674D01*
X73264Y-288881D02*
X74300Y-292745D01*
X-290674Y-82027D02*
X-286810Y-80992D01*
X-292745Y-74300D02*
X-288881Y-73264D01*
X162856Y250075D02*
X164856Y253540D01*
X169785Y246076D02*
X171784Y249540D01*
X61673Y-291987D02*
X62709Y-295850D01*
X53946Y-294057D02*
X54981Y-297921D01*
X-295850Y-62709D02*
X-291987Y-61673D01*
X-297921Y-54981D02*
X-294057Y-53946D01*
X-2000Y104000D02*
X2000D01*
X-2000Y96000D02*
X2000Y96000D01*
X78000Y104000D02*
X82000D01*
X78000Y96000D02*
X82000Y96000D01*
X-82000Y104000D02*
X-78000D01*
X-82000Y96000D02*
X-78000Y96000D01*
X34000Y147000D02*
X34000Y202000D01*
X-34000Y147000D02*
X34000D01*
X-34000D02*
Y202000D01*
X30500Y207000D02*
X34000Y202000D01*
X-34000D02*
X-30500Y207000D01*
X114000Y147000D02*
X114000Y202000D01*
X46000Y147000D02*
X114000D01*
X46000D02*
Y202000D01*
X110500Y207000D02*
X114000Y202000D01*
X46000D02*
X49500Y207000D01*
X-46000Y147000D02*
Y202000D01*
X-114000Y147000D02*
X-46000Y147000D01*
X-114000Y147000D02*
X-114000Y202000D01*
X-49500Y207000D02*
X-46000Y202000D01*
X-114000D02*
X-110500Y207000D01*
X298000Y24000D02*
X302000Y24000D01*
X298000Y16000D02*
X302000D01*
X24000Y-302000D02*
Y-298000D01*
X16000Y-302000D02*
Y-298000D01*
X298000Y4000D02*
X302000Y4000D01*
X298000Y-4000D02*
X302000Y-4000D01*
X4000Y-298000D02*
X4000Y-302000D01*
X-4000D02*
X-4000Y-298000D01*
X298000Y-16000D02*
X302000D01*
X298000Y-24000D02*
X302000Y-24000D01*
X-16000Y-298000D02*
X-16000Y-302000D01*
X-24000Y-302000D02*
Y-298000D01*
X-196576Y-230517D02*
X-193747Y-227688D01*
X-202232Y-224860D02*
X-199404Y-222031D01*
X-210718Y-216374D02*
X-207889Y-213546D01*
X-216374Y-210718D02*
X-213546Y-207889D01*
X-147536Y-263539D02*
X-145536Y-260075D01*
X-154464Y-259539D02*
X-152464Y-256075D01*
X69500Y-170000D02*
X69500Y-180000D01*
X100500Y-170000D02*
X100500Y-180000D01*
X69500Y-180000D02*
X100500Y-180000D01*
X69500Y-170000D02*
X100500D01*
X-224860Y-202232D02*
X-222031Y-199404D01*
X-230517Y-196576D02*
X-227688Y-193747D01*
X-164856Y-253539D02*
X-162856Y-250075D01*
X-171784Y-249539D02*
X-169784Y-246075D01*
X65000Y-110000D02*
X105000Y-110000D01*
X65000Y-150000D02*
X104999Y-150002D01*
X65000Y-150000D02*
X65000Y-147500D01*
X105000Y-150000D02*
X105000Y-147500D01*
X105000Y-112500D02*
X105000Y-110000D01*
X65000Y-112500D02*
X65000Y-110000D01*
X189738Y-127508D02*
X189738Y-155448D01*
X113538D02*
X189738D01*
X113538D02*
Y-127508D01*
X189738Y-127508D01*
X51190Y-175000D02*
X58810Y-175000D01*
X111190Y-175000D02*
X118810D01*
X193747Y227688D02*
X196576Y230517D01*
X199404Y222031D02*
X202232Y224860D01*
X281634Y100310D02*
X285498Y101346D01*
X283704Y92583D02*
X287568Y93618D01*
X246075Y169784D02*
X249539Y171784D01*
X250075Y162856D02*
X253539Y164856D01*
X207889Y213546D02*
X210718Y216374D01*
X213546Y207889D02*
X216374Y210718D01*
X286810Y80992D02*
X290674Y82027D01*
X288881Y73264D02*
X292745Y74300D01*
X256075Y152464D02*
X259540Y154464D01*
X260075Y145536D02*
X263539Y147536D01*
X222031Y199404D02*
X224860Y202232D01*
X227688Y193747D02*
X230517Y196576D01*
X291987Y61673D02*
X295850Y62709D01*
X294057Y53946D02*
X297921Y54981D01*
X266075Y135143D02*
X269539Y137143D01*
X270075Y128215D02*
X273539Y130215D01*
X-302000Y-24000D02*
X-298000Y-24000D01*
X-302000Y-16000D02*
X-298000Y-16000D01*
X148300Y-36600D02*
Y-32600D01*
X156300Y-36600D02*
Y-32600D01*
X-302000Y-4000D02*
X-298000Y-4000D01*
X-302000Y4000D02*
X-298000Y4000D01*
X-302000Y16000D02*
X-298000Y16000D01*
X-302000Y24000D02*
X-298000Y24000D01*
X135000Y92500D02*
X195000D01*
X135000Y37500D02*
Y92500D01*
Y37500D02*
X195000D01*
Y92500D01*
X-64936Y-76338D02*
X-40936Y-76338D01*
X-40936Y-52338D02*
X-40936Y-76338D01*
X-64936Y-52338D02*
X-40936Y-52338D01*
X-64936Y-52338D02*
X-64936Y-76338D01*
X-76500Y62900D02*
X98500Y62900D01*
X-76500Y60900D02*
Y62900D01*
X98500D02*
X98500Y60900D01*
X-76500Y-80100D02*
Y-73100D01*
Y-80100D02*
X82287Y-80100D01*
X98500Y-73100D01*
X53946Y294057D02*
X54981Y297921D01*
X61673Y291987D02*
X62709Y295850D01*
X-273539Y130215D02*
X-270075Y128215D01*
X-269539Y137143D02*
X-266075Y135143D01*
X73264Y288881D02*
X74300Y292745D01*
X80992Y286810D02*
X82027Y290674D01*
X-74300Y-292745D02*
X-73264Y-288881D01*
X-82027Y-290674D02*
X-80992Y-286810D01*
X-263539Y147536D02*
X-260075Y145536D01*
X-259539Y154464D02*
X-256075Y152464D01*
X92583Y283704D02*
X93618Y287568D01*
X100310Y281634D02*
X101346Y285498D01*
X-253540Y164856D02*
X-250075Y162856D01*
X-249540Y171784D02*
X-246075Y169785D01*
X-172720Y90424D02*
X-144780D01*
X-172720Y192024D02*
X-172720Y90424D01*
X-172720Y192024D02*
X-144780Y192024D01*
X-144780Y90424D02*
X-144780Y192024D01*
X-259333Y-147582D02*
Y-157580D01*
Y-147582D02*
X-256001D01*
X-254573Y-148058D01*
X-253620Y-149010D01*
X-253144Y-149962D01*
X-252668Y-151390D01*
Y-153771D01*
X-253144Y-155199D01*
X-253620Y-156151D01*
X-254573Y-157104D01*
X-256001Y-157580D01*
X-259333D01*
X-250431Y-153771D02*
X-244718D01*
Y-152819D01*
X-245194Y-151867D01*
X-245670Y-151390D01*
X-246622Y-150914D01*
X-248050D01*
X-249002Y-151390D01*
X-249954Y-152343D01*
X-250431Y-153771D01*
Y-154723D01*
X-249954Y-156151D01*
X-249002Y-157104D01*
X-248050Y-157580D01*
X-246622D01*
X-245670Y-157104D01*
X-244718Y-156151D01*
X-237338Y-152343D02*
X-237814Y-151390D01*
X-239242Y-150914D01*
X-240671D01*
X-242099Y-151390D01*
X-242575Y-152343D01*
X-242099Y-153295D01*
X-241147Y-153771D01*
X-238766Y-154247D01*
X-237814Y-154723D01*
X-237338Y-155675D01*
Y-156151D01*
X-237814Y-157104D01*
X-239242Y-157580D01*
X-240671D01*
X-242099Y-157104D01*
X-242575Y-156151D01*
X-234291Y-147582D02*
X-233815Y-148058D01*
X-233339Y-147582D01*
X-233815Y-147106D01*
X-234291Y-147582D01*
X-233815Y-150914D02*
Y-157580D01*
X-225864Y-150914D02*
Y-158532D01*
X-226341Y-159960D01*
X-226817Y-160436D01*
X-227769Y-160912D01*
X-229197D01*
X-230149Y-160436D01*
X-225864Y-152343D02*
X-226817Y-151390D01*
X-227769Y-150914D01*
X-229197D01*
X-230149Y-151390D01*
X-231101Y-152343D01*
X-231577Y-153771D01*
Y-154723D01*
X-231101Y-156151D01*
X-230149Y-157104D01*
X-229197Y-157580D01*
X-227769D01*
X-226817Y-157104D01*
X-225864Y-156151D01*
X-223198Y-150914D02*
Y-157580D01*
Y-152819D02*
X-221770Y-151390D01*
X-220818Y-150914D01*
X-219390D01*
X-218437Y-151390D01*
X-217961Y-152819D01*
Y-157580D01*
X-215343Y-153771D02*
X-209630D01*
Y-152819D01*
X-210106Y-151867D01*
X-210582Y-151390D01*
X-211534Y-150914D01*
X-212962D01*
X-213915Y-151390D01*
X-214867Y-152343D01*
X-215343Y-153771D01*
Y-154723D01*
X-214867Y-156151D01*
X-213915Y-157104D01*
X-212962Y-157580D01*
X-211534D01*
X-210582Y-157104D01*
X-209630Y-156151D01*
X-201774Y-147582D02*
Y-157580D01*
Y-152343D02*
X-202726Y-151390D01*
X-203679Y-150914D01*
X-205107D01*
X-206059Y-151390D01*
X-207011Y-152343D01*
X-207487Y-153771D01*
Y-154723D01*
X-207011Y-156151D01*
X-206059Y-157104D01*
X-205107Y-157580D01*
X-203679D01*
X-202726Y-157104D01*
X-201774Y-156151D01*
X-191253Y-147582D02*
Y-157580D01*
Y-152343D02*
X-190301Y-151390D01*
X-189348Y-150914D01*
X-187920D01*
X-186968Y-151390D01*
X-186016Y-152343D01*
X-185540Y-153771D01*
Y-154723D01*
X-186016Y-156151D01*
X-186968Y-157104D01*
X-187920Y-157580D01*
X-189348D01*
X-190301Y-157104D01*
X-191253Y-156151D01*
X-182921Y-150914D02*
X-180065Y-157580D01*
X-177208Y-150914D02*
X-180065Y-157580D01*
X-181017Y-159484D01*
X-181969Y-160436D01*
X-182921Y-160912D01*
X-183397D01*
X-162925Y-147582D02*
Y-155199D01*
X-163402Y-156627D01*
X-163878Y-157104D01*
X-164830Y-157580D01*
X-165782D01*
X-166734Y-157104D01*
X-167210Y-156627D01*
X-167686Y-155199D01*
Y-154247D01*
X-160355Y-150914D02*
Y-155675D01*
X-159879Y-157104D01*
X-158926Y-157580D01*
X-157498D01*
X-156546Y-157104D01*
X-155118Y-155675D01*
Y-150914D02*
Y-157580D01*
X-146786Y-147582D02*
Y-157580D01*
Y-152343D02*
X-147738Y-151390D01*
X-148691Y-150914D01*
X-150119D01*
X-151071Y-151390D01*
X-152023Y-152343D01*
X-152499Y-153771D01*
Y-154723D01*
X-152023Y-156151D01*
X-151071Y-157104D01*
X-150119Y-157580D01*
X-148691D01*
X-147738Y-157104D01*
X-146786Y-156151D01*
X-138407Y-147582D02*
Y-157580D01*
Y-152343D02*
X-139359Y-151390D01*
X-140311Y-150914D01*
X-141740D01*
X-142692Y-151390D01*
X-143644Y-152343D01*
X-144120Y-153771D01*
Y-154723D01*
X-143644Y-156151D01*
X-142692Y-157104D01*
X-141740Y-157580D01*
X-140311D01*
X-139359Y-157104D01*
X-138407Y-156151D01*
X-127885Y-147582D02*
Y-157580D01*
Y-147582D02*
X-121696D01*
X-127885Y-152343D02*
X-124077D01*
X-118173Y-150914D02*
X-119125Y-151390D01*
X-120078Y-152343D01*
X-120554Y-153771D01*
Y-154723D01*
X-120078Y-156151D01*
X-119125Y-157104D01*
X-118173Y-157580D01*
X-116745D01*
X-115793Y-157104D01*
X-114841Y-156151D01*
X-114365Y-154723D01*
Y-153771D01*
X-114841Y-152343D01*
X-115793Y-151390D01*
X-116745Y-150914D01*
X-118173D01*
X-106938Y-152343D02*
X-107414Y-151390D01*
X-108842Y-150914D01*
X-110270D01*
X-111698Y-151390D01*
X-112175Y-152343D01*
X-111698Y-153295D01*
X-110746Y-153771D01*
X-108366Y-154247D01*
X-107414Y-154723D01*
X-106938Y-155675D01*
Y-156151D01*
X-107414Y-157104D01*
X-108842Y-157580D01*
X-110270D01*
X-111698Y-157104D01*
X-112175Y-156151D01*
X-103414Y-147582D02*
Y-155675D01*
X-102938Y-157104D01*
X-101986Y-157580D01*
X-101034D01*
X-104843Y-150914D02*
X-101510D01*
X-99606Y-153771D02*
X-93893D01*
Y-152819D01*
X-94369Y-151867D01*
X-94845Y-151390D01*
X-95797Y-150914D01*
X-97225D01*
X-98177Y-151390D01*
X-99130Y-152343D01*
X-99606Y-153771D01*
Y-154723D01*
X-99130Y-156151D01*
X-98177Y-157104D01*
X-97225Y-157580D01*
X-95797D01*
X-94845Y-157104D01*
X-93893Y-156151D01*
X-91750Y-150914D02*
Y-157580D01*
Y-153771D02*
X-91274Y-152343D01*
X-90322Y-151390D01*
X-89370Y-150914D01*
X-87942D01*
X-259333Y-167712D02*
Y-177710D01*
Y-167712D02*
X-256001D01*
X-254573Y-168188D01*
X-253620Y-169140D01*
X-253144Y-170092D01*
X-252668Y-171521D01*
Y-173901D01*
X-253144Y-175329D01*
X-253620Y-176281D01*
X-254573Y-177234D01*
X-256001Y-177710D01*
X-259333D01*
X-250431Y-171044D02*
Y-177710D01*
Y-173901D02*
X-249954Y-172473D01*
X-249002Y-171521D01*
X-248050Y-171044D01*
X-246622D01*
X-240004D02*
Y-177710D01*
Y-172473D02*
X-240956Y-171521D01*
X-241909Y-171044D01*
X-243337D01*
X-244289Y-171521D01*
X-245241Y-172473D01*
X-245717Y-173901D01*
Y-174853D01*
X-245241Y-176281D01*
X-244289Y-177234D01*
X-243337Y-177710D01*
X-241909D01*
X-240956Y-177234D01*
X-240004Y-176281D01*
X-237338Y-171044D02*
X-235434Y-177710D01*
X-233529Y-171044D02*
X-235434Y-177710D01*
X-233529Y-171044D02*
X-231625Y-177710D01*
X-229721Y-171044D02*
X-231625Y-177710D01*
X-227388Y-171044D02*
Y-177710D01*
Y-172949D02*
X-225960Y-171521D01*
X-225007Y-171044D01*
X-223579D01*
X-222627Y-171521D01*
X-222151Y-172949D01*
Y-177710D01*
X-211677Y-167712D02*
Y-177710D01*
Y-172473D02*
X-210725Y-171521D01*
X-209773Y-171044D01*
X-208344D01*
X-207392Y-171521D01*
X-206440Y-172473D01*
X-205964Y-173901D01*
Y-174853D01*
X-206440Y-176281D01*
X-207392Y-177234D01*
X-208344Y-177710D01*
X-209773D01*
X-210725Y-177234D01*
X-211677Y-176281D01*
X-203345Y-171044D02*
X-200489Y-177710D01*
X-197632Y-171044D02*
X-200489Y-177710D01*
X-201441Y-179614D01*
X-202393Y-180566D01*
X-203345Y-181042D01*
X-203822D01*
X-180493Y-177710D02*
X-184302Y-167712D01*
X-188111Y-177710D01*
X-186682Y-174377D02*
X-181922D01*
X-178160Y-167712D02*
Y-177710D01*
X-175590Y-171044D02*
X-172733Y-177710D01*
X-169876Y-171044D02*
X-172733Y-177710D01*
X-173685Y-179614D01*
X-174637Y-180566D01*
X-175590Y-181042D01*
X-176066D01*
X-162973Y-172473D02*
X-163449Y-171521D01*
X-164877Y-171044D01*
X-166306D01*
X-167734Y-171521D01*
X-168210Y-172473D01*
X-167734Y-173425D01*
X-166782Y-173901D01*
X-164401Y-174377D01*
X-163449Y-174853D01*
X-162973Y-175805D01*
Y-176281D01*
X-163449Y-177234D01*
X-164877Y-177710D01*
X-166306D01*
X-167734Y-177234D01*
X-168210Y-176281D01*
X-155641Y-172473D02*
X-156117Y-171521D01*
X-157546Y-171044D01*
X-158974D01*
X-160402Y-171521D01*
X-160878Y-172473D01*
X-160402Y-173425D01*
X-159450Y-173901D01*
X-157070Y-174377D01*
X-156117Y-174853D01*
X-155641Y-175805D01*
Y-176281D01*
X-156117Y-177234D01*
X-157546Y-177710D01*
X-158974D01*
X-160402Y-177234D01*
X-160878Y-176281D01*
X-147833Y-171044D02*
Y-177710D01*
Y-172473D02*
X-148786Y-171521D01*
X-149738Y-171044D01*
X-151166D01*
X-152118Y-171521D01*
X-153070Y-172473D01*
X-153547Y-173901D01*
Y-174853D01*
X-153070Y-176281D01*
X-152118Y-177234D01*
X-151166Y-177710D01*
X-149738D01*
X-148786Y-177234D01*
X-147833Y-176281D01*
X-137312Y-167712D02*
Y-177710D01*
Y-167712D02*
X-133027D01*
X-131599Y-168188D01*
X-131123Y-168664D01*
X-130647Y-169616D01*
Y-170568D01*
X-131123Y-171521D01*
X-131599Y-171997D01*
X-133027Y-172473D01*
X-137312D02*
X-133027D01*
X-131599Y-172949D01*
X-131123Y-173425D01*
X-130647Y-174377D01*
Y-175805D01*
X-131123Y-176758D01*
X-131599Y-177234D01*
X-133027Y-177710D01*
X-137312D01*
X-122696Y-171044D02*
Y-177710D01*
Y-172473D02*
X-123648Y-171521D01*
X-124600Y-171044D01*
X-126029D01*
X-126981Y-171521D01*
X-127933Y-172473D01*
X-128409Y-173901D01*
Y-174853D01*
X-127933Y-176281D01*
X-126981Y-177234D01*
X-126029Y-177710D01*
X-124600D01*
X-123648Y-177234D01*
X-122696Y-176281D01*
X-120030Y-167712D02*
Y-177710D01*
X-115555Y-171044D02*
X-116507Y-171521D01*
X-117459Y-172473D01*
X-117935Y-173901D01*
Y-174853D01*
X-117459Y-176281D01*
X-116507Y-177234D01*
X-115555Y-177710D01*
X-114127D01*
X-113174Y-177234D01*
X-112222Y-176281D01*
X-111746Y-174853D01*
Y-173901D01*
X-112222Y-172473D01*
X-113174Y-171521D01*
X-114127Y-171044D01*
X-115555D01*
X-109556D02*
X-106699Y-177710D01*
X-103843Y-171044D02*
X-106699Y-177710D01*
X-102224Y-171044D02*
Y-177710D01*
Y-172949D02*
X-100796Y-171521D01*
X-99844Y-171044D01*
X-98416D01*
X-97463Y-171521D01*
X-96987Y-172949D01*
Y-177710D01*
X-94369Y-173901D02*
X-88656D01*
Y-172949D01*
X-89132Y-171997D01*
X-89608Y-171521D01*
X-90560Y-171044D01*
X-91988D01*
X-92941Y-171521D01*
X-93893Y-172473D01*
X-94369Y-173901D01*
Y-174853D01*
X-93893Y-176281D01*
X-92941Y-177234D01*
X-91988Y-177710D01*
X-90560D01*
X-89608Y-177234D01*
X-88656Y-176281D01*
X-86513Y-171044D02*
X-83657Y-177710D01*
X-80800Y-171044D02*
X-83657Y-177710D01*
X-44643Y-31323D02*
X-50832D01*
Y-41321D01*
X-44643D01*
X-50832Y-36084D02*
X-47023D01*
X-36311Y-32751D02*
X-37264Y-31799D01*
X-38692Y-31323D01*
X-40596D01*
X-42024Y-31799D01*
X-42976Y-32751D01*
Y-33703D01*
X-42500Y-34656D01*
X-42024Y-35132D01*
X-41072Y-35608D01*
X-38216Y-36560D01*
X-37264Y-37036D01*
X-36787Y-37512D01*
X-36311Y-38464D01*
Y-39893D01*
X-37264Y-40845D01*
X-38692Y-41321D01*
X-40596D01*
X-42024Y-40845D01*
X-42976Y-39893D01*
X-34074Y-36560D02*
X-29789D01*
X-28361Y-36084D01*
X-27885Y-35608D01*
X-27408Y-34656D01*
Y-33227D01*
X-27885Y-32275D01*
X-28361Y-31799D01*
X-29789Y-31323D01*
X-34074D01*
Y-41321D01*
X-25171Y-37036D02*
X-16601D01*
X-13649Y-31323D02*
X-11269Y-41321D01*
X-8889Y-31323D02*
X-11269Y-41321D01*
X-8889Y-31323D02*
X-6508Y-41321D01*
X-4128Y-31323D02*
X-6508Y-41321D01*
X-2128Y-31323D02*
Y-41321D01*
Y-31323D02*
X2157D01*
X3585Y-31799D01*
X4061Y-32275D01*
X4537Y-33227D01*
Y-34180D01*
X4061Y-35132D01*
X3585Y-35608D01*
X2157Y-36084D01*
X-2128D01*
X1204D02*
X4537Y-41321D01*
X9631Y-31323D02*
X8679Y-31799D01*
X7727Y-32751D01*
X7251Y-33703D01*
X6775Y-35132D01*
Y-37512D01*
X7251Y-38940D01*
X7727Y-39893D01*
X8679Y-40845D01*
X9631Y-41321D01*
X11536D01*
X12488Y-40845D01*
X13440Y-39893D01*
X13916Y-38940D01*
X14392Y-37512D01*
Y-35132D01*
X13916Y-33703D01*
X13440Y-32751D01*
X12488Y-31799D01*
X11536Y-31323D01*
X9631D01*
X19582D02*
X18629Y-31799D01*
X17677Y-32751D01*
X17201Y-33703D01*
X16725Y-35132D01*
Y-37512D01*
X17201Y-38940D01*
X17677Y-39893D01*
X18629Y-40845D01*
X19582Y-41321D01*
X21486D01*
X22438Y-40845D01*
X23390Y-39893D01*
X23866Y-38940D01*
X24342Y-37512D01*
Y-35132D01*
X23866Y-33703D01*
X23390Y-32751D01*
X22438Y-31799D01*
X21486Y-31323D01*
X19582D01*
X26675D02*
Y-41321D01*
Y-31323D02*
X30484Y-41321D01*
X34293Y-31323D02*
X30484Y-41321D01*
X34293Y-31323D02*
Y-41321D01*
X37149Y-37036D02*
X45719D01*
X51527Y-31323D02*
X50099Y-31799D01*
X49147Y-33227D01*
X48671Y-35608D01*
Y-37036D01*
X49147Y-39417D01*
X50099Y-40845D01*
X51527Y-41321D01*
X52479D01*
X53907Y-40845D01*
X54860Y-39417D01*
X55336Y-37036D01*
Y-35608D01*
X54860Y-33227D01*
X53907Y-31799D01*
X52479Y-31323D01*
X51527D01*
X58049Y-33703D02*
Y-33227D01*
X58526Y-32275D01*
X59002Y-31799D01*
X59954Y-31323D01*
X61858D01*
X62810Y-31799D01*
X63286Y-32275D01*
X63762Y-33227D01*
Y-34180D01*
X63286Y-35132D01*
X62334Y-36560D01*
X57573Y-41321D01*
X64239D01*
X66476Y-31323D02*
Y-38464D01*
X66952Y-39893D01*
X67904Y-40845D01*
X69333Y-41321D01*
X70285D01*
X71713Y-40845D01*
X72665Y-39893D01*
X73141Y-38464D01*
Y-31323D01*
%TF.MD5,330134f89856a8dcc6430049628fe281*%
M02*
