%TF.GenerationSoftware,Altium Limited,Altium Designer,21.0.9 (235)*%
G04 Layer_Physical_Order=2*
G04 Layer_Color=16776960*
%FSLAX44Y44*%
%MOMM*%
%TF.SameCoordinates,5481C346-4989-4D35-A572-F3394CBA5BAB*%
%TF.FilePolarity,Positive*%
%TF.FileFunction,Copper,L2,Bot,Signal*%
%TF.Part,Single*%
G01*
G75*
%TA.AperFunction,Conductor*%
%ADD45C,0.5000*%
%TA.AperFunction,ComponentPad*%
G04:AMPARAMS|DCode=46|XSize=0.9mm|YSize=1.6mm|CornerRadius=0.45mm|HoleSize=0mm|Usage=FLASHONLY|Rotation=180.000|XOffset=0mm|YOffset=0mm|HoleType=Round|Shape=RoundedRectangle|*
%AMROUNDEDRECTD46*
21,1,0.9000,0.7000,0,0,180.0*
21,1,0.0000,1.6000,0,0,180.0*
1,1,0.9000,0.0000,0.3500*
1,1,0.9000,0.0000,0.3500*
1,1,0.9000,0.0000,-0.3500*
1,1,0.9000,0.0000,-0.3500*
%
%ADD46ROUNDEDRECTD46*%
%ADD47R,1.5000X2.2000*%
%ADD48O,1.5000X2.2000*%
%ADD49R,4.0000X4.0000*%
%ADD50O,2.2000X1.5000*%
%ADD51R,2.2000X1.5000*%
%ADD52C,5.0000*%
%TA.AperFunction,ViaPad*%
%ADD53C,0.7200*%
%TA.AperFunction,ConnectorPad*%
%ADD54R,1.9000X1.6510*%
%ADD55R,0.4000X1.3500*%
%TA.AperFunction,Conductor*%
%ADD56C,0.2540*%
G36*
X20540Y418098D02*
X41030Y416586D01*
X61422Y414071D01*
X81665Y410559D01*
X101712Y406057D01*
X121514Y400577D01*
X141023Y394132D01*
X160192Y386738D01*
X178976Y378412D01*
X197328Y369174D01*
X215205Y359047D01*
X232563Y348055D01*
X249361Y336224D01*
X265558Y323584D01*
X281116Y310164D01*
X295996Y295996D01*
X310164Y281116D01*
X323584Y265558D01*
X336224Y249361D01*
X348055Y232563D01*
X359047Y215205D01*
X369174Y197328D01*
X378412Y178976D01*
X386738Y160192D01*
X394132Y141023D01*
X400577Y121514D01*
X406057Y101712D01*
X410559Y81665D01*
X414071Y61422D01*
X416586Y41030D01*
X418098Y20540D01*
X418602Y0D01*
X418098Y-20540D01*
X416586Y-41030D01*
X414071Y-61422D01*
X410559Y-81665D01*
X406057Y-101712D01*
X400577Y-121514D01*
X394132Y-141023D01*
X386738Y-160192D01*
X378412Y-178976D01*
X369174Y-197328D01*
X359047Y-215205D01*
X348055Y-232563D01*
X336224Y-249361D01*
X323584Y-265558D01*
X310164Y-281116D01*
X295996Y-295996D01*
X281116Y-310164D01*
X265558Y-323584D01*
X249361Y-336224D01*
X232563Y-348055D01*
X215205Y-359047D01*
X197328Y-369174D01*
X178976Y-378412D01*
X160192Y-386738D01*
X141023Y-394132D01*
X121514Y-400577D01*
X101712Y-406057D01*
X81665Y-410559D01*
X61422Y-414071D01*
X41030Y-416586D01*
X20540Y-418098D01*
X0Y-418602D01*
X-20540Y-418098D01*
X-41030Y-416586D01*
X-61422Y-414071D01*
X-81665Y-410559D01*
X-101712Y-406057D01*
X-121514Y-400577D01*
X-141023Y-394132D01*
X-160192Y-386738D01*
X-178976Y-378412D01*
X-197328Y-369174D01*
X-215205Y-359047D01*
X-232563Y-348055D01*
X-249361Y-336224D01*
X-265558Y-323584D01*
X-281116Y-310164D01*
X-295996Y-295996D01*
X-310164Y-281116D01*
X-323584Y-265558D01*
X-336224Y-249361D01*
X-348055Y-232563D01*
X-359047Y-215205D01*
X-369174Y-197328D01*
X-378412Y-178976D01*
X-386738Y-160192D01*
X-394132Y-141023D01*
X-400577Y-121514D01*
X-406057Y-101712D01*
X-410559Y-81665D01*
X-414071Y-61422D01*
X-416586Y-41030D01*
X-418098Y-20540D01*
X-418602Y0D01*
X-418098Y20540D01*
X-416586Y41030D01*
X-414071Y61422D01*
X-410559Y81665D01*
X-406057Y101712D01*
X-400577Y121514D01*
X-394132Y141023D01*
X-386738Y160192D01*
X-378412Y178976D01*
X-369174Y197328D01*
X-359047Y215205D01*
X-348055Y232563D01*
X-336224Y249361D01*
X-323584Y265558D01*
X-310164Y281116D01*
X-295996Y295996D01*
X-281116Y310164D01*
X-265558Y323584D01*
X-249361Y336224D01*
X-232563Y348055D01*
X-215205Y359047D01*
X-197328Y369174D01*
X-178976Y378412D01*
X-160192Y386738D01*
X-141023Y394132D01*
X-121514Y400577D01*
X-101712Y406057D01*
X-81665Y410559D01*
X-61422Y414071D01*
X-41030Y416586D01*
X-20540Y418098D01*
X0Y418602D01*
X20540Y418098D01*
D02*
G37*
%LPC*%
G36*
X2167Y402540D02*
X1270D01*
Y376270D01*
X27540D01*
Y377167D01*
X26862Y381449D01*
X25522Y385571D01*
X23554Y389434D01*
X21006Y392941D01*
X17941Y396006D01*
X14434Y398554D01*
X10572Y400522D01*
X6449Y401861D01*
X2167Y402540D01*
D02*
G37*
G36*
X-1270D02*
X-2167D01*
X-6449Y401861D01*
X-10572Y400522D01*
X-14434Y398554D01*
X-17941Y396006D01*
X-21006Y392941D01*
X-23554Y389434D01*
X-25522Y385571D01*
X-26862Y381449D01*
X-27540Y377167D01*
Y376270D01*
X-1270D01*
Y402540D01*
D02*
G37*
G36*
X27540Y373730D02*
X1270D01*
Y347460D01*
X2167D01*
X6449Y348138D01*
X10572Y349477D01*
X14434Y351445D01*
X17941Y353993D01*
X21006Y357058D01*
X23554Y360565D01*
X25522Y364428D01*
X26862Y368551D01*
X27540Y372832D01*
Y373730D01*
D02*
G37*
G36*
X-1270D02*
X-27540D01*
Y372832D01*
X-26862Y368551D01*
X-25522Y364428D01*
X-23554Y360565D01*
X-21006Y357058D01*
X-17941Y353993D01*
X-14434Y351445D01*
X-10572Y349477D01*
X-6449Y348138D01*
X-2167Y347460D01*
X-1270D01*
Y373730D01*
D02*
G37*
G36*
X-52182Y280505D02*
X-54119D01*
X-55909Y279764D01*
X-56944Y278730D01*
X-63328Y277460D01*
X-78786Y273472D01*
X-93996Y268624D01*
X-108910Y262931D01*
X-121533Y257283D01*
X-121711Y257357D01*
X-123648D01*
X-125438Y256615D01*
X-126808Y255245D01*
X-127099Y254542D01*
X-137664Y249084D01*
X-151414Y240973D01*
X-164687Y232105D01*
X-177442Y222505D01*
X-183960Y217002D01*
X-184816D01*
X-186606Y216260D01*
X-187976Y214890D01*
X-188717Y213100D01*
Y212984D01*
X-189639Y212206D01*
X-201239Y201239D01*
X-212206Y189639D01*
X-222505Y177442D01*
X-232105Y164687D01*
X-233894Y162009D01*
X-235245Y161449D01*
X-236615Y160079D01*
X-237357Y158289D01*
Y156826D01*
X-240973Y151414D01*
X-249084Y137664D01*
X-256411Y123481D01*
X-262931Y108910D01*
X-267863Y95990D01*
X-268041Y95916D01*
X-269411Y94546D01*
X-270152Y92757D01*
Y90819D01*
X-269861Y90116D01*
X-273472Y78786D01*
X-277460Y63328D01*
X-280574Y47671D01*
X-282806Y31865D01*
X-283522Y23365D01*
X-284129Y22759D01*
X-284870Y20969D01*
Y19031D01*
X-284129Y17241D01*
X-284046Y17159D01*
X-284147Y15957D01*
X-284595Y0D01*
X-284147Y-15957D01*
X-282806Y-31865D01*
X-280574Y-47671D01*
X-279946Y-50831D01*
X-280505Y-52182D01*
Y-54119D01*
X-279764Y-55909D01*
X-278730Y-56944D01*
X-277460Y-63328D01*
X-273472Y-78786D01*
X-268624Y-93996D01*
X-262931Y-108910D01*
X-256411Y-123481D01*
X-255955Y-124364D01*
X-254334Y-127503D01*
X-249084Y-137664D01*
X-240973Y-151414D01*
X-232105Y-164687D01*
X-222505Y-177442D01*
X-217002Y-183960D01*
Y-184816D01*
X-216260Y-186606D01*
X-214890Y-187976D01*
X-213100Y-188717D01*
X-212984D01*
X-212206Y-189639D01*
X-201239Y-201239D01*
X-189639Y-212206D01*
X-177442Y-222505D01*
X-164687Y-232105D01*
X-162009Y-233894D01*
X-161449Y-235245D01*
X-160079Y-236615D01*
X-158289Y-237357D01*
X-156826D01*
X-151414Y-240973D01*
X-137664Y-249084D01*
X-123481Y-256411D01*
X-108910Y-262931D01*
X-95990Y-267863D01*
X-95916Y-268041D01*
X-94546Y-269411D01*
X-92757Y-270152D01*
X-90819D01*
X-90116Y-269861D01*
X-78786Y-273472D01*
X-63328Y-277460D01*
X-47671Y-280574D01*
X-31865Y-282806D01*
X-23364Y-283522D01*
X-22759Y-284128D01*
X-20969Y-284870D01*
X-19031D01*
X-17241Y-284128D01*
X-17159Y-284046D01*
X-15957Y-284147D01*
X0Y-284595D01*
X15957Y-284147D01*
X31865Y-282806D01*
X47671Y-280574D01*
X50831Y-279946D01*
X52182Y-280505D01*
X54119D01*
X55909Y-279764D01*
X56944Y-278730D01*
X63328Y-277460D01*
X78786Y-273472D01*
X93996Y-268624D01*
X108910Y-262931D01*
X121533Y-257283D01*
X121711Y-257357D01*
X123648D01*
X125438Y-256615D01*
X126808Y-255245D01*
X127099Y-254542D01*
X137664Y-249084D01*
X151414Y-240973D01*
X164687Y-232105D01*
X177442Y-222505D01*
X183960Y-217002D01*
X184816D01*
X186606Y-216260D01*
X187976Y-214890D01*
X188717Y-213100D01*
Y-212984D01*
X189639Y-212206D01*
X201239Y-201239D01*
X212206Y-189639D01*
X222505Y-177442D01*
X232105Y-164687D01*
X235613Y-159436D01*
X240973Y-151414D01*
X249084Y-137664D01*
X256411Y-123481D01*
X262931Y-108910D01*
X267863Y-95990D01*
X268041Y-95916D01*
X269411Y-94546D01*
X270152Y-92757D01*
Y-90819D01*
X269861Y-90116D01*
X273472Y-78786D01*
X277460Y-63328D01*
X280574Y-47671D01*
X282806Y-31865D01*
X283522Y-23365D01*
X284129Y-22759D01*
X284870Y-20969D01*
Y-19031D01*
X284129Y-17241D01*
X284046Y-17159D01*
X284147Y-15957D01*
X284595Y0D01*
X284147Y15957D01*
X282806Y31865D01*
X280574Y47671D01*
X279946Y50831D01*
X280505Y52182D01*
Y54119D01*
X279764Y55909D01*
X278730Y56944D01*
X277460Y63328D01*
X273472Y78786D01*
X268624Y93996D01*
X262931Y108910D01*
X257283Y121533D01*
X257357Y121711D01*
Y123648D01*
X256615Y125438D01*
X255245Y126808D01*
X254542Y127099D01*
X249084Y137664D01*
X240973Y151414D01*
X232105Y164687D01*
X222505Y177442D01*
X217002Y183960D01*
Y184816D01*
X216260Y186606D01*
X214890Y187976D01*
X213100Y188717D01*
X212984D01*
X212206Y189639D01*
X201239Y201239D01*
X189639Y212206D01*
X177442Y222505D01*
X164687Y232105D01*
X162009Y233894D01*
X161449Y235245D01*
X160079Y236615D01*
X158289Y237357D01*
X156826D01*
X151414Y240973D01*
X137664Y249084D01*
X123481Y256411D01*
X108910Y262931D01*
X95990Y267863D01*
X95916Y268041D01*
X94546Y269411D01*
X92757Y270152D01*
X90819D01*
X89029Y269411D01*
X87659Y268041D01*
X86918Y266251D01*
Y264314D01*
X87239Y263538D01*
X85135Y260659D01*
X84742Y260369D01*
X81484Y261493D01*
X73984Y263584D01*
X72640Y264928D01*
X70850Y265670D01*
X68912D01*
X67123Y264928D01*
X65753Y263558D01*
X65011Y261768D01*
Y260457D01*
X64650Y259705D01*
X63880Y258883D01*
X61950Y257266D01*
X51716Y259463D01*
X50733Y260445D01*
X48943Y261187D01*
X47006D01*
X45216Y260445D01*
X43846Y259076D01*
X43104Y257286D01*
Y255348D01*
X43846Y253558D01*
X45216Y252188D01*
X47006Y251447D01*
X48943D01*
X50167Y251954D01*
X61501Y249520D01*
X76455Y245352D01*
X91129Y240288D01*
X105471Y234347D01*
X108322Y232959D01*
X108551Y232408D01*
X109921Y231038D01*
X111711Y230296D01*
X113648D01*
X113725Y230328D01*
X119428Y227552D01*
X132950Y219926D01*
X145986Y211497D01*
X158489Y202297D01*
X164844Y197001D01*
X165577Y195231D01*
X166947Y193861D01*
X168737Y193120D01*
X169501D01*
X170415Y192358D01*
X181718Y181718D01*
X192358Y170415D01*
X202297Y158489D01*
X210296Y147618D01*
Y146352D01*
X211038Y144562D01*
X212408Y143192D01*
X213631Y142685D01*
X219926Y132950D01*
X227552Y119428D01*
X234347Y105471D01*
X240288Y91129D01*
X241322Y88132D01*
X241094Y87580D01*
Y85643D01*
X241835Y83853D01*
X243205Y82483D01*
X243283Y82451D01*
X245352Y76455D01*
X249520Y61501D01*
X252779Y46323D01*
X255114Y30977D01*
X255863Y22738D01*
X255130Y20969D01*
Y19031D01*
X255872Y17241D01*
X256412Y16701D01*
X256519Y15517D01*
X256988Y0D01*
X256519Y-15517D01*
X255114Y-30977D01*
X253083Y-44321D01*
X252188Y-45216D01*
X251447Y-47006D01*
Y-48943D01*
X251954Y-50167D01*
X249520Y-61501D01*
X245352Y-76455D01*
X240288Y-91129D01*
X234347Y-105471D01*
X231657Y-110998D01*
D01*
X229993Y-114414D01*
X227552Y-119428D01*
X219926Y-132950D01*
X211497Y-145986D01*
X202297Y-158489D01*
X197001Y-164844D01*
X195231Y-165577D01*
X193861Y-166947D01*
X193120Y-168737D01*
Y-169501D01*
X192358Y-170415D01*
X181718Y-181718D01*
X170415Y-192358D01*
X158489Y-202297D01*
X147618Y-210296D01*
X146352D01*
X144562Y-211038D01*
X143192Y-212408D01*
X142685Y-213631D01*
X132950Y-219926D01*
X119428Y-227552D01*
X105471Y-234347D01*
X91129Y-240288D01*
X88132Y-241322D01*
X87580Y-241094D01*
X85643D01*
X83853Y-241835D01*
X82483Y-243205D01*
X82451Y-243283D01*
X76455Y-245352D01*
X61501Y-249520D01*
X46323Y-252779D01*
X30977Y-255114D01*
X22739Y-255863D01*
X20969Y-255130D01*
X19031D01*
X17241Y-255871D01*
X16701Y-256412D01*
X15517Y-256519D01*
X0Y-256988D01*
X-15517Y-256519D01*
X-30977Y-255114D01*
X-44321Y-253083D01*
X-45216Y-252188D01*
X-47006Y-251447D01*
X-48943D01*
X-50167Y-251954D01*
X-61501Y-249520D01*
X-76455Y-245352D01*
X-91129Y-240288D01*
X-105471Y-234347D01*
X-108322Y-232959D01*
X-108551Y-232408D01*
X-109921Y-231038D01*
X-111711Y-230296D01*
X-113648D01*
X-113725Y-230328D01*
X-119428Y-227552D01*
X-132950Y-219926D01*
X-145986Y-211497D01*
X-158489Y-202297D01*
X-164844Y-197001D01*
X-165577Y-195231D01*
X-166947Y-193861D01*
X-168737Y-193120D01*
X-169501D01*
X-170415Y-192358D01*
X-181718Y-181718D01*
X-192358Y-170415D01*
X-202297Y-158489D01*
X-211497Y-145986D01*
X-212025Y-145169D01*
X-219926Y-132950D01*
X-227552Y-119428D01*
X-234347Y-105471D01*
X-240288Y-91129D01*
X-241322Y-88132D01*
X-241094Y-87580D01*
Y-85643D01*
X-241835Y-83853D01*
X-243205Y-82483D01*
X-243283Y-82451D01*
X-245352Y-76455D01*
X-249520Y-61501D01*
X-252779Y-46323D01*
X-255114Y-30977D01*
X-255863Y-22738D01*
X-255130Y-20969D01*
Y-19031D01*
X-255872Y-17241D01*
X-256412Y-16701D01*
X-256519Y-15517D01*
X-256988Y0D01*
X-256519Y15517D01*
X-255114Y30977D01*
X-253083Y44321D01*
X-252188Y45216D01*
X-251447Y47006D01*
Y48943D01*
X-251954Y50167D01*
X-249520Y61501D01*
X-245352Y76455D01*
X-240288Y91129D01*
X-234347Y105471D01*
X-232959Y108322D01*
X-232408Y108551D01*
X-231038Y109921D01*
X-230296Y111711D01*
Y113648D01*
X-230328Y113725D01*
X-227552Y119428D01*
X-219926Y132950D01*
X-211497Y145986D01*
X-202297Y158489D01*
X-197001Y164844D01*
X-195231Y165577D01*
X-193861Y166947D01*
X-193120Y168737D01*
Y169501D01*
X-192358Y170415D01*
X-181718Y181718D01*
X-170415Y192358D01*
X-158489Y202297D01*
X-147618Y210296D01*
X-146352D01*
X-144562Y211038D01*
X-143192Y212408D01*
X-142685Y213631D01*
X-132950Y219926D01*
X-119428Y227552D01*
X-105471Y234347D01*
X-91129Y240288D01*
X-88132Y241322D01*
X-87580Y241094D01*
X-85643D01*
X-83853Y241835D01*
X-82483Y243206D01*
X-81742Y244995D01*
Y246933D01*
X-82483Y248723D01*
X-82694Y248934D01*
X-82116Y252997D01*
X-81990Y253208D01*
X-79202Y254170D01*
X-71670Y256269D01*
X-70850Y255930D01*
X-68912D01*
X-67122Y256671D01*
X-65753Y258041D01*
X-65011Y259831D01*
Y261768D01*
X-65753Y263558D01*
X-66947Y264753D01*
X-66966Y265998D01*
X-66555Y268817D01*
X-66277Y268895D01*
X-55295Y271252D01*
X-54119Y270765D01*
X-52182D01*
X-50392Y271507D01*
X-49022Y272877D01*
X-48281Y274667D01*
Y276604D01*
X-49022Y278394D01*
X-50392Y279764D01*
X-52182Y280505D01*
D02*
G37*
G36*
X-155250Y189451D02*
X-157480D01*
Y180594D01*
X-145290D01*
X-145468Y181945D01*
X-146480Y184387D01*
X-148089Y186485D01*
X-150187Y188094D01*
X-152629Y189106D01*
X-155250Y189451D01*
D02*
G37*
G36*
X-160020D02*
X-162250D01*
X-164871Y189106D01*
X-167313Y188094D01*
X-169411Y186485D01*
X-171020Y184387D01*
X-172031Y181945D01*
X-172209Y180594D01*
X-160020D01*
Y189451D01*
D02*
G37*
G36*
X-145290Y178054D02*
X-157480D01*
Y169197D01*
X-155250D01*
X-152629Y169542D01*
X-150187Y170554D01*
X-148089Y172163D01*
X-146480Y174261D01*
X-145468Y176703D01*
X-145290Y178054D01*
D02*
G37*
G36*
X-160020D02*
X-172209D01*
X-172031Y176703D01*
X-171020Y174261D01*
X-169411Y172163D01*
X-167313Y170554D01*
X-164871Y169542D01*
X-162250Y169197D01*
X-160020D01*
Y178054D01*
D02*
G37*
G36*
X-155250Y162770D02*
X-162250D01*
X-164539Y162468D01*
X-166673Y161585D01*
X-168505Y160179D01*
X-169911Y158347D01*
X-170794Y156214D01*
X-171096Y153924D01*
X-170794Y151635D01*
X-169911Y149501D01*
X-168505Y147669D01*
X-166673Y146264D01*
X-164539Y145380D01*
X-162250Y145078D01*
X-155250D01*
X-152961Y145380D01*
X-150827Y146264D01*
X-148995Y147669D01*
X-147589Y149501D01*
X-146706Y151635D01*
X-146404Y153924D01*
X-146706Y156214D01*
X-147589Y158347D01*
X-148995Y160179D01*
X-150827Y161585D01*
X-152961Y162468D01*
X-155250Y162770D01*
D02*
G37*
G36*
Y137370D02*
X-162250D01*
X-164539Y137068D01*
X-166673Y136185D01*
X-168505Y134779D01*
X-169911Y132947D01*
X-170794Y130813D01*
X-171096Y128524D01*
X-170794Y126235D01*
X-169911Y124101D01*
X-168505Y122269D01*
X-166673Y120863D01*
X-164539Y119980D01*
X-162250Y119678D01*
X-155250D01*
X-152961Y119980D01*
X-150827Y120863D01*
X-148995Y122269D01*
X-147589Y124101D01*
X-146706Y126235D01*
X-146404Y128524D01*
X-146706Y130813D01*
X-147589Y132947D01*
X-148995Y134779D01*
X-150827Y136185D01*
X-152961Y137068D01*
X-155250Y137370D01*
D02*
G37*
G36*
X-146480Y111894D02*
X-171020D01*
Y94354D01*
X-146480D01*
Y111894D01*
D02*
G37*
G36*
X22540Y22540D02*
X1270D01*
Y1270D01*
X22540D01*
Y22540D01*
D02*
G37*
G36*
X-1270D02*
X-22540D01*
Y1270D01*
X-1270D01*
Y22540D01*
D02*
G37*
G36*
X22540Y-1270D02*
X1270D01*
Y-22540D01*
X22540D01*
Y-1270D01*
D02*
G37*
G36*
X-1270D02*
X-22540D01*
Y-22540D01*
X-1270D01*
Y-1270D01*
D02*
G37*
G36*
X127508Y-128019D02*
Y-140208D01*
X136365D01*
Y-137978D01*
X136020Y-135357D01*
X135008Y-132915D01*
X133399Y-130817D01*
X131301Y-129208D01*
X128859Y-128196D01*
X127508Y-128019D01*
D02*
G37*
G36*
X124968D02*
X123617Y-128196D01*
X121175Y-129208D01*
X119077Y-130817D01*
X117468Y-132915D01*
X116456Y-135357D01*
X116111Y-137978D01*
Y-140208D01*
X124968D01*
Y-128019D01*
D02*
G37*
G36*
X185808Y-129208D02*
X168268D01*
Y-153748D01*
X185808D01*
Y-129208D01*
D02*
G37*
G36*
X151638Y-129132D02*
X149349Y-129434D01*
X147215Y-130317D01*
X145383Y-131723D01*
X143977Y-133555D01*
X143094Y-135689D01*
X142792Y-137978D01*
Y-144978D01*
X143094Y-147267D01*
X143977Y-149401D01*
X145383Y-151233D01*
X147215Y-152639D01*
X149349Y-153522D01*
X151638Y-153824D01*
X153927Y-153522D01*
X156061Y-152639D01*
X157893Y-151233D01*
X159299Y-149401D01*
X160182Y-147267D01*
X160484Y-144978D01*
Y-137978D01*
X160182Y-135689D01*
X159299Y-133555D01*
X157893Y-131723D01*
X156061Y-130317D01*
X153927Y-129434D01*
X151638Y-129132D01*
D02*
G37*
G36*
X136365Y-142748D02*
X127508D01*
Y-154937D01*
X128859Y-154760D01*
X131301Y-153748D01*
X133399Y-152139D01*
X135008Y-150041D01*
X136020Y-147599D01*
X136365Y-144978D01*
Y-142748D01*
D02*
G37*
G36*
X124968D02*
X116111D01*
Y-144978D01*
X116456Y-147599D01*
X117468Y-150041D01*
X119077Y-152139D01*
X121175Y-153748D01*
X123617Y-154760D01*
X124968Y-154937D01*
Y-142748D01*
D02*
G37*
G36*
X323489Y-159960D02*
X322592D01*
X318310Y-160638D01*
X314188Y-161978D01*
X310325Y-163946D01*
X306818Y-166493D01*
X303753Y-169559D01*
X301205Y-173066D01*
X299237Y-176928D01*
X297897Y-181051D01*
X297219Y-185332D01*
Y-186230D01*
X323489Y-186230D01*
X323489Y-159960D01*
D02*
G37*
G36*
X-322592D02*
X-323489D01*
X-323489Y-186230D01*
X-297219Y-186230D01*
Y-185332D01*
X-297897Y-181051D01*
X-299237Y-176928D01*
X-301205Y-173066D01*
X-303753Y-169559D01*
X-306818Y-166493D01*
X-310325Y-163946D01*
X-314188Y-161978D01*
X-318310Y-160638D01*
X-322592Y-159960D01*
D02*
G37*
G36*
X-326029D02*
X-326927D01*
X-331208Y-160638D01*
X-335331Y-161978D01*
X-339193Y-163946D01*
X-342700Y-166493D01*
X-345766Y-169559D01*
X-348314Y-173066D01*
X-350281Y-176928D01*
X-351621Y-181051D01*
X-352299Y-185332D01*
Y-186230D01*
X-326029Y-186230D01*
X-326029Y-159960D01*
D02*
G37*
G36*
X326927D02*
X326029D01*
X326029Y-186230D01*
X352299Y-186230D01*
Y-185332D01*
X351621Y-181051D01*
X350281Y-176928D01*
X348314Y-173066D01*
X345766Y-169559D01*
X342700Y-166493D01*
X339193Y-163946D01*
X335331Y-161978D01*
X331208Y-160638D01*
X326927Y-159960D01*
D02*
G37*
G36*
X326029Y-188770D02*
X326029Y-215040D01*
X326927D01*
X331208Y-214362D01*
X335331Y-213022D01*
X339193Y-211054D01*
X342700Y-208506D01*
X345766Y-205441D01*
X348314Y-201934D01*
X350281Y-198071D01*
X351621Y-193949D01*
X352299Y-189667D01*
Y-188770D01*
X326029Y-188770D01*
D02*
G37*
G36*
X297219Y-188770D02*
Y-189667D01*
X297897Y-193949D01*
X299237Y-198071D01*
X301205Y-201934D01*
X303753Y-205441D01*
X306818Y-208506D01*
X310325Y-211054D01*
X314188Y-213022D01*
X318310Y-214362D01*
X322592Y-215040D01*
X323489D01*
X323489Y-188770D01*
X297219Y-188770D01*
D02*
G37*
G36*
X-297219D02*
X-323489Y-188770D01*
X-323489Y-215040D01*
X-322592D01*
X-318310Y-214362D01*
X-314188Y-213022D01*
X-310325Y-211054D01*
X-306818Y-208506D01*
X-303753Y-205441D01*
X-301205Y-201934D01*
X-299237Y-198071D01*
X-297897Y-193949D01*
X-297219Y-189667D01*
Y-188770D01*
D02*
G37*
G36*
X-326029Y-188770D02*
X-352299Y-188770D01*
Y-189667D01*
X-351621Y-193949D01*
X-350281Y-198071D01*
X-348314Y-201934D01*
X-345766Y-205441D01*
X-342700Y-208506D01*
X-339193Y-211054D01*
X-335331Y-213022D01*
X-331208Y-214362D01*
X-326927Y-215040D01*
X-326029D01*
X-326029Y-188770D01*
D02*
G37*
G36*
X13969Y-345130D02*
X12031D01*
X10241Y-345871D01*
X8871Y-347241D01*
X8130Y-349031D01*
Y-350969D01*
X8317Y-351420D01*
X6598Y-354775D01*
X6085Y-355230D01*
X-8460D01*
Y-353960D01*
X-11730D01*
Y-363250D01*
Y-372540D01*
X-8460D01*
Y-371270D01*
X9730D01*
Y-371270D01*
X16270D01*
Y-355230D01*
X16270Y-355230D01*
X17476Y-351920D01*
X17870Y-350969D01*
Y-349031D01*
X17129Y-347241D01*
X15759Y-345871D01*
X13969Y-345130D01*
D02*
G37*
G36*
X-14270Y-353960D02*
X-17540D01*
Y-361980D01*
X-14270D01*
Y-353960D01*
D02*
G37*
G36*
Y-364520D02*
X-17540D01*
Y-372540D01*
X-14270D01*
Y-364520D01*
D02*
G37*
G36*
X660Y-379205D02*
X-3150Y-379205D01*
X-11730D01*
Y-390000D01*
Y-400795D01*
X-3150D01*
X-960Y-400795D01*
X2850Y-400795D01*
X11430D01*
Y-390000D01*
Y-379205D01*
X2850D01*
X660Y-379205D01*
D02*
G37*
G36*
X-25040Y-379205D02*
X-25040Y-379205D01*
X-25782Y-379779D01*
X-28850Y-380811D01*
X-29450Y-380351D01*
X-31162Y-379641D01*
X-31730Y-379566D01*
Y-390000D01*
Y-400434D01*
X-31162Y-400359D01*
X-29450Y-399649D01*
X-28850Y-399189D01*
X-25782Y-400221D01*
X-25040Y-400795D01*
X-25040Y-400795D01*
X-24922Y-400795D01*
X-14270D01*
Y-390000D01*
Y-379205D01*
X-24922D01*
X-25040Y-379205D01*
D02*
G37*
G36*
X34270Y-379566D02*
Y-388730D01*
X40101D01*
Y-386500D01*
X39859Y-384662D01*
X39149Y-382950D01*
X38021Y-381479D01*
X36550Y-380351D01*
X34838Y-379641D01*
X34270Y-379566D01*
D02*
G37*
G36*
X-34270D02*
X-34838Y-379641D01*
X-36550Y-380351D01*
X-38021Y-381479D01*
X-39149Y-382950D01*
X-39859Y-384662D01*
X-40101Y-386500D01*
Y-388730D01*
X-34270D01*
Y-379566D01*
D02*
G37*
G36*
X13970Y-379205D02*
Y-390000D01*
Y-400795D01*
X24740D01*
Y-400558D01*
X26388Y-399522D01*
X28550Y-398959D01*
X29450Y-399649D01*
X31162Y-400359D01*
X31730Y-400434D01*
Y-390000D01*
Y-379566D01*
X31162Y-379641D01*
X29450Y-380351D01*
X28550Y-381041D01*
X26388Y-380478D01*
X24740Y-379442D01*
Y-379205D01*
X13970D01*
D02*
G37*
G36*
X40101Y-391270D02*
X34270D01*
Y-400434D01*
X34838Y-400359D01*
X36550Y-399649D01*
X38021Y-398521D01*
X39149Y-397050D01*
X39859Y-395338D01*
X40101Y-393500D01*
Y-391270D01*
D02*
G37*
G36*
X-34270D02*
X-40101D01*
Y-393500D01*
X-39859Y-395338D01*
X-39149Y-397050D01*
X-38021Y-398521D01*
X-36550Y-399649D01*
X-34838Y-400359D01*
X-34270Y-400434D01*
Y-391270D01*
D02*
G37*
%LPD*%
D45*
X157320Y232487D02*
G03*
X91788Y265282I-157320J-232487D01*
G01*
X135000Y233827D02*
G03*
X69881Y260800I-135000J-233827D01*
G01*
X112679Y235166D02*
G03*
X47974Y256317I-112679J-235166D01*
G01*
X212132Y183848D02*
G03*
X157320Y232487I-212132J-183848D01*
G01*
X190919Y190919D02*
G03*
X135000Y233827I-190919J-190919D01*
G01*
X169705Y197990D02*
G03*
X112679Y235166I-169705J-197990D01*
G01*
X252487Y122679D02*
G03*
X212132Y183848I-252487J-122679D01*
G01*
X233827Y135000D02*
G03*
X190919Y190919I-233827J-135000D01*
G01*
X215166Y147320D02*
G03*
X169705Y197990I-215166J-147320D01*
G01*
X275635Y53151D02*
G03*
X252487Y122679I-275635J-53151D01*
G01*
X260800Y69881D02*
G03*
X233827Y135000I-260800J-69881D01*
G01*
X245964Y86611D02*
G03*
X215166Y147320I-245964J-86611D01*
G01*
X280000Y-20000D02*
G03*
X275635Y53151I-280000J20000D01*
G01*
X270000Y0D02*
G03*
X260800Y69881I-270000J0D01*
G01*
X260000Y20000D02*
G03*
X245964Y86611I-260000J-20000D01*
G01*
X265282Y-91788D02*
G03*
X280000Y-20000I-265282J91788D01*
G01*
X260800Y-69881D02*
G03*
X270000Y0I-260800J69881D01*
G01*
X256317Y-47974D02*
G03*
X260000Y20000I-256317J47974D01*
G01*
X232487Y-157320D02*
G03*
X265282Y-91788I-232487J157320D01*
G01*
X233827Y-135000D02*
G03*
X260800Y-69881I-233827J135000D01*
G01*
X235166Y-112679D02*
G03*
X256317Y-47974I-235166J112679D01*
G01*
X183848Y-212132D02*
G03*
X232487Y-157320I-183848J212132D01*
G01*
X190919Y-190919D02*
G03*
X233827Y-135000I-190919J190919D01*
G01*
X197990Y-169705D02*
G03*
X235166Y-112679I-197990J169705D01*
G01*
X122679Y-252487D02*
G03*
X183848Y-212132I-122679J252487D01*
G01*
X135000Y-233827D02*
G03*
X190919Y-190919I-135000J233827D01*
G01*
X147320Y-215166D02*
G03*
X197990Y-169705I-147320J215166D01*
G01*
X53151Y-275635D02*
G03*
X122679Y-252487I-53151J275635D01*
G01*
X69881Y-260800D02*
G03*
X135000Y-233827I-69881J260800D01*
G01*
X86611Y-245964D02*
G03*
X147320Y-215166I-86611J245964D01*
G01*
X-20000Y-280000D02*
G03*
X53151Y-275635I20000J280000D01*
G01*
X0Y-270000D02*
G03*
X69881Y-260800I0J270000D01*
G01*
X20000Y-260000D02*
G03*
X86611Y-245964I-20000J260000D01*
G01*
X-91788Y-265282D02*
G03*
X-20000Y-280000I91788J265282D01*
G01*
X-69881Y-260800D02*
G03*
X0Y-270000I69881J260800D01*
G01*
X-47974Y-256317D02*
G03*
X20000Y-260000I47974J256317D01*
G01*
X-157320Y-232487D02*
G03*
X-91788Y-265282I157320J232487D01*
G01*
X-135000Y-233827D02*
G03*
X-69881Y-260800I135000J233827D01*
G01*
X-112679Y-235166D02*
G03*
X-47974Y-256317I112679J235166D01*
G01*
X-212132Y-183848D02*
G03*
X-157320Y-232487I212132J183848D01*
G01*
X-190919Y-190919D02*
G03*
X-135000Y-233827I190919J190919D01*
G01*
X-169705Y-197990D02*
G03*
X-112679Y-235166I169705J197990D01*
G01*
X-252487Y-122679D02*
G03*
X-212132Y-183848I252487J122679D01*
G01*
X-233827Y-135000D02*
G03*
X-190919Y-190919I233827J135000D01*
G01*
X-215166Y-147320D02*
G03*
X-169705Y-197990I215166J147320D01*
G01*
X-275635Y-53151D02*
G03*
X-252487Y-122679I275635J53151D01*
G01*
X-260800Y-69881D02*
G03*
X-233827Y-135000I260800J69881D01*
G01*
X-245964Y-86611D02*
G03*
X-215166Y-147320I245964J86611D01*
G01*
X-280000Y20000D02*
G03*
X-275635Y-53151I280000J-20000D01*
G01*
X-270000Y0D02*
G03*
X-260800Y-69881I270000J0D01*
G01*
X-260000Y-20000D02*
G03*
X-245964Y-86611I260000J20000D01*
G01*
X-265282Y91788D02*
G03*
X-280000Y20000I265282J-91788D01*
G01*
X-260800Y69881D02*
G03*
X-270000Y0I260800J-69881D01*
G01*
X-256317Y47974D02*
G03*
X-260000Y-20000I256317J-47974D01*
G01*
X-232487Y157320D02*
G03*
X-265282Y91788I232487J-157320D01*
G01*
X-233827Y135000D02*
G03*
X-260800Y69881I233827J-135000D01*
G01*
X-235166Y112679D02*
G03*
X-256317Y47974I235166J-112679D01*
G01*
X-183848Y212132D02*
G03*
X-232487Y157320I183848J-212132D01*
G01*
X-190919Y190919D02*
G03*
X-233827Y135000I190919J-190919D01*
G01*
X-197990Y169705D02*
G03*
X-235166Y112679I197990J-169705D01*
G01*
X-122679Y252487D02*
G03*
X-183848Y212132I122679J-252487D01*
G01*
X-135000Y233827D02*
G03*
X-190919Y190919I135000J-233827D01*
G01*
X-147320Y215166D02*
G03*
X-197990Y169705I147320J-215166D01*
G01*
X-86611Y245964D02*
G03*
X-147320Y215166I86611J-245964D01*
G01*
X-69881Y260800D02*
G03*
X-135000Y233827I69881J-260800D01*
G01*
X-53151Y275635D02*
G03*
X-122679Y252487I53151J-275635D01*
G01*
D46*
X33000Y-390000D02*
D03*
X-33000D02*
D03*
D47*
X177038Y-141478D02*
D03*
D48*
X151638Y-141478D02*
D03*
X126238Y-141478D02*
D03*
D49*
X0Y0D02*
D03*
D50*
X-158750Y179324D02*
D03*
X-158750Y128524D02*
D03*
Y153924D02*
D03*
D51*
X-158750Y103124D02*
D03*
D52*
X324759Y-187500D02*
D03*
X0Y375000D02*
D03*
X-324759Y-187500D02*
D03*
D53*
X13000Y-350000D02*
D03*
X112679Y235166D02*
D03*
X135000Y233827D02*
D03*
X157320Y232487D02*
D03*
X256317Y-47974D02*
D03*
X260800Y-69881D02*
D03*
X265283Y-91788D02*
D03*
X197990Y-169705D02*
D03*
X190919Y-190919D02*
D03*
X183848Y-212132D02*
D03*
X147320Y-215166D02*
D03*
X135000Y-233827D02*
D03*
X122679Y-252487D02*
D03*
X20000Y-260000D02*
D03*
X0Y-270000D02*
D03*
X-20000Y-280000D02*
D03*
X-47974Y-256317D02*
D03*
X-69881Y-260800D02*
D03*
X-91788Y-265283D02*
D03*
X-112679Y-235166D02*
D03*
X-260000Y-20000D02*
D03*
X-270000Y0D02*
D03*
X-280000Y20000D02*
D03*
X-147320Y215166D02*
D03*
X-135000Y233827D02*
D03*
X-122679Y252487D02*
D03*
X-256317Y47974D02*
D03*
X-260800Y69881D02*
D03*
X-265283Y91788D02*
D03*
X-232487Y157320D02*
D03*
X-233827Y135000D02*
D03*
X-235166Y112679D02*
D03*
X-53151Y275635D02*
D03*
X-69881Y260800D02*
D03*
X-183848Y212132D02*
D03*
X-190919Y190919D02*
D03*
X-197990Y169705D02*
D03*
X-86611Y245964D02*
D03*
X91788Y265283D02*
D03*
X69881Y260800D02*
D03*
X47974Y256317D02*
D03*
X212132Y183848D02*
D03*
X190919Y190919D02*
D03*
X169705Y197990D02*
D03*
X252487Y122679D02*
D03*
X233827Y135000D02*
D03*
X215166Y147320D02*
D03*
X275635Y53151D02*
D03*
X260800Y69881D02*
D03*
X245964Y86611D02*
D03*
X280000Y-20000D02*
D03*
X270000Y0D02*
D03*
X260000Y20000D02*
D03*
X53151Y-275635D02*
D03*
X69881Y-260800D02*
D03*
X86611Y-245964D02*
D03*
X-157320Y-232487D02*
D03*
X-135000Y-233827D02*
D03*
X-212132Y-183848D02*
D03*
X-190919Y-190919D02*
D03*
X-169705Y-197990D02*
D03*
X-275635Y-53151D02*
D03*
X-260800Y-69881D02*
D03*
X-245964Y-86611D02*
D03*
D54*
X12700Y-390000D02*
D03*
X-13000Y-390000D02*
D03*
D55*
X13000Y-363250D02*
D03*
X6500Y-363250D02*
D03*
X0D02*
D03*
X-6500D02*
D03*
X-13000D02*
D03*
D56*
X13000Y-363250D02*
Y-350000D01*
%TF.MD5,249620fb2618263b2541f3bd65757653*%
M02*
