%TF.GenerationSoftware,Altium Limited,Altium Designer,21.6.4 (81)*%
G04 Layer_Physical_Order=1*
G04 Layer_Color=6711008*
%FSLAX45Y45*%
%MOMM*%
%TF.SameCoordinates,1F3DC5CE-A10F-41C4-B24A-259E2D936CC1*%
%TF.FilePolarity,Positive*%
%TF.FileFunction,Copper,L1,Top,Signal*%
%TF.Part,Single*%
G01*
G75*
%TA.AperFunction,Conductor*%
%ADD10C,1.27000*%
%TA.AperFunction,SMDPad,CuDef*%
%ADD11R,0.60000X1.05000*%
%TA.AperFunction,ConnectorPad*%
%ADD12R,0.40000X1.35000*%
%ADD13R,1.90000X1.65100*%
%TA.AperFunction,SMDPad,CuDef*%
%ADD14C,10.00000*%
%ADD15R,1.27000X5.08000*%
%ADD16R,0.70000X1.00000*%
%ADD17R,1.10000X0.60000*%
%ADD18R,1.00000X0.60000*%
%ADD19R,0.75000X0.30000*%
%ADD20R,1.75000X1.45000*%
%ADD21R,1.45000X0.60000*%
%ADD22R,1.00000X0.70000*%
%ADD23R,1.15000X1.45000*%
%ADD24R,1.45000X1.15000*%
%ADD25R,0.90000X1.10000*%
%ADD26R,0.40000X0.50000*%
%ADD27R,1.30000X1.55000*%
%TA.AperFunction,ConnectorPad*%
%ADD28R,4.50000X1.30000*%
%TA.AperFunction,SMDPad,CuDef*%
%ADD29R,0.60000X0.60000*%
%ADD30R,0.50000X0.40000*%
%ADD31R,1.20000X1.40000*%
%ADD32R,0.60000X0.60000*%
%TA.AperFunction,Conductor*%
%ADD33C,0.50800*%
%ADD34C,0.38100*%
%ADD35C,0.25400*%
%TA.AperFunction,ComponentPad*%
%ADD36O,2.20000X1.50000*%
%ADD37R,2.20000X1.50000*%
G04:AMPARAMS|DCode=38|XSize=0.9mm|YSize=1.6mm|CornerRadius=0.45mm|HoleSize=0mm|Usage=FLASHONLY|Rotation=180.000|XOffset=0mm|YOffset=0mm|HoleType=Round|Shape=RoundedRectangle|*
%AMROUNDEDRECTD38*
21,1,0.90000,0.70000,0,0,180.0*
21,1,0.00000,1.60000,0,0,180.0*
1,1,0.90000,0.00000,0.35000*
1,1,0.90000,0.00000,0.35000*
1,1,0.90000,0.00000,-0.35000*
1,1,0.90000,0.00000,-0.35000*
%
%ADD38ROUNDEDRECTD38*%
%TA.AperFunction,ViaPad*%
%ADD39C,0.66000*%
G36*
X-387034Y2126317D02*
X-391494Y2120504D01*
X-398588Y2103378D01*
X-401008Y2085000D01*
Y2062700D01*
X-330000D01*
Y2050000D01*
X-317300D01*
Y1945665D01*
X-311622Y1946412D01*
X-294496Y1953506D01*
X-279790Y1964790D01*
X-268506Y1979496D01*
X-263100Y1992547D01*
X-250400Y1990021D01*
Y1957959D01*
X-250724Y1957742D01*
X-313623Y1894844D01*
X-693536D01*
X-731759Y1933067D01*
X-726899Y1944800D01*
X-707300D01*
Y2075200D01*
X-724102D01*
Y2109596D01*
X-694682Y2139017D01*
X-393297D01*
X-387034Y2126317D01*
D02*
G37*
G36*
X724102Y2101427D02*
Y2075200D01*
X707300D01*
Y1945700D01*
X690910D01*
X674113Y1938743D01*
X661258Y1925887D01*
X654300Y1909090D01*
Y1890910D01*
X661258Y1874113D01*
X667471Y1867899D01*
X662211Y1855199D01*
X612300D01*
Y1815897D01*
X537403D01*
X395558Y1957742D01*
X392419Y1959839D01*
X388512Y1973794D01*
X388795Y1975979D01*
X391494Y1979496D01*
X398588Y1996622D01*
X401008Y2015000D01*
Y2037300D01*
X330000D01*
Y2062700D01*
X401008D01*
Y2085000D01*
X398588Y2103378D01*
X391494Y2120504D01*
X387034Y2126317D01*
X393297Y2139017D01*
X686513D01*
X724102Y2101427D01*
D02*
G37*
G36*
X-722576Y1850634D02*
X-714174Y1845020D01*
X-704264Y1843049D01*
X-697700D01*
Y1724800D01*
X-612301D01*
X-608846Y1713531D01*
Y1662700D01*
X-617700D01*
Y1537300D01*
X-522300D01*
Y1662700D01*
X-531153D01*
Y1751154D01*
X-309999D01*
X-295134Y1754111D01*
X-282531Y1762532D01*
X-195280Y1849783D01*
X-175400D01*
Y1795200D01*
X-130000D01*
Y1769800D01*
X-175400D01*
Y1694041D01*
X-233194Y1636247D01*
X-357500D01*
X-360026Y1635200D01*
X-370200D01*
Y1625027D01*
X-371246Y1622500D01*
Y1477500D01*
X-370200Y1474974D01*
Y1464800D01*
X-360026D01*
X-357500Y1463754D01*
X-260267D01*
X-253616Y1451054D01*
X-255801Y1447900D01*
X-287300D01*
Y1362700D01*
X-217100D01*
Y1387119D01*
X-215556Y1388664D01*
X-205400Y1394600D01*
Y1394600D01*
X-205399Y1394600D01*
X-192700D01*
Y1312300D01*
X-67300D01*
Y1329103D01*
X-45000D01*
X-35089Y1331074D01*
X-26687Y1336688D01*
X18312Y1381688D01*
X23926Y1390089D01*
X25898Y1400000D01*
Y1501254D01*
X50000D01*
X54600Y1503159D01*
X67300Y1502300D01*
X67300Y1502300D01*
X67301Y1502300D01*
X192700D01*
Y1502300D01*
X202646Y1505420D01*
X214800Y1499365D01*
Y1487300D01*
X385200D01*
Y1572700D01*
X214801D01*
X214800Y1572700D01*
Y1572701D01*
X202793Y1572505D01*
X192700Y1578315D01*
Y1587700D01*
X172398D01*
X164835Y1598453D01*
X168068Y1611153D01*
X424826D01*
X611154Y1424825D01*
Y1127701D01*
X587301D01*
Y1032301D01*
X712701D01*
Y1127701D01*
X688847D01*
Y1440916D01*
X685890Y1455781D01*
X677469Y1468384D01*
X468385Y1677469D01*
X455782Y1685889D01*
X440916Y1688847D01*
X163746D01*
Y1849783D01*
X340113D01*
X520158Y1669738D01*
X532761Y1661317D01*
X547627Y1658360D01*
X700187D01*
X715053Y1661317D01*
X727656Y1669738D01*
X790567Y1732649D01*
X802300Y1727789D01*
Y1724800D01*
X887700D01*
Y1764103D01*
X902666D01*
X935081Y1731688D01*
X943483Y1726074D01*
X953394Y1724102D01*
X972300D01*
Y1710242D01*
X965400Y1700400D01*
X959600Y1700400D01*
X887700D01*
Y1610200D01*
X965400D01*
Y1669459D01*
X977476Y1678966D01*
X981153Y1677805D01*
Y1247312D01*
X984111Y1232446D01*
X992531Y1219843D01*
X1041154Y1171220D01*
Y112699D01*
X1032301D01*
Y-12701D01*
X1041154D01*
Y-99999D01*
X1041154Y-100001D01*
Y-833300D01*
X1015300D01*
Y-1095005D01*
X1014642Y-1100000D01*
Y-1846000D01*
X1014781Y-1847051D01*
X1011476Y-1880606D01*
X1001382Y-1913882D01*
X984990Y-1944550D01*
X962929Y-1971430D01*
X936049Y-1993490D01*
X905382Y-2009882D01*
X872106Y-2019976D01*
X838551Y-2023281D01*
X837500Y-2023143D01*
X-837500D01*
X-838551Y-2023281D01*
X-872106Y-2019976D01*
X-905382Y-2009882D01*
X-936049Y-1993490D01*
X-962929Y-1971430D01*
X-984990Y-1944550D01*
X-1001382Y-1913882D01*
X-1011476Y-1880606D01*
X-1014781Y-1847051D01*
X-1014642Y-1846000D01*
Y-1100000D01*
X-1015300Y-1095005D01*
Y-833300D01*
X-1150000D01*
Y-150000D01*
X-1200000Y-100000D01*
Y-5407D01*
X-1175898D01*
Y-50000D01*
X-1173926Y-59910D01*
X-1168312Y-68312D01*
X-1159911Y-73926D01*
X-1150000Y-75897D01*
X-1140089Y-73926D01*
X-1131688Y-68312D01*
X-1126074Y-59910D01*
X-1124102Y-50000D01*
Y-5407D01*
X-1094600D01*
Y37293D01*
X-1150000D01*
Y62693D01*
X-1094600D01*
Y80000D01*
X-905391D01*
Y62691D01*
X-849990D01*
Y37291D01*
X-905391D01*
Y-5409D01*
X-875898D01*
Y-50000D01*
X-873926Y-59910D01*
X-868312Y-68312D01*
X-859911Y-73926D01*
X-850000Y-75897D01*
X-840090Y-73926D01*
X-831688Y-68312D01*
X-826074Y-59910D01*
X-824102Y-50000D01*
Y-5409D01*
X-794591D01*
Y24102D01*
X-755400D01*
Y-5400D01*
X-712700D01*
Y50000D01*
X-687300D01*
Y-5400D01*
X-669539D01*
X-624939Y-50000D01*
X-438724D01*
X-434698Y-59720D01*
X-424977Y-63746D01*
X-192500D01*
X-182780Y-59720D01*
X-178754Y-50000D01*
Y-44357D01*
X-170200Y-35200D01*
X-166053Y-35200D01*
X-160027D01*
X-157500Y-36247D01*
X265033D01*
X270949Y-33796D01*
X279456Y-34488D01*
X285949Y-37618D01*
X292531Y-47468D01*
X304404Y-59341D01*
X311257Y-75887D01*
X324113Y-88743D01*
X340910Y-95700D01*
X359090D01*
X375887Y-88743D01*
X388743Y-75887D01*
X395700Y-59090D01*
Y-40909D01*
X388743Y-24113D01*
X375887Y-11257D01*
X367700Y-7866D01*
Y82877D01*
X380400Y90453D01*
X390910Y86100D01*
X409090D01*
X418553Y90020D01*
X431253Y81830D01*
Y-0D01*
X432300Y-2527D01*
Y-12700D01*
X442473D01*
X445000Y-13747D01*
X635000D01*
X637527Y-12700D01*
X647700D01*
Y-2527D01*
X648746Y-0D01*
Y100433D01*
X648747Y107499D01*
X648747Y107500D01*
X647700Y112700D01*
X646593D01*
X644720Y117220D01*
X596246Y165694D01*
Y184600D01*
X607900D01*
Y212300D01*
X545000D01*
Y237700D01*
X607900D01*
Y277173D01*
X619634Y282034D01*
X729980Y171687D01*
X738382Y166074D01*
X748292Y164102D01*
X757300D01*
Y125400D01*
X699600D01*
Y62700D01*
X759999D01*
X820400D01*
Y124800D01*
X842700D01*
Y164102D01*
X860227D01*
X894101Y130228D01*
Y112700D01*
X872299D01*
Y-12700D01*
X967699D01*
Y112700D01*
X945896D01*
Y140955D01*
X943925Y150866D01*
X938311Y159267D01*
X889266Y208312D01*
X880864Y213926D01*
X870954Y215897D01*
X842700D01*
Y255200D01*
X757300D01*
Y234211D01*
X745566Y229350D01*
X655516Y319401D01*
X660776Y332101D01*
X692299D01*
Y397301D01*
X649599D01*
Y343278D01*
X636899Y338018D01*
X631605Y343312D01*
X623203Y348926D01*
X613292Y350897D01*
X595200D01*
Y352700D01*
X494800D01*
Y347900D01*
X412699D01*
Y250000D01*
X387299D01*
Y347900D01*
X305200D01*
Y352700D01*
X295027D01*
X292500Y353746D01*
X53754D01*
X52754Y366446D01*
X79078Y370616D01*
X129632Y387041D01*
X176993Y411173D01*
X219997Y442417D01*
X257583Y480003D01*
X288827Y523007D01*
X312959Y570368D01*
X329384Y620922D01*
X337700Y673423D01*
Y726578D01*
X329384Y779078D01*
X312959Y829632D01*
X288827Y876993D01*
X257583Y919997D01*
X219997Y957583D01*
X176993Y988827D01*
X129632Y1012959D01*
X79078Y1029385D01*
X26578Y1037700D01*
X-26578D01*
X-79078Y1029385D01*
X-129632Y1012959D01*
X-176993Y988827D01*
X-219997Y957583D01*
X-257583Y919997D01*
X-288827Y876993D01*
X-312959Y829632D01*
X-329384Y779078D01*
X-337700Y726578D01*
Y673423D01*
X-329384Y620922D01*
X-312959Y570368D01*
X-288827Y523007D01*
X-257583Y480003D01*
X-219997Y442417D01*
X-176993Y411173D01*
X-129632Y387041D01*
X-79078Y370616D01*
X-26578Y362300D01*
X14964D01*
X17780Y349720D01*
X13754Y340000D01*
Y250000D01*
X9707Y243380D01*
X5681Y233660D01*
Y168500D01*
X9707Y158779D01*
X10890Y152831D01*
X-5695Y136246D01*
X-157500D01*
X-160027Y135200D01*
X-162101D01*
X-170482Y147783D01*
X-168607Y152100D01*
X-112700D01*
Y250000D01*
Y347900D01*
X-237300D01*
Y250000D01*
X-262700D01*
Y347900D01*
X-300000D01*
Y400000D01*
X-339600D01*
Y437300D01*
X-420000D01*
Y462700D01*
X-339600D01*
Y505400D01*
X-352300D01*
Y587700D01*
X-394102D01*
Y624369D01*
X-396074Y634280D01*
X-401688Y642681D01*
X-434103Y675097D01*
Y707300D01*
X-392300D01*
Y872700D01*
X-536900D01*
X-537700Y872700D01*
X-549600Y874631D01*
Y885400D01*
X-622299D01*
Y790000D01*
Y694600D01*
X-549600D01*
Y705368D01*
X-537700Y707300D01*
X-536900Y707300D01*
X-485898D01*
Y664370D01*
X-483927Y654459D01*
X-478313Y646057D01*
X-445898Y613642D01*
Y587700D01*
X-487700D01*
Y505400D01*
X-500400D01*
Y481623D01*
X-504384Y479518D01*
X-513100Y477730D01*
X-524113Y488743D01*
X-528662Y490627D01*
Y504373D01*
X-524113Y506258D01*
X-511257Y519113D01*
X-504300Y535910D01*
Y554091D01*
X-511257Y570887D01*
X-524113Y583743D01*
X-540910Y590700D01*
X-559090D01*
X-575887Y583743D01*
X-588732Y570898D01*
X-612300D01*
Y587700D01*
X-747700D01*
Y587700D01*
X-754548Y584863D01*
X-761265Y591580D01*
X-769667Y597194D01*
X-779578Y599165D01*
X-1056540D01*
X-1066450Y597194D01*
X-1074852Y591580D01*
X-1089599Y576833D01*
X-1102299Y582094D01*
Y587699D01*
X-1237699D01*
Y505400D01*
X-1250400D01*
Y462700D01*
X-1170000D01*
Y437300D01*
X-1250400D01*
Y394600D01*
X-1237700D01*
Y315344D01*
X-1362300D01*
Y329102D01*
X-1329509D01*
X-1319598Y331074D01*
X-1311197Y336688D01*
X-1281688Y366197D01*
X-1276074Y374598D01*
X-1274102Y384509D01*
Y589273D01*
X-1239273Y624102D01*
X-911773D01*
X-901863Y626074D01*
X-893461Y631688D01*
X-856688Y668461D01*
X-851074Y676863D01*
X-849102Y686773D01*
Y712300D01*
X-797300D01*
Y892700D01*
X-849102D01*
Y1507300D01*
X-797300D01*
Y1574103D01*
X-777700D01*
Y1537300D01*
X-682300D01*
Y1662700D01*
X-777700D01*
Y1625898D01*
X-797300D01*
Y1687700D01*
X-823138D01*
X-827998Y1699433D01*
X-826688Y1700743D01*
X-821074Y1709145D01*
X-819103Y1719055D01*
Y1724799D01*
X-802301D01*
Y1855199D01*
X-887701D01*
Y1724800D01*
X-887701D01*
X-884239Y1716442D01*
X-893312Y1707368D01*
X-898926Y1698967D01*
X-900898Y1689056D01*
Y1687700D01*
X-952700D01*
Y1507300D01*
X-900898D01*
Y892700D01*
X-952700D01*
Y712300D01*
X-900898D01*
Y697500D01*
X-922500Y675898D01*
X-1250000D01*
X-1259911Y673926D01*
X-1268312Y668312D01*
X-1318312Y618312D01*
X-1323926Y609911D01*
X-1325898Y600000D01*
Y395236D01*
X-1340236Y380898D01*
X-1362300D01*
Y397699D01*
X-1362300D01*
X-1362300Y407301D01*
X-1362300D01*
Y492700D01*
X-1362300D01*
X-1362299Y502300D01*
X-1362300D01*
Y587700D01*
X-1404102D01*
Y699600D01*
X-1337700D01*
Y789800D01*
X-1415400D01*
Y768618D01*
X-1427133Y763758D01*
X-1474102Y810727D01*
Y1639273D01*
X-1427133Y1686242D01*
X-1415400Y1681382D01*
Y1610200D01*
X-1337700D01*
Y1700400D01*
X-1396382D01*
X-1401242Y1712133D01*
X-1207173Y1906202D01*
X-778144D01*
X-722576Y1850634D01*
D02*
G37*
G36*
X150000Y1600000D02*
X50000D01*
Y1515000D01*
X-180000D01*
X-217500Y1477500D01*
X-357500D01*
Y1622500D01*
X-227500D01*
X-158352Y1691648D01*
X110000D01*
Y1850000D01*
X150000D01*
Y1600000D01*
D02*
G37*
G36*
X1236591Y2181767D02*
X1311871Y2166792D01*
X1384553Y2142120D01*
X1453393Y2108172D01*
X1517213Y2065529D01*
X1574921Y2014921D01*
X1625529Y1957213D01*
X1668172Y1893393D01*
X1702120Y1824554D01*
X1726792Y1751872D01*
X1741766Y1676591D01*
X1746640Y1602239D01*
X1745713Y1600000D01*
Y-1600000D01*
X1746640Y-1602238D01*
X1741766Y-1676591D01*
X1726792Y-1751871D01*
X1702120Y-1824553D01*
X1668172Y-1893393D01*
X1625529Y-1957213D01*
X1574921Y-2014921D01*
X1517213Y-2065529D01*
X1453393Y-2108172D01*
X1384553Y-2142120D01*
X1311871Y-2166792D01*
X1236591Y-2181766D01*
X1162238Y-2186640D01*
X1160000Y-2185712D01*
X890491D01*
X889315Y-2173143D01*
X939853Y-2161010D01*
X987871Y-2141120D01*
X1032187Y-2113964D01*
X1071709Y-2080209D01*
X1105463Y-2040687D01*
X1132620Y-1996371D01*
X1152510Y-1948353D01*
X1164643Y-1897815D01*
X1168721Y-1846000D01*
X1168358D01*
Y-1100000D01*
X1167700Y-1095005D01*
Y-833300D01*
X1118847D01*
Y-100002D01*
X1118847Y-100001D01*
Y-12701D01*
X1127701D01*
Y112699D01*
X1118847D01*
Y1187311D01*
X1115890Y1202177D01*
X1107469Y1214780D01*
X1058846Y1263403D01*
Y1687300D01*
X1067700D01*
Y1812700D01*
X972300D01*
Y1785679D01*
X959600Y1780419D01*
X931706Y1808313D01*
X923304Y1813927D01*
X913393Y1815898D01*
X887700D01*
Y1855200D01*
X897907Y1861220D01*
X1117860D01*
X1153680Y1825400D01*
X1153082Y1812700D01*
X1132300D01*
Y1687300D01*
X1227700D01*
Y1724102D01*
X1275424D01*
X1299103Y1700424D01*
Y1687700D01*
X1247300D01*
Y1507300D01*
X1299103D01*
Y892700D01*
X1247300D01*
Y712300D01*
X1402700D01*
Y892700D01*
X1350898D01*
Y1507300D01*
X1402700D01*
Y1687700D01*
X1350898D01*
Y1711152D01*
X1348926Y1721062D01*
X1343313Y1729464D01*
X1304464Y1768312D01*
X1296062Y1773926D01*
X1286152Y1775898D01*
X1227700D01*
Y1812700D01*
X1205898D01*
Y1835704D01*
X1203926Y1845615D01*
X1198313Y1854017D01*
X1146900Y1905430D01*
X1138498Y1911044D01*
X1128587Y1913015D01*
X799704D01*
X789793Y1911044D01*
X781392Y1905430D01*
X754196Y1878234D01*
X743430Y1885429D01*
X745700Y1890910D01*
Y1909075D01*
X768312Y1931688D01*
X773926Y1940089D01*
X774863Y1944800D01*
X792700D01*
Y2075200D01*
X775898D01*
Y2112154D01*
X773926Y2122065D01*
X768312Y2130466D01*
X725766Y2173013D01*
X731027Y2185713D01*
X1160000D01*
X1162238Y2186640D01*
X1236591Y2181767D01*
D02*
G37*
G36*
X-1160000Y2185713D02*
X-739196D01*
X-733935Y2173013D01*
X-768312Y2138636D01*
X-773926Y2130234D01*
X-775898Y2120323D01*
Y2075200D01*
X-792700D01*
Y1957998D01*
X-1217900D01*
X-1227811Y1956026D01*
X-1236212Y1950412D01*
X-1518312Y1668312D01*
X-1523926Y1659911D01*
X-1525898Y1650000D01*
Y800000D01*
X-1523926Y790090D01*
X-1518312Y781688D01*
X-1455897Y719273D01*
Y587700D01*
X-1497700D01*
Y502300D01*
X-1497700D01*
X-1497700Y492700D01*
X-1508804Y488847D01*
X-1542301D01*
Y517700D01*
X-1657701D01*
Y382300D01*
X-1638848D01*
Y321348D01*
X-1635891Y306482D01*
X-1627470Y293880D01*
X-1595323Y261733D01*
X-1600184Y250000D01*
X-1745713D01*
Y1600000D01*
X-1746640Y1602239D01*
X-1741766Y1676591D01*
X-1726792Y1751872D01*
X-1702120Y1824554D01*
X-1668172Y1893393D01*
X-1625529Y1957213D01*
X-1574921Y2014921D01*
X-1517213Y2065529D01*
X-1453393Y2108172D01*
X-1384553Y2142120D01*
X-1311871Y2166792D01*
X-1236591Y2181767D01*
X-1162238Y2186640D01*
X-1160000Y2185713D01*
D02*
G37*
G36*
X292500Y310000D02*
X172500D01*
Y250000D01*
X27500D01*
Y340000D01*
X292500D01*
Y310000D01*
D02*
G37*
G36*
X-570000Y225000D02*
X-725000D01*
X-760001Y260001D01*
X-1045001D01*
Y370001D01*
X-782170D01*
X-767170Y385001D01*
X-570000D01*
Y225000D01*
D02*
G37*
G36*
X292500Y210000D02*
X217500D01*
X175999Y168499D01*
X19427Y168500D01*
Y233660D01*
X190753D01*
X190753Y290000D01*
X292500D01*
X292500Y210000D01*
D02*
G37*
G36*
X582500Y160000D02*
X635000Y107500D01*
Y-0D01*
X445000D01*
Y100000D01*
X507500Y162500D01*
Y190000D01*
X582500D01*
Y160000D01*
D02*
G37*
G36*
X292500Y118954D02*
X265033D01*
Y-22500D01*
X-157500D01*
Y122500D01*
X-1D01*
X27499Y150000D01*
X177500D01*
X217500Y190000D01*
X292500D01*
Y118954D01*
D02*
G37*
G36*
X-192500Y-50000D02*
X-424977D01*
Y150000D01*
X-192500D01*
Y-50000D01*
D02*
G37*
%LPC*%
G36*
X-342700Y2037300D02*
X-401008D01*
Y2015000D01*
X-398588Y1996622D01*
X-391494Y1979496D01*
X-380210Y1964790D01*
X-365504Y1953506D01*
X-348378Y1946412D01*
X-342700Y1945665D01*
Y2037300D01*
D02*
G37*
G36*
X-1234600Y1700400D02*
X-1312300D01*
Y1610200D01*
X-1234600D01*
Y1700400D01*
D02*
G37*
G36*
X862300D02*
X784600D01*
Y1610200D01*
X862300D01*
Y1700400D01*
D02*
G37*
G36*
X965400Y1584800D02*
X887700D01*
Y1494600D01*
X965400D01*
Y1584800D01*
D02*
G37*
G36*
X862300D02*
X784600D01*
Y1494600D01*
X862300D01*
Y1584800D01*
D02*
G37*
G36*
X-1234600Y1584800D02*
X-1312300D01*
Y1494600D01*
X-1234600D01*
Y1584800D01*
D02*
G37*
G36*
X-1337700D02*
X-1415400D01*
Y1494600D01*
X-1337700D01*
Y1584800D01*
D02*
G37*
G36*
X-312700Y1447900D02*
X-382900D01*
Y1362700D01*
X-312700D01*
Y1447900D01*
D02*
G37*
G36*
X-217100Y1337300D02*
X-287300D01*
Y1252100D01*
X-217100D01*
Y1337300D01*
D02*
G37*
G36*
X-312700D02*
X-382900D01*
Y1252100D01*
X-312700D01*
Y1337300D01*
D02*
G37*
G36*
X87300Y1187300D02*
X2100D01*
Y1117100D01*
X87300D01*
Y1187300D01*
D02*
G37*
G36*
X227500Y1413747D02*
X224973Y1412700D01*
X214800D01*
Y1406741D01*
X206806Y1398747D01*
X80000D01*
X77473Y1397700D01*
X67300D01*
Y1387527D01*
X66253Y1385000D01*
Y1282900D01*
X2100D01*
Y1212700D01*
X100000D01*
Y1200000D01*
X112700D01*
Y1117100D01*
X190720D01*
X193871Y1117100D01*
X198125Y1113833D01*
Y1113833D01*
X198125Y1113833D01*
Y1113832D01*
X204300Y1103540D01*
Y1090910D01*
X211257Y1074113D01*
X213754Y1071617D01*
Y1067137D01*
X217780Y1057416D01*
X227500Y1053390D01*
X372500D01*
X382220Y1057416D01*
X386247Y1067137D01*
Y1071617D01*
X388743Y1074113D01*
X395700Y1090910D01*
Y1109090D01*
X388743Y1125887D01*
X386247Y1128383D01*
Y1400000D01*
X385200Y1402527D01*
Y1412700D01*
X375027D01*
X372500Y1413746D01*
X227501D01*
X227500Y1413747D01*
D02*
G37*
G36*
X-379600Y1105400D02*
X-452300D01*
Y1022700D01*
X-379600D01*
Y1105400D01*
D02*
G37*
G36*
X-647700Y1105400D02*
X-720400D01*
Y1022700D01*
X-647700D01*
Y1105400D01*
D02*
G37*
G36*
Y997300D02*
X-720400D01*
Y914600D01*
X-647700D01*
Y997300D01*
D02*
G37*
G36*
X-379600D02*
X-452300D01*
Y914600D01*
X-379600D01*
Y997300D01*
D02*
G37*
G36*
X-549600Y1105400D02*
X-622300D01*
Y1010000D01*
Y914600D01*
X-550400D01*
Y914600D01*
X-477700D01*
Y1010000D01*
Y1105400D01*
X-549600D01*
Y1105400D01*
D02*
G37*
G36*
X-1234600Y905400D02*
X-1312300D01*
Y815200D01*
X-1234600D01*
Y905400D01*
D02*
G37*
G36*
X-1337700D02*
X-1415400D01*
Y815200D01*
X-1337700D01*
Y905400D01*
D02*
G37*
G36*
X965400D02*
X887700D01*
Y815200D01*
X965400D01*
Y905400D01*
D02*
G37*
G36*
X862300D02*
X784600D01*
Y815200D01*
X862300D01*
Y905400D01*
D02*
G37*
G36*
X-647699Y885400D02*
X-720400D01*
Y802700D01*
X-647699D01*
Y885400D01*
D02*
G37*
G36*
X965400Y789800D02*
X887700D01*
Y699600D01*
X965400D01*
Y789800D01*
D02*
G37*
G36*
X-1234600Y789800D02*
X-1312300D01*
Y699600D01*
X-1234600D01*
Y789800D01*
D02*
G37*
G36*
X-647699Y777300D02*
X-720400D01*
Y694600D01*
X-647699D01*
Y777300D01*
D02*
G37*
G36*
X760399Y487901D02*
X717699D01*
Y422701D01*
X760399D01*
Y487901D01*
D02*
G37*
G36*
X692299D02*
X649599D01*
Y422701D01*
X692299D01*
Y487901D01*
D02*
G37*
G36*
X712701Y967699D02*
X587301D01*
Y872299D01*
X611154D01*
Y770031D01*
X614111Y755165D01*
X622532Y742562D01*
X856154Y508941D01*
Y475200D01*
X852300D01*
Y344800D01*
X937700D01*
Y475200D01*
X933847D01*
Y525031D01*
X930890Y539897D01*
X922469Y552500D01*
X788069Y686900D01*
X793330Y699600D01*
X862300D01*
Y789800D01*
X784600D01*
Y708329D01*
X771900Y703069D01*
X688847Y786122D01*
Y872299D01*
X712701D01*
Y967699D01*
D02*
G37*
G36*
X760399Y397301D02*
X717699D01*
Y332101D01*
X760399D01*
Y397301D01*
D02*
G37*
G36*
X-17100Y347900D02*
X-87300D01*
Y262700D01*
X-17100D01*
Y347900D01*
D02*
G37*
G36*
Y237300D02*
X-87300D01*
Y152100D01*
X-17100D01*
Y237300D01*
D02*
G37*
G36*
X820400Y37300D02*
X772699D01*
Y-25400D01*
X820400D01*
Y37300D01*
D02*
G37*
G36*
X747299D02*
X699600D01*
Y-25400D01*
X747299D01*
Y37300D01*
D02*
G37*
G36*
X34437Y-574600D02*
X12701D01*
Y-1087301D01*
X525400D01*
Y-1065564D01*
X516410Y-997280D01*
X498584Y-930754D01*
X472228Y-867123D01*
X437791Y-807477D01*
X395864Y-752836D01*
X347164Y-704136D01*
X292523Y-662209D01*
X232877Y-627772D01*
X169247Y-601416D01*
X102720Y-583590D01*
X34437Y-574600D01*
D02*
G37*
G36*
X-12699D02*
X-34437D01*
X-102720Y-583590D01*
X-169247Y-601416D01*
X-232877Y-627772D01*
X-292523Y-662209D01*
X-347164Y-704136D01*
X-395864Y-752836D01*
X-437791Y-807477D01*
X-472228Y-867123D01*
X-498584Y-930754D01*
X-516410Y-997280D01*
X-525400Y-1065564D01*
Y-1087301D01*
X-12699D01*
Y-574600D01*
D02*
G37*
G36*
X525400Y-1112701D02*
X12701D01*
Y-1625400D01*
X34437D01*
X102720Y-1616410D01*
X169247Y-1598585D01*
X232877Y-1572228D01*
X292523Y-1537791D01*
X347164Y-1495864D01*
X395864Y-1447164D01*
X437791Y-1392523D01*
X472228Y-1332877D01*
X498584Y-1269247D01*
X516410Y-1202720D01*
X525400Y-1134437D01*
Y-1112701D01*
D02*
G37*
G36*
X-12699D02*
X-525400D01*
Y-1134437D01*
X-516410Y-1202720D01*
X-498584Y-1269247D01*
X-472228Y-1332877D01*
X-437791Y-1392523D01*
X-395864Y-1447164D01*
X-347164Y-1495864D01*
X-292523Y-1537791D01*
X-232877Y-1572228D01*
X-169247Y-1598585D01*
X-102720Y-1616410D01*
X-34437Y-1625400D01*
X-12699D01*
Y-1112701D01*
D02*
G37*
%LPD*%
G36*
X372500Y1067137D02*
X227500D01*
Y1249908D01*
X194978Y1282430D01*
X194526Y1281979D01*
X80000D01*
Y1385000D01*
X212500D01*
X227500Y1400000D01*
X372500D01*
Y1067137D01*
D02*
G37*
%LPC*%
G36*
X1535000Y-107544D02*
X1465000D01*
X1442106Y-110558D01*
X1420772Y-119394D01*
X1402452Y-133452D01*
X1388394Y-151772D01*
X1379557Y-173106D01*
X1376543Y-196000D01*
X1379557Y-218894D01*
X1388394Y-240228D01*
X1402452Y-258548D01*
X1420772Y-272606D01*
X1442106Y-281443D01*
X1465000Y-284457D01*
X1535000D01*
X1557895Y-281443D01*
X1579228Y-272606D01*
X1597548Y-258548D01*
X1611606Y-240228D01*
X1620443Y-218894D01*
X1623457Y-196000D01*
X1620443Y-173106D01*
X1611606Y-151772D01*
X1597548Y-133452D01*
X1579228Y-119394D01*
X1557895Y-110558D01*
X1535000Y-107544D01*
D02*
G37*
G36*
Y-361544D02*
X1465000D01*
X1442106Y-364558D01*
X1420772Y-373394D01*
X1402452Y-387452D01*
X1388394Y-405772D01*
X1379557Y-427106D01*
X1376543Y-450000D01*
X1379557Y-472894D01*
X1388394Y-494228D01*
X1402452Y-512548D01*
X1420772Y-526606D01*
X1442106Y-535443D01*
X1465000Y-538457D01*
X1535000D01*
X1557895Y-535443D01*
X1579228Y-526606D01*
X1597548Y-512548D01*
X1611606Y-494228D01*
X1620443Y-472894D01*
X1623457Y-450000D01*
X1620443Y-427106D01*
X1611606Y-405772D01*
X1597548Y-387452D01*
X1579228Y-373394D01*
X1557895Y-364558D01*
X1535000Y-361544D01*
D02*
G37*
G36*
Y-615544D02*
X1465000D01*
X1442106Y-618558D01*
X1420772Y-627394D01*
X1402452Y-641452D01*
X1388394Y-659772D01*
X1379557Y-681106D01*
X1376543Y-704000D01*
X1379557Y-726894D01*
X1388394Y-748228D01*
X1402452Y-766548D01*
X1420772Y-780606D01*
X1442106Y-789443D01*
X1465000Y-792457D01*
X1535000D01*
X1557895Y-789443D01*
X1579228Y-780606D01*
X1597548Y-766548D01*
X1611606Y-748228D01*
X1620443Y-726894D01*
X1623457Y-704000D01*
X1620443Y-681106D01*
X1611606Y-659772D01*
X1597548Y-641452D01*
X1579228Y-627394D01*
X1557895Y-618558D01*
X1535000Y-615544D01*
D02*
G37*
G36*
X1635400Y-857600D02*
X1512700D01*
Y-945300D01*
X1635400D01*
Y-857600D01*
D02*
G37*
G36*
X1487300D02*
X1364600D01*
Y-945300D01*
X1487300D01*
Y-857600D01*
D02*
G37*
G36*
X1635400Y-970700D02*
X1512700D01*
Y-1058400D01*
X1635400D01*
Y-970700D01*
D02*
G37*
G36*
X1487300D02*
X1364600D01*
Y-1058400D01*
X1487300D01*
Y-970700D01*
D02*
G37*
G36*
X-1529599Y700399D02*
X-1587299D01*
Y632699D01*
X-1529599D01*
Y700399D01*
D02*
G37*
G36*
X-1612699D02*
X-1670399D01*
Y632699D01*
X-1612699D01*
Y700399D01*
D02*
G37*
G36*
X-1529599Y607299D02*
X-1587299D01*
Y539599D01*
X-1529599D01*
Y607299D01*
D02*
G37*
G36*
X-1612699D02*
X-1670399D01*
Y539599D01*
X-1612699D01*
Y607299D01*
D02*
G37*
%LPD*%
D10*
X837500Y-2100000D02*
G03*
X1091500Y-1846000I0J254000D01*
G01*
X-1091500D02*
G03*
X-837500Y-2100000I254000J0D01*
G01*
X837500D01*
X-1091500Y-1846000D02*
Y-1100000D01*
X1091500Y-1846000D02*
Y-1100000D01*
D11*
X895000Y410000D02*
D03*
X704999Y410001D02*
D03*
X800000Y190000D02*
D03*
X-750000Y2010000D02*
D03*
X-655000Y1790000D02*
D03*
X-845001Y1789999D02*
D03*
X750000Y2010000D02*
D03*
X845000Y1790000D02*
D03*
X654999Y1789999D02*
D03*
D12*
X-130000Y1782500D02*
D03*
X-65000D02*
D03*
X0D02*
D03*
X65000D02*
D03*
X130000D02*
D03*
D13*
X-130000Y2050000D02*
D03*
X127000D02*
D03*
D14*
X0Y-1100000D02*
D03*
D15*
X1091500Y-1100000D02*
D03*
X-1091500Y-1100000D02*
D03*
D16*
X600000Y50000D02*
D03*
X760000D02*
D03*
X1080001Y49999D02*
D03*
X919999Y50000D02*
D03*
X480000D02*
D03*
X320000D02*
D03*
X1180000Y1750000D02*
D03*
X1020000D02*
D03*
X-730000Y1600000D02*
D03*
X-570000D02*
D03*
D17*
X-420000Y545000D02*
D03*
X-420000Y450000D02*
D03*
Y355001D02*
D03*
X-680001D02*
D03*
X-680000Y450000D02*
D03*
Y545000D02*
D03*
X-1430000Y355000D02*
D03*
X-1430000Y450000D02*
D03*
X-1430000Y545000D02*
D03*
X-1169999Y544999D02*
D03*
X-1170000Y450000D02*
D03*
X-1170000Y355001D02*
D03*
D18*
X-130000Y1545000D02*
D03*
Y1450000D02*
D03*
Y1355000D02*
D03*
X130000D02*
D03*
Y1545000D02*
D03*
D19*
X545000Y175000D02*
D03*
Y225000D02*
D03*
X545000Y275000D02*
D03*
X545000Y325000D02*
D03*
X255000D02*
D03*
Y275000D02*
D03*
X255000Y225000D02*
D03*
Y175000D02*
D03*
D20*
X400000Y250000D02*
D03*
D21*
X100000Y280000D02*
D03*
X99999Y120000D02*
D03*
X300000Y1370000D02*
D03*
Y1530000D02*
D03*
D22*
X650001Y919999D02*
D03*
Y1080001D02*
D03*
D23*
X-250000Y250000D02*
D03*
Y50000D02*
D03*
X-100000Y250000D02*
D03*
Y50000D02*
D03*
X-300000Y1350000D02*
D03*
X-300000Y1550000D02*
D03*
D24*
X100000Y1200000D02*
D03*
X300000D02*
D03*
D25*
X-850001Y315001D02*
D03*
X-850000Y485000D02*
D03*
X-1000001Y315001D02*
D03*
X-1000000Y485000D02*
D03*
X-1600001Y450000D02*
D03*
X-1599999Y619999D02*
D03*
D26*
X-510000Y250000D02*
D03*
X-590000Y250000D02*
D03*
X-1040000Y150000D02*
D03*
X-960000Y150000D02*
D03*
D27*
X-1325000Y802500D02*
D03*
X-875000D02*
D03*
Y1597500D02*
D03*
X-1325000D02*
D03*
X875000Y802500D02*
D03*
X1325000D02*
D03*
Y1597500D02*
D03*
X875000D02*
D03*
D28*
X-1500001Y-315000D02*
D03*
X-1500000Y-1485000D02*
D03*
D29*
X-599993Y150000D02*
D03*
X-700000D02*
D03*
X-599993Y50000D02*
D03*
X-700000D02*
D03*
D30*
X-500000Y60000D02*
D03*
X-500000Y140000D02*
D03*
D31*
X-635000Y790000D02*
D03*
Y1010000D02*
D03*
X-465000Y1010000D02*
D03*
Y790000D02*
D03*
D32*
X-1150000Y150000D02*
D03*
Y49993D02*
D03*
X-849991Y149997D02*
D03*
Y49991D02*
D03*
D33*
X-1555151Y276498D02*
X-1102363D01*
X-1600001Y321348D02*
Y450000D01*
Y321348D02*
X-1555151Y276498D01*
X-925000Y485000D02*
X-850000D01*
X-1000000D02*
X-925000D01*
X-570000Y1790000D02*
X-550000D01*
X-655000D02*
X-570000D01*
Y1600000D02*
Y1790000D01*
X-550000D02*
X-309999D01*
X1080001Y49999D02*
Y1187311D01*
X-1600001Y450000D02*
X-1430000D01*
X-1102363Y276498D02*
X-1063860Y315001D01*
X-1000001D01*
X650001Y770031D02*
X895000Y525031D01*
Y410000D02*
Y525031D01*
X650001Y770031D02*
Y919999D01*
X1080001Y-100001D02*
X1080001D01*
X1020000Y1247312D02*
X1080001Y1187311D01*
Y-100001D02*
Y49999D01*
X650001Y1080001D02*
Y1440916D01*
X440916Y1650000D02*
X650001Y1440916D01*
X1020000Y1247312D02*
Y1750000D01*
X100000Y1650000D02*
X440916D01*
X320000Y-20000D02*
Y50000D01*
Y-20000D02*
X350000Y-50000D01*
X356204Y1888630D02*
X547627Y1697207D01*
X700187D02*
X792981Y1790000D01*
X547627Y1697207D02*
X700187D01*
X-309999Y1790000D02*
X-211370Y1888630D01*
X356204D01*
X792981Y1790000D02*
X845000D01*
X1080001Y-1088500D02*
X1091500Y-1100000D01*
X1080001Y-1088500D02*
Y-100001D01*
D34*
X-330000Y2050000D02*
X-130000D01*
X127000D02*
X330000D01*
X-300000Y1350000D02*
X-200000Y1450000D01*
X-130000D01*
X207261Y131800D02*
X400000D01*
D35*
X545000Y225000D02*
Y275000D01*
X545000Y225000D02*
X545000Y225000D01*
X-849991Y49991D02*
X-849981Y50000D01*
X-850000Y49981D02*
X-849991Y49991D01*
X-849981Y50000D02*
X-700000D01*
X-1150000Y-50000D02*
Y49993D01*
X-850000Y-50000D02*
Y49981D01*
X-1500000Y-300000D02*
Y57446D01*
X-1407446Y150000D02*
X-1150000D01*
X-1500000Y57446D02*
X-1407446Y150000D01*
X-875000Y1597500D02*
X-872500Y1600000D01*
X-730000D01*
X870954Y190000D02*
X919999Y140955D01*
Y50000D02*
Y140955D01*
X800000Y190000D02*
X870954D01*
X748292D02*
X797598D01*
X613292Y325000D02*
X748292Y190000D01*
X545000Y325000D02*
X613292D01*
X-680000Y450000D02*
X-550000D01*
X-680000Y545000D02*
X-550000D01*
X750000Y1950000D02*
Y2010000D01*
X700000Y1900000D02*
X750000Y1950000D01*
X-232412Y1939430D02*
X-231282D01*
X377246D01*
X-704264Y1868946D02*
X-302896D01*
X-232412Y1939430D01*
X-1217900Y1932100D02*
X-767417D01*
X-704264Y1868946D01*
X-1500000Y1650000D02*
X-1217900Y1932100D01*
X-1430000Y545000D02*
Y730000D01*
X-1500000Y800000D02*
X-1430000Y730000D01*
X-1500000Y800000D02*
Y1650000D01*
X377246Y1939430D02*
X526676Y1789999D01*
X654999D01*
X-875000Y686773D02*
Y802500D01*
X-911773Y650000D02*
X-875000Y686773D01*
X-1250000Y650000D02*
X-911773D01*
X-1300000Y600000D02*
X-1250000Y650000D01*
X-1300000Y384509D02*
Y600000D01*
X-1329509Y355000D02*
X-1300000Y384509D01*
X-1430000Y355000D02*
X-1329509D01*
X1325000Y802500D02*
Y1597500D01*
X-875000Y802500D02*
Y1597500D01*
X702586Y1789999D02*
X799704Y1887117D01*
X654999Y1789999D02*
X702586D01*
X799704Y1887117D02*
X1128587D01*
X750000Y2010000D02*
Y2112154D01*
X697240Y2164914D02*
X750000Y2112154D01*
X-705409Y2164914D02*
X697240D01*
X-750000Y2120323D02*
X-705409Y2164914D01*
X-750000Y2010000D02*
Y2120323D01*
X1180000Y1750000D02*
Y1835704D01*
X1128587Y1887117D02*
X1180000Y1835704D01*
X953394Y1750000D02*
X1020000D01*
X913393Y1790000D02*
X953394Y1750000D01*
X845000Y1790000D02*
X913393D01*
X-875000Y1597500D02*
Y1689056D01*
X-845001Y1719055D02*
Y1789999D01*
X-875000Y1689056D02*
X-845001Y1719055D01*
X1180000Y1750000D02*
X1286152D01*
X1325000Y1711152D01*
Y1597500D02*
Y1711152D01*
X130000Y1545000D02*
X199639D01*
X214639Y1530000D01*
X300000D01*
X0Y1400000D02*
Y1545000D01*
X-130000Y1545000D02*
X-0D01*
X0Y1545000D01*
X-300000Y1550000D02*
X-295000Y1545000D01*
X-45000Y1355000D02*
X0Y1400000D01*
X-130000Y1355000D02*
X-45000D01*
X-1169999Y544999D02*
X-1084808D01*
X-1056540Y573268D01*
X-779578D01*
X-751310Y545000D01*
X-680000D01*
X-742645Y450000D02*
X-680000D01*
X-1055101Y400000D02*
X-792645D01*
X-742645Y450000D01*
X-1100100Y355001D02*
X-1055101Y400000D01*
X-1170000Y355001D02*
X-1100100D01*
X-460000Y664370D02*
Y790000D01*
X-420000Y545000D02*
Y624369D01*
X-460000Y664370D02*
X-420000Y624369D01*
X-465000Y790000D02*
X-460000D01*
X-1150000Y150000D02*
X-1040000D01*
X-1040000Y150000D01*
X-960000Y150000D02*
X-959998Y149997D01*
X-849991D01*
X-849988Y150000D01*
X-700000D01*
X-599993Y50000D02*
Y150000D01*
Y50000D02*
X-549374D01*
X-539374Y60000D01*
X-500000D01*
X-500000Y140000D02*
Y187026D01*
X-510000Y197026D02*
X-500000Y187026D01*
X-510000Y197026D02*
Y250000D01*
X-456540D01*
X-420000Y286539D01*
Y355001D01*
D36*
X1500000Y-450000D02*
D03*
Y-704000D02*
D03*
Y-196000D02*
D03*
D37*
Y-958000D02*
D03*
D38*
X-330000Y2050000D02*
D03*
X330000D02*
D03*
D39*
X563816Y-894788D02*
D03*
X-205212Y-536184D02*
D03*
X205212Y-1663816D02*
D03*
X-563816Y-1305213D02*
D03*
Y-894788D02*
D03*
X-205212Y-1663816D02*
D03*
X205212Y-536184D02*
D03*
X563816Y-1305212D02*
D03*
X0Y-1700000D02*
D03*
X600000Y-1100000D02*
D03*
X-600000Y-1100000D02*
D03*
X0Y-500000D02*
D03*
X600000Y410001D02*
D03*
X-302500Y450000D02*
D03*
X-317500Y1010000D02*
D03*
X-1325000Y1450000D02*
D03*
X-782500Y1010000D02*
D03*
X-447500Y1350000D02*
D03*
X-47500Y1200000D02*
D03*
X875000Y1450000D02*
D03*
Y950000D02*
D03*
X760000Y-50000D02*
D03*
X-1325000Y950000D02*
D03*
X-1600000Y750000D02*
D03*
X-925000Y485000D02*
D03*
X-850000Y-50000D02*
D03*
X-1150000D02*
D03*
X350000Y1100000D02*
D03*
X250000D02*
D03*
X400000Y131800D02*
D03*
X-375000Y0D02*
D03*
Y100000D02*
D03*
X-742305Y300742D02*
D03*
X-658894Y272045D02*
D03*
X350000Y-50000D02*
D03*
X-550000Y450000D02*
D03*
Y545000D02*
D03*
X700000Y1900000D02*
D03*
X152260Y201221D02*
D03*
X52260D02*
D03*
%TF.MD5,979b09a5850fcc7dd797d1c3e1bb7468*%
M02*
