%TF.GenerationSoftware,Altium Limited,Altium Designer,21.6.4 (81)*%
G04 Layer_Color=8388736*
%FSLAX45Y45*%
%MOMM*%
%TF.SameCoordinates,1F3DC5CE-A10F-41C4-B24A-259E2D936CC1*%
%TF.FilePolarity,Negative*%
%TF.FileFunction,Soldermask,Top*%
%TF.Part,Single*%
G01*
G75*
%TA.AperFunction,ComponentPad*%
%ADD40O,2.30000X1.60000*%
%ADD41R,2.30000X1.60000*%
G04:AMPARAMS|DCode=42|XSize=1.1032mm|YSize=1.8032mm|CornerRadius=0.5516mm|HoleSize=0mm|Usage=FLASHONLY|Rotation=180.000|XOffset=0mm|YOffset=0mm|HoleType=Round|Shape=RoundedRectangle|*
%AMROUNDEDRECTD42*
21,1,1.10320,0.70000,0,0,180.0*
21,1,0.00000,1.80320,0,0,180.0*
1,1,1.10320,0.00000,0.35000*
1,1,1.10320,0.00000,0.35000*
1,1,1.10320,0.00000,-0.35000*
1,1,1.10320,0.00000,-0.35000*
%
%ADD42ROUNDEDRECTD42*%
%TA.AperFunction,WasherPad*%
%ADD43C,0.10000*%
%TA.AperFunction,SMDPad,CuDef*%
%ADD49R,0.80320X1.25320*%
%TA.AperFunction,ConnectorPad*%
%ADD50R,0.60320X1.55320*%
%ADD51R,2.10320X1.85420*%
%TA.AperFunction,SMDPad,CuDef*%
%ADD52C,10.10000*%
%ADD53R,1.37000X5.18000*%
%ADD54R,0.90320X1.20320*%
%ADD55R,1.20000X0.70000*%
%ADD56R,1.20320X0.80320*%
%ADD57R,0.85000X0.40000*%
%ADD58R,1.85000X1.55000*%
%ADD59R,1.55000X0.70000*%
%ADD60R,1.20320X0.90320*%
%ADD61R,1.35320X1.65320*%
%ADD62R,1.65320X1.35320*%
%ADD63R,1.10320X1.30320*%
%ADD64R,0.60320X0.70320*%
%ADD65R,1.40000X1.65000*%
%TA.AperFunction,ConnectorPad*%
%ADD66R,4.60000X1.40000*%
%TA.AperFunction,SMDPad,CuDef*%
%ADD67R,0.80320X0.80320*%
%ADD68R,0.70320X0.60320*%
%ADD69R,1.40320X1.60320*%
%ADD70R,0.80320X0.80320*%
D40*
X1500000Y-450000D02*
D03*
Y-704000D02*
D03*
Y-196000D02*
D03*
D41*
Y-958000D02*
D03*
D42*
X-330000Y2050000D02*
D03*
X330000D02*
D03*
D43*
X0Y700000D02*
D03*
D49*
X895000Y410000D02*
D03*
X704999Y410001D02*
D03*
X800000Y190000D02*
D03*
X-750000Y2010000D02*
D03*
X-655000Y1790000D02*
D03*
X-845001Y1789999D02*
D03*
X750000Y2010000D02*
D03*
X845000Y1790000D02*
D03*
X654999Y1789999D02*
D03*
D50*
X-130000Y1782500D02*
D03*
X-65000D02*
D03*
X0D02*
D03*
X65000D02*
D03*
X130000D02*
D03*
D51*
X-130000Y2050000D02*
D03*
X127000D02*
D03*
D52*
X0Y-1100000D02*
D03*
D53*
X1091500Y-1100000D02*
D03*
X-1091500Y-1100000D02*
D03*
D54*
X600000Y50000D02*
D03*
X760000D02*
D03*
X1080001Y49999D02*
D03*
X919999Y50000D02*
D03*
X480000D02*
D03*
X320000D02*
D03*
X1180000Y1750000D02*
D03*
X1020000D02*
D03*
X-730000Y1600000D02*
D03*
X-570000D02*
D03*
D55*
X-420000Y545000D02*
D03*
X-420000Y450000D02*
D03*
Y355001D02*
D03*
X-680001D02*
D03*
X-680000Y450000D02*
D03*
Y545000D02*
D03*
X-1430000Y355000D02*
D03*
X-1430000Y450000D02*
D03*
X-1430000Y545000D02*
D03*
X-1169999Y544999D02*
D03*
X-1170000Y450000D02*
D03*
X-1170000Y355001D02*
D03*
D56*
X-130000Y1545000D02*
D03*
Y1450000D02*
D03*
Y1355000D02*
D03*
X130000D02*
D03*
Y1545000D02*
D03*
D57*
X545000Y175000D02*
D03*
Y225000D02*
D03*
X545000Y275000D02*
D03*
X545000Y325000D02*
D03*
X255000D02*
D03*
Y275000D02*
D03*
X255000Y225000D02*
D03*
Y175000D02*
D03*
D58*
X400000Y250000D02*
D03*
D59*
X100000Y280000D02*
D03*
X99999Y120000D02*
D03*
X300000Y1370000D02*
D03*
Y1530000D02*
D03*
D60*
X650001Y919999D02*
D03*
Y1080001D02*
D03*
D61*
X-250000Y250000D02*
D03*
Y50000D02*
D03*
X-100000Y250000D02*
D03*
Y50000D02*
D03*
X-300000Y1350000D02*
D03*
X-300000Y1550000D02*
D03*
D62*
X100000Y1200000D02*
D03*
X300000D02*
D03*
D63*
X-850001Y315001D02*
D03*
X-850000Y485000D02*
D03*
X-1000001Y315001D02*
D03*
X-1000000Y485000D02*
D03*
X-1600001Y450000D02*
D03*
X-1599999Y619999D02*
D03*
D64*
X-510000Y250000D02*
D03*
X-590000Y250000D02*
D03*
X-1040000Y150000D02*
D03*
X-960000Y150000D02*
D03*
D65*
X-1325000Y802500D02*
D03*
X-875000D02*
D03*
Y1597500D02*
D03*
X-1325000D02*
D03*
X875000Y802500D02*
D03*
X1325000D02*
D03*
Y1597500D02*
D03*
X875000D02*
D03*
D66*
X-1500001Y-315000D02*
D03*
X-1500000Y-1485000D02*
D03*
D67*
X-599993Y150000D02*
D03*
X-700000D02*
D03*
X-599993Y50000D02*
D03*
X-700000D02*
D03*
D68*
X-500000Y60000D02*
D03*
X-500000Y140000D02*
D03*
D69*
X-635000Y790000D02*
D03*
Y1010000D02*
D03*
X-465000Y1010000D02*
D03*
Y790000D02*
D03*
D70*
X-1150000Y150000D02*
D03*
Y49993D02*
D03*
X-849991Y149997D02*
D03*
Y49991D02*
D03*
%TF.MD5,ba2f0a145edf3a3855a17bb2aa12fb6e*%
M02*
