%TF.GenerationSoftware,Altium Limited,Altium Designer,21.6.4 (81)*%
G04 Layer_Color=65535*
%FSLAX45Y45*%
%MOMM*%
%TF.SameCoordinates,213DF370-AA75-4346-93E6-04E6A5F56B15*%
%TF.FilePolarity,Positive*%
%TF.FileFunction,Legend,Top*%
%TF.Part,Single*%
G01*
G75*
%TA.AperFunction,NonConductor*%
%ADD67C,0.15000*%
%ADD68C,0.20000*%
%ADD69C,0.25000*%
G36*
X-1076684Y-983429D02*
Y-983800D01*
X-1077054Y-986392D01*
Y-988984D01*
X-1077425Y-991947D01*
X-1078536Y-1013056D01*
Y-1013426D01*
Y-1013797D01*
Y-1014908D01*
Y-1016389D01*
Y-1019722D01*
Y-1024166D01*
X-1145566D01*
Y-1023796D01*
Y-1023425D01*
Y-1022314D01*
Y-1020833D01*
X-1145196Y-1017130D01*
Y-1012686D01*
Y-1007501D01*
X-1144825Y-1002316D01*
Y-997132D01*
Y-992317D01*
Y-991577D01*
Y-989725D01*
Y-987133D01*
Y-983059D01*
X-1132975D01*
X-1127420Y-983429D01*
X-1088164D01*
X-1082239Y-983059D01*
X-1076684D01*
Y-983429D01*
D02*
G37*
G36*
X-1493308Y-983430D02*
Y-983800D01*
X-1493678Y-986392D01*
Y-988985D01*
X-1494048Y-991947D01*
X-1495159Y-1013056D01*
Y-1013426D01*
Y-1013797D01*
Y-1014908D01*
Y-1016389D01*
Y-1019722D01*
Y-1024166D01*
X-1562189D01*
Y-1023796D01*
Y-1023425D01*
Y-1022314D01*
Y-1020833D01*
X-1561819Y-1017130D01*
Y-1012686D01*
Y-1007501D01*
X-1561449Y-1002317D01*
Y-997132D01*
Y-992318D01*
Y-991577D01*
Y-989725D01*
Y-987133D01*
Y-983059D01*
X-1549598D01*
X-1544043Y-983430D01*
X-1504788D01*
X-1498863Y-983059D01*
X-1493308D01*
Y-983430D01*
D02*
G37*
G36*
X-1175192Y-987503D02*
Y-988984D01*
X-1175563Y-990836D01*
Y-993428D01*
X-1175933Y-996391D01*
Y-1000094D01*
X-1176674Y-1008242D01*
X-1177044Y-1016759D01*
X-1177785Y-1024907D01*
Y-1028980D01*
X-1178155Y-1032683D01*
Y-1035646D01*
Y-1038238D01*
X-1192968Y-1037498D01*
X-1284070Y-1037498D01*
X-1285551Y-1077864D01*
X-1260739Y-1078235D01*
X-1212966Y-1078234D01*
X-1205189Y-1077864D01*
X-1196672D01*
Y-1078234D01*
Y-1079345D01*
X-1197042Y-1080827D01*
Y-1083049D01*
Y-1086011D01*
X-1197412Y-1088974D01*
X-1197783Y-1096381D01*
X-1198153Y-1104528D01*
X-1198523Y-1112675D01*
X-1198894Y-1121193D01*
Y-1128599D01*
X-1201486D01*
X-1203338Y-1128229D01*
X-1208152D01*
X-1214077Y-1127859D01*
X-1220743D01*
X-1227409Y-1127489D01*
X-1253703D01*
X-1261109Y-1127859D01*
X-1269627D01*
X-1278885Y-1128229D01*
X-1288514Y-1128600D01*
X-1290366Y-1190075D01*
Y-1212665D01*
Y-1220072D01*
X-1367024D01*
Y-1219701D01*
Y-1218590D01*
X-1366654Y-1216739D01*
X-1366284Y-1214517D01*
Y-1211554D01*
X-1365913Y-1208221D01*
X-1365543Y-1204147D01*
X-1365173Y-1200074D01*
X-1364432Y-1191186D01*
X-1363691Y-1181928D01*
X-1362951Y-1173040D01*
X-1362210Y-1164522D01*
Y-1164152D01*
Y-1163041D01*
X-1361840Y-1161189D01*
Y-1158967D01*
X-1361469Y-1155634D01*
Y-1151931D01*
X-1361099Y-1147487D01*
X-1360729Y-1142302D01*
Y-1136377D01*
X-1360358Y-1130081D01*
X-1359988Y-1123045D01*
X-1359618Y-1115268D01*
X-1359247Y-1107120D01*
X-1358877Y-1098603D01*
X-1358507Y-1089345D01*
X-1358136Y-1079346D01*
Y-1078605D01*
Y-1077124D01*
Y-1074161D01*
X-1357766Y-1070458D01*
Y-1066014D01*
X-1357396Y-1061199D01*
Y-1055644D01*
X-1357025Y-1049719D01*
Y-1037498D01*
X-1356655Y-1025277D01*
X-1356285Y-1019722D01*
Y-1014537D01*
Y-1010093D01*
Y-1006020D01*
Y-987133D01*
X-1325177D01*
X-1318141Y-987503D01*
X-1205930Y-987503D01*
X-1190746Y-987133D01*
X-1175192D01*
Y-987503D01*
D02*
G37*
G36*
X-1656254Y-1185631D02*
X-1666993Y-1220072D01*
X-1755873D01*
X-1759947Y-1196741D01*
X-1775130Y-1115638D01*
Y-1115268D01*
Y-1114527D01*
X-1775501Y-1113046D01*
X-1775871Y-1110824D01*
X-1776612Y-1106009D01*
X-1777352Y-1100454D01*
Y-1100084D01*
Y-1098973D01*
X-1777723Y-1097122D01*
X-1778093Y-1094529D01*
X-1778463Y-1091196D01*
X-1778834Y-1087123D01*
X-1779204Y-1081938D01*
X-1779945Y-1076383D01*
X-1785870Y-1102676D01*
Y-1103047D01*
X-1786240Y-1104158D01*
X-1786611Y-1106009D01*
X-1787351Y-1108231D01*
X-1788092Y-1110824D01*
X-1788833Y-1113786D01*
X-1790314Y-1120452D01*
X-1817718Y-1220072D01*
X-1903265D01*
X-1909190Y-1188964D01*
Y-1188594D01*
X-1909561Y-1186742D01*
X-1909931Y-1184520D01*
X-1910672Y-1180817D01*
X-1911783Y-1176373D01*
X-1912894Y-1171188D01*
X-1914005Y-1164892D01*
X-1915486Y-1157856D01*
X-1943261Y-1030462D01*
X-1953260Y-987133D01*
X-1940669D01*
X-1935484Y-987503D01*
X-1897340D01*
X-1891044Y-987133D01*
X-1883638D01*
Y-987503D01*
X-1883267Y-988244D01*
Y-989725D01*
X-1882897Y-991577D01*
X-1882527Y-994169D01*
X-1882156Y-996762D01*
X-1881045Y-1002687D01*
X-1879934Y-1009353D01*
X-1878453Y-1016389D01*
X-1877342Y-1022685D01*
X-1876231Y-1028240D01*
X-1862158Y-1096751D01*
Y-1097122D01*
X-1861788Y-1097862D01*
Y-1098973D01*
X-1861418Y-1100825D01*
X-1861047Y-1103047D01*
X-1860307Y-1105269D01*
X-1859936Y-1108602D01*
X-1859196Y-1111935D01*
X-1858455Y-1115638D01*
X-1857714Y-1119712D01*
X-1856233Y-1128970D01*
X-1854011Y-1139339D01*
X-1852159Y-1150820D01*
X-1846604Y-1127118D01*
X-1826236Y-1048238D01*
X-1812164Y-987133D01*
X-1798461D01*
X-1792166Y-987503D01*
X-1748837D01*
X-1741430Y-987133D01*
X-1733283D01*
X-1722543Y-1058977D01*
X-1707730Y-1150449D01*
X-1701064Y-1125637D01*
Y-1125267D01*
X-1700694Y-1124526D01*
X-1700323Y-1123045D01*
X-1699953Y-1121563D01*
X-1698842Y-1117119D01*
X-1697361Y-1112305D01*
Y-1111935D01*
X-1696990Y-1110824D01*
X-1696250Y-1108972D01*
X-1695509Y-1106380D01*
X-1694028Y-1103047D01*
X-1692546Y-1098232D01*
X-1690695Y-1092678D01*
X-1688473Y-1086012D01*
X-1667734Y-1020463D01*
X-1658105Y-987133D01*
X-1645884D01*
X-1640700Y-987503D01*
X-1603296D01*
X-1597001Y-987133D01*
X-1589964D01*
X-1656254Y-1185631D01*
D02*
G37*
G36*
X-1077054Y-1046386D02*
Y-1047497D01*
X-1077425Y-1048978D01*
Y-1051570D01*
X-1077795Y-1054163D01*
X-1078165Y-1057496D01*
X-1078536Y-1061199D01*
Y-1065273D01*
X-1079276Y-1074161D01*
X-1080017Y-1083419D01*
X-1080758Y-1093048D01*
X-1081498Y-1102676D01*
Y-1103047D01*
Y-1103787D01*
Y-1105269D01*
Y-1106750D01*
X-1081869Y-1109342D01*
Y-1111935D01*
Y-1114897D01*
Y-1118230D01*
X-1082239Y-1126007D01*
Y-1134895D01*
X-1082609Y-1144524D01*
Y-1154523D01*
Y-1154893D01*
Y-1156745D01*
Y-1158967D01*
Y-1162300D01*
Y-1166373D01*
X-1082980Y-1170817D01*
Y-1175632D01*
Y-1180816D01*
Y-1191926D01*
X-1083350Y-1202666D01*
Y-1207851D01*
Y-1212295D01*
Y-1216368D01*
Y-1220071D01*
X-1156306D01*
Y-1219701D01*
Y-1218960D01*
X-1155935Y-1218220D01*
Y-1216738D01*
X-1155565Y-1212665D01*
X-1155195Y-1207851D01*
X-1154454Y-1202666D01*
X-1154084Y-1197111D01*
X-1153343Y-1191186D01*
X-1152973Y-1186001D01*
Y-1185260D01*
X-1152602Y-1183409D01*
Y-1180816D01*
X-1152232Y-1176743D01*
X-1151862Y-1171558D01*
X-1151491Y-1166003D01*
X-1151121Y-1158967D01*
X-1150751Y-1151560D01*
Y-1151190D01*
Y-1150449D01*
Y-1149338D01*
X-1150380Y-1147857D01*
Y-1146005D01*
Y-1143413D01*
X-1150010Y-1137858D01*
X-1149640Y-1130821D01*
Y-1123044D01*
X-1149269Y-1114527D01*
X-1148899Y-1105269D01*
Y-1104898D01*
Y-1104158D01*
Y-1102676D01*
Y-1100825D01*
X-1148529Y-1098232D01*
Y-1095270D01*
Y-1091937D01*
Y-1088233D01*
Y-1084160D01*
X-1148158Y-1079716D01*
Y-1069346D01*
X-1147788Y-1058236D01*
Y-1046015D01*
X-1134826D01*
X-1129271Y-1046386D01*
X-1092238D01*
X-1085202Y-1046015D01*
X-1077054D01*
Y-1046386D01*
D02*
G37*
G36*
X-1493678Y-1046386D02*
Y-1047497D01*
X-1494048Y-1048978D01*
Y-1051571D01*
X-1494419Y-1054163D01*
X-1494789Y-1057496D01*
X-1495159Y-1061199D01*
Y-1065273D01*
X-1495900Y-1074161D01*
X-1496641Y-1083419D01*
X-1497381Y-1093048D01*
X-1498122Y-1102676D01*
Y-1103047D01*
Y-1103787D01*
Y-1105269D01*
Y-1106750D01*
X-1498492Y-1109342D01*
Y-1111935D01*
Y-1114897D01*
Y-1118230D01*
X-1498863Y-1126007D01*
Y-1134895D01*
X-1499233Y-1144524D01*
Y-1154523D01*
Y-1154893D01*
Y-1156745D01*
Y-1158967D01*
Y-1162300D01*
Y-1166374D01*
X-1499603Y-1170818D01*
Y-1175632D01*
Y-1180817D01*
Y-1191926D01*
X-1499974Y-1202666D01*
Y-1207851D01*
Y-1212295D01*
Y-1216368D01*
Y-1220072D01*
X-1572929D01*
Y-1219701D01*
Y-1218961D01*
X-1572559Y-1218220D01*
Y-1216739D01*
X-1572188Y-1212665D01*
X-1571818Y-1207851D01*
X-1571077Y-1202666D01*
X-1570707Y-1197111D01*
X-1569966Y-1191186D01*
X-1569596Y-1186001D01*
Y-1185261D01*
X-1569226Y-1183409D01*
Y-1180817D01*
X-1568855Y-1176743D01*
X-1568485Y-1171558D01*
X-1568115Y-1166003D01*
X-1567744Y-1158967D01*
X-1567374Y-1151560D01*
Y-1151190D01*
Y-1150449D01*
Y-1149338D01*
X-1567004Y-1147857D01*
Y-1146005D01*
Y-1143413D01*
X-1566633Y-1137858D01*
X-1566263Y-1130822D01*
Y-1123045D01*
X-1565893Y-1114527D01*
X-1565522Y-1105269D01*
Y-1104898D01*
Y-1104158D01*
Y-1102676D01*
Y-1100825D01*
X-1565152Y-1098232D01*
Y-1095270D01*
Y-1091937D01*
Y-1088234D01*
Y-1084160D01*
X-1564782Y-1079716D01*
Y-1069347D01*
X-1564411Y-1058237D01*
Y-1046016D01*
X-1551450D01*
X-1545895Y-1046386D01*
X-1508862D01*
X-1501825Y-1046016D01*
X-1493678D01*
Y-1046386D01*
D02*
G37*
G36*
X-1384430Y-1106009D02*
Y-1106750D01*
X-1384800Y-1107861D01*
Y-1109342D01*
Y-1111564D01*
X-1385171Y-1114157D01*
X-1385541Y-1119712D01*
X-1385911Y-1127118D01*
X-1386282Y-1134895D01*
X-1386652Y-1143783D01*
X-1387022Y-1153042D01*
X-1395910D01*
X-1401836Y-1152671D01*
X-1461459D01*
X-1469606Y-1153042D01*
X-1478494D01*
Y-1152671D01*
Y-1151931D01*
Y-1150449D01*
X-1478124Y-1148968D01*
Y-1146746D01*
X-1477754Y-1144154D01*
X-1477383Y-1137858D01*
X-1477013Y-1130451D01*
X-1476643Y-1122674D01*
Y-1114157D01*
X-1476272Y-1105639D01*
X-1469977D01*
X-1467384Y-1106009D01*
X-1454423D01*
X-1446646Y-1106380D01*
X-1416279D01*
X-1409613Y-1106009D01*
X-1393318D01*
X-1384430Y-1105639D01*
Y-1106009D01*
D02*
G37*
G36*
X-1590335Y-1267030D02*
Y-1267400D01*
X-1590705Y-1269992D01*
Y-1272585D01*
X-1591075Y-1275547D01*
X-1592186Y-1296656D01*
Y-1297027D01*
Y-1297397D01*
Y-1298508D01*
Y-1299989D01*
Y-1303322D01*
Y-1307766D01*
X-1659216D01*
Y-1307396D01*
Y-1307026D01*
Y-1305915D01*
Y-1304433D01*
X-1658846Y-1300730D01*
Y-1296286D01*
Y-1291101D01*
X-1658476Y-1285917D01*
Y-1280732D01*
Y-1275918D01*
Y-1275177D01*
Y-1273325D01*
Y-1270733D01*
Y-1266659D01*
X-1646625D01*
X-1641070Y-1267030D01*
X-1601815D01*
X-1595890Y-1266659D01*
X-1590335D01*
Y-1267030D01*
D02*
G37*
G36*
X-1252592Y-1312210D02*
Y-1312581D01*
X-1252962Y-1314432D01*
Y-1317025D01*
X-1253333Y-1321469D01*
X-1253703Y-1324061D01*
Y-1327024D01*
X-1254073Y-1330356D01*
X-1254444Y-1334060D01*
Y-1338504D01*
X-1254814Y-1343318D01*
X-1255184Y-1348503D01*
X-1255555Y-1354058D01*
X-1255184Y-1353687D01*
X-1254444Y-1352947D01*
X-1253333Y-1351465D01*
X-1252222Y-1349984D01*
X-1249259Y-1346281D01*
X-1247778Y-1344799D01*
X-1246296Y-1343318D01*
X-1245556Y-1342577D01*
X-1243704Y-1341096D01*
X-1241112Y-1339244D01*
X-1238149Y-1337022D01*
X-1237779D01*
X-1237408Y-1336282D01*
X-1235186Y-1335171D01*
X-1232594Y-1333319D01*
X-1229261Y-1331838D01*
X-1228891D01*
X-1228520Y-1331467D01*
X-1226298Y-1330356D01*
X-1222965Y-1329245D01*
X-1218892Y-1328134D01*
X-1218521D01*
X-1217781Y-1327764D01*
X-1216670D01*
X-1215188Y-1327394D01*
X-1210744Y-1326653D01*
X-1205930Y-1325912D01*
X-1205560D01*
X-1204819Y-1325542D01*
X-1203338D01*
X-1201486Y-1325172D01*
X-1196672Y-1324801D01*
X-1185932D01*
X-1182229Y-1325172D01*
X-1178155Y-1325542D01*
X-1173341Y-1326283D01*
X-1163342Y-1328134D01*
X-1162601D01*
X-1161120Y-1328875D01*
X-1158528Y-1329616D01*
X-1155195Y-1330727D01*
X-1151491Y-1332208D01*
X-1147788Y-1334430D01*
X-1143714Y-1336652D01*
X-1140011Y-1339615D01*
X-1139641Y-1339985D01*
X-1138530Y-1341096D01*
X-1136678Y-1342577D01*
X-1134826Y-1344799D01*
X-1132604Y-1347762D01*
X-1130382Y-1350725D01*
X-1128531Y-1354057D01*
X-1127049Y-1357761D01*
Y-1358131D01*
X-1126309Y-1359612D01*
X-1125938Y-1361464D01*
X-1125198Y-1364056D01*
X-1124457Y-1367389D01*
X-1124087Y-1371093D01*
X-1123346Y-1375166D01*
Y-1379610D01*
Y-1379981D01*
Y-1380351D01*
Y-1381462D01*
Y-1382943D01*
Y-1386647D01*
X-1123716Y-1391831D01*
Y-1392202D01*
Y-1393313D01*
Y-1394794D01*
X-1124087Y-1397016D01*
Y-1399608D01*
X-1124457Y-1402941D01*
Y-1406645D01*
X-1124827Y-1410718D01*
X-1128901Y-1468120D01*
Y-1468490D01*
Y-1469971D01*
Y-1471823D01*
X-1129271Y-1474415D01*
Y-1480341D01*
X-1129642Y-1486266D01*
Y-1486636D01*
Y-1487377D01*
Y-1488858D01*
Y-1491080D01*
Y-1493673D01*
Y-1496635D01*
Y-1499968D01*
Y-1503672D01*
X-1200375D01*
Y-1503301D01*
Y-1502561D01*
X-1200005Y-1501450D01*
Y-1499598D01*
X-1199634Y-1497376D01*
X-1199264Y-1495154D01*
Y-1492191D01*
X-1198894Y-1488858D01*
X-1198153Y-1481081D01*
X-1197412Y-1472193D01*
X-1196301Y-1462565D01*
X-1195561Y-1451825D01*
Y-1451455D01*
Y-1450344D01*
X-1195190Y-1448862D01*
Y-1447011D01*
X-1194820Y-1444418D01*
Y-1441826D01*
X-1194079Y-1435160D01*
X-1193709Y-1428124D01*
X-1193339Y-1420717D01*
X-1192968Y-1413681D01*
Y-1407756D01*
Y-1407385D01*
Y-1407015D01*
Y-1405163D01*
X-1193339Y-1402201D01*
X-1193709Y-1398868D01*
X-1194820Y-1395164D01*
X-1195931Y-1391461D01*
X-1197783Y-1387758D01*
X-1200005Y-1385165D01*
X-1200375Y-1384795D01*
X-1201116Y-1384054D01*
X-1202597Y-1382943D01*
X-1204819Y-1381832D01*
X-1207411Y-1380721D01*
X-1210374Y-1379610D01*
X-1213707Y-1378870D01*
X-1217781Y-1378499D01*
X-1219262D01*
X-1221114Y-1378870D01*
X-1223706D01*
X-1229261Y-1380351D01*
X-1232224Y-1381462D01*
X-1235186Y-1382944D01*
X-1235557D01*
X-1236297Y-1383684D01*
X-1237779Y-1384425D01*
X-1239260Y-1385536D01*
X-1242963Y-1388869D01*
X-1245185Y-1391091D01*
X-1247037Y-1393683D01*
Y-1394054D01*
X-1247778Y-1394794D01*
X-1248518Y-1396276D01*
X-1249629Y-1398498D01*
X-1250740Y-1401090D01*
X-1251851Y-1404053D01*
X-1253333Y-1407756D01*
X-1254444Y-1412200D01*
Y-1412941D01*
X-1254814Y-1414792D01*
X-1255555Y-1418125D01*
X-1256295Y-1422939D01*
X-1257036Y-1428865D01*
X-1258147Y-1436271D01*
X-1258887Y-1444789D01*
X-1259628Y-1454788D01*
Y-1455529D01*
Y-1456269D01*
Y-1457751D01*
X-1259998Y-1459232D01*
Y-1461454D01*
Y-1464046D01*
X-1260369Y-1466639D01*
Y-1469972D01*
X-1260739Y-1473675D01*
Y-1477378D01*
X-1261109Y-1481822D01*
Y-1486637D01*
X-1261480Y-1491821D01*
Y-1497747D01*
X-1261850Y-1503672D01*
X-1330732D01*
Y-1503302D01*
Y-1502561D01*
X-1330362Y-1501080D01*
Y-1499598D01*
X-1329991Y-1497376D01*
Y-1494784D01*
X-1329251Y-1488859D01*
X-1328510Y-1482563D01*
X-1328140Y-1475527D01*
X-1327399Y-1468490D01*
X-1327029Y-1462195D01*
Y-1461824D01*
Y-1460713D01*
X-1326658Y-1458862D01*
Y-1456269D01*
X-1326288Y-1452936D01*
Y-1448863D01*
X-1325918Y-1444419D01*
X-1325547Y-1439234D01*
X-1325177Y-1433679D01*
X-1324807Y-1427383D01*
X-1324436Y-1421088D01*
X-1324066Y-1414052D01*
X-1323696Y-1406645D01*
X-1323325Y-1398868D01*
X-1322214Y-1382203D01*
Y-1381833D01*
Y-1380722D01*
Y-1379240D01*
X-1321844Y-1377018D01*
Y-1374426D01*
Y-1371093D01*
X-1321474Y-1367760D01*
Y-1363686D01*
X-1321103Y-1355169D01*
X-1320733Y-1345170D01*
X-1320363Y-1335171D01*
X-1319992Y-1324802D01*
Y-1324431D01*
Y-1323691D01*
Y-1322209D01*
Y-1319987D01*
Y-1317395D01*
X-1319622Y-1314432D01*
Y-1311470D01*
Y-1307766D01*
Y-1299249D01*
X-1319252Y-1290361D01*
Y-1280732D01*
Y-1270733D01*
X-1306660D01*
X-1301105Y-1271103D01*
X-1261480D01*
X-1248889Y-1270733D01*
X-1252592Y-1312210D01*
D02*
G37*
G36*
X-1702545Y-1321839D02*
X-1710322Y-1462935D01*
X-1711063Y-1503672D01*
X-1797721D01*
Y-1503302D01*
X-1798091Y-1502931D01*
X-1799202Y-1501080D01*
X-1800683Y-1498117D01*
X-1802535Y-1494414D01*
X-1806609Y-1486637D01*
X-1808831Y-1482933D01*
X-1810682Y-1479600D01*
X-1839198Y-1431087D01*
Y-1430716D01*
X-1839938Y-1429976D01*
X-1840679Y-1428865D01*
X-1841420Y-1427013D01*
X-1842901Y-1424791D01*
X-1844012Y-1422199D01*
X-1847345Y-1416274D01*
X-1851419Y-1409237D01*
X-1855863Y-1401460D01*
X-1860307Y-1393313D01*
X-1864751Y-1385166D01*
X-1865121Y-1384425D01*
X-1866232Y-1382573D01*
X-1867713Y-1379981D01*
X-1869565Y-1376278D01*
X-1872157Y-1371834D01*
X-1874750Y-1366649D01*
X-1877712Y-1360724D01*
X-1881045Y-1354798D01*
X-1884378Y-1435531D01*
X-1885860Y-1503672D01*
X-1953260D01*
X-1949927Y-1468120D01*
X-1943631Y-1346651D01*
X-1941409Y-1297397D01*
Y-1270733D01*
X-1925855D01*
X-1918449Y-1271103D01*
X-1871787D01*
X-1863640Y-1270733D01*
X-1854381D01*
X-1781426Y-1403312D01*
X-1771427Y-1422939D01*
Y-1422569D01*
Y-1421458D01*
X-1771057Y-1419977D01*
Y-1417755D01*
Y-1414792D01*
X-1770686Y-1411089D01*
Y-1407015D01*
X-1770316Y-1402201D01*
X-1769946Y-1396646D01*
X-1769575Y-1390721D01*
Y-1384055D01*
X-1769205Y-1377018D01*
X-1768835Y-1369241D01*
X-1768464Y-1360724D01*
X-1768094Y-1351836D01*
X-1767724Y-1342577D01*
Y-1341837D01*
Y-1340355D01*
Y-1337763D01*
X-1767353Y-1334060D01*
Y-1329986D01*
X-1766983Y-1325172D01*
Y-1319987D01*
X-1766613Y-1314062D01*
Y-1302211D01*
X-1766242Y-1290361D01*
X-1765872Y-1284806D01*
Y-1279621D01*
Y-1274807D01*
Y-1270733D01*
X-1753651D01*
X-1748466Y-1271103D01*
X-1715507D01*
X-1711804Y-1270733D01*
X-1698472D01*
X-1702545Y-1321839D01*
D02*
G37*
G36*
X-1590705Y-1329986D02*
Y-1331097D01*
X-1591075Y-1332578D01*
Y-1335171D01*
X-1591446Y-1337763D01*
X-1591816Y-1341096D01*
X-1592186Y-1344799D01*
Y-1348873D01*
X-1592927Y-1357761D01*
X-1593668Y-1367019D01*
X-1594408Y-1376648D01*
X-1595149Y-1386277D01*
Y-1386647D01*
Y-1387388D01*
Y-1388869D01*
Y-1390350D01*
X-1595519Y-1392943D01*
Y-1395535D01*
Y-1398498D01*
Y-1401831D01*
X-1595890Y-1409608D01*
Y-1418496D01*
X-1596260Y-1428124D01*
Y-1438123D01*
Y-1438493D01*
Y-1440345D01*
Y-1442567D01*
Y-1445900D01*
Y-1449974D01*
X-1596630Y-1454418D01*
Y-1459232D01*
Y-1464417D01*
Y-1475527D01*
X-1597001Y-1486266D01*
Y-1491451D01*
Y-1495895D01*
Y-1499969D01*
Y-1503672D01*
X-1669956D01*
Y-1503302D01*
Y-1502561D01*
X-1669586Y-1501820D01*
Y-1500339D01*
X-1669215Y-1496265D01*
X-1668845Y-1491451D01*
X-1668104Y-1486266D01*
X-1667734Y-1480711D01*
X-1666993Y-1474786D01*
X-1666623Y-1469601D01*
Y-1468861D01*
X-1666253Y-1467009D01*
Y-1464417D01*
X-1665882Y-1460343D01*
X-1665512Y-1455158D01*
X-1665142Y-1449603D01*
X-1664771Y-1442567D01*
X-1664401Y-1435160D01*
Y-1434790D01*
Y-1434049D01*
Y-1432938D01*
X-1664031Y-1431457D01*
Y-1429605D01*
Y-1427013D01*
X-1663660Y-1421458D01*
X-1663290Y-1414422D01*
Y-1406645D01*
X-1662920Y-1398127D01*
X-1662549Y-1388869D01*
Y-1388499D01*
Y-1387758D01*
Y-1386277D01*
Y-1384425D01*
X-1662179Y-1381833D01*
Y-1378870D01*
Y-1375537D01*
Y-1371834D01*
Y-1367760D01*
X-1661809Y-1363316D01*
Y-1352947D01*
X-1661438Y-1341837D01*
Y-1329616D01*
X-1648477D01*
X-1642922Y-1329986D01*
X-1605889D01*
X-1598852Y-1329616D01*
X-1590705D01*
Y-1329986D01*
D02*
G37*
G36*
X-1001507Y-1284435D02*
Y-1285176D01*
Y-1286287D01*
X-1001877Y-1288138D01*
Y-1289990D01*
Y-1292582D01*
X-1002247Y-1298508D01*
X-1002618Y-1305914D01*
X-1002988Y-1314062D01*
Y-1322950D01*
X-1003358Y-1332208D01*
X-964474D01*
Y-1332578D01*
Y-1333689D01*
Y-1335541D01*
X-964844Y-1338133D01*
Y-1340726D01*
Y-1344059D01*
X-965214Y-1351465D01*
X-965585Y-1359612D01*
Y-1367019D01*
X-965955Y-1370722D01*
Y-1374055D01*
Y-1377018D01*
Y-1379240D01*
X-1005210D01*
X-1007432Y-1421828D01*
Y-1422199D01*
Y-1423310D01*
Y-1425161D01*
Y-1427013D01*
X-1007802Y-1431087D01*
Y-1432938D01*
Y-1434049D01*
Y-1434420D01*
Y-1435531D01*
Y-1437012D01*
X-1007432Y-1438864D01*
X-1007062Y-1443308D01*
X-1005951Y-1447751D01*
Y-1448122D01*
X-1005580Y-1448492D01*
X-1004469Y-1450714D01*
X-1002618Y-1453306D01*
X-999655Y-1455528D01*
X-999285D01*
X-998914Y-1455899D01*
X-996692Y-1456639D01*
X-993359Y-1457380D01*
X-989286Y-1457750D01*
X-984101D01*
X-980768Y-1457380D01*
X-980028D01*
X-978917Y-1457010D01*
X-977065Y-1456639D01*
X-974843Y-1455899D01*
X-972251Y-1455158D01*
X-968918Y-1454417D01*
X-964844Y-1453306D01*
Y-1454047D01*
X-965214Y-1455899D01*
X-965955Y-1458861D01*
X-966696Y-1462565D01*
X-967807Y-1466638D01*
X-968547Y-1471453D01*
X-970399Y-1481822D01*
X-973732Y-1502561D01*
X-974473D01*
X-976695Y-1502931D01*
X-979657Y-1503672D01*
X-983360Y-1504412D01*
X-987804Y-1505153D01*
X-992248Y-1505894D01*
X-996322Y-1506634D01*
X-1000396Y-1507005D01*
X-1001877D01*
X-1003729Y-1507375D01*
X-1006321D01*
X-1009284Y-1507745D01*
X-1012246D01*
X-1018912Y-1508116D01*
X-1024097D01*
X-1027430Y-1507745D01*
X-1031504Y-1507375D01*
X-1035948Y-1507005D01*
X-1044836Y-1505523D01*
X-1045206D01*
X-1046687Y-1505153D01*
X-1048909Y-1504412D01*
X-1051502Y-1503672D01*
X-1057427Y-1501079D01*
X-1060760Y-1499228D01*
X-1063723Y-1497006D01*
X-1064093Y-1496635D01*
X-1064834Y-1495895D01*
X-1066315Y-1494413D01*
X-1067796Y-1492562D01*
X-1069278Y-1490340D01*
X-1071129Y-1487747D01*
X-1072611Y-1484785D01*
X-1073721Y-1481822D01*
Y-1481452D01*
X-1074092Y-1480341D01*
X-1074462Y-1478489D01*
X-1074832Y-1476267D01*
X-1075573Y-1473675D01*
X-1075943Y-1470712D01*
X-1076314Y-1463676D01*
Y-1463305D01*
Y-1462194D01*
Y-1460343D01*
Y-1457750D01*
Y-1457380D01*
Y-1456639D01*
Y-1455528D01*
Y-1453677D01*
X-1075943Y-1451084D01*
Y-1447751D01*
X-1075573Y-1443308D01*
X-1075203Y-1438123D01*
X-1071129Y-1379240D01*
X-1097793D01*
Y-1378870D01*
Y-1377018D01*
X-1097423Y-1374426D01*
Y-1371093D01*
X-1097052Y-1366649D01*
X-1096682Y-1361094D01*
Y-1355168D01*
X-1096312Y-1348132D01*
X-1095941Y-1332208D01*
X-1067426D01*
Y-1331838D01*
X-1067056Y-1330727D01*
Y-1328505D01*
X-1066685Y-1324801D01*
X-1066315Y-1320357D01*
X-1065945Y-1317395D01*
Y-1314432D01*
X-1065574Y-1310729D01*
X-1065204Y-1307025D01*
Y-1302581D01*
X-1064834Y-1297767D01*
X-1035577Y-1292212D01*
X-1035207D01*
X-1034096Y-1291842D01*
X-1031874Y-1291101D01*
X-1028541Y-1290360D01*
X-1023727Y-1289249D01*
X-1021134Y-1288879D01*
X-1017801Y-1288138D01*
X-1014468Y-1287027D01*
X-1010395Y-1286287D01*
X-1006321Y-1285176D01*
X-1001507Y-1284065D01*
Y-1284435D01*
D02*
G37*
G36*
X-1435906Y-1325542D02*
X-1430722D01*
X-1425167Y-1325913D01*
X-1418871Y-1326283D01*
X-1411835Y-1327024D01*
X-1411094D01*
X-1409983Y-1327394D01*
X-1408502D01*
X-1406280Y-1327764D01*
X-1404058D01*
X-1401465Y-1328135D01*
X-1398132Y-1328505D01*
X-1394799Y-1329245D01*
X-1390726Y-1329616D01*
X-1386652Y-1330356D01*
X-1381838Y-1331097D01*
X-1371839Y-1332578D01*
X-1359988Y-1334800D01*
X-1364062Y-1391091D01*
X-1367765Y-1452936D01*
Y-1453307D01*
Y-1454047D01*
Y-1455158D01*
Y-1456640D01*
X-1368135Y-1460343D01*
Y-1463676D01*
X-1369246Y-1518855D01*
Y-1519226D01*
Y-1520707D01*
X-1369617Y-1522559D01*
Y-1525151D01*
X-1369987Y-1528114D01*
X-1370357Y-1531817D01*
X-1371839Y-1538853D01*
Y-1539224D01*
X-1372209Y-1540335D01*
X-1372579Y-1542186D01*
X-1373320Y-1544038D01*
X-1375172Y-1549593D01*
X-1378134Y-1555148D01*
X-1378505Y-1555518D01*
X-1378875Y-1556259D01*
X-1379986Y-1557740D01*
X-1381097Y-1559592D01*
X-1384800Y-1563666D01*
X-1389244Y-1568110D01*
X-1389615Y-1568480D01*
X-1390355Y-1569221D01*
X-1391837Y-1570332D01*
X-1393688Y-1571813D01*
X-1396281Y-1573294D01*
X-1398873Y-1574776D01*
X-1405169Y-1577738D01*
X-1405539D01*
X-1406650Y-1578479D01*
X-1408502Y-1579220D01*
X-1411094Y-1579960D01*
X-1414427Y-1581071D01*
X-1418130Y-1582182D01*
X-1422204Y-1583293D01*
X-1426648Y-1584034D01*
X-1427389D01*
X-1428870Y-1584404D01*
X-1431462Y-1584775D01*
X-1435166Y-1585145D01*
X-1439239Y-1585886D01*
X-1444054Y-1586256D01*
X-1449238Y-1586626D01*
X-1459978D01*
X-1462940Y-1586256D01*
X-1466273D01*
X-1470347Y-1585886D01*
X-1474791Y-1585515D01*
X-1476643D01*
X-1479235Y-1585145D01*
X-1482198Y-1584775D01*
X-1485901D01*
X-1489975Y-1584404D01*
X-1499233Y-1583293D01*
X-1499603D01*
X-1501455Y-1582923D01*
X-1503677Y-1582553D01*
X-1506640Y-1582182D01*
X-1509973Y-1581812D01*
X-1513306Y-1581071D01*
X-1520712Y-1579960D01*
X-1521083D01*
X-1522194Y-1579590D01*
X-1524416Y-1579220D01*
X-1527008Y-1578849D01*
X-1530341Y-1578109D01*
X-1534415Y-1577368D01*
X-1538858Y-1576627D01*
X-1543673Y-1575516D01*
X-1545154Y-1552926D01*
Y-1552556D01*
Y-1551445D01*
Y-1549593D01*
Y-1547001D01*
X-1545524Y-1543297D01*
X-1545895Y-1538113D01*
X-1546265Y-1532187D01*
X-1546635Y-1524781D01*
X-1546265D01*
X-1545524Y-1525151D01*
X-1544413Y-1525521D01*
X-1542932Y-1525892D01*
X-1538858Y-1527373D01*
X-1533674Y-1528854D01*
X-1527749Y-1530706D01*
X-1521083Y-1532187D01*
X-1514417Y-1533669D01*
X-1508121Y-1535150D01*
X-1507380D01*
X-1505158Y-1535520D01*
X-1502196Y-1535891D01*
X-1498122Y-1536631D01*
X-1493678Y-1537002D01*
X-1488864Y-1537742D01*
X-1483679Y-1538113D01*
X-1475532D01*
X-1473310Y-1537742D01*
X-1468125Y-1537002D01*
X-1462570Y-1535891D01*
X-1462200D01*
X-1461459Y-1535520D01*
X-1459978Y-1535150D01*
X-1458126Y-1534409D01*
X-1454423Y-1532928D01*
X-1450719Y-1531076D01*
X-1450349D01*
X-1449979Y-1530706D01*
X-1448127Y-1528854D01*
X-1445535Y-1526632D01*
X-1443313Y-1523670D01*
Y-1523299D01*
X-1442572Y-1522929D01*
X-1441461Y-1520707D01*
X-1439980Y-1517744D01*
X-1438499Y-1513671D01*
Y-1513301D01*
X-1438128Y-1512560D01*
X-1437758Y-1511819D01*
X-1437388Y-1510338D01*
X-1436647Y-1506264D01*
X-1435906Y-1501450D01*
Y-1501080D01*
Y-1499969D01*
X-1435536Y-1498487D01*
Y-1496265D01*
X-1435166Y-1493673D01*
X-1434795Y-1490340D01*
Y-1486266D01*
X-1434425Y-1481822D01*
X-1434795Y-1482193D01*
X-1435536Y-1482933D01*
X-1436647Y-1484044D01*
X-1438499Y-1485526D01*
X-1442202Y-1488859D01*
X-1446275Y-1491821D01*
X-1446646D01*
X-1447016Y-1492562D01*
X-1448127Y-1492932D01*
X-1449608Y-1494043D01*
X-1453312Y-1495895D01*
X-1458126Y-1498487D01*
X-1458496D01*
X-1459237Y-1498858D01*
X-1460718Y-1499598D01*
X-1462570Y-1500339D01*
X-1465162Y-1501080D01*
X-1467755Y-1502191D01*
X-1473680Y-1503672D01*
X-1474050D01*
X-1475161Y-1504042D01*
X-1477013D01*
X-1479235Y-1504413D01*
X-1481827Y-1504783D01*
X-1484790D01*
X-1491456Y-1505153D01*
X-1495159D01*
X-1499233Y-1504783D01*
X-1504418Y-1504042D01*
X-1510713Y-1502561D01*
X-1517379Y-1501080D01*
X-1524045Y-1498487D01*
X-1530711Y-1495154D01*
X-1531452Y-1494784D01*
X-1533674Y-1493303D01*
X-1536637Y-1491081D01*
X-1540340Y-1487748D01*
X-1544413Y-1484044D01*
X-1548487Y-1479230D01*
X-1552561Y-1473675D01*
X-1556264Y-1467379D01*
Y-1467009D01*
X-1556634Y-1466639D01*
X-1557005Y-1465528D01*
X-1557745Y-1464046D01*
X-1558856Y-1460343D01*
X-1560338Y-1455529D01*
X-1562189Y-1449974D01*
X-1563300Y-1443308D01*
X-1564411Y-1435901D01*
X-1564782Y-1428124D01*
Y-1427754D01*
Y-1427013D01*
Y-1425532D01*
Y-1424050D01*
X-1564411Y-1421828D01*
Y-1419236D01*
X-1563671Y-1413311D01*
X-1562560Y-1406275D01*
X-1561078Y-1398868D01*
X-1558856Y-1391091D01*
X-1555894Y-1383684D01*
Y-1383314D01*
X-1555523Y-1382944D01*
X-1554783Y-1381833D01*
X-1554042Y-1380351D01*
X-1552190Y-1376648D01*
X-1549228Y-1371834D01*
X-1545524Y-1366649D01*
X-1540710Y-1361094D01*
X-1535526Y-1355539D01*
X-1529600Y-1349984D01*
X-1529230D01*
X-1528860Y-1349243D01*
X-1526638Y-1347762D01*
X-1522934Y-1345170D01*
X-1518490Y-1342207D01*
X-1512565Y-1339244D01*
X-1506269Y-1335911D01*
X-1499233Y-1332949D01*
X-1491826Y-1330727D01*
X-1491456D01*
X-1490715Y-1330356D01*
X-1489604D01*
X-1488123Y-1329986D01*
X-1486271Y-1329245D01*
X-1484049Y-1328875D01*
X-1478494Y-1327764D01*
X-1471458Y-1327024D01*
X-1463681Y-1325913D01*
X-1454793Y-1325542D01*
X-1445535Y-1325172D01*
X-1439980D01*
X-1435906Y-1325542D01*
D02*
G37*
G36*
X-1669956Y-1633584D02*
Y-1633955D01*
X-1670326Y-1636547D01*
Y-1639139D01*
X-1670697Y-1642102D01*
X-1671808Y-1663211D01*
Y-1663581D01*
Y-1663951D01*
Y-1665062D01*
Y-1666544D01*
Y-1669877D01*
Y-1674321D01*
X-1738838D01*
Y-1673950D01*
Y-1673580D01*
Y-1672469D01*
Y-1670988D01*
X-1738467Y-1667284D01*
Y-1662840D01*
Y-1657656D01*
X-1738097Y-1652471D01*
Y-1647287D01*
Y-1642472D01*
Y-1641732D01*
Y-1639880D01*
Y-1637288D01*
Y-1633214D01*
X-1726246D01*
X-1720692Y-1633584D01*
X-1681436D01*
X-1675511Y-1633214D01*
X-1669956D01*
Y-1633584D01*
D02*
G37*
G36*
X-1332213Y-1678765D02*
Y-1679135D01*
X-1332584Y-1680987D01*
Y-1683579D01*
X-1332954Y-1688023D01*
X-1333324Y-1690615D01*
Y-1693578D01*
X-1333695Y-1696911D01*
X-1334065Y-1700614D01*
Y-1705058D01*
X-1334435Y-1709873D01*
X-1334806Y-1715057D01*
X-1335176Y-1720612D01*
X-1334806Y-1720242D01*
X-1334065Y-1719501D01*
X-1332954Y-1718020D01*
X-1331843Y-1716539D01*
X-1328880Y-1712835D01*
X-1327399Y-1711354D01*
X-1325918Y-1709873D01*
X-1325177Y-1709132D01*
X-1323325Y-1707651D01*
X-1320733Y-1705799D01*
X-1317770Y-1703577D01*
X-1317400D01*
X-1317030Y-1702836D01*
X-1314808Y-1701725D01*
X-1312215Y-1699874D01*
X-1308882Y-1698392D01*
X-1308512D01*
X-1308142Y-1698022D01*
X-1305920Y-1696911D01*
X-1302587Y-1695800D01*
X-1298513Y-1694689D01*
X-1298143D01*
X-1297402Y-1694319D01*
X-1296291D01*
X-1294810Y-1693948D01*
X-1290366Y-1693208D01*
X-1285551Y-1692467D01*
X-1285181D01*
X-1284440Y-1692097D01*
X-1282959D01*
X-1281107Y-1691726D01*
X-1276293Y-1691356D01*
X-1265553D01*
X-1261850Y-1691726D01*
X-1257777Y-1692097D01*
X-1252962Y-1692837D01*
X-1242963Y-1694689D01*
X-1242223D01*
X-1240741Y-1695430D01*
X-1238149Y-1696170D01*
X-1234816Y-1697281D01*
X-1231113Y-1698763D01*
X-1227409Y-1700985D01*
X-1223336Y-1703206D01*
X-1219632Y-1706169D01*
X-1219262Y-1706539D01*
X-1218151Y-1707650D01*
X-1216299Y-1709132D01*
X-1214448Y-1711354D01*
X-1212226Y-1714316D01*
X-1210004Y-1717279D01*
X-1208152Y-1720612D01*
X-1206671Y-1724315D01*
Y-1724686D01*
X-1205930Y-1726167D01*
X-1205560Y-1728019D01*
X-1204819Y-1730611D01*
X-1204078Y-1733944D01*
X-1203708Y-1737647D01*
X-1202967Y-1741721D01*
Y-1746165D01*
Y-1746535D01*
Y-1746906D01*
Y-1748017D01*
Y-1749498D01*
Y-1753201D01*
X-1203338Y-1758386D01*
Y-1758756D01*
Y-1759867D01*
Y-1761349D01*
X-1203708Y-1763571D01*
Y-1766163D01*
X-1204078Y-1769496D01*
Y-1773199D01*
X-1204449Y-1777273D01*
X-1208522Y-1834674D01*
Y-1835045D01*
Y-1836526D01*
Y-1838378D01*
X-1208893Y-1840970D01*
Y-1846895D01*
X-1209263Y-1852821D01*
Y-1853191D01*
Y-1853932D01*
Y-1855413D01*
Y-1857635D01*
Y-1860227D01*
Y-1863190D01*
Y-1866523D01*
Y-1870226D01*
X-1279996Y-1870226D01*
Y-1869856D01*
Y-1869115D01*
X-1279626Y-1868004D01*
Y-1866153D01*
X-1279256Y-1863931D01*
X-1278885Y-1861709D01*
Y-1858746D01*
X-1278515Y-1855413D01*
X-1277774Y-1847636D01*
X-1277034Y-1838748D01*
X-1275923Y-1829120D01*
X-1275182Y-1818380D01*
Y-1818010D01*
Y-1816899D01*
X-1274812Y-1815417D01*
Y-1813566D01*
X-1274441Y-1810973D01*
Y-1808381D01*
X-1273701Y-1801715D01*
X-1273330Y-1794679D01*
X-1272960Y-1787272D01*
X-1272590Y-1780236D01*
Y-1774310D01*
Y-1773940D01*
Y-1773570D01*
Y-1771718D01*
X-1272960Y-1768755D01*
X-1273330Y-1765422D01*
X-1274441Y-1761719D01*
X-1275552Y-1758016D01*
X-1277404Y-1754312D01*
X-1279626Y-1751720D01*
X-1279996Y-1751350D01*
X-1280737Y-1750609D01*
X-1282218Y-1749498D01*
X-1284440Y-1748387D01*
X-1287033Y-1747276D01*
X-1289995Y-1746165D01*
X-1293328Y-1745424D01*
X-1297402Y-1745054D01*
X-1298883D01*
X-1300735Y-1745424D01*
X-1303327D01*
X-1308882Y-1746906D01*
X-1311845Y-1748017D01*
X-1314808Y-1749498D01*
X-1315178D01*
X-1315919Y-1750239D01*
X-1317400Y-1750979D01*
X-1318881Y-1752090D01*
X-1322585Y-1755423D01*
X-1324807Y-1757645D01*
X-1326658Y-1760238D01*
Y-1760608D01*
X-1327399Y-1761349D01*
X-1328140Y-1762830D01*
X-1329251Y-1765052D01*
X-1330362Y-1767644D01*
X-1331473Y-1770607D01*
X-1332954Y-1774310D01*
X-1334065Y-1778754D01*
Y-1779495D01*
X-1334435Y-1781347D01*
X-1335176Y-1784680D01*
X-1335917Y-1789494D01*
X-1336657Y-1795419D01*
X-1337768Y-1802826D01*
X-1338509Y-1811344D01*
X-1339250Y-1821343D01*
Y-1822083D01*
Y-1822824D01*
Y-1824305D01*
X-1339620Y-1825787D01*
Y-1828009D01*
Y-1830601D01*
X-1339990Y-1833193D01*
Y-1836526D01*
X-1340361Y-1840229D01*
Y-1843933D01*
X-1340731Y-1848377D01*
Y-1853191D01*
X-1341101Y-1858376D01*
Y-1864301D01*
X-1341472Y-1870226D01*
X-1410353D01*
Y-1869856D01*
Y-1869115D01*
X-1409983Y-1867634D01*
Y-1866153D01*
X-1409613Y-1863931D01*
Y-1861338D01*
X-1408872Y-1855413D01*
X-1408131Y-1849117D01*
X-1407761Y-1842081D01*
X-1407020Y-1835045D01*
X-1406650Y-1828749D01*
Y-1828379D01*
Y-1827268D01*
X-1406280Y-1825416D01*
Y-1822824D01*
X-1405909Y-1819491D01*
Y-1815417D01*
X-1405539Y-1810973D01*
X-1405169Y-1805789D01*
X-1404798Y-1800234D01*
X-1404428Y-1793938D01*
X-1404058Y-1787642D01*
X-1403687Y-1780606D01*
X-1403317Y-1773199D01*
X-1402947Y-1765422D01*
X-1401836Y-1748757D01*
Y-1748387D01*
Y-1747276D01*
Y-1745795D01*
X-1401465Y-1743573D01*
Y-1740981D01*
Y-1737648D01*
X-1401095Y-1734315D01*
Y-1730241D01*
X-1400725Y-1721723D01*
X-1400354Y-1711724D01*
X-1399984Y-1701725D01*
X-1399614Y-1691356D01*
Y-1690986D01*
Y-1690245D01*
Y-1688764D01*
Y-1686542D01*
Y-1683949D01*
X-1399243Y-1680987D01*
Y-1678024D01*
Y-1674321D01*
Y-1665803D01*
X-1398873Y-1656915D01*
Y-1647287D01*
Y-1637288D01*
X-1386282D01*
X-1380727Y-1637658D01*
X-1341101D01*
X-1328510Y-1637288D01*
X-1332213Y-1678765D01*
D02*
G37*
G36*
X-1868454Y-1699503D02*
X-1873639Y-1796160D01*
X-1874009Y-1819861D01*
X-1866973D01*
X-1864380Y-1820232D01*
X-1851789D01*
X-1845493Y-1820602D01*
X-1810682D01*
X-1799572Y-1820232D01*
X-1788092D01*
X-1777352Y-1819861D01*
X-1772168Y-1819491D01*
X-1767724D01*
X-1771427Y-1870226D01*
X-1953260D01*
Y-1869856D01*
X-1952890Y-1868375D01*
Y-1866523D01*
X-1952519Y-1863560D01*
X-1952149Y-1860227D01*
X-1951779Y-1856154D01*
X-1951408Y-1851710D01*
X-1951038Y-1846895D01*
X-1949927Y-1836526D01*
X-1949186Y-1825787D01*
X-1948075Y-1814677D01*
X-1947335Y-1804678D01*
Y-1804307D01*
Y-1802456D01*
X-1946964Y-1800234D01*
X-1946594Y-1796530D01*
Y-1792457D01*
X-1946224Y-1787642D01*
X-1945853Y-1782087D01*
X-1945113Y-1775792D01*
X-1944742Y-1769126D01*
X-1944372Y-1761719D01*
X-1944002Y-1754312D01*
X-1943631Y-1746165D01*
X-1942891Y-1729500D01*
X-1942150Y-1712465D01*
Y-1712095D01*
Y-1710243D01*
Y-1708021D01*
X-1941780Y-1704688D01*
Y-1700985D01*
X-1941409Y-1696541D01*
Y-1691356D01*
X-1941039Y-1685801D01*
Y-1673950D01*
X-1940669Y-1661359D01*
X-1940298Y-1648768D01*
Y-1642843D01*
Y-1637288D01*
X-1926226D01*
X-1919930Y-1637658D01*
X-1879194D01*
X-1872157Y-1637288D01*
X-1864010D01*
X-1868454Y-1699503D01*
D02*
G37*
G36*
X-1670326Y-1696541D02*
Y-1697652D01*
X-1670697Y-1699133D01*
Y-1701725D01*
X-1671067Y-1704318D01*
X-1671437Y-1707651D01*
X-1671808Y-1711354D01*
Y-1715428D01*
X-1672548Y-1724316D01*
X-1673289Y-1733574D01*
X-1674030Y-1743203D01*
X-1674770Y-1752831D01*
Y-1753201D01*
Y-1753942D01*
Y-1755423D01*
Y-1756905D01*
X-1675141Y-1759497D01*
Y-1762089D01*
Y-1765052D01*
Y-1768385D01*
X-1675511Y-1776162D01*
Y-1785050D01*
X-1675881Y-1794679D01*
Y-1804678D01*
Y-1805048D01*
Y-1806900D01*
Y-1809122D01*
Y-1812455D01*
Y-1816528D01*
X-1676252Y-1820972D01*
Y-1825787D01*
Y-1830971D01*
Y-1842081D01*
X-1676622Y-1852821D01*
Y-1858005D01*
Y-1862449D01*
Y-1866523D01*
Y-1870226D01*
X-1749577D01*
Y-1869856D01*
Y-1869115D01*
X-1749207Y-1868375D01*
Y-1866893D01*
X-1748837Y-1862820D01*
X-1748466Y-1858005D01*
X-1747726Y-1852821D01*
X-1747355Y-1847266D01*
X-1746615Y-1841340D01*
X-1746244Y-1836156D01*
Y-1835415D01*
X-1745874Y-1833564D01*
Y-1830971D01*
X-1745504Y-1826898D01*
X-1745133Y-1821713D01*
X-1744763Y-1816158D01*
X-1744393Y-1809122D01*
X-1744022Y-1801715D01*
Y-1801345D01*
Y-1800604D01*
Y-1799493D01*
X-1743652Y-1798012D01*
Y-1796160D01*
Y-1793568D01*
X-1743282Y-1788013D01*
X-1742911Y-1780976D01*
Y-1773199D01*
X-1742541Y-1764682D01*
X-1742171Y-1755423D01*
Y-1755053D01*
Y-1754312D01*
Y-1752831D01*
Y-1750979D01*
X-1741800Y-1748387D01*
Y-1745424D01*
Y-1742092D01*
Y-1738388D01*
Y-1734315D01*
X-1741430Y-1729871D01*
Y-1719501D01*
X-1741060Y-1708391D01*
Y-1696170D01*
X-1728098D01*
X-1722543Y-1696541D01*
X-1685510D01*
X-1678474Y-1696170D01*
X-1670326D01*
Y-1696541D01*
D02*
G37*
G36*
X-1081128Y-1650990D02*
Y-1651730D01*
Y-1652841D01*
X-1081498Y-1654693D01*
Y-1656545D01*
Y-1659137D01*
X-1081869Y-1665062D01*
X-1082239Y-1672469D01*
X-1082609Y-1680616D01*
Y-1689504D01*
X-1082980Y-1698762D01*
X-1044095D01*
Y-1699133D01*
Y-1700244D01*
Y-1702095D01*
X-1044465Y-1704688D01*
Y-1707280D01*
Y-1710613D01*
X-1044836Y-1718020D01*
X-1045206Y-1726167D01*
Y-1733574D01*
X-1045576Y-1737277D01*
Y-1740610D01*
Y-1743573D01*
Y-1745795D01*
X-1084831D01*
X-1087053Y-1788383D01*
Y-1788753D01*
Y-1789864D01*
Y-1791716D01*
Y-1793567D01*
X-1087424Y-1797641D01*
Y-1799493D01*
Y-1800604D01*
Y-1800974D01*
Y-1802085D01*
Y-1803566D01*
X-1087053Y-1805418D01*
X-1086683Y-1809862D01*
X-1085572Y-1814306D01*
Y-1814676D01*
X-1085202Y-1815047D01*
X-1084091Y-1817269D01*
X-1082239Y-1819861D01*
X-1079276Y-1822083D01*
X-1078906D01*
X-1078536Y-1822453D01*
X-1076314Y-1823194D01*
X-1072981Y-1823935D01*
X-1068907Y-1824305D01*
X-1063723D01*
X-1060390Y-1823935D01*
X-1059649D01*
X-1058538Y-1823564D01*
X-1056686Y-1823194D01*
X-1054464Y-1822453D01*
X-1051872Y-1821713D01*
X-1048539Y-1820972D01*
X-1044465Y-1819861D01*
Y-1820602D01*
X-1044836Y-1822453D01*
X-1045576Y-1825416D01*
X-1046317Y-1829119D01*
X-1047428Y-1833193D01*
X-1048169Y-1838007D01*
X-1050020Y-1848377D01*
X-1053353Y-1869115D01*
X-1054094D01*
X-1056316Y-1869485D01*
X-1059279Y-1870226D01*
X-1062982Y-1870967D01*
X-1067426Y-1871707D01*
X-1071870Y-1872448D01*
X-1075943Y-1873189D01*
X-1080017Y-1873559D01*
X-1081498D01*
X-1083350Y-1873929D01*
X-1085942D01*
X-1088905Y-1874300D01*
X-1091868D01*
X-1098534Y-1874670D01*
X-1103718D01*
X-1107051Y-1874300D01*
X-1111125Y-1873929D01*
X-1115569Y-1873559D01*
X-1124457Y-1872078D01*
X-1124827D01*
X-1126309Y-1871707D01*
X-1128531Y-1870967D01*
X-1131123Y-1870226D01*
X-1137048Y-1867634D01*
X-1140381Y-1865782D01*
X-1143344Y-1863560D01*
X-1143714Y-1863190D01*
X-1144455Y-1862449D01*
X-1145936Y-1860968D01*
X-1147418Y-1859116D01*
X-1148899Y-1856894D01*
X-1150751Y-1854302D01*
X-1152232Y-1851339D01*
X-1153343Y-1848377D01*
Y-1848006D01*
X-1153713Y-1846895D01*
X-1154084Y-1845044D01*
X-1154454Y-1842822D01*
X-1155195Y-1840229D01*
X-1155565Y-1837267D01*
X-1155935Y-1830230D01*
Y-1829860D01*
Y-1828749D01*
Y-1826897D01*
Y-1824305D01*
Y-1823935D01*
Y-1823194D01*
Y-1822083D01*
Y-1820231D01*
X-1155565Y-1817639D01*
Y-1814306D01*
X-1155195Y-1809862D01*
X-1154824Y-1804677D01*
X-1150751Y-1745795D01*
X-1177414D01*
Y-1745424D01*
Y-1743573D01*
X-1177044Y-1740980D01*
Y-1737647D01*
X-1176674Y-1733203D01*
X-1176303Y-1727648D01*
Y-1721723D01*
X-1175933Y-1714687D01*
X-1175563Y-1698762D01*
X-1147047D01*
Y-1698392D01*
X-1146677Y-1697281D01*
Y-1695059D01*
X-1146307Y-1691356D01*
X-1145936Y-1686912D01*
X-1145566Y-1683949D01*
Y-1680986D01*
X-1145196Y-1677283D01*
X-1144825Y-1673580D01*
Y-1669136D01*
X-1144455Y-1664322D01*
X-1115199Y-1658767D01*
X-1114828D01*
X-1113717Y-1658396D01*
X-1111495Y-1657656D01*
X-1108162Y-1656915D01*
X-1103348Y-1655804D01*
X-1100756Y-1655434D01*
X-1097423Y-1654693D01*
X-1094090Y-1653582D01*
X-1090016Y-1652841D01*
X-1085942Y-1651730D01*
X-1081128Y-1650619D01*
Y-1650990D01*
D02*
G37*
G36*
X-1515528Y-1692097D02*
X-1510343D01*
X-1504788Y-1692467D01*
X-1498492Y-1692837D01*
X-1491456Y-1693578D01*
X-1490715D01*
X-1489604Y-1693948D01*
X-1488123D01*
X-1485901Y-1694319D01*
X-1483679D01*
X-1481087Y-1694689D01*
X-1477754Y-1695059D01*
X-1474421Y-1695800D01*
X-1470347Y-1696170D01*
X-1466273Y-1696911D01*
X-1461459Y-1697652D01*
X-1451460Y-1699133D01*
X-1439610Y-1701355D01*
X-1443683Y-1757645D01*
X-1447386Y-1819491D01*
Y-1819861D01*
Y-1820602D01*
Y-1821713D01*
Y-1823194D01*
X-1447757Y-1826898D01*
Y-1830231D01*
X-1448868Y-1885410D01*
Y-1885780D01*
Y-1887262D01*
X-1449238Y-1889113D01*
Y-1891706D01*
X-1449608Y-1894668D01*
X-1449979Y-1898372D01*
X-1451460Y-1905408D01*
Y-1905778D01*
X-1451830Y-1906889D01*
X-1452201Y-1908741D01*
X-1452941Y-1910593D01*
X-1454793Y-1916148D01*
X-1457756Y-1921703D01*
X-1458126Y-1922073D01*
X-1458496Y-1922814D01*
X-1459607Y-1924295D01*
X-1460718Y-1926147D01*
X-1464422Y-1930220D01*
X-1468866Y-1934664D01*
X-1469236Y-1935034D01*
X-1469977Y-1935775D01*
X-1471458Y-1936886D01*
X-1473310Y-1938367D01*
X-1475902Y-1939849D01*
X-1478494Y-1941330D01*
X-1484790Y-1944293D01*
X-1485160D01*
X-1486271Y-1945033D01*
X-1488123Y-1945774D01*
X-1490715Y-1946515D01*
X-1494048Y-1947626D01*
X-1497752Y-1948737D01*
X-1501825Y-1949848D01*
X-1506269Y-1950588D01*
X-1507010D01*
X-1508491Y-1950959D01*
X-1511084Y-1951329D01*
X-1514787Y-1951699D01*
X-1518861Y-1952440D01*
X-1523675Y-1952810D01*
X-1528860Y-1953181D01*
X-1539599D01*
X-1542562Y-1952810D01*
X-1545895D01*
X-1549968Y-1952440D01*
X-1554412Y-1952070D01*
X-1556264D01*
X-1558856Y-1951699D01*
X-1561819Y-1951329D01*
X-1565522D01*
X-1569596Y-1950959D01*
X-1578854Y-1949848D01*
X-1579225D01*
X-1581076Y-1949477D01*
X-1583298Y-1949107D01*
X-1586261Y-1948737D01*
X-1589594Y-1948366D01*
X-1592927Y-1947626D01*
X-1600334Y-1946515D01*
X-1600704D01*
X-1601815Y-1946144D01*
X-1604037Y-1945774D01*
X-1606629Y-1945404D01*
X-1609962Y-1944663D01*
X-1614036Y-1943922D01*
X-1618480Y-1943182D01*
X-1623294Y-1942071D01*
X-1624776Y-1919481D01*
Y-1919110D01*
Y-1917999D01*
Y-1916148D01*
Y-1913555D01*
X-1625146Y-1909852D01*
X-1625516Y-1904667D01*
X-1625887Y-1898742D01*
X-1626257Y-1891335D01*
X-1625887D01*
X-1625146Y-1891706D01*
X-1624035Y-1892076D01*
X-1622554Y-1892446D01*
X-1618480Y-1893928D01*
X-1613295Y-1895409D01*
X-1607370Y-1897261D01*
X-1600704Y-1898742D01*
X-1594038Y-1900223D01*
X-1587742Y-1901705D01*
X-1587002D01*
X-1584780Y-1902075D01*
X-1581817Y-1902445D01*
X-1577743Y-1903186D01*
X-1573299Y-1903556D01*
X-1568485Y-1904297D01*
X-1563300Y-1904667D01*
X-1555153D01*
X-1552931Y-1904297D01*
X-1547746Y-1903556D01*
X-1542191Y-1902445D01*
X-1541821D01*
X-1541080Y-1902075D01*
X-1539599Y-1901705D01*
X-1537747Y-1900964D01*
X-1534044Y-1899483D01*
X-1530341Y-1897631D01*
X-1529971D01*
X-1529600Y-1897261D01*
X-1527749Y-1895409D01*
X-1525156Y-1893187D01*
X-1522934Y-1890224D01*
Y-1889854D01*
X-1522194Y-1889484D01*
X-1521083Y-1887262D01*
X-1519601Y-1884299D01*
X-1518120Y-1880225D01*
Y-1879855D01*
X-1517750Y-1879114D01*
X-1517379Y-1878374D01*
X-1517009Y-1876892D01*
X-1516268Y-1872819D01*
X-1515528Y-1868004D01*
Y-1867634D01*
Y-1866523D01*
X-1515157Y-1865042D01*
Y-1862820D01*
X-1514787Y-1860227D01*
X-1514417Y-1856894D01*
Y-1852821D01*
X-1514046Y-1848377D01*
X-1514417Y-1848747D01*
X-1515157Y-1849488D01*
X-1516268Y-1850599D01*
X-1518120Y-1852080D01*
X-1521823Y-1855413D01*
X-1525897Y-1858376D01*
X-1526267D01*
X-1526638Y-1859116D01*
X-1527749Y-1859487D01*
X-1529230Y-1860598D01*
X-1532933Y-1862449D01*
X-1537747Y-1865042D01*
X-1538118D01*
X-1538858Y-1865412D01*
X-1540340Y-1866153D01*
X-1542191Y-1866893D01*
X-1544784Y-1867634D01*
X-1547376Y-1868745D01*
X-1553301Y-1870226D01*
X-1553672D01*
X-1554783Y-1870597D01*
X-1556634D01*
X-1558856Y-1870967D01*
X-1561449Y-1871337D01*
X-1564411D01*
X-1571077Y-1871708D01*
X-1574781D01*
X-1578854Y-1871337D01*
X-1584039Y-1870597D01*
X-1590335Y-1869115D01*
X-1597001Y-1867634D01*
X-1603667Y-1865042D01*
X-1610333Y-1861709D01*
X-1611073Y-1861338D01*
X-1613295Y-1859857D01*
X-1616258Y-1857635D01*
X-1619961Y-1854302D01*
X-1624035Y-1850599D01*
X-1628109Y-1845784D01*
X-1632182Y-1840229D01*
X-1635885Y-1833934D01*
Y-1833564D01*
X-1636256Y-1833193D01*
X-1636626Y-1832082D01*
X-1637367Y-1830601D01*
X-1638478Y-1826898D01*
X-1639959Y-1822083D01*
X-1641811Y-1816528D01*
X-1642922Y-1809862D01*
X-1644033Y-1802456D01*
X-1644403Y-1794679D01*
Y-1794308D01*
Y-1793568D01*
Y-1792086D01*
Y-1790605D01*
X-1644033Y-1788383D01*
Y-1785791D01*
X-1643292Y-1779865D01*
X-1642181Y-1772829D01*
X-1640700Y-1765422D01*
X-1638478Y-1757645D01*
X-1635515Y-1750239D01*
Y-1749868D01*
X-1635145Y-1749498D01*
X-1634404Y-1748387D01*
X-1633663Y-1746906D01*
X-1631812Y-1743203D01*
X-1628849Y-1738388D01*
X-1625146Y-1733204D01*
X-1620332Y-1727649D01*
X-1615147Y-1722094D01*
X-1609222Y-1716539D01*
X-1608851D01*
X-1608481Y-1715798D01*
X-1606259Y-1714317D01*
X-1602556Y-1711724D01*
X-1598112Y-1708762D01*
X-1592186Y-1705799D01*
X-1585891Y-1702466D01*
X-1578854Y-1699503D01*
X-1571448Y-1697281D01*
X-1571077D01*
X-1570337Y-1696911D01*
X-1569226D01*
X-1567744Y-1696541D01*
X-1565893Y-1695800D01*
X-1563671Y-1695430D01*
X-1558116Y-1694319D01*
X-1551079Y-1693578D01*
X-1543302Y-1692467D01*
X-1534415Y-1692097D01*
X-1525156Y-1691726D01*
X-1519601D01*
X-1515528Y-1692097D01*
D02*
G37*
%LPC*%
G36*
X-1448497Y-1375167D02*
X-1451090D01*
X-1454052Y-1375537D01*
X-1457385Y-1375907D01*
X-1461459Y-1376648D01*
X-1465903Y-1377759D01*
X-1470347Y-1379240D01*
X-1474791Y-1381092D01*
X-1475161Y-1381462D01*
X-1476643Y-1382203D01*
X-1478494Y-1383684D01*
X-1481087Y-1385536D01*
X-1484049Y-1388128D01*
X-1486642Y-1391091D01*
X-1489604Y-1394794D01*
X-1492197Y-1398868D01*
X-1492567Y-1399238D01*
X-1492937Y-1400720D01*
X-1494048Y-1403312D01*
X-1495159Y-1406275D01*
X-1496270Y-1409978D01*
X-1497011Y-1414052D01*
X-1497752Y-1418496D01*
X-1498122Y-1423310D01*
Y-1423680D01*
Y-1424791D01*
Y-1426643D01*
X-1497752Y-1428865D01*
X-1497011Y-1434420D01*
X-1495159Y-1440345D01*
Y-1440715D01*
X-1494419Y-1441456D01*
X-1493678Y-1442937D01*
X-1492567Y-1444789D01*
X-1489234Y-1448863D01*
X-1487012Y-1450714D01*
X-1484420Y-1452566D01*
X-1484049D01*
X-1482938Y-1453307D01*
X-1481457Y-1454047D01*
X-1479605Y-1454788D01*
X-1477013Y-1455529D01*
X-1474421Y-1456269D01*
X-1471458Y-1456640D01*
X-1468495Y-1457010D01*
X-1466273D01*
X-1464051Y-1456640D01*
X-1461089Y-1455899D01*
X-1457756Y-1454788D01*
X-1454052Y-1453307D01*
X-1450349Y-1451455D01*
X-1446646Y-1448492D01*
X-1446275Y-1448122D01*
X-1445164Y-1447011D01*
X-1443313Y-1444789D01*
X-1441461Y-1442197D01*
X-1439239Y-1438493D01*
X-1437017Y-1434420D01*
X-1435166Y-1429605D01*
X-1433684Y-1424050D01*
Y-1423310D01*
X-1432944Y-1421088D01*
X-1432573Y-1417385D01*
X-1431833Y-1412200D01*
X-1431092Y-1405904D01*
X-1430351Y-1397757D01*
X-1429611Y-1388128D01*
X-1429240Y-1377389D01*
X-1429611D01*
X-1431092Y-1377018D01*
X-1432944Y-1376648D01*
X-1435536Y-1376278D01*
X-1438499Y-1375907D01*
X-1441832Y-1375537D01*
X-1448497Y-1375167D01*
D02*
G37*
G36*
X-1528119Y-1741721D02*
X-1530711D01*
X-1533674Y-1742092D01*
X-1537007Y-1742462D01*
X-1541080Y-1743203D01*
X-1545524Y-1744314D01*
X-1549968Y-1745795D01*
X-1554412Y-1747646D01*
X-1554783Y-1748017D01*
X-1556264Y-1748757D01*
X-1558116Y-1750239D01*
X-1560708Y-1752090D01*
X-1563671Y-1754683D01*
X-1566263Y-1757645D01*
X-1569226Y-1761349D01*
X-1571818Y-1765422D01*
X-1572188Y-1765793D01*
X-1572559Y-1767274D01*
X-1573670Y-1769866D01*
X-1574781Y-1772829D01*
X-1575892Y-1776532D01*
X-1576632Y-1780606D01*
X-1577373Y-1785050D01*
X-1577743Y-1789864D01*
Y-1790235D01*
Y-1791346D01*
Y-1793197D01*
X-1577373Y-1795419D01*
X-1576632Y-1800974D01*
X-1574781Y-1806900D01*
Y-1807270D01*
X-1574040Y-1808011D01*
X-1573299Y-1809492D01*
X-1572188Y-1811344D01*
X-1568855Y-1815417D01*
X-1566633Y-1817269D01*
X-1564041Y-1819121D01*
X-1563671D01*
X-1562560Y-1819861D01*
X-1561078Y-1820602D01*
X-1559227Y-1821343D01*
X-1556634Y-1822083D01*
X-1554042Y-1822824D01*
X-1551079Y-1823194D01*
X-1548117Y-1823565D01*
X-1545895D01*
X-1543673Y-1823194D01*
X-1540710Y-1822454D01*
X-1537377Y-1821343D01*
X-1533674Y-1819861D01*
X-1529971Y-1818010D01*
X-1526267Y-1815047D01*
X-1525897Y-1814677D01*
X-1524786Y-1813566D01*
X-1522934Y-1811344D01*
X-1521083Y-1808751D01*
X-1518861Y-1805048D01*
X-1516639Y-1800974D01*
X-1514787Y-1796160D01*
X-1513306Y-1790605D01*
Y-1789864D01*
X-1512565Y-1787642D01*
X-1512195Y-1783939D01*
X-1511454Y-1778754D01*
X-1510713Y-1772459D01*
X-1509973Y-1764311D01*
X-1509232Y-1754683D01*
X-1508862Y-1743943D01*
X-1509232D01*
X-1510713Y-1743573D01*
X-1512565Y-1743203D01*
X-1515157Y-1742832D01*
X-1518120Y-1742462D01*
X-1521453Y-1742092D01*
X-1528119Y-1741721D01*
D02*
G37*
%LPD*%
D67*
X2475721Y-2832671D02*
G03*
X2475721Y-2832671I-8000J0D01*
G01*
X2589875Y-2474872D02*
G03*
X2589875Y-2474872I-115003J0D01*
G01*
X2825743Y2463721D02*
G03*
X2825743Y2463721I6928J4000D01*
G01*
X2375276Y2417370D02*
G03*
X2375276Y2417370I99596J57502D01*
G01*
X-1005462Y3323236D02*
G03*
X-1005462Y3323236I99596J57502D01*
G01*
X-727702Y3683026D02*
G03*
X-727702Y3683026I6928J4000D01*
G01*
X-1634995Y3031086D02*
G03*
X-1634995Y3031086I-115003J0D01*
G01*
X-1642487Y3374844D02*
G03*
X-1642487Y3374844I-8000J0D01*
G01*
X-2375276Y2417370D02*
G03*
X-2375276Y2417370I-99596J57502D01*
G01*
X-2460793Y2828671D02*
G03*
X-2460793Y2828671I-6928J4000D01*
G01*
X-3146090Y1749999D02*
G03*
X-3146090Y1749999I115003J0D01*
G01*
X-3124785Y2097457D02*
G03*
X-3124785Y2097457I8000J0D01*
G01*
X-3491822Y876101D02*
G03*
X-3491822Y876101I111085J29765D01*
G01*
X-3561172Y1217235D02*
G03*
X-3561172Y1217235I7727J2071D01*
G01*
X-3384994Y0D02*
G03*
X-3384994Y0I-115003J0D01*
G01*
X-3739944Y258059D02*
G03*
X-3739944Y258059I-8000J0D01*
G01*
X-3491822Y-876101D02*
G03*
X-3491822Y-876101I111085J-29765D01*
G01*
X-3694754Y-718703D02*
G03*
X-3694754Y-718703I7727J-2071D01*
G01*
X-2359868Y-2474872D02*
G03*
X-2359868Y-2474872I-115003J0D01*
G01*
X-2824672Y-2467721D02*
G03*
X-2824672Y-2467721I-8000J0D01*
G01*
X-1634995Y-3031086D02*
G03*
X-1634995Y-3031086I-115003J0D01*
G01*
X-2089457Y-3116785D02*
G03*
X-2089457Y-3116785I-8000J0D01*
G01*
X-790863Y-3380737D02*
G03*
X-790863Y-3380737I-115003J0D01*
G01*
X-1211305Y-3553445D02*
G03*
X-1211305Y-3553445I-8000J0D01*
G01*
X115003Y-3499997D02*
G03*
X115003Y-3499997I-115003J0D01*
G01*
X-250059Y-3747944D02*
G03*
X-250059Y-3747944I-8000J0D01*
G01*
X1020869Y-3380737D02*
G03*
X1020869Y-3380737I-115003J0D01*
G01*
X728773Y-3687026D02*
G03*
X728773Y-3687026I-8000J0D01*
G01*
X1865002Y-3031086D02*
G03*
X1865002Y-3031086I-115003J0D01*
G01*
X1658486Y-3374844D02*
G03*
X1658486Y-3374844I-8000J0D01*
G01*
X3265734Y-905866D02*
G03*
X3265734Y-905866I115003J0D01*
G01*
X3545445Y-1219305D02*
G03*
X3545445Y-1219305I8000J0D01*
G01*
X3388912Y-29765D02*
G03*
X3388912Y-29765I111085J29765D01*
G01*
X3740216Y-260129D02*
G03*
X3740216Y-260129I7727J2071D01*
G01*
X3265734Y905866D02*
G03*
X3265734Y905866I115003J0D01*
G01*
X3679026Y720774D02*
G03*
X3679026Y720774I8000J0D01*
G01*
X2920002Y1720234D02*
G03*
X2920002Y1720234I111085J29765D01*
G01*
X3367116Y1648416D02*
G03*
X3367116Y1648416I7727J2071D01*
G01*
X1720234Y2920002D02*
G03*
X1720234Y2920002I29765J111085D01*
G01*
X2095386Y3109058D02*
G03*
X2095386Y3109058I2071J7727D01*
G01*
X1005462Y3323236D02*
G03*
X1005462Y3323236I-99596J57502D01*
G01*
X1226233Y3549445D02*
G03*
X1226233Y3549445I-6928J4000D01*
G01*
X2510227Y-2156673D02*
X2793069Y-2439516D01*
X2156674Y-2510227D02*
X2439516Y-2793070D01*
X2156673Y2510227D02*
X2439516Y2793070D01*
X2510227Y2156673D02*
X2793070Y2439516D01*
X-716148Y3638628D02*
X-612621Y3252257D01*
X-1199111Y3509218D02*
X-1095584Y3122847D01*
X-1633493Y3329292D02*
X-1433492Y2982882D01*
X-2066505Y3079291D02*
X-1866505Y2732882D01*
X-2439516Y2793070D02*
X-2156673Y2510227D01*
X-2793070Y2439516D02*
X-2510227Y2156674D01*
X-3079292Y2066505D02*
X-2732881Y1866505D01*
X-3329292Y1633492D02*
X-2982881Y1433492D01*
X-3509218Y1199111D02*
X-3122847Y1095584D01*
X-3638627Y716148D02*
X-3252257Y612621D01*
X-3699997Y250000D02*
X-3299997D01*
X-3699997Y-250000D02*
X-3299997D01*
X-3638628Y-716148D02*
X-3252257Y-612620D01*
X-3509218Y-1199112D02*
X-3122847Y-1095584D01*
X-2793070Y-2439517D02*
X-2510227Y-2156673D01*
X-2439516Y-2793070D02*
X-2156673Y-2510227D01*
X-2066505Y-3079292D02*
X-1866505Y-2732881D01*
X-1633492Y-3329292D02*
X-1433492Y-2982881D01*
X-1199111Y-3509218D02*
X-1095584Y-3122847D01*
X-716148Y-3638627D02*
X-612621Y-3252257D01*
X-250000Y-3699997D02*
Y-3299997D01*
X250000Y-3699997D02*
Y-3299997D01*
X612621Y-3252257D02*
X716148Y-3638627D01*
X1095584Y-3122847D02*
X1199111Y-3509218D01*
X1433492Y-2982881D02*
X1633492Y-3329292D01*
X1866505Y-2732881D02*
X2066505Y-3079292D01*
X3122847Y-1095584D02*
X3509218Y-1199111D01*
X3252257Y-612621D02*
X3638627Y-716148D01*
X3299997Y-250000D02*
X3699997D01*
X3299997Y250000D02*
X3699997D01*
X3252257Y612621D02*
X3638627Y716148D01*
X3122847Y1095584D02*
X3509218Y1199111D01*
X2982881Y1433492D02*
X3329292Y1633492D01*
X2732881Y1866505D02*
X3079292Y2066505D01*
X1866505Y2732881D02*
X2066505Y3079292D01*
X1433492Y2982881D02*
X1633492Y3329292D01*
X1095584Y3122847D02*
X1199111Y3509218D01*
X612621Y3252257D02*
X716148Y3638627D01*
D68*
X-508918Y-578090D02*
G03*
X-508918Y-578090I-18117J-67615D01*
G01*
X-20000Y-1031880D02*
X20000D01*
X-20000Y-1111880D02*
X20000D01*
X396280Y-1476260D02*
X1036280Y-1476259D01*
X396279Y-1762620D02*
X396280Y-1476260D01*
X396279Y-1762620D02*
X1036281Y-1762620D01*
X1036280Y-1476259D02*
X1036281Y-1762620D01*
X-549810Y-2979210D02*
X-539458Y-2940573D01*
X-627084Y-2958504D02*
X-616732Y-2919867D01*
X-936181Y-2875682D02*
X-925828Y-2837045D01*
X-1013455Y-2854977D02*
X-1003102Y-2816340D01*
X-1302152Y-2735394D02*
X-1282153Y-2700753D01*
X-1371434Y-2695394D02*
X-1351434Y-2660753D01*
X-2875682Y936180D02*
X-2837044Y925828D01*
X-2854976Y1013454D02*
X-2816340Y1003102D01*
X-2979209Y549811D02*
X-2940573Y539458D01*
X-2958504Y627084D02*
X-2919868Y616732D01*
X-2927446Y742996D02*
X-2888809Y732644D01*
X-2906740Y820269D02*
X-2868103Y809917D01*
X-2022322Y2248597D02*
X-1994038Y2220313D01*
X-1965753Y2305166D02*
X-1937469Y2276882D01*
X-2305166Y1965756D02*
X-2276881Y1937470D01*
X-2248597Y2022323D02*
X-2220313Y1994039D01*
X-2163744Y2107177D02*
X-2135460Y2078892D01*
X-2107176Y2163744D02*
X-2078892Y2135460D01*
X-1013455Y2854976D02*
X-1003102Y2816339D01*
X-936181Y2875682D02*
X-925828Y2837044D01*
X-627084Y2958504D02*
X-616732Y2919867D01*
X-549811Y2979209D02*
X-539458Y2940573D01*
X-820270Y2906740D02*
X-809917Y2868103D01*
X-742996Y2927445D02*
X-732644Y2888809D01*
X1697846Y-2460756D02*
X1717846Y-2495397D01*
X1628563Y-2500755D02*
X1648565Y-2535396D01*
X1524639Y-2560754D02*
X1544639Y-2595394D01*
X1455358Y-2600753D02*
X1475357Y-2635394D01*
X1351436Y-2660756D02*
X1371437Y-2695397D01*
X1282155Y-2700756D02*
X1302154Y-2735396D01*
X2276882Y-1937473D02*
X2305167Y-1965757D01*
X2220314Y-1994041D02*
X2248599Y-2022325D01*
X1994041Y-2220316D02*
X2022325Y-2248599D01*
X1937473Y-2276884D02*
X1965757Y-2305168D01*
X2135461Y-2078892D02*
X2163744Y-2107176D01*
X2078892Y-2135460D02*
X2107176Y-2163744D01*
X-1717844Y2495394D02*
X-1697844Y2460754D01*
X-1648563Y2535394D02*
X-1628562Y2500753D01*
X-1544640Y2595394D02*
X-1524640Y2560753D01*
X-1475358Y2635394D02*
X-1455358Y2600753D01*
X-1371434Y2695394D02*
X-1351434Y2660753D01*
X-1302152Y2735394D02*
X-1282152Y2700753D01*
X2888809Y-732643D02*
X2927446Y-742996D01*
X2868103Y-809917D02*
X2906741Y-820269D01*
X2837048Y-925829D02*
X2875685Y-936182D01*
X2816343Y-1003103D02*
X2854979Y-1013456D01*
X2940574Y-539460D02*
X2979211Y-549812D01*
X2919869Y-616733D02*
X2958506Y-627086D01*
X1282154Y2700756D02*
X1302154Y2735397D01*
X1351436Y2660755D02*
X1371436Y2695397D01*
X1003102Y-2816340D02*
X1013455Y-2854977D01*
X925828Y-2837045D02*
X936181Y-2875682D01*
X-2854977Y-1013455D02*
X-2816340Y-1003102D01*
X-2875682Y-936181D02*
X-2837045Y-925828D01*
X1455358Y2600753D02*
X1475357Y2635394D01*
X1524640Y2560753D02*
X1544640Y2595394D01*
X809917Y-2868103D02*
X820270Y-2906740D01*
X732643Y-2888809D02*
X742996Y-2927446D01*
X-2906740Y-820270D02*
X-2868104Y-809917D01*
X-2927446Y-742996D02*
X-2888809Y-732643D01*
X1628564Y2500755D02*
X1648564Y2535396D01*
X1697846Y2460756D02*
X1717845Y2495396D01*
X616732Y-2919867D02*
X627085Y-2958504D01*
X539458Y-2940572D02*
X549811Y-2979209D01*
X-2958504Y-627085D02*
X-2919867Y-616732D01*
X-2979210Y-549810D02*
X-2940573Y-539458D01*
X-20000Y1040000D02*
X20000D01*
X-20000Y960000D02*
X20000Y960000D01*
X780000Y1040000D02*
X820000D01*
X780000Y960000D02*
X820000Y960000D01*
X-820000Y1040000D02*
X-780000D01*
X-820000Y960000D02*
X-780000Y960000D01*
X340000Y1470000D02*
X340000Y2020000D01*
X-340000Y1470000D02*
X340000D01*
X-340000D02*
Y2020000D01*
X305000Y2070000D02*
X340000Y2020000D01*
X-340000D02*
X-305000Y2070000D01*
X1140000Y1470000D02*
X1140000Y2020000D01*
X460000Y1470000D02*
X1140000D01*
X460000D02*
Y2020000D01*
X1105000Y2070000D02*
X1140000Y2020000D01*
X460000D02*
X495000Y2070000D01*
X-460000Y1470000D02*
Y2020000D01*
X-1140000Y1470000D02*
X-460000Y1470000D01*
X-1140000Y1470000D02*
X-1140000Y2020000D01*
X-495000Y2070000D02*
X-460000Y2020000D01*
X-1140000D02*
X-1105000Y2070000D01*
X2979997Y240000D02*
X3019997Y240000D01*
X2979997Y160000D02*
X3019997D01*
X240000Y-3020000D02*
Y-2980000D01*
X160000Y-3020000D02*
Y-2980000D01*
X2980000Y40000D02*
X3020000Y39999D01*
X2980000Y-40000D02*
X3020000Y-39999D01*
X40000Y-2979997D02*
X40000Y-3019997D01*
X-40000D02*
X-40000Y-2979997D01*
X2980000Y-160000D02*
X3020000D01*
X2980000Y-239999D02*
X3020000Y-239999D01*
X-160000Y-2980000D02*
X-160000Y-3020000D01*
X-240000Y-3020000D02*
Y-2980000D01*
X-1965755Y-2305166D02*
X-1937471Y-2276882D01*
X-2022323Y-2248597D02*
X-1994038Y-2220313D01*
X-2107176Y-2163744D02*
X-2078892Y-2135461D01*
X-2163744Y-2107176D02*
X-2135460Y-2078892D01*
X-1475357Y-2635394D02*
X-1455358Y-2600753D01*
X-1544640Y-2595394D02*
X-1524640Y-2560753D01*
X-2248597Y-2022323D02*
X-2220313Y-1994039D01*
X-2305166Y-1965755D02*
X-2276881Y-1937471D01*
X-1648562Y-2535394D02*
X-1628562Y-2500753D01*
X-1717844Y-2495394D02*
X-1697844Y-2460754D01*
X-1866902Y-464820D02*
X-1866901Y-185421D01*
X-1104901Y-185420D01*
X-1104900Y-464821D01*
X-1866902Y-464820D02*
X-1104900Y-464821D01*
X1046280Y-2238100D02*
X1046281Y-2161900D01*
X816280Y-1109980D02*
Y-1033779D01*
X1937471Y2276882D02*
X1965755Y2305166D01*
X1994039Y2220313D02*
X2022323Y2248597D01*
X2816339Y1003102D02*
X2854976Y1013455D01*
X2837045Y925828D02*
X2875681Y936182D01*
X2460754Y1697844D02*
X2495394Y1717844D01*
X2500753Y1628562D02*
X2535394Y1648562D01*
X2078892Y2135460D02*
X2107176Y2163744D01*
X2135460Y2078892D02*
X2163744Y2107176D01*
X2868104Y809917D02*
X2906741Y820269D01*
X2888809Y732643D02*
X2927446Y742995D01*
X2560754Y1524639D02*
X2595395Y1544639D01*
X2600753Y1455358D02*
X2635394Y1475357D01*
X2220314Y1994039D02*
X2248597Y2022323D01*
X2276882Y1937471D02*
X2305166Y1965755D01*
X2919867Y616732D02*
X2958504Y627085D01*
X2940572Y539458D02*
X2979210Y549811D01*
X2660754Y1351434D02*
X2695394Y1371433D01*
X2700753Y1282152D02*
X2735394Y1302151D01*
X-3020000Y-240000D02*
X-2980000Y-240000D01*
X-3020000Y-160001D02*
X-2980001Y-160000D01*
X1483001Y-366000D02*
Y-326001D01*
X1563000Y-366000D02*
Y-326001D01*
X-3020000Y-40000D02*
X-2980001Y-40000D01*
X-3020000Y40000D02*
X-2980000Y40000D01*
X-3020000Y160000D02*
X-2979999Y160000D01*
X-3020000Y240000D02*
X-2980000Y240000D01*
X1350000Y925000D02*
X1950000D01*
X1350000Y375000D02*
Y925000D01*
Y375000D02*
X1950000D01*
Y925000D01*
X-649362Y-763378D02*
X-409362Y-763378D01*
X-409362Y-523378D02*
X-409362Y-763378D01*
X-649362Y-523378D02*
X-409362Y-523378D01*
X-649362Y-523378D02*
X-649362Y-763378D01*
X-765000Y629000D02*
X985000Y629000D01*
X-765000Y609000D02*
Y629000D01*
X985000D02*
X985001Y609000D01*
X-765000Y-801000D02*
Y-731000D01*
Y-801000D02*
X822871Y-801000D01*
X985000Y-731000D01*
X539458Y2940573D02*
X549811Y2979209D01*
X616732Y2919867D02*
X627085Y2958504D01*
X-2735394Y1302152D02*
X-2700753Y1282152D01*
X-2695394Y1371434D02*
X-2660754Y1351434D01*
X732643Y2888809D02*
X742996Y2927446D01*
X809917Y2868103D02*
X820270Y2906740D01*
X-742996Y-2927446D02*
X-732643Y-2888809D01*
X-820270Y-2906740D02*
X-809917Y-2868103D01*
X-2635394Y1475358D02*
X-2600753Y1455358D01*
X-2595394Y1544639D02*
X-2560754Y1524639D01*
X925829Y2837045D02*
X936181Y2875681D01*
X1003102Y2816340D02*
X1013455Y2854976D01*
X-2535395Y1648562D02*
X-2500753Y1628563D01*
X-2495395Y1717844D02*
X-2460754Y1697845D01*
X-1727199Y904240D02*
X-1447800D01*
X-1727199Y1920240D02*
X-1727199Y904240D01*
X-1727199Y1920240D02*
X-1447799Y1920240D01*
X-1447800Y904240D02*
X-1447799Y1920240D01*
X-833440Y-1273819D02*
Y-1373798D01*
Y-1273819D02*
X-800114D01*
X-785831Y-1278580D01*
X-776309Y-1288102D01*
X-771549Y-1297624D01*
X-766788Y-1311907D01*
Y-1335711D01*
X-771549Y-1349994D01*
X-776309Y-1359515D01*
X-785831Y-1369037D01*
X-800114Y-1373798D01*
X-833440D01*
X-744412Y-1307146D02*
Y-1373798D01*
Y-1335711D02*
X-739651Y-1321428D01*
X-730129Y-1311907D01*
X-720607Y-1307146D01*
X-706324D01*
X-640148D02*
Y-1373798D01*
Y-1321428D02*
X-649670Y-1311907D01*
X-659192Y-1307146D01*
X-673474D01*
X-682996Y-1311907D01*
X-692518Y-1321428D01*
X-697279Y-1335711D01*
Y-1345233D01*
X-692518Y-1359515D01*
X-682996Y-1369037D01*
X-673474Y-1373798D01*
X-659192D01*
X-649670Y-1369037D01*
X-640148Y-1359515D01*
X-613487Y-1307146D02*
X-594444Y-1373798D01*
X-575400Y-1307146D02*
X-594444Y-1373798D01*
X-575400Y-1307146D02*
X-556357Y-1373798D01*
X-537313Y-1307146D02*
X-556357Y-1373798D01*
X-513985Y-1307146D02*
Y-1373798D01*
Y-1326189D02*
X-499702Y-1311907D01*
X-490180Y-1307146D01*
X-475898D01*
X-466376Y-1311907D01*
X-461615Y-1326189D01*
Y-1373798D01*
X-356876Y-1273819D02*
Y-1373798D01*
Y-1273819D02*
X-314028D01*
X-299745Y-1278580D01*
X-294984Y-1283341D01*
X-290223Y-1292863D01*
Y-1302385D01*
X-294984Y-1311907D01*
X-299745Y-1316667D01*
X-314028Y-1321428D01*
X-356876D02*
X-314028D01*
X-299745Y-1326189D01*
X-294984Y-1330950D01*
X-290223Y-1340472D01*
Y-1354754D01*
X-294984Y-1364276D01*
X-299745Y-1369037D01*
X-314028Y-1373798D01*
X-356876D01*
X-263086Y-1307146D02*
X-234521Y-1373798D01*
X-205956Y-1307146D02*
X-234521Y-1373798D01*
X-244043Y-1392842D01*
X-253564Y-1402363D01*
X-263086Y-1407124D01*
X-267847D01*
X-184532Y-1307146D02*
X-189292Y-1311907D01*
X-184532Y-1316667D01*
X-179771Y-1311907D01*
X-184532Y-1307146D01*
Y-1364276D02*
X-189292Y-1369037D01*
X-184532Y-1373798D01*
X-179771Y-1369037D01*
X-184532Y-1364276D01*
X-757266Y-1575099D02*
X-795353Y-1475120D01*
X-833440Y-1575099D01*
X-819157Y-1541772D02*
X-771549D01*
X-733938Y-1475120D02*
Y-1575099D01*
X-708229Y-1508446D02*
X-679663Y-1575099D01*
X-651098Y-1508446D02*
X-679663Y-1575099D01*
X-689185Y-1594142D01*
X-698707Y-1603664D01*
X-708229Y-1608425D01*
X-712990D01*
X-582065Y-1522729D02*
X-586826Y-1513207D01*
X-601109Y-1508446D01*
X-615391D01*
X-629674Y-1513207D01*
X-634435Y-1522729D01*
X-629674Y-1532251D01*
X-620152Y-1537012D01*
X-596348Y-1541772D01*
X-586826Y-1546533D01*
X-582065Y-1556055D01*
Y-1560816D01*
X-586826Y-1570338D01*
X-601109Y-1575099D01*
X-615391D01*
X-629674Y-1570338D01*
X-634435Y-1560816D01*
X-508748Y-1522729D02*
X-513508Y-1513207D01*
X-527791Y-1508446D01*
X-542074D01*
X-556357Y-1513207D01*
X-561117Y-1522729D01*
X-556357Y-1532251D01*
X-546835Y-1537012D01*
X-523030Y-1541772D01*
X-513508Y-1546533D01*
X-508748Y-1556055D01*
Y-1560816D01*
X-513508Y-1570338D01*
X-527791Y-1575099D01*
X-542074D01*
X-556357Y-1570338D01*
X-561117Y-1560816D01*
X-430669Y-1508446D02*
Y-1575099D01*
Y-1522729D02*
X-440191Y-1513207D01*
X-449713Y-1508446D01*
X-463996D01*
X-473517Y-1513207D01*
X-483039Y-1522729D01*
X-487800Y-1537012D01*
Y-1546533D01*
X-483039Y-1560816D01*
X-473517Y-1570338D01*
X-463996Y-1575099D01*
X-449713D01*
X-440191Y-1570338D01*
X-430669Y-1560816D01*
X-325454Y-1475120D02*
Y-1575099D01*
Y-1475120D02*
X-282606D01*
X-268323Y-1479881D01*
X-263562Y-1484642D01*
X-258801Y-1494164D01*
Y-1503685D01*
X-263562Y-1513207D01*
X-268323Y-1517968D01*
X-282606Y-1522729D01*
X-325454D02*
X-282606D01*
X-268323Y-1527490D01*
X-263562Y-1532251D01*
X-258801Y-1541772D01*
Y-1556055D01*
X-263562Y-1565577D01*
X-268323Y-1570338D01*
X-282606Y-1575099D01*
X-325454D01*
X-179295Y-1508446D02*
Y-1575099D01*
Y-1522729D02*
X-188816Y-1513207D01*
X-198338Y-1508446D01*
X-212621D01*
X-222143Y-1513207D01*
X-231664Y-1522729D01*
X-236425Y-1537012D01*
Y-1546533D01*
X-231664Y-1560816D01*
X-222143Y-1570338D01*
X-212621Y-1575099D01*
X-198338D01*
X-188816Y-1570338D01*
X-179295Y-1560816D01*
X-152634Y-1475120D02*
Y-1575099D01*
X-107881Y-1508446D02*
X-117403Y-1513207D01*
X-126925Y-1522729D01*
X-131686Y-1537012D01*
Y-1546533D01*
X-126925Y-1560816D01*
X-117403Y-1570338D01*
X-107881Y-1575099D01*
X-93599D01*
X-84077Y-1570338D01*
X-74555Y-1560816D01*
X-69794Y-1546533D01*
Y-1537012D01*
X-74555Y-1522729D01*
X-84077Y-1513207D01*
X-93599Y-1508446D01*
X-107881D01*
X-47894D02*
X-19329Y-1575099D01*
X9236Y-1508446D02*
X-19329Y-1575099D01*
X25423Y-1508446D02*
Y-1575099D01*
Y-1527490D02*
X39706Y-1513207D01*
X49228Y-1508446D01*
X63510D01*
X73032Y-1513207D01*
X77793Y-1527490D01*
Y-1575099D01*
X103978Y-1537012D02*
X161109D01*
Y-1527490D01*
X156348Y-1517968D01*
X151587Y-1513207D01*
X142065Y-1508446D01*
X127782D01*
X118261Y-1513207D01*
X108739Y-1522729D01*
X103978Y-1537012D01*
Y-1546533D01*
X108739Y-1560816D01*
X118261Y-1570338D01*
X127782Y-1575099D01*
X142065D01*
X151587Y-1570338D01*
X161109Y-1560816D01*
X182533Y-1508446D02*
X211098Y-1575099D01*
X239663Y-1508446D02*
X211098Y-1575099D01*
X-833440Y-1681181D02*
Y-1781160D01*
Y-1681181D02*
X-800114D01*
X-785831Y-1685942D01*
X-776309Y-1695464D01*
X-771549Y-1704986D01*
X-766788Y-1719269D01*
Y-1743073D01*
X-771549Y-1757356D01*
X-776309Y-1766877D01*
X-785831Y-1776399D01*
X-800114Y-1781160D01*
X-833440D01*
X-744412Y-1743073D02*
X-687281D01*
Y-1733551D01*
X-692042Y-1724029D01*
X-696803Y-1719269D01*
X-706324Y-1714508D01*
X-720607D01*
X-730129Y-1719269D01*
X-739651Y-1728790D01*
X-744412Y-1743073D01*
Y-1752595D01*
X-739651Y-1766877D01*
X-730129Y-1776399D01*
X-720607Y-1781160D01*
X-706324D01*
X-696803Y-1776399D01*
X-687281Y-1766877D01*
X-613487Y-1728790D02*
X-618248Y-1719269D01*
X-632531Y-1714508D01*
X-646813D01*
X-661096Y-1719269D01*
X-665857Y-1728790D01*
X-661096Y-1738312D01*
X-651574Y-1743073D01*
X-627770Y-1747834D01*
X-618248Y-1752595D01*
X-613487Y-1762116D01*
Y-1766877D01*
X-618248Y-1776399D01*
X-632531Y-1781160D01*
X-646813D01*
X-661096Y-1776399D01*
X-665857Y-1766877D01*
X-583018Y-1681181D02*
X-578257Y-1685942D01*
X-573496Y-1681181D01*
X-578257Y-1676421D01*
X-583018Y-1681181D01*
X-578257Y-1714508D02*
Y-1781160D01*
X-498750Y-1714508D02*
Y-1790682D01*
X-503511Y-1804964D01*
X-508272Y-1809725D01*
X-517793Y-1814486D01*
X-532076D01*
X-541598Y-1809725D01*
X-498750Y-1728790D02*
X-508272Y-1719269D01*
X-517793Y-1714508D01*
X-532076D01*
X-541598Y-1719269D01*
X-551120Y-1728790D01*
X-555881Y-1743073D01*
Y-1752595D01*
X-551120Y-1766877D01*
X-541598Y-1776399D01*
X-532076Y-1781160D01*
X-517793D01*
X-508272Y-1776399D01*
X-498750Y-1766877D01*
X-472089Y-1714508D02*
Y-1781160D01*
Y-1733551D02*
X-457806Y-1719269D01*
X-448285Y-1714508D01*
X-434002D01*
X-424480Y-1719269D01*
X-419719Y-1733551D01*
Y-1781160D01*
X-393534Y-1743073D02*
X-336404D01*
Y-1733551D01*
X-341165Y-1724029D01*
X-345925Y-1719269D01*
X-355447Y-1714508D01*
X-369730D01*
X-379252Y-1719269D01*
X-388773Y-1728790D01*
X-393534Y-1743073D01*
Y-1752595D01*
X-388773Y-1766877D01*
X-379252Y-1776399D01*
X-369730Y-1781160D01*
X-355447D01*
X-345925Y-1776399D01*
X-336404Y-1766877D01*
X-257849Y-1681181D02*
Y-1781160D01*
Y-1728790D02*
X-267371Y-1719269D01*
X-276893Y-1714508D01*
X-291175D01*
X-300697Y-1719269D01*
X-310219Y-1728790D01*
X-314980Y-1743073D01*
Y-1752595D01*
X-310219Y-1766877D01*
X-300697Y-1776399D01*
X-291175Y-1781160D01*
X-276893D01*
X-267371Y-1776399D01*
X-257849Y-1766877D01*
X-152634Y-1681181D02*
Y-1781160D01*
Y-1681181D02*
X-109786D01*
X-95503Y-1685942D01*
X-90742Y-1690703D01*
X-85981Y-1700225D01*
Y-1709747D01*
X-90742Y-1719269D01*
X-95503Y-1724029D01*
X-109786Y-1728790D01*
X-152634D02*
X-109786D01*
X-95503Y-1733551D01*
X-90742Y-1738312D01*
X-85981Y-1747834D01*
Y-1762116D01*
X-90742Y-1771638D01*
X-95503Y-1776399D01*
X-109786Y-1781160D01*
X-152634D01*
X-58844Y-1714508D02*
X-30279Y-1781160D01*
X-1714Y-1714508D02*
X-30279Y-1781160D01*
X-39801Y-1800204D01*
X-49322Y-1809725D01*
X-58844Y-1814486D01*
X-63605D01*
X19710Y-1714508D02*
X14949Y-1719269D01*
X19710Y-1724029D01*
X24471Y-1719269D01*
X19710Y-1714508D01*
Y-1771638D02*
X14949Y-1776399D01*
X19710Y-1781160D01*
X24471Y-1776399D01*
X19710Y-1771638D01*
X-785831Y-1882482D02*
Y-1958656D01*
X-790592Y-1972939D01*
X-795353Y-1977700D01*
X-804875Y-1982461D01*
X-814396D01*
X-823918Y-1977700D01*
X-828679Y-1972939D01*
X-833440Y-1958656D01*
Y-1949134D01*
X-760122Y-1915808D02*
Y-1963417D01*
X-755361Y-1977700D01*
X-745840Y-1982461D01*
X-731557D01*
X-722035Y-1977700D01*
X-707753Y-1963417D01*
Y-1915808D02*
Y-1982461D01*
X-624437Y-1882482D02*
Y-1982461D01*
Y-1930091D02*
X-633959Y-1920569D01*
X-643481Y-1915808D01*
X-657763D01*
X-667285Y-1920569D01*
X-676807Y-1930091D01*
X-681568Y-1944374D01*
Y-1953895D01*
X-676807Y-1968178D01*
X-667285Y-1977700D01*
X-657763Y-1982461D01*
X-643481D01*
X-633959Y-1977700D01*
X-624437Y-1968178D01*
X-540646Y-1882482D02*
Y-1982461D01*
Y-1930091D02*
X-550167Y-1920569D01*
X-559689Y-1915808D01*
X-573972D01*
X-583494Y-1920569D01*
X-593015Y-1930091D01*
X-597776Y-1944374D01*
Y-1953895D01*
X-593015Y-1968178D01*
X-583494Y-1977700D01*
X-573972Y-1982461D01*
X-559689D01*
X-550167Y-1977700D01*
X-540646Y-1968178D01*
X-435430Y-1882482D02*
Y-1982461D01*
Y-1882482D02*
X-373539D01*
X-435430Y-1930091D02*
X-397343D01*
X-338308Y-1915808D02*
X-347830Y-1920569D01*
X-357352Y-1930091D01*
X-362113Y-1944374D01*
Y-1953895D01*
X-357352Y-1968178D01*
X-347830Y-1977700D01*
X-338308Y-1982461D01*
X-324026D01*
X-314504Y-1977700D01*
X-304982Y-1968178D01*
X-300221Y-1953895D01*
Y-1944374D01*
X-304982Y-1930091D01*
X-314504Y-1920569D01*
X-324026Y-1915808D01*
X-338308D01*
X-225951Y-1930091D02*
X-230712Y-1920569D01*
X-244995Y-1915808D01*
X-259277D01*
X-273560Y-1920569D01*
X-278321Y-1930091D01*
X-273560Y-1939613D01*
X-264038Y-1944374D01*
X-240234Y-1949134D01*
X-230712Y-1953895D01*
X-225951Y-1963417D01*
Y-1968178D01*
X-230712Y-1977700D01*
X-244995Y-1982461D01*
X-259277D01*
X-273560Y-1977700D01*
X-278321Y-1968178D01*
X-190721Y-1882482D02*
Y-1963417D01*
X-185960Y-1977700D01*
X-176438Y-1982461D01*
X-166916D01*
X-205003Y-1915808D02*
X-171677D01*
X-152634Y-1944374D02*
X-95503D01*
Y-1934852D01*
X-100264Y-1925330D01*
X-105025Y-1920569D01*
X-114547Y-1915808D01*
X-128829D01*
X-138351Y-1920569D01*
X-147873Y-1930091D01*
X-152634Y-1944374D01*
Y-1953895D01*
X-147873Y-1968178D01*
X-138351Y-1977700D01*
X-128829Y-1982461D01*
X-114547D01*
X-105025Y-1977700D01*
X-95503Y-1968178D01*
X-74079Y-1915808D02*
Y-1982461D01*
Y-1944374D02*
X-69318Y-1930091D01*
X-59796Y-1920569D01*
X-50275Y-1915808D01*
X-35992D01*
X-446429Y-313231D02*
X-508320D01*
Y-413209D01*
X-446429D01*
X-508320Y-360840D02*
X-470233D01*
X-363113Y-327513D02*
X-372635Y-317991D01*
X-386917Y-313231D01*
X-405961D01*
X-420244Y-317991D01*
X-429765Y-327513D01*
Y-337035D01*
X-425004Y-346557D01*
X-420244Y-351318D01*
X-410722Y-356079D01*
X-382156Y-365600D01*
X-372635Y-370361D01*
X-367874Y-375122D01*
X-363113Y-384644D01*
Y-398927D01*
X-372635Y-408448D01*
X-386917Y-413209D01*
X-405961D01*
X-420244Y-408448D01*
X-429765Y-398927D01*
X-340737Y-365600D02*
X-297889D01*
X-283606Y-360840D01*
X-278846Y-356079D01*
X-274085Y-346557D01*
Y-332274D01*
X-278846Y-322752D01*
X-283606Y-317991D01*
X-297889Y-313231D01*
X-340737D01*
Y-413209D01*
X-251708Y-370361D02*
X-166012D01*
X-136495Y-313231D02*
X-112691Y-413209D01*
X-88886Y-313231D02*
X-112691Y-413209D01*
X-88886Y-313231D02*
X-65082Y-413209D01*
X-41277Y-313231D02*
X-65082Y-413209D01*
X-21282Y-313231D02*
Y-413209D01*
Y-313231D02*
X21566D01*
X35849Y-317991D01*
X40610Y-322752D01*
X45371Y-332274D01*
Y-341796D01*
X40610Y-351318D01*
X35849Y-356079D01*
X21566Y-360840D01*
X-21282D01*
X12045D02*
X45371Y-413209D01*
X96312Y-313231D02*
X86791Y-317991D01*
X77269Y-327513D01*
X72508Y-337035D01*
X67747Y-351318D01*
Y-375122D01*
X72508Y-389405D01*
X77269Y-398927D01*
X86791Y-408448D01*
X96312Y-413209D01*
X115356D01*
X124878Y-408448D01*
X134399Y-398927D01*
X139160Y-389405D01*
X143921Y-375122D01*
Y-351318D01*
X139160Y-337035D01*
X134399Y-327513D01*
X124878Y-317991D01*
X115356Y-313231D01*
X96312D01*
X195815D02*
X186293Y-317991D01*
X176771Y-327513D01*
X172010Y-337035D01*
X167249Y-351318D01*
Y-375122D01*
X172010Y-389405D01*
X176771Y-398927D01*
X186293Y-408448D01*
X195815Y-413209D01*
X214858D01*
X224380Y-408448D01*
X233902Y-398927D01*
X238663Y-389405D01*
X243423Y-375122D01*
Y-351318D01*
X238663Y-337035D01*
X233902Y-327513D01*
X224380Y-317991D01*
X214858Y-313231D01*
X195815D01*
X266752D02*
Y-413209D01*
Y-313231D02*
X304839Y-413209D01*
X342926Y-313231D02*
X304839Y-413209D01*
X342926Y-313231D02*
Y-413209D01*
X371491Y-370361D02*
X457187D01*
X515270Y-313231D02*
X500987Y-317991D01*
X491466Y-332274D01*
X486705Y-356079D01*
Y-370361D01*
X491466Y-394166D01*
X500987Y-408448D01*
X515270Y-413209D01*
X524792D01*
X539074Y-408448D01*
X548596Y-394166D01*
X553357Y-370361D01*
Y-356079D01*
X548596Y-332274D01*
X539074Y-317991D01*
X524792Y-313231D01*
X515270D01*
X580494Y-337035D02*
Y-332274D01*
X585255Y-322752D01*
X590016Y-317991D01*
X599538Y-313231D01*
X618581D01*
X628103Y-317991D01*
X632864Y-322752D01*
X637625Y-332274D01*
Y-341796D01*
X632864Y-351318D01*
X623342Y-365600D01*
X575733Y-413209D01*
X642386D01*
X664762Y-313231D02*
Y-384644D01*
X669523Y-398927D01*
X679044Y-408448D01*
X693327Y-413209D01*
X702849D01*
X717131Y-408448D01*
X726653Y-398927D01*
X731414Y-384644D01*
Y-313231D01*
D69*
X-828440Y-1009596D02*
Y-1159564D01*
Y-1009596D02*
X-764168D01*
X-742745Y-1016737D01*
X-735603Y-1023878D01*
X-728462Y-1038161D01*
Y-1052444D01*
X-735603Y-1066726D01*
X-742745Y-1073868D01*
X-764168Y-1081009D01*
X-828440D01*
X-778451D02*
X-728462Y-1159564D01*
X-694898Y-1102433D02*
X-609202D01*
Y-1088150D01*
X-616343Y-1073868D01*
X-623484Y-1066726D01*
X-637767Y-1059585D01*
X-659191D01*
X-673474Y-1066726D01*
X-687756Y-1081009D01*
X-694898Y-1102433D01*
Y-1116716D01*
X-687756Y-1138140D01*
X-673474Y-1152422D01*
X-659191Y-1159564D01*
X-637767D01*
X-623484Y-1152422D01*
X-609202Y-1138140D01*
X-577066Y-1059585D02*
X-534218Y-1159564D01*
X-491370Y-1059585D02*
X-534218Y-1159564D01*
X-459948Y-1145281D02*
X-467089Y-1152422D01*
X-459948Y-1159564D01*
X-452807Y-1152422D01*
X-459948Y-1145281D01*
X-302125Y-1009596D02*
Y-1159564D01*
Y-1009596D02*
X-237853D01*
X-216429Y-1016737D01*
X-209287Y-1023878D01*
X-202146Y-1038161D01*
Y-1052444D01*
X-209287Y-1066726D01*
X-216429Y-1073868D01*
X-237853Y-1081009D01*
X-302125D02*
X-237853D01*
X-216429Y-1088150D01*
X-209287Y-1095292D01*
X-202146Y-1109574D01*
Y-1130998D01*
X-209287Y-1145281D01*
X-216429Y-1152422D01*
X-237853Y-1159564D01*
X-302125D01*
X-354603Y468684D02*
X-447440D01*
Y318716D01*
X-354603D01*
X-447440Y397271D02*
X-390310D01*
X-229630Y447260D02*
X-243913Y461543D01*
X-265337Y468684D01*
X-293902D01*
X-315326Y461543D01*
X-329608Y447260D01*
Y432977D01*
X-322467Y418695D01*
X-315326Y411553D01*
X-301043Y404412D01*
X-258195Y390130D01*
X-243913Y382988D01*
X-236771Y375847D01*
X-229630Y361564D01*
Y340140D01*
X-243913Y325857D01*
X-265337Y318716D01*
X-293902D01*
X-315326Y325857D01*
X-329608Y340140D01*
X-196066Y390130D02*
X-131794D01*
X-110370Y397271D01*
X-103228Y404412D01*
X-96087Y418695D01*
Y440119D01*
X-103228Y454401D01*
X-110370Y461543D01*
X-131794Y468684D01*
X-196066D01*
Y318716D01*
X-62523Y468684D02*
Y318716D01*
Y468684D02*
X1749D01*
X23173Y461543D01*
X30314Y454401D01*
X37456Y440119D01*
Y425836D01*
X30314Y411553D01*
X23173Y404412D01*
X1749Y397271D01*
X-62523D01*
X-12534D02*
X37456Y318716D01*
X163857Y468684D02*
X71020D01*
Y318716D01*
X163857D01*
X71020Y397271D02*
X128151D01*
X288830Y447260D02*
X274548Y461543D01*
X253124Y468684D01*
X224558D01*
X203134Y461543D01*
X188852Y447260D01*
Y432977D01*
X195993Y418695D01*
X203134Y411553D01*
X217417Y404412D01*
X260265Y390130D01*
X274548Y382988D01*
X281689Y375847D01*
X288830Y361564D01*
Y340140D01*
X274548Y325857D01*
X253124Y318716D01*
X224558D01*
X203134Y325857D01*
X188852Y340140D01*
X422373Y447260D02*
X408090Y461543D01*
X386666Y468684D01*
X358101D01*
X336677Y461543D01*
X322395Y447260D01*
Y432977D01*
X329536Y418695D01*
X336677Y411553D01*
X350960Y404412D01*
X393808Y390130D01*
X408090Y382988D01*
X415232Y375847D01*
X422373Y361564D01*
Y340140D01*
X408090Y325857D01*
X386666Y318716D01*
X358101D01*
X336677Y325857D01*
X322395Y340140D01*
X455937Y468684D02*
Y318716D01*
X487359Y468684D02*
Y318716D01*
Y468684D02*
X580196D01*
X487359Y397271D02*
X544490D01*
%TF.MD5,e3f5dd98efb873f96262acec7baa3f5b*%
M02*
