%TF.GenerationSoftware,Altium Limited,Altium Designer,21.6.4 (81)*%
G04 Layer_Physical_Order=2*
G04 Layer_Color=16776960*
%FSLAX45Y45*%
%MOMM*%
%TF.SameCoordinates,213DF370-AA75-4346-93E6-04E6A5F56B15*%
%TF.FilePolarity,Positive*%
%TF.FileFunction,Copper,L2,Bot,Signal*%
%TF.Part,Single*%
G01*
G75*
%TA.AperFunction,Conductor*%
%ADD46C,0.50000*%
%TA.AperFunction,ComponentPad*%
G04:AMPARAMS|DCode=47|XSize=0.9mm|YSize=1.6mm|CornerRadius=0.45mm|HoleSize=0mm|Usage=FLASHONLY|Rotation=180.000|XOffset=0mm|YOffset=0mm|HoleType=Round|Shape=RoundedRectangle|*
%AMROUNDEDRECTD47*
21,1,0.90000,0.70000,0,0,180.0*
21,1,0.00000,1.60000,0,0,180.0*
1,1,0.90000,0.00000,0.35000*
1,1,0.90000,0.00000,0.35000*
1,1,0.90000,0.00000,-0.35000*
1,1,0.90000,0.00000,-0.35000*
%
%ADD47ROUNDEDRECTD47*%
%ADD48R,1.50000X2.20000*%
%ADD49O,1.50000X2.20000*%
%ADD50R,4.00000X4.00000*%
%ADD51O,2.20000X1.50000*%
%ADD52R,2.20000X1.50000*%
%ADD53C,5.00000*%
%TA.AperFunction,ViaPad*%
%ADD54C,0.72000*%
%TA.AperFunction,ConnectorPad*%
%ADD55R,1.90000X1.65100*%
%ADD56R,0.40000X1.35000*%
%TA.AperFunction,Conductor*%
%ADD57C,0.25400*%
G36*
X205398Y4180979D02*
X410302Y4165864D01*
X614217Y4140714D01*
X816652Y4105588D01*
X1017120Y4060571D01*
X1215138Y4005772D01*
X1410228Y3941323D01*
X1601921Y3867379D01*
X1789755Y3784118D01*
X1973276Y3691741D01*
X2152045Y3590470D01*
X2325629Y3480549D01*
X2493610Y3362243D01*
X2655583Y3235838D01*
X2811160Y3101637D01*
X2959964Y2959964D01*
X3101637Y2811160D01*
X3235838Y2655583D01*
X3362243Y2493610D01*
X3480549Y2325629D01*
X3590470Y2152045D01*
X3691741Y1973276D01*
X3784118Y1789755D01*
X3867379Y1601921D01*
X3941323Y1410228D01*
X4005772Y1215138D01*
X4060571Y1017120D01*
X4105588Y816652D01*
X4140714Y614217D01*
X4165864Y410302D01*
X4180979Y205398D01*
X4186021Y0D01*
X4180979Y-205398D01*
X4165864Y-410302D01*
X4140714Y-614217D01*
X4105588Y-816652D01*
X4060571Y-1017120D01*
X4005772Y-1215138D01*
X3941323Y-1410228D01*
X3867379Y-1601921D01*
X3784118Y-1789755D01*
X3691741Y-1973276D01*
X3590470Y-2152045D01*
X3480549Y-2325629D01*
X3362243Y-2493610D01*
X3235838Y-2655583D01*
X3101637Y-2811160D01*
X2959964Y-2959964D01*
X2811160Y-3101637D01*
X2655583Y-3235838D01*
X2493610Y-3362243D01*
X2325629Y-3480549D01*
X2152045Y-3590470D01*
X1973276Y-3691741D01*
X1789755Y-3784118D01*
X1601921Y-3867379D01*
X1410228Y-3941323D01*
X1215138Y-4005772D01*
X1017120Y-4060571D01*
X816652Y-4105588D01*
X614217Y-4140714D01*
X410302Y-4165864D01*
X205398Y-4180979D01*
X0Y-4186021D01*
X-205398Y-4180979D01*
X-410302Y-4165864D01*
X-614217Y-4140714D01*
X-816652Y-4105588D01*
X-1017120Y-4060571D01*
X-1215138Y-4005772D01*
X-1410228Y-3941323D01*
X-1601921Y-3867379D01*
X-1789755Y-3784118D01*
X-1973276Y-3691741D01*
X-2152045Y-3590470D01*
X-2325629Y-3480549D01*
X-2493610Y-3362243D01*
X-2655583Y-3235838D01*
X-2811160Y-3101637D01*
X-2959964Y-2959964D01*
X-3101637Y-2811160D01*
X-3235838Y-2655583D01*
X-3362243Y-2493610D01*
X-3480549Y-2325629D01*
X-3590470Y-2152045D01*
X-3691741Y-1973276D01*
X-3784118Y-1789755D01*
X-3867379Y-1601921D01*
X-3941323Y-1410228D01*
X-4005772Y-1215138D01*
X-4060571Y-1017120D01*
X-4105588Y-816652D01*
X-4140714Y-614217D01*
X-4165864Y-410302D01*
X-4180979Y-205398D01*
X-4186021Y0D01*
X-4180979Y205398D01*
X-4165864Y410302D01*
X-4140714Y614217D01*
X-4105588Y816652D01*
X-4060571Y1017120D01*
X-4005772Y1215138D01*
X-3941323Y1410228D01*
X-3867379Y1601921D01*
X-3784118Y1789755D01*
X-3691741Y1973276D01*
X-3590470Y2152045D01*
X-3480549Y2325629D01*
X-3362243Y2493610D01*
X-3235838Y2655583D01*
X-3101637Y2811160D01*
X-2959964Y2959964D01*
X-2811160Y3101637D01*
X-2655583Y3235838D01*
X-2493610Y3362243D01*
X-2325629Y3480549D01*
X-2152045Y3590470D01*
X-1973276Y3691741D01*
X-1789755Y3784118D01*
X-1601921Y3867379D01*
X-1410228Y3941323D01*
X-1215138Y4005772D01*
X-1017120Y4060571D01*
X-816652Y4105588D01*
X-614217Y4140714D01*
X-410302Y4165864D01*
X-205398Y4180979D01*
X0Y4186021D01*
X205398Y4180979D01*
D02*
G37*
%LPC*%
G36*
X21675Y4025397D02*
X12700D01*
Y3762698D01*
X275400D01*
Y3771671D01*
X268619Y3814486D01*
X255223Y3855713D01*
X235543Y3894338D01*
X210063Y3929408D01*
X179411Y3960060D01*
X144341Y3985540D01*
X105717Y4005220D01*
X64490Y4018615D01*
X21675Y4025397D01*
D02*
G37*
G36*
X-12700D02*
X-21675D01*
X-64490Y4018615D01*
X-105717Y4005220D01*
X-144341Y3985540D01*
X-179411Y3960060D01*
X-210063Y3929408D01*
X-235543Y3894338D01*
X-255223Y3855713D01*
X-268619Y3814486D01*
X-275400Y3771671D01*
Y3762698D01*
X-12700D01*
Y4025397D01*
D02*
G37*
G36*
X275400Y3737298D02*
X12700D01*
Y3474597D01*
X21675D01*
X64490Y3481378D01*
X105717Y3494773D01*
X144341Y3514453D01*
X179411Y3539933D01*
X210063Y3570585D01*
X235543Y3605655D01*
X255223Y3644280D01*
X268619Y3685507D01*
X275400Y3728322D01*
Y3737298D01*
D02*
G37*
G36*
X-12700D02*
X-275400D01*
Y3728322D01*
X-268619Y3685507D01*
X-255223Y3644280D01*
X-235543Y3605655D01*
X-210063Y3570585D01*
X-179411Y3539933D01*
X-144341Y3514453D01*
X-105717Y3494773D01*
X-64490Y3481378D01*
X-21675Y3474597D01*
X-12700D01*
Y3737298D01*
D02*
G37*
G36*
X-521820Y2805053D02*
X-541194D01*
X-559093Y2797639D01*
X-569436Y2787296D01*
X-633283Y2774596D01*
X-787860Y2734723D01*
X-939958Y2686245D01*
X-1089098Y2629315D01*
X-1215327Y2572831D01*
X-1217106Y2573568D01*
X-1236480D01*
X-1254380Y2566154D01*
X-1268079Y2552455D01*
X-1270993Y2545421D01*
X-1376640Y2490842D01*
X-1514137Y2409735D01*
X-1646870Y2321046D01*
X-1774421Y2225053D01*
X-1839596Y2170018D01*
X-1848162D01*
X-1866062Y2162604D01*
X-1879761Y2148904D01*
X-1887175Y2131005D01*
Y2129841D01*
X-1896389Y2122061D01*
X-2012391Y2012391D01*
X-2122061Y1896389D01*
X-2225053Y1774421D01*
X-2321046Y1646870D01*
X-2338941Y1620087D01*
X-2352455Y1614489D01*
X-2366154Y1600790D01*
X-2373568Y1582891D01*
Y1568264D01*
X-2409735Y1514137D01*
X-2490842Y1376640D01*
X-2564112Y1234812D01*
X-2629315Y1089098D01*
X-2678632Y959901D01*
X-2680412Y959163D01*
X-2694111Y945464D01*
X-2701525Y927565D01*
Y908191D01*
X-2698612Y901157D01*
X-2734723Y787860D01*
X-2774596Y633283D01*
X-2805740Y476714D01*
X-2828055Y318645D01*
X-2835225Y233647D01*
X-2841286Y227586D01*
X-2848700Y209687D01*
Y190313D01*
X-2841286Y172414D01*
X-2840459Y171588D01*
X-2841473Y159574D01*
X-2845950Y0D01*
X-2841473Y-159574D01*
X-2828055Y-318645D01*
X-2805740Y-476714D01*
X-2799455Y-508307D01*
X-2805053Y-521820D01*
Y-541194D01*
X-2797639Y-559093D01*
X-2787296Y-569436D01*
X-2774596Y-633283D01*
X-2734723Y-787860D01*
X-2686245Y-939958D01*
X-2629315Y-1089098D01*
X-2564112Y-1234812D01*
X-2559550Y-1243644D01*
X-2543336Y-1275028D01*
X-2490842Y-1376640D01*
X-2409735Y-1514137D01*
X-2321046Y-1646870D01*
X-2225053Y-1774421D01*
X-2170018Y-1839596D01*
Y-1848162D01*
X-2162604Y-1866062D01*
X-2148904Y-1879761D01*
X-2131005Y-1887175D01*
X-2129841D01*
X-2122061Y-1896389D01*
X-2012391Y-2012391D01*
X-1896389Y-2122061D01*
X-1774421Y-2225053D01*
X-1646870Y-2321046D01*
X-1620087Y-2338941D01*
X-1614489Y-2352455D01*
X-1600790Y-2366154D01*
X-1582891Y-2373568D01*
X-1568264D01*
X-1514137Y-2409735D01*
X-1376640Y-2490842D01*
X-1234812Y-2564112D01*
X-1089098Y-2629315D01*
X-959901Y-2678632D01*
X-959163Y-2680412D01*
X-945464Y-2694111D01*
X-927565Y-2701525D01*
X-908191D01*
X-901157Y-2698612D01*
X-787860Y-2734723D01*
X-633283Y-2774596D01*
X-476714Y-2805740D01*
X-318645Y-2828055D01*
X-233644Y-2835225D01*
X-227586Y-2841283D01*
X-209687Y-2848697D01*
X-190313D01*
X-172414Y-2841283D01*
X-171591Y-2840459D01*
X-159574Y-2841473D01*
X0Y-2845950D01*
X159574Y-2841473D01*
X318645Y-2828055D01*
X476714Y-2805740D01*
X508307Y-2799455D01*
X521820Y-2805053D01*
X541194D01*
X559093Y-2797639D01*
X569436Y-2787296D01*
X633283Y-2774596D01*
X787860Y-2734723D01*
X939958Y-2686245D01*
X1089098Y-2629315D01*
X1215327Y-2572831D01*
X1217106Y-2573568D01*
X1236480D01*
X1254380Y-2566154D01*
X1268079Y-2552455D01*
X1270993Y-2545421D01*
X1376640Y-2490842D01*
X1514137Y-2409735D01*
X1646870Y-2321046D01*
X1774421Y-2225053D01*
X1839596Y-2170018D01*
X1848162D01*
X1866062Y-2162604D01*
X1879761Y-2148904D01*
X1887175Y-2131005D01*
Y-2129841D01*
X1896389Y-2122061D01*
X2012391Y-2012391D01*
X2122061Y-1896389D01*
X2225053Y-1774421D01*
X2321046Y-1646870D01*
X2356132Y-1594359D01*
X2409735Y-1514137D01*
X2490842Y-1376640D01*
X2564112Y-1234812D01*
X2629315Y-1089098D01*
X2678632Y-959901D01*
X2680412Y-959163D01*
X2694111Y-945464D01*
X2701525Y-927565D01*
Y-908191D01*
X2698612Y-901157D01*
X2734723Y-787860D01*
X2774596Y-633283D01*
X2805740Y-476714D01*
X2828055Y-318645D01*
X2835225Y-233647D01*
X2841286Y-227586D01*
X2848700Y-209687D01*
Y-190313D01*
X2841286Y-172414D01*
X2840459Y-171588D01*
X2841473Y-159574D01*
X2845950Y0D01*
X2841473Y159574D01*
X2828055Y318645D01*
X2805740Y476714D01*
X2799455Y508307D01*
X2805053Y521820D01*
Y541194D01*
X2797639Y559093D01*
X2787296Y569436D01*
X2774596Y633283D01*
X2734723Y787860D01*
X2686245Y939958D01*
X2629315Y1089098D01*
X2572831Y1215327D01*
X2573568Y1217106D01*
Y1236480D01*
X2566154Y1254380D01*
X2552455Y1268079D01*
X2545421Y1270993D01*
X2490842Y1376640D01*
X2409735Y1514137D01*
X2321046Y1646870D01*
X2225053Y1774421D01*
X2170018Y1839596D01*
Y1848162D01*
X2162604Y1866062D01*
X2148904Y1879761D01*
X2131005Y1887175D01*
X2129841D01*
X2122061Y1896389D01*
X2012391Y2012391D01*
X1896389Y2122061D01*
X1774421Y2225053D01*
X1646870Y2321046D01*
X1620087Y2338941D01*
X1614489Y2352455D01*
X1600790Y2366154D01*
X1582891Y2373568D01*
X1568264D01*
X1514137Y2409735D01*
X1376640Y2490842D01*
X1234812Y2564112D01*
X1089098Y2629315D01*
X959901Y2678632D01*
X959164Y2680412D01*
X945464Y2694111D01*
X927565Y2701525D01*
X908191D01*
X890292Y2694111D01*
X876592Y2680412D01*
X869178Y2662513D01*
Y2643138D01*
X872394Y2635375D01*
X851346Y2606589D01*
X847419Y2603688D01*
X814845Y2614929D01*
X739842Y2635838D01*
X726397Y2649282D01*
X708498Y2656696D01*
X689124D01*
X671225Y2649282D01*
X657525Y2635583D01*
X650111Y2617684D01*
Y2604567D01*
X646503Y2597048D01*
X638800Y2588833D01*
X619497Y2572659D01*
X517156Y2594628D01*
X507330Y2604454D01*
X489431Y2611869D01*
X470056D01*
X452157Y2604454D01*
X438458Y2590755D01*
X431044Y2572856D01*
Y2553482D01*
X438458Y2535582D01*
X452157Y2521883D01*
X470056Y2514469D01*
X489431D01*
X501665Y2519536D01*
X615013Y2495205D01*
X764547Y2453519D01*
X911292Y2402881D01*
X1054712Y2343474D01*
X1083223Y2329592D01*
X1085507Y2324077D01*
X1099207Y2310378D01*
X1117106Y2302964D01*
X1136480D01*
X1137254Y2303284D01*
X1194283Y2275517D01*
X1329497Y2199256D01*
X1459859Y2114971D01*
X1584894Y2022968D01*
X1648436Y1970012D01*
X1655768Y1952311D01*
X1669468Y1938612D01*
X1687367Y1931198D01*
X1695010D01*
X1704146Y1923584D01*
X1817180Y1817180D01*
X1923584Y1704146D01*
X2022968Y1584894D01*
X2102964Y1476177D01*
Y1463517D01*
X2110378Y1445618D01*
X2124077Y1431919D01*
X2136312Y1426851D01*
X2199256Y1329497D01*
X2275517Y1194283D01*
X2343474Y1054712D01*
X2402881Y911292D01*
X2413225Y881316D01*
X2410941Y875802D01*
Y856428D01*
X2418355Y838528D01*
X2432054Y824829D01*
X2432828Y824509D01*
X2453519Y764547D01*
X2495205Y615013D01*
X2527786Y463234D01*
X2551144Y309765D01*
X2558630Y227382D01*
X2551300Y209688D01*
Y190314D01*
X2558715Y172414D01*
X2564116Y167013D01*
X2565192Y155166D01*
X2569881Y0D01*
X2565192Y-155166D01*
X2551144Y-309765D01*
X2530834Y-443205D01*
X2521882Y-452157D01*
X2514468Y-470056D01*
Y-489431D01*
X2519536Y-501666D01*
X2495205Y-615013D01*
X2453519Y-764547D01*
X2402881Y-911292D01*
X2343474Y-1054712D01*
X2316566Y-1109976D01*
D01*
X2299931Y-1144142D01*
X2275517Y-1194283D01*
X2199256Y-1329497D01*
X2114971Y-1459859D01*
X2022968Y-1584894D01*
X1970012Y-1648436D01*
X1952311Y-1655768D01*
X1938611Y-1669468D01*
X1931197Y-1687367D01*
Y-1695011D01*
X1923584Y-1704146D01*
X1817180Y-1817180D01*
X1704146Y-1923584D01*
X1584894Y-2022968D01*
X1476177Y-2102964D01*
X1463517D01*
X1445618Y-2110378D01*
X1431918Y-2124077D01*
X1426850Y-2136312D01*
X1329497Y-2199256D01*
X1194283Y-2275517D01*
X1054712Y-2343474D01*
X911292Y-2402881D01*
X881316Y-2413225D01*
X875801Y-2410940D01*
X856427D01*
X838528Y-2418355D01*
X824829Y-2432054D01*
X824508Y-2432828D01*
X764547Y-2453519D01*
X615013Y-2495205D01*
X463234Y-2527786D01*
X309765Y-2551144D01*
X227388Y-2558629D01*
X209687Y-2551297D01*
X190313D01*
X172414Y-2558712D01*
X167009Y-2564116D01*
X155166Y-2565192D01*
X0Y-2569881D01*
X-155166Y-2565192D01*
X-309765Y-2551144D01*
X-443206Y-2530834D01*
X-452157Y-2521883D01*
X-470056Y-2514468D01*
X-489431D01*
X-501665Y-2519536D01*
X-615013Y-2495205D01*
X-764547Y-2453519D01*
X-911292Y-2402881D01*
X-1054712Y-2343474D01*
X-1083223Y-2329592D01*
X-1085507Y-2324077D01*
X-1099207Y-2310378D01*
X-1117106Y-2302964D01*
X-1136480D01*
X-1137254Y-2303284D01*
X-1194283Y-2275517D01*
X-1329497Y-2199256D01*
X-1459859Y-2114971D01*
X-1584894Y-2022968D01*
X-1648436Y-1970013D01*
X-1655768Y-1952311D01*
X-1669468Y-1938611D01*
X-1687367Y-1931197D01*
X-1695011D01*
X-1704146Y-1923584D01*
X-1817180Y-1817180D01*
X-1923584Y-1704146D01*
X-2022968Y-1584894D01*
X-2114971Y-1459859D01*
X-2120249Y-1451695D01*
X-2199256Y-1329497D01*
X-2275517Y-1194283D01*
X-2343474Y-1054712D01*
X-2402881Y-911292D01*
X-2413225Y-881316D01*
X-2410940Y-875801D01*
Y-856427D01*
X-2418355Y-838528D01*
X-2432054Y-824828D01*
X-2432828Y-824508D01*
X-2453519Y-764547D01*
X-2495205Y-615013D01*
X-2527786Y-463234D01*
X-2551144Y-309765D01*
X-2558630Y-227382D01*
X-2551301Y-209687D01*
Y-190313D01*
X-2558715Y-172414D01*
X-2564116Y-167013D01*
X-2565192Y-155166D01*
X-2569881Y0D01*
X-2565192Y155166D01*
X-2551144Y309765D01*
X-2530834Y443206D01*
X-2521883Y452157D01*
X-2514469Y470056D01*
Y489431D01*
X-2519536Y501665D01*
X-2495205Y615013D01*
X-2453519Y764547D01*
X-2402881Y911292D01*
X-2343474Y1054712D01*
X-2329592Y1083224D01*
X-2324078Y1085508D01*
X-2310378Y1099207D01*
X-2302964Y1117106D01*
Y1136481D01*
X-2303284Y1137254D01*
X-2275517Y1194283D01*
X-2199256Y1329497D01*
X-2114971Y1459859D01*
X-2022968Y1584894D01*
X-1970012Y1648437D01*
X-1952311Y1655769D01*
X-1938612Y1669468D01*
X-1931198Y1687367D01*
Y1695010D01*
X-1923584Y1704146D01*
X-1817180Y1817180D01*
X-1704146Y1923584D01*
X-1584894Y2022968D01*
X-1476177Y2102964D01*
X-1463517D01*
X-1445618Y2110378D01*
X-1431919Y2124078D01*
X-1426851Y2136312D01*
X-1329497Y2199256D01*
X-1194283Y2275517D01*
X-1054712Y2343474D01*
X-911292Y2402881D01*
X-881316Y2413225D01*
X-875802Y2410941D01*
X-856428D01*
X-838528Y2418355D01*
X-824829Y2432055D01*
X-817415Y2449954D01*
Y2469328D01*
X-824829Y2487227D01*
X-826944Y2489342D01*
X-821162Y2529968D01*
X-819900Y2532078D01*
X-792025Y2541697D01*
X-716702Y2562695D01*
X-708498Y2559297D01*
X-689124D01*
X-671224Y2566711D01*
X-657525Y2580410D01*
X-650111Y2598310D01*
Y2617684D01*
X-657525Y2635583D01*
X-669470Y2647528D01*
X-669664Y2659981D01*
X-665554Y2688173D01*
X-662767Y2688950D01*
X-552951Y2712523D01*
X-541194Y2707653D01*
X-521820D01*
X-503921Y2715067D01*
X-490222Y2728767D01*
X-482807Y2746666D01*
Y2766040D01*
X-490222Y2783939D01*
X-503921Y2797639D01*
X-521820Y2805053D01*
D02*
G37*
G36*
X-1552499Y1894506D02*
X-1574800D01*
Y1805941D01*
X-1452905D01*
X-1454684Y1819450D01*
X-1464800Y1843873D01*
X-1480893Y1864846D01*
X-1501866Y1880939D01*
X-1526290Y1891056D01*
X-1552499Y1894506D01*
D02*
G37*
G36*
X-1600200D02*
X-1622500D01*
X-1648709Y1891056D01*
X-1673133Y1880939D01*
X-1694106Y1864846D01*
X-1710199Y1843873D01*
X-1720315Y1819450D01*
X-1722094Y1805941D01*
X-1600200D01*
Y1894506D01*
D02*
G37*
G36*
X-1452905Y1780541D02*
X-1574800D01*
Y1691974D01*
X-1552499D01*
X-1526290Y1695424D01*
X-1501866Y1705541D01*
X-1480893Y1721634D01*
X-1464800Y1742607D01*
X-1454684Y1767030D01*
X-1452905Y1780541D01*
D02*
G37*
G36*
X-1600200D02*
X-1722094D01*
X-1720315Y1767030D01*
X-1710199Y1742607D01*
X-1694106Y1721634D01*
X-1673133Y1705541D01*
X-1648709Y1695424D01*
X-1622500Y1691974D01*
X-1600200D01*
Y1780541D01*
D02*
G37*
G36*
X-1552500Y1627697D02*
X-1622500D01*
X-1645394Y1624683D01*
X-1666728Y1615846D01*
X-1685048Y1601789D01*
X-1699106Y1583469D01*
X-1707943Y1562135D01*
X-1710957Y1539241D01*
X-1707943Y1516346D01*
X-1699106Y1495012D01*
X-1685048Y1476692D01*
X-1666728Y1462635D01*
X-1645394Y1453798D01*
X-1622500Y1450784D01*
X-1552500D01*
X-1529606Y1453798D01*
X-1508272Y1462635D01*
X-1489952Y1476692D01*
X-1475894Y1495012D01*
X-1467057Y1516346D01*
X-1464043Y1539241D01*
X-1467057Y1562135D01*
X-1475894Y1583469D01*
X-1489952Y1601789D01*
X-1508272Y1615846D01*
X-1529606Y1624683D01*
X-1552500Y1627697D01*
D02*
G37*
G36*
Y1373697D02*
X-1622500D01*
X-1645394Y1370683D01*
X-1666728Y1361846D01*
X-1685048Y1347788D01*
X-1699106Y1329468D01*
X-1707943Y1308134D01*
X-1710957Y1285240D01*
X-1707943Y1262346D01*
X-1699106Y1241012D01*
X-1685048Y1222692D01*
X-1666728Y1208634D01*
X-1645394Y1199797D01*
X-1622500Y1196783D01*
X-1552500D01*
X-1529606Y1199797D01*
X-1508272Y1208634D01*
X-1489952Y1222692D01*
X-1475894Y1241012D01*
X-1467057Y1262346D01*
X-1464043Y1285240D01*
X-1467057Y1308134D01*
X-1475894Y1329468D01*
X-1489952Y1347788D01*
X-1508272Y1361846D01*
X-1529606Y1370683D01*
X-1552500Y1373697D01*
D02*
G37*
G36*
X-1464800Y1118940D02*
X-1710200D01*
Y943540D01*
X-1464800D01*
Y1118940D01*
D02*
G37*
G36*
X225400Y225400D02*
X12700D01*
Y12700D01*
X225400D01*
Y225400D01*
D02*
G37*
G36*
X-12700D02*
X-225400D01*
Y12700D01*
X-12700D01*
Y225400D01*
D02*
G37*
G36*
X225400Y-12700D02*
X12700D01*
Y-225400D01*
X225400D01*
Y-12700D01*
D02*
G37*
G36*
X-12700D02*
X-225400D01*
Y-225400D01*
X-12700D01*
Y-12700D01*
D02*
G37*
G36*
X-1219200Y-190526D02*
Y-312420D01*
X-1130634D01*
Y-290120D01*
X-1134084Y-263910D01*
X-1144201Y-239487D01*
X-1160294Y-218514D01*
X-1181267Y-202421D01*
X-1205690Y-192304D01*
X-1219200Y-190526D01*
D02*
G37*
G36*
X-1244600D02*
X-1258110Y-192304D01*
X-1282533Y-202421D01*
X-1303506Y-218514D01*
X-1319599Y-239487D01*
X-1329716Y-263910D01*
X-1333166Y-290120D01*
Y-312420D01*
X-1244600D01*
Y-190526D01*
D02*
G37*
G36*
X-1652202Y-202422D02*
X-1827601D01*
Y-447822D01*
X-1652202D01*
Y-202422D01*
D02*
G37*
G36*
X-1485901Y-201664D02*
X-1508795Y-204678D01*
X-1530129Y-213515D01*
X-1548449Y-227573D01*
X-1562506Y-245893D01*
X-1571343Y-267227D01*
X-1574357Y-290121D01*
Y-360121D01*
X-1571343Y-383015D01*
X-1562506Y-404349D01*
X-1548449Y-422669D01*
X-1530129Y-436727D01*
X-1508795Y-445564D01*
X-1485901Y-448578D01*
X-1463006Y-445564D01*
X-1441673Y-436727D01*
X-1423353Y-422669D01*
X-1409295Y-404349D01*
X-1400458Y-383015D01*
X-1397444Y-360121D01*
Y-290121D01*
X-1400458Y-267227D01*
X-1409295Y-245893D01*
X-1423353Y-227573D01*
X-1441673Y-213515D01*
X-1463006Y-204678D01*
X-1485901Y-201664D01*
D02*
G37*
G36*
X-1130634Y-337820D02*
X-1219200D01*
Y-459714D01*
X-1205690Y-457936D01*
X-1181267Y-447819D01*
X-1160294Y-431726D01*
X-1144201Y-410753D01*
X-1134084Y-386330D01*
X-1130634Y-360120D01*
Y-337820D01*
D02*
G37*
G36*
X-1244600D02*
X-1333166D01*
Y-360120D01*
X-1329716Y-386330D01*
X-1319599Y-410753D01*
X-1303506Y-431726D01*
X-1282533Y-447819D01*
X-1258110Y-457936D01*
X-1244600Y-459714D01*
Y-337820D01*
D02*
G37*
G36*
X3234892Y-1599598D02*
X3225918D01*
X3183103Y-1606380D01*
X3141876Y-1619775D01*
X3103251Y-1639455D01*
X3068181Y-1664935D01*
X3037529Y-1695587D01*
X3012049Y-1730657D01*
X2992369Y-1769281D01*
X2978973Y-1810508D01*
X2972192Y-1853323D01*
Y-1862299D01*
X3234892Y-1862299D01*
X3234892Y-1599598D01*
D02*
G37*
G36*
X-3225918D02*
X-3234892D01*
X-3234892Y-1862299D01*
X-2972192Y-1862299D01*
Y-1853323D01*
X-2978973Y-1810508D01*
X-2992369Y-1769281D01*
X-3012049Y-1730657D01*
X-3037529Y-1695587D01*
X-3068181Y-1664935D01*
X-3103251Y-1639455D01*
X-3141876Y-1619775D01*
X-3183103Y-1606380D01*
X-3225918Y-1599598D01*
D02*
G37*
G36*
X-3260292D02*
X-3269267D01*
X-3312082Y-1606380D01*
X-3353309Y-1619775D01*
X-3391933Y-1639455D01*
X-3427003Y-1664935D01*
X-3457656Y-1695587D01*
X-3483136Y-1730657D01*
X-3502815Y-1769282D01*
X-3516211Y-1810509D01*
X-3522992Y-1853324D01*
Y-1862299D01*
X-3260292Y-1862299D01*
X-3260292Y-1599598D01*
D02*
G37*
G36*
X3269267D02*
X3260292D01*
X3260292Y-1862299D01*
X3522992Y-1862299D01*
Y-1853324D01*
X3516211Y-1810509D01*
X3502815Y-1769282D01*
X3483136Y-1730657D01*
X3457656Y-1695587D01*
X3427004Y-1664935D01*
X3391934Y-1639455D01*
X3353309Y-1619775D01*
X3312082Y-1606380D01*
X3269267Y-1599598D01*
D02*
G37*
G36*
X3260292Y-1887699D02*
X3260292Y-2150398D01*
X3269267D01*
X3312082Y-2143617D01*
X3353309Y-2130222D01*
X3391933Y-2110542D01*
X3427003Y-2085062D01*
X3457656Y-2054410D01*
X3483136Y-2019340D01*
X3502815Y-1980715D01*
X3516211Y-1939488D01*
X3522992Y-1896673D01*
Y-1887699D01*
X3260292Y-1887699D01*
D02*
G37*
G36*
X2972192Y-1887699D02*
Y-1896673D01*
X2978973Y-1939488D01*
X2992369Y-1980715D01*
X3012049Y-2019339D01*
X3037529Y-2054409D01*
X3068181Y-2085062D01*
X3103251Y-2110542D01*
X3141875Y-2130222D01*
X3183102Y-2143617D01*
X3225917Y-2150398D01*
X3234892D01*
X3234892Y-1887699D01*
X2972192Y-1887699D01*
D02*
G37*
G36*
X-2972192D02*
X-3234892Y-1887699D01*
X-3234892Y-2150398D01*
X-3225917D01*
X-3183102Y-2143617D01*
X-3141875Y-2130222D01*
X-3103251Y-2110542D01*
X-3068181Y-2085062D01*
X-3037529Y-2054409D01*
X-3012049Y-2019339D01*
X-2992369Y-1980715D01*
X-2978973Y-1939488D01*
X-2972192Y-1896673D01*
Y-1887699D01*
D02*
G37*
G36*
X-3260292Y-1887699D02*
X-3522992Y-1887699D01*
Y-1896673D01*
X-3516211Y-1939488D01*
X-3502815Y-1980715D01*
X-3483136Y-2019339D01*
X-3457656Y-2054409D01*
X-3427003Y-2085062D01*
X-3391933Y-2110542D01*
X-3353309Y-2130222D01*
X-3312082Y-2143617D01*
X-3269267Y-2150398D01*
X-3260292D01*
X-3260292Y-1887699D01*
D02*
G37*
G36*
X139687Y-3451300D02*
X120313D01*
X102414Y-3458714D01*
X88714Y-3472414D01*
X81300Y-3490313D01*
Y-3509687D01*
X83169Y-3514199D01*
X65977Y-3547753D01*
X60851Y-3552300D01*
X-84600D01*
Y-3539600D01*
X-117300D01*
Y-3632500D01*
Y-3725400D01*
X-84600D01*
Y-3712700D01*
X97300D01*
Y-3712700D01*
X162700D01*
Y-3552300D01*
X162700Y-3552300D01*
X174761Y-3519196D01*
X178700Y-3509687D01*
Y-3490313D01*
X171286Y-3472414D01*
X157586Y-3458714D01*
X139687Y-3451300D01*
D02*
G37*
G36*
X-142700Y-3539600D02*
X-175400D01*
Y-3619800D01*
X-142700D01*
Y-3539600D01*
D02*
G37*
G36*
Y-3645200D02*
X-175400D01*
Y-3725400D01*
X-142700D01*
Y-3645200D01*
D02*
G37*
G36*
X6600Y-3792050D02*
X-31500Y-3792050D01*
X-117301D01*
Y-3900000D01*
Y-4007950D01*
X-31500D01*
X-9600Y-4007950D01*
X28500Y-4007950D01*
X114300D01*
Y-3900000D01*
Y-3792050D01*
X28500D01*
X6600Y-3792050D01*
D02*
G37*
G36*
X-250400Y-3792050D02*
X-250401Y-3792051D01*
X-257820Y-3797791D01*
X-288500Y-3808107D01*
X-294496Y-3803506D01*
X-311622Y-3796412D01*
X-317300Y-3795665D01*
Y-3900000D01*
Y-4004335D01*
X-311622Y-4003588D01*
X-294496Y-3996494D01*
X-288500Y-3991893D01*
X-257820Y-4002209D01*
X-250401Y-4007949D01*
X-250400Y-4007950D01*
X-249215Y-4007950D01*
X-142701D01*
Y-3900000D01*
Y-3792050D01*
X-249215D01*
X-250400Y-3792050D01*
D02*
G37*
G36*
X342700Y-3795665D02*
Y-3887300D01*
X401008D01*
Y-3865000D01*
X398588Y-3846622D01*
X391494Y-3829497D01*
X380210Y-3814790D01*
X365504Y-3803506D01*
X348378Y-3796412D01*
X342700Y-3795665D01*
D02*
G37*
G36*
X-342700D02*
X-348378Y-3796412D01*
X-365504Y-3803506D01*
X-380210Y-3814790D01*
X-391494Y-3829497D01*
X-398588Y-3846622D01*
X-401008Y-3865000D01*
Y-3887300D01*
X-342700D01*
Y-3795665D01*
D02*
G37*
G36*
X139700Y-3792050D02*
Y-3900000D01*
Y-4007950D01*
X247400D01*
Y-4005584D01*
X263879Y-3995219D01*
X285500Y-3989591D01*
X294496Y-3996494D01*
X311622Y-4003588D01*
X317300Y-4004335D01*
Y-3900000D01*
Y-3795665D01*
X311622Y-3796412D01*
X294496Y-3803506D01*
X285500Y-3810409D01*
X263879Y-3804782D01*
X247400Y-3794416D01*
Y-3792050D01*
X139700D01*
D02*
G37*
G36*
X401008Y-3912700D02*
X342700D01*
Y-4004335D01*
X348378Y-4003588D01*
X365504Y-3996494D01*
X380210Y-3985210D01*
X391494Y-3970504D01*
X398588Y-3953378D01*
X401008Y-3935000D01*
Y-3912700D01*
D02*
G37*
G36*
X-342700D02*
X-401008D01*
Y-3935000D01*
X-398588Y-3953378D01*
X-391494Y-3970504D01*
X-380210Y-3985210D01*
X-365504Y-3996494D01*
X-348378Y-4003588D01*
X-342700Y-4004335D01*
Y-3912700D01*
D02*
G37*
%LPD*%
D46*
X1573204Y2324868D02*
G03*
X917878Y2652825I-1573204J-2324868D01*
G01*
X1349998Y2338266D02*
G03*
X698811Y2607997I-1349998J-2338266D01*
G01*
X1126793Y2351664D02*
G03*
X479743Y2563169I-1126793J-2351664D01*
G01*
X2121318Y1838475D02*
G03*
X1573203Y2324868I-2121318J-1838475D01*
G01*
X1909186Y1909186D02*
G03*
X1349998Y2338266I-1909186J-1909186D01*
G01*
X1697054Y1979898D02*
G03*
X1126793Y2351664I-1697054J-1979898D01*
G01*
X2524868Y1226793D02*
G03*
X2121318Y1838475I-2524868J-1226793D01*
G01*
X2338266Y1349998D02*
G03*
X1909186Y1909186I-2338266J-1349998D01*
G01*
X2151664Y1473204D02*
G03*
X1697054Y1979897I-2151664J-1473204D01*
G01*
X2756353Y531507D02*
G03*
X2524868Y1226793I-2756353J-531507D01*
G01*
X2607997Y698811D02*
G03*
X2338266Y1349998I-2607997J-698811D01*
G01*
X2459641Y866115D02*
G03*
X2151664Y1473204I-2459641J-866115D01*
G01*
X2799997Y-200000D02*
G03*
X2756353Y531507I-2799997J200000D01*
G01*
X2699997Y0D02*
G03*
X2607997Y698810I-2699997J0D01*
G01*
X2599998Y200001D02*
G03*
X2459641Y866115I-2599998J-200001D01*
G01*
X2652825Y-917878D02*
G03*
X2799997Y-200000I-2652825J917878D01*
G01*
X2607997Y-698810D02*
G03*
X2699997Y0I-2607997J698810D01*
G01*
X2563169Y-479743D02*
G03*
X2599998Y200001I-2563169J479743D01*
G01*
X2324868Y-1573204D02*
G03*
X2652825Y-917878I-2324868J1573204D01*
G01*
X2338266Y-1349998D02*
G03*
X2607997Y-698811I-2338266J1349998D01*
G01*
X2351664Y-1126793D02*
G03*
X2563169Y-479743I-2351664J1126793D01*
G01*
X1838475Y-2121318D02*
G03*
X2324868Y-1573203I-1838475J2121318D01*
G01*
X1909186Y-1909186D02*
G03*
X2338266Y-1349998I-1909186J1909186D01*
G01*
X1979898Y-1697054D02*
G03*
X2351664Y-1126793I-1979898J1697054D01*
G01*
X1226793Y-2524868D02*
G03*
X1838475Y-2121318I-1226793J2524868D01*
G01*
X1349998Y-2338266D02*
G03*
X1909186Y-1909186I-1349998J2338266D01*
G01*
X1473204Y-2151664D02*
G03*
X1979897Y-1697054I-1473204J2151664D01*
G01*
X531507Y-2756353D02*
G03*
X1226793Y-2524868I-531507J2756353D01*
G01*
X698811Y-2607997D02*
G03*
X1349998Y-2338266I-698811J2607997D01*
G01*
X866115Y-2459641D02*
G03*
X1473204Y-2151664I-866115J2459641D01*
G01*
X-200000Y-2799997D02*
G03*
X531507Y-2756353I200000J2799997D01*
G01*
X0Y-2699997D02*
G03*
X698810Y-2607997I0J2699997D01*
G01*
X200001Y-2599998D02*
G03*
X866115Y-2459641I-200001J2599998D01*
G01*
X-917878Y-2652825D02*
G03*
X-200000Y-2799997I917878J2652825D01*
G01*
X-698810Y-2607997D02*
G03*
X0Y-2699997I698810J2607997D01*
G01*
X-479743Y-2563169D02*
G03*
X200001Y-2599998I479743J2563169D01*
G01*
X-1573204Y-2324868D02*
G03*
X-917878Y-2652825I1573204J2324868D01*
G01*
X-1349998Y-2338266D02*
G03*
X-698811Y-2607997I1349998J2338266D01*
G01*
X-1126793Y-2351664D02*
G03*
X-479743Y-2563169I1126793J2351664D01*
G01*
X-2121318Y-1838475D02*
G03*
X-1573203Y-2324868I2121318J1838475D01*
G01*
X-1909186Y-1909186D02*
G03*
X-1349998Y-2338266I1909186J1909186D01*
G01*
X-1697054Y-1979898D02*
G03*
X-1126793Y-2351664I1697054J1979898D01*
G01*
X-2524868Y-1226793D02*
G03*
X-2121318Y-1838475I2524868J1226793D01*
G01*
X-2338266Y-1349998D02*
G03*
X-1909186Y-1909186I2338266J1349998D01*
G01*
X-2151664Y-1473204D02*
G03*
X-1697054Y-1979897I2151664J1473204D01*
G01*
X-2756353Y-531507D02*
G03*
X-2524868Y-1226793I2756353J531507D01*
G01*
X-2607997Y-698811D02*
G03*
X-2338266Y-1349998I2607997J698811D01*
G01*
X-2459641Y-866115D02*
G03*
X-2151664Y-1473204I2459641J866115D01*
G01*
X-2799997Y200000D02*
G03*
X-2756353Y-531507I2799997J-200000D01*
G01*
X-2699997Y0D02*
G03*
X-2607997Y-698810I2699997J0D01*
G01*
X-2599998Y-200001D02*
G03*
X-2459641Y-866115I2599998J200001D01*
G01*
X-2652825Y917878D02*
G03*
X-2799997Y200000I2652825J-917878D01*
G01*
X-2607997Y698810D02*
G03*
X-2699997Y0I2607997J-698810D01*
G01*
X-2563169Y479743D02*
G03*
X-2599998Y-200001I2563169J-479743D01*
G01*
X-2324868Y1573204D02*
G03*
X-2652825Y917878I2324868J-1573204D01*
G01*
X-2338266Y1349998D02*
G03*
X-2607997Y698811I2338266J-1349998D01*
G01*
X-2351664Y1126793D02*
G03*
X-2563169Y479743I2351664J-1126793D01*
G01*
X-1838475Y2121318D02*
G03*
X-2324868Y1573203I1838475J-2121318D01*
G01*
X-1909186Y1909186D02*
G03*
X-2338266Y1349998I1909186J-1909186D01*
G01*
X-1979898Y1697054D02*
G03*
X-2351664Y1126793I1979898J-1697054D01*
G01*
X-1226793Y2524868D02*
G03*
X-1838475Y2121318I1226793J-2524868D01*
G01*
X-1349998Y2338266D02*
G03*
X-1909186Y1909186I1349998J-2338266D01*
G01*
X-1473204Y2151664D02*
G03*
X-1979897Y1697054I1473204J-2151664D01*
G01*
X-866115Y2459641D02*
G03*
X-1473204Y2151664I866115J-2459641D01*
G01*
X-698811Y2607997D02*
G03*
X-1349998Y2338266I698811J-2607997D01*
G01*
X-531507Y2756353D02*
G03*
X-1226793Y2524868I531507J-2756353D01*
G01*
D47*
X330000Y-3900000D02*
D03*
X-330000D02*
D03*
D48*
X-1739902Y-325122D02*
D03*
D49*
X-1485901Y-325121D02*
D03*
X-1231900Y-325120D02*
D03*
D50*
X0Y0D02*
D03*
D51*
X-1587499Y1793240D02*
D03*
X-1587500Y1285240D02*
D03*
Y1539241D02*
D03*
D52*
X-1587500Y1031240D02*
D03*
D53*
X3247592Y-1874998D02*
D03*
X0Y3749997D02*
D03*
X-3247592Y-1874998D02*
D03*
D54*
X130000Y-3500000D02*
D03*
X1126793Y2351664D02*
D03*
X1349998Y2338266D02*
D03*
X1573204Y2324868D02*
D03*
X2563168Y-479744D02*
D03*
X2607997Y-698811D02*
D03*
X2652826Y-917878D02*
D03*
X1979897Y-1697054D02*
D03*
X1909186Y-1909186D02*
D03*
X1838475Y-2121318D02*
D03*
X1473204Y-2151663D02*
D03*
X1349998Y-2338266D02*
D03*
X1226793Y-2524868D02*
D03*
X200000Y-2599997D02*
D03*
X0Y-2699997D02*
D03*
X-200000Y-2799997D02*
D03*
X-479744Y-2563168D02*
D03*
X-698811Y-2607997D02*
D03*
X-917878Y-2652826D02*
D03*
X-1126793Y-2351664D02*
D03*
X-2600001Y-200000D02*
D03*
X-2700000Y0D02*
D03*
X-2800000Y200000D02*
D03*
X-1473204Y2151664D02*
D03*
X-1349998Y2338266D02*
D03*
X-1226793Y2524868D02*
D03*
X-2563169Y479744D02*
D03*
X-2607997Y698811D02*
D03*
X-2652826Y917878D02*
D03*
X-2324868Y1573204D02*
D03*
X-2338266Y1349998D02*
D03*
X-2351664Y1126794D02*
D03*
X-531507Y2756353D02*
D03*
X-698811Y2607997D02*
D03*
X-1838475Y2121318D02*
D03*
X-1909186Y1909186D02*
D03*
X-1979897Y1697054D02*
D03*
X-866115Y2459641D02*
D03*
X917878Y2652826D02*
D03*
X698811Y2607997D02*
D03*
X479744Y2563169D02*
D03*
X2121318Y1838475D02*
D03*
X1909186Y1909186D02*
D03*
X1697054Y1979897D02*
D03*
X2524868Y1226793D02*
D03*
X2338266Y1349998D02*
D03*
X2151663Y1473204D02*
D03*
X2756353Y531507D02*
D03*
X2607997Y698811D02*
D03*
X2459640Y866115D02*
D03*
X2800000Y-200000D02*
D03*
X2700000Y0D02*
D03*
X2600000Y200001D02*
D03*
X531507Y-2756353D02*
D03*
X698811Y-2607997D02*
D03*
X866114Y-2459640D02*
D03*
X-1573204Y-2324868D02*
D03*
X-1349999Y-2338266D02*
D03*
X-2121318Y-1838475D02*
D03*
X-1909186Y-1909186D02*
D03*
X-1697054Y-1979897D02*
D03*
X-2756353Y-531507D02*
D03*
X-2607997Y-698810D02*
D03*
X-2459640Y-866114D02*
D03*
D55*
X127000Y-3900000D02*
D03*
X-130000Y-3900000D02*
D03*
D56*
X130000Y-3632500D02*
D03*
X65000Y-3632500D02*
D03*
X0D02*
D03*
X-65000D02*
D03*
X-130000D02*
D03*
D57*
X130000Y-3632500D02*
Y-3500000D01*
%TF.MD5,0d688f8da0327d457d99499d90c3d875*%
M02*
